<svg width="238" height="120" viewBox="0 0 238 120" fill="none" xmlns="http://www.w3.org/2000/svg">
<path d="M45.1172 44.6612V34.4141H46.8696V42.9714H49.8762V44.6633H45.1172V44.6612Z" fill="#BC0123"/>
<path d="M54.9272 34.2969C57.8653 34.2969 60.1513 36.6303 60.1513 39.54C60.1513 42.4497 57.7635 44.7811 54.9272 44.7811C52.0909 44.7811 49.7031 42.5498 49.7031 39.54C49.7031 36.5302 51.9892 34.2969 54.9272 34.2969ZM54.9272 43.0749C56.9371 43.0749 58.3636 41.5016 58.3636 39.54C58.3636 37.5784 56.9891 36.0051 54.9272 36.0051C52.8654 36.0051 51.4909 37.6111 51.4909 39.54C51.4909 41.4689 52.9173 43.0749 54.9272 43.0749Z" fill="#BC0123"/>
<path d="M68.9815 37.5416C68.3108 36.6119 67.3329 36.003 66.06 36.003C63.9982 36.003 62.6237 37.6091 62.6237 39.538C62.6237 41.4668 64.0501 43.0729 66.06 43.0729C66.8158 43.0729 67.5031 42.8522 68.1219 42.4987L68.9462 43.9351C68.1738 44.4582 67.1418 44.7811 66.06 44.7811C63.0867 44.7811 60.8359 42.5498 60.8359 39.54C60.8359 36.5302 63.122 34.2969 66.06 34.2969C67.6402 34.2969 69.3241 34.9896 70.4079 36.5956L68.9815 37.5437V37.5416Z" fill="#BC0123"/>
<path d="M69.0488 44.6612L74.5304 34.4141H76.2662L78.5336 44.6612H76.7646L76.2662 42.3789H72.1073L70.9051 44.6612H69.0488ZM72.9669 40.7217H75.905L75.0453 36.7823L72.9669 40.7217Z" fill="#BC0123"/>
<path d="M80.5092 44.6633V36.1059H77.9844V34.4141H85.6835V36.1059H82.2637V44.6633H80.5113H80.5092Z" fill="#BC0123"/>
<path d="M86.541 44.6612V34.4141H88.2935V44.6612H86.541Z" fill="#BC0123"/>
<path d="M94.7182 34.2969C97.6563 34.2969 99.9424 36.6303 99.9424 39.54C99.9424 42.4497 97.5545 44.7811 94.7182 44.7811C91.8819 44.7811 89.4941 42.5498 89.4941 39.54C89.4941 36.5302 91.7802 34.2969 94.7182 34.2969ZM94.7182 43.0749C96.7282 43.0749 98.1546 41.5016 98.1546 39.54C98.1546 37.5784 96.7801 36.0051 94.7182 36.0051C92.6564 36.0051 91.2819 37.6111 91.2819 39.54C91.2819 41.4689 92.7083 43.0749 94.7182 43.0749Z" fill="#BC0123"/>
<path d="M107.808 44.6612L102.86 37.4075V44.6612H101.143V34.4141H102.895L107.774 41.6004V34.4141H109.494V44.6612H107.81H107.808Z" fill="#BC0123"/>
<path d="M142.908 89.3304C142.868 89.216 142.827 89.0955 142.787 88.9851C142.756 88.8891 142.721 88.7931 142.686 88.7011C142.623 88.5315 142.561 88.3742 142.499 88.2128C141.865 86.6333 141.062 85.1396 140.109 83.7522C140.003 83.599 139.895 83.4416 139.785 83.2945C139.762 83.2516 139.731 83.2169 139.704 83.1801C139.496 82.9002 139.282 82.6223 139.06 82.3505C137.358 80.2337 135.292 78.4151 132.95 76.993C132.927 76.9766 132.906 76.9623 132.883 76.9501C132.723 76.854 132.563 76.758 132.399 76.666C132.088 76.4862 131.77 76.3085 131.45 76.143C131.322 76.0776 131.189 76.0122 131.056 75.9427C131.025 75.9305 130.998 75.9161 130.967 75.8998C130.825 75.8344 130.682 75.7649 130.541 75.6996C130.08 75.485 129.611 75.2889 129.135 75.107C126.48 74.0853 123.593 73.5234 120.572 73.5234C107.558 73.5234 97.0078 83.9055 97.0078 96.7129C97.0078 109.52 107.558 119.898 120.572 119.898C122.138 119.898 123.664 119.737 125.145 119.453C125.184 119.445 125.219 119.437 125.255 119.43C128.296 118.828 131.126 117.647 133.618 116.01C133.626 116.006 133.635 115.998 133.641 115.994C134.146 115.663 134.638 115.313 135.113 114.945C135.308 114.796 135.499 114.639 135.69 114.479C135.788 114.402 135.881 114.322 135.975 114.24C136.147 114.095 136.317 113.948 136.486 113.799C136.716 113.591 136.942 113.376 137.165 113.162C137.285 113.043 137.399 112.922 137.515 112.804C137.671 112.647 137.827 112.485 137.981 112.32C138.078 112.211 138.18 112.105 138.277 111.993C138.52 111.719 138.761 111.443 138.992 111.163C139.222 110.875 139.444 110.583 139.662 110.287C139.712 110.217 139.764 110.144 139.814 110.076C139.982 109.837 140.15 109.6 140.31 109.357C140.358 109.287 140.404 109.212 140.451 109.138C140.624 108.877 140.788 108.607 140.948 108.339C140.975 108.292 141.002 108.251 141.029 108.204C141.614 107.197 142.123 106.149 142.551 105.054C142.551 105.054 142.551 105.05 142.555 105.046C143.566 102.459 144.129 99.6512 144.129 96.7109C144.129 94.1281 143.699 91.6455 142.906 89.3264L142.908 89.3304ZM120.554 107.054C115.055 107.046 110.07 102.72 110.081 96.6904C110.089 90.9181 114.786 86.3922 120.564 86.3881H120.604C126.664 86.4065 131.118 91.2798 131.068 96.7436C131.081 102.451 126.309 107.06 120.554 107.054Z" fill="#BC0123"/>
<path d="M237.028 93.6983C237.011 93.4225 236.992 93.1487 236.965 92.8769C235.9 81.0687 225.822 71.8125 213.544 71.8125C206.312 71.8125 199.842 75.0246 195.528 80.0736C195.382 80.2391 195.243 80.4087 195.106 80.5803C194.965 80.754 194.826 80.9297 194.693 81.1075C194.583 81.2567 194.471 81.4079 194.361 81.557C194.251 81.7103 194.147 81.8615 194.041 82.0147C193.931 82.168 193.827 82.3253 193.729 82.4826C193.632 82.6277 193.538 82.7789 193.445 82.9281C193.366 83.0548 193.289 83.1896 193.21 83.3204C193.14 83.4348 193.073 83.5472 193.011 83.6616C192.843 83.962 192.679 84.2603 192.523 84.5648C192.39 84.8263 192.266 85.0878 192.141 85.3535C191.929 85.8112 191.732 86.2791 191.556 86.7531C191.477 86.9452 191.404 87.1455 191.338 87.3416C191.325 87.3682 191.315 87.3947 191.306 87.4254C191.252 87.5786 191.2 87.736 191.151 87.8933C191.107 88.0159 191.072 88.1426 191.034 88.2693C190.985 88.4348 190.937 88.5962 190.887 88.7617C190.839 88.9313 190.794 89.0989 190.754 89.2685C190.737 89.3175 190.727 89.3727 190.715 89.4258C190.661 89.6485 190.605 89.8712 190.559 90.0939C190.524 90.2472 190.492 90.4004 190.465 90.5516C190.414 90.8214 190.366 91.0931 190.322 91.3669C190.133 92.5377 190.027 93.7351 190.027 94.9591C190.027 107.744 200.559 118.108 213.55 118.108C215.006 118.108 216.432 117.969 217.817 117.719C217.821 117.719 217.83 117.719 217.836 117.715C217.929 117.699 218.023 117.681 218.114 117.666C218.305 117.632 218.5 117.593 218.691 117.552C218.801 117.529 218.909 117.505 219.015 117.478C219.339 117.405 219.663 117.325 219.979 117.237C219.983 117.237 219.987 117.233 219.987 117.233C220.732 117.023 221.459 116.78 222.173 116.504C222.284 116.465 222.387 116.424 222.497 116.377C222.52 116.365 222.547 116.359 222.572 116.346C222.736 116.277 222.9 116.207 223.064 116.136C223.619 115.897 224.165 115.633 224.696 115.347C224.873 115.255 225.047 115.159 225.219 115.063C225.255 115.045 225.294 115.024 225.33 115.002C225.494 114.91 225.658 114.814 225.822 114.714C230.336 111.99 233.847 107.809 235.674 102.84C235.674 102.822 235.674 102.797 235.67 102.779C235.493 102.666 235.319 102.709 235.155 102.709C230.462 102.709 225.768 102.713 221.075 102.701C220.685 102.701 220.384 102.809 220.076 103.042C217.695 104.853 215.008 105.594 212.024 105.137C208.646 104.618 206.127 102.838 204.41 99.9447C204.336 99.818 204.273 99.6873 204.228 99.5524C204.188 99.4482 204.232 99.3562 204.352 99.3522C204.595 99.3399 204.84 99.3358 205.083 99.3358H235.738C235.933 99.3358 236.129 99.3399 236.324 99.3358C236.5 99.3317 236.602 99.3195 236.664 99.2663C236.793 98.6023 236.891 97.9259 236.957 97.2414C237.032 96.4915 237.071 95.7273 237.071 94.9591C237.071 94.5361 237.059 94.1172 237.036 93.6983H237.028ZM221.939 89.6322C216.395 89.6322 210.849 89.6322 205.301 89.624C205.102 89.624 204.817 89.7507 204.715 89.5157C204.641 89.3461 204.857 89.1785 204.969 89.0233C206.703 86.6448 209.026 85.1798 211.979 84.7201C216.117 84.0744 220.112 85.9297 222.323 89.2051C222.389 89.3011 222.437 89.4094 222.562 89.6322H221.941H221.939Z" fill="#BC0123"/>
<path d="M95.9901 107.886C95.9901 111.609 95.9901 115.334 95.986 119.053C95.986 119.319 95.9673 119.58 95.9548 119.844H82.4565C82.3672 119.635 82.4066 119.417 82.4066 119.202C82.4108 118.072 82.4232 116.942 82.4295 115.808C82.4648 110.637 82.5001 105.463 82.5312 100.291C82.5582 96.1762 82.5852 92.0651 82.6101 87.9498C82.6101 87.7578 82.6143 87.5657 82.5976 87.3736C82.4772 85.8943 81.1961 84.6806 79.6928 84.6152C78.2747 84.5539 77.033 85.4366 76.597 86.8015C76.4371 87.2939 76.4454 87.7966 76.4454 88.2993V119.844H62.947C62.9512 117.919 62.9512 115.994 62.9636 114.067C63.0031 107.839 63.0446 101.605 63.0799 95.3732C63.1277 88.1297 63.1692 80.8902 63.2128 73.6467C63.2211 72.2981 63.2522 70.9536 63.2169 69.6051C63.1816 68.2095 62.104 67.0387 60.7648 66.8507C58.9646 66.5932 57.9098 67.7375 57.5277 68.7612C57.3512 69.227 57.3409 69.7031 57.3367 70.1833C57.318 72.7579 57.2869 75.3324 57.2703 77.907C57.2267 86.0639 57.1914 94.2228 57.1498 102.376C57.1332 105.649 57.1104 108.92 57.0958 112.194C57.0875 114.746 57.0834 117.294 57.0792 119.844H43.4355C43.4272 117.557 43.423 115.275 43.4085 112.989C43.3587 107.145 43.2985 101.295 43.2445 95.4508C43.1946 89.5559 43.1386 83.665 43.0846 77.7701C43.0659 75.3876 43.0182 73.0051 43.0099 70.6267C42.987 63.3403 47.5944 56.8507 54.5606 54.4887C64.5728 51.0886 74.749 57.0408 77.0642 66.5462C77.5604 68.5834 77.6352 70.6349 77.4005 72.7068C77.3922 72.7558 77.3818 72.8028 77.3777 72.8519C77.3548 72.9949 77.4088 73.0868 77.5646 73.0868C77.7826 73.0868 78.0027 73.0705 78.2207 73.0644C83.7272 72.8539 88.345 74.8175 92.18 78.6324C93.8037 80.2507 94.952 82.1632 95.5645 84.3741C95.6974 84.8583 95.795 85.3426 95.8573 85.835C94.3374 89.1595 93.4944 92.8436 93.4944 96.7177C93.4944 100.592 94.3893 104.49 95.9943 107.888L95.9901 107.886Z" fill="#BC0123"/>
<path d="M189.478 117.103C189.483 99.4385 189.483 81.7741 189.483 64.1139C189.483 60.5524 189.478 56.9888 189.483 53.4274C189.483 52.6386 189.474 52.7286 188.764 52.7245H175.926C175.754 52.7245 175.586 52.7204 175.415 52.7245C175.114 52.7367 175.069 52.7776 175.06 53.0555C175.052 53.2476 175.056 53.4437 175.056 53.6358V60.2765C175.052 63.934 175.052 67.5936 175.044 71.2511C175.044 71.4861 175.093 71.7272 174.959 71.9969C173.308 71.6005 171.64 71.2634 169.925 71.1551C168.208 71.0468 166.506 71.1203 164.807 71.3635C163.113 71.6046 161.46 72.0439 159.859 72.6549C158.24 73.2781 156.703 74.0648 155.256 75.021C153.832 75.963 152.526 77.0459 151.336 78.2678C150.148 79.4897 149.11 80.824 148.219 82.2727C147.231 83.8747 146.458 85.5665 145.908 87.3074C145.931 87.3728 145.956 87.4382 145.983 87.5077C146.031 87.6303 146.076 87.761 146.12 87.8918C146.12 87.8918 146.213 88.1574 146.245 88.2494C147.175 90.967 147.646 93.8215 147.646 96.723C147.646 99.0217 147.349 101.288 146.76 103.494C147.266 104.647 147.872 105.765 148.578 106.837C151.049 110.585 154.342 113.423 158.462 115.295C163.804 117.72 169.33 118.039 174.975 116.543C175.091 116.809 175.042 117.05 175.046 117.289C175.058 118.188 174.956 118.108 175.866 118.108C180.07 118.108 184.277 118.112 188.482 118.104C189.613 118.104 189.481 118.288 189.481 117.109L189.478 117.103ZM168.381 104.608C162.594 104.626 157.88 100.009 157.853 94.3139C157.826 88.8501 162.23 83.9768 168.295 83.938C174.361 83.8992 178.823 88.7643 178.862 94.1933C178.901 99.8186 174.263 104.596 168.383 104.606L168.381 104.608Z" fill="#BC0123"/>
<path d="M157.065 21.8056C157.073 21.6768 157.09 21.5338 157.09 21.3928C157.084 20.837 157.111 20.8595 157.677 20.8595C162.079 20.8595 166.479 20.8595 170.881 20.8595C170.954 20.8595 171.028 20.8595 171.101 20.8595C171.46 20.8718 171.487 20.8942 171.5 21.2171C171.506 21.3846 171.502 21.5542 171.502 21.7218C171.502 36.8586 171.502 51.9933 171.502 67.1301C171.502 67.3222 171.498 67.5143 171.498 67.7084C171.498 67.8923 171.388 67.9577 171.219 67.9577C171.049 67.9577 170.877 67.9618 170.707 67.9618C166.427 67.9618 162.15 67.9618 157.871 67.9618C157.723 67.9618 157.578 67.9638 157.43 67.9597C157.127 67.9495 157.104 67.927 157.096 67.6185C157.088 67.2364 157.088 66.8543 157.086 66.4845C156.814 66.3986 156.606 66.4926 156.398 66.5478C154.258 67.1077 152.078 67.3672 149.868 67.31C138.795 67.028 130.122 59.5004 127.614 50.0236C126.935 47.4592 126.702 44.854 126.931 42.2243C127.786 32.3 134.688 24.8031 143.045 22.1243C146.015 21.1721 149.052 20.8289 152.156 21.0332C153.645 21.1313 155.113 21.3908 156.558 21.7708C156.72 21.8137 156.874 21.9057 157.071 21.8056H157.065ZM139.891 44.1225C139.85 49.6701 144.391 54.4106 150.271 54.4821C155.919 54.5516 160.856 50.1217 160.885 44.2043C160.917 38.1132 155.834 33.8386 150.464 33.8059C144.76 33.7711 139.883 38.3318 139.893 44.1225H139.891Z" fill="#BC0123"/>
<path d="M109.878 0.736599C109.998 0.744772 110.121 0.761119 110.241 0.761119C114.844 0.761119 119.445 0.759075 124.047 0.757032C124.061 0.996099 124.086 1.23517 124.086 1.47423C124.086 23.3907 124.086 45.3072 124.086 67.2237C124.086 68.1146 124.178 68.0329 123.26 68.0329C119.055 68.0329 114.851 68.0329 110.646 68.0329C110.451 68.0329 110.256 68.0329 110.06 68.0267C109.905 68.0206 109.832 67.9348 109.863 67.7979C109.89 67.6814 109.93 67.567 109.965 67.4526C111.076 63.8359 111.906 60.1559 112.527 56.4269C112.951 53.887 113.291 51.339 113.553 48.7767C113.846 45.9039 114.032 43.0248 114.157 40.1397C114.298 36.8684 114.296 33.597 114.221 30.3257C114.159 27.6571 114.012 24.9886 113.783 22.3282C113.416 18.0373 112.863 13.7688 112.027 9.5412C111.487 6.80317 110.827 4.09375 110 1.42315C109.932 1.20043 109.782 0.985882 109.871 0.730469L109.878 0.736599Z" fill="#BC0123"/>
<path d="M44.3764 21.9745C44.2788 21.9704 44.1812 21.9745 44.0837 21.9745H31.0255C30.8801 21.9745 30.7327 21.9745 30.5873 21.9826C30.4462 21.9867 30.3693 22.0603 30.3486 22.2013C30.3133 22.4506 30.415 22.7244 30.2593 22.9859C30.1036 22.9471 29.9624 22.9205 29.8212 22.8817C28.403 22.5098 26.96 22.2524 25.494 22.1482C22.338 21.9336 19.2504 22.2708 16.2397 23.2556C7.27402 26.1878 1.04703 34.1076 0.218568 43.0409C0.00470372 45.3887 0.108521 47.7099 0.60477 50.0045C1.60142 54.6265 3.81482 58.6109 7.27403 61.8904C11.6717 66.0567 16.954 68.2083 23.046 68.4229C25.2553 68.5005 27.4396 68.2267 29.5824 67.6853C29.8129 67.628 30.0392 67.5238 30.2863 67.577C30.305 67.626 30.334 67.673 30.3361 67.72C30.3403 67.9345 30.3444 68.1532 30.3444 68.3698C30.3486 69.1033 30.2697 69.0727 31.0587 69.0686H39.5468C39.7461 66.351 40.4833 63.7539 41.6709 61.4021C41.2951 60.0147 41.0106 58.6089 40.7802 57.1868C40.2175 53.7867 39.9517 50.358 39.8811 46.9151C39.8022 43.1063 39.9662 39.314 40.4355 35.5338C40.7096 33.3087 41.0875 31.108 41.6585 28.9401C42.0218 27.569 42.4558 26.2164 43.0828 24.9291C43.4649 24.1445 43.8947 23.3966 44.5238 22.7693C44.5903 22.6998 44.665 22.6304 44.7066 22.5507C44.8747 22.2462 44.7232 21.9888 44.3702 21.9786L44.3764 21.9745ZM23.5796 55.5889C17.5146 55.5419 13.1148 50.6196 13.1501 45.2028C13.1896 39.4958 17.9652 34.8616 23.6897 34.9311C29.2647 34.8922 34.1587 39.408 34.1545 45.2722C34.1504 50.8832 29.5284 55.6318 23.5796 55.5889Z" fill="#BC0123"/>
</svg>
