<svg width="84" height="84" viewBox="0 0 84 84" fill="none" xmlns="http://www.w3.org/2000/svg">
<path d="M18 0C8.08297 0 0 8.08297 0 18V66C0 75.917 8.08297 84 18 84H66C75.917 84 84 75.917 84 66V18C84 8.08297 75.917 0 66 0H18ZM18 4H66C73.755 4 80 10.245 80 18V66C80 73.755 73.755 80 66 80H18C10.245 80 4 73.755 4 66V18C4 10.245 10.245 4 18 4ZM59.1211 14.0039C58.9007 13.9929 58.6747 14.0086 58.4492 14.0508H58.4453L33.2617 18.7734C31.3834 19.1269 30 20.7942 30 22.707V49.9727C29.9999 49.9818 29.9999 49.9909 30 50C30 52.2333 28.2333 54 26 54H22.3398C18.0935 54 14.2414 57.1883 14.0117 61.5742C13.7738 66.1476 17.4642 70 22 70H23C29.0512 70 34 65.0512 34 59V50V32.9102L58 28.4102V44C58 46.2333 56.2333 48 54 48H50.3398C46.0935 48 42.2414 51.1883 42.0117 55.5742C41.7738 60.1476 45.4642 64 50 64H51C57.0512 64 62 59.0512 62 53V44V17C62 15.3949 60.6639 14.0811 59.1211 14.0039ZM58 18.207V24.3398L34 28.8398V22.707L58 18.207ZM58 50.7617V53C58 56.8888 54.8888 60 51 60H50C47.6958 60 45.8818 58.1279 46.0039 55.7812C46.1142 53.6752 48.0902 52 50.3398 52H54C55.4853 52 56.8037 51.4767 58 50.7617ZM30 56.7617V59C30 62.8888 26.8888 66 23 66H22C19.6958 66 17.8818 64.1279 18.0039 61.7812C18.1142 59.6752 20.0902 58 22.3398 58H26C27.4853 58 28.8037 57.4767 30 56.7617Z" fill="white"/>
</svg>
