<?xml version="1.0" encoding="UTF-8"?>
<svg id="Layer_2" data-name="Layer 2" xmlns="http://www.w3.org/2000/svg" viewBox="0 0 272.27 322.65">
  <defs>
    <style>
      .cls-1 {
        fill: #bc0123;
        stroke-width: 0px;
      }
    </style>
  </defs>
  <g id="Layer_1-2" data-name="Layer 1">
    <path class="cls-1" d="m57.65,77.06C73.01,21.2,95.12-.2,136.5,0c40.77.2,62.63,21.6,76.67,75.01,44.7,8.16,44.88,8.85,47.83,53.99,3.27,50.15,7.91,100.22,10.89,150.38,2.19,36.88-4.2,42.96-41.92,43.09-63,.22-125.99.24-188.99-.01-35.65-.15-42.68-6.79-40.66-41.42,3.31-57.06,8.14-114.02,11.79-171.06,1.92-30.11,23.31-32.44,45.54-32.91Zm28.48-1.16h100.16c-5.68-36.15-21.78-52.25-50.31-52.19-28.56.06-44.66,16.36-49.85,52.19Z"/>
  </g>
</svg>