<svg width="161" height="241" viewBox="0 0 161 241" fill="none" xmlns="http://www.w3.org/2000/svg">
<path fill-rule="evenodd" clip-rule="evenodd" d="M2.04195 3.50564C1.21319 2.1734 2.17119 0.449219 3.74017 0.449219L156.418 0.449232C157.987 0.449232 158.945 2.17342 158.116 3.50566L83.9174 122.782C83.7202 123.099 83.6156 123.465 83.6156 123.839L83.6156 232.516C83.6156 233.62 82.7202 234.516 81.6156 234.516H78.6156C77.511 234.516 76.6156 233.62 76.6156 232.516L76.6156 123.956C76.6156 123.583 76.5111 123.217 76.3138 122.9L2.04195 3.50564ZM16.3386 7.44922C14.7696 7.44922 13.8116 9.1734 14.6404 10.5056L24.3967 26.1892C24.7617 26.776 25.4039 27.1328 26.0949 27.1328H134.063C134.754 27.1328 135.396 26.776 135.761 26.1892L145.518 10.5057C146.346 9.17341 145.388 7.44923 143.82 7.44923L16.3386 7.44922Z" fill="white"/>
<ellipse cx="80.0781" cy="228.488" rx="35.9785" ry="11.8594" fill="white"/>
</svg>
