<?xml version="1.0" encoding="UTF-8"?>
<svg id="Layer_2" data-name="Layer 2" xmlns="http://www.w3.org/2000/svg" viewBox="0 0 1548.51 394.16">
  <defs>
    <style>
      .cls-1 {
        fill: #fff;
        stroke-width: 0px;
      }
    </style>
  </defs>
  <g id="Layer_1-2" data-name="Layer 1">
    <path class="cls-1" d="m1118.96,1.91c-5.5,6.55-10.92,13.09-16.42,19.56-36.06,42.49-72.52,84.65-108.06,127.54-21.6,26.06-32.41,56.18-30.68,90.67,1.65,33.01,1.89,66.06,2.93,99.07.52,18.19,4.38,22.85,22.05,26.38,17.27,3.45,34.29,8.27,51.96,10,3.69.36,9.08,1.2,9.04,6.14,0,1.29-.28,2.17-.76,2.85h-189.78c-.48-.68-.76-1.57-.76-2.85-.04-4.94,5.34-5.78,9.04-6.14,17.67-1.73,34.7-6.55,51.96-10,17.67-3.53,21.52-8.19,22.05-26.38,1.04-33.01,1.29-66.06,2.93-99.07,1.73-34.49-9.08-64.61-30.68-90.67-35.54-42.89-72-85.05-108.06-127.54-5.5-6.47-10.92-13.01-16.42-19.56-.36-.48-.04-1.29.28-1.61.28-.28,1.33-.44,1.61-.16,5.86,6.1,11.73,12.17,17.55,18.27,38.03,39.8,75.82,79.83,114.2,119.26,10.2,10.44,20.72,15.82,31.2,16.22,10.48-.4,21-5.78,31.2-16.22,38.39-39.43,76.18-79.47,114.2-119.26,5.82-6.1,11.69-12.17,17.55-18.27.28-.28,1.33-.12,1.61.16.32.32.64,1.12.28,1.61Z"/>
    <path class="cls-1" d="m724.4,1.91c-5.5,6.55-10.92,13.09-16.42,19.56-36.06,42.49-72.52,84.65-108.06,127.54-21.6,26.06-32.41,56.18-30.68,90.67,1.65,33.01,1.89,66.06,2.93,99.07.52,18.19,4.38,22.85,22.05,26.38,17.27,3.45,34.29,8.27,51.96,10,3.69.36,9.08,1.2,9.04,6.14,0,1.29-.28,2.17-.76,2.85h-189.78c-.48-.68-.76-1.57-.76-2.85-.04-4.94,5.34-5.78,9.04-6.14,17.67-1.73,34.7-6.55,51.96-10,17.67-3.53,21.52-8.19,22.05-26.38,1.04-33.01,1.29-66.06,2.93-99.07,1.73-34.49-9.08-64.61-30.68-90.67-35.54-42.89-72-85.05-108.06-127.54-5.5-6.47-10.92-13.01-16.42-19.56-.36-.48-.04-1.29.28-1.61.28-.28,1.33-.44,1.61-.16,5.86,6.1,11.73,12.17,17.55,18.27,38.03,39.8,75.82,79.83,114.2,119.26,10.2,10.44,20.72,15.82,31.2,16.22,10.48-.4,21-5.78,31.2-16.22,38.39-39.43,76.18-79.47,114.2-119.26,5.82-6.1,11.69-12.17,17.55-18.27.28-.28,1.33-.12,1.61.16.32.32.64,1.12.28,1.61Z"/>
    <path class="cls-1" d="m329.84,11.95c-5.5,6.55-10.92,13.09-16.42,19.56-36.06,42.49-72.52,84.65-108.06,127.54-21.6,26.06-32.41,56.18-30.68,90.67,1.65,33.01,1.89,66.06,2.93,99.07.52,18.19,4.38,22.85,22.05,26.38,17.27,3.45,34.29,8.27,51.96,10,3.69.36,9.08,1.2,9.04,6.14,0,1.29-.28,2.17-.76,2.85H70.11c-.48-.68-.76-1.57-.76-2.85-.04-4.94,5.34-5.78,9.04-6.14,17.67-1.73,34.7-6.55,51.96-10,17.67-3.53,21.52-8.19,22.05-26.38,1.04-33.01,1.29-66.06,2.93-99.07,1.73-34.49-9.08-64.61-30.68-90.67C89.11,116.15,52.64,73.99,16.58,31.5,11.08,25.04,5.66,18.49.16,11.95c-.36-.48-.04-1.29.28-1.61.28-.28,1.33-.44,1.61-.16,5.86,6.1,11.73,12.17,17.55,18.27,38.03,39.8,75.82,79.83,114.2,119.26,10.2,10.44,20.72,15.82,31.2,16.22,10.48-.4,21-5.78,31.2-16.22,38.39-39.43,76.18-79.47,114.2-119.26,5.82-6.1,11.69-12.17,17.55-18.27.28-.28,1.33-.12,1.61.16.32.32.64,1.12.28,1.61Z"/>
    <g>
      <path class="cls-1" d="m1548.35,1.91c-5.5,6.55-10.92,13.09-16.42,19.56-36.06,42.49-72.52,84.65-108.06,127.54-21.6,26.06-32.41,56.18-30.68,90.67,1.65,33.01,1.89,66.06,2.93,99.07.52,18.19,4.38,22.85,22.05,26.38,17.27,3.45,34.29,8.27,51.96,10,3.69.36,9.08,1.2,9.04,6.14,0,1.29-.28,2.17-.76,2.85h-189.78c-.48-.68-.76-1.57-.76-2.85-.04-4.94,5.34-5.78,9.04-6.14,17.67-1.73,34.7-6.55,51.96-10,17.67-3.53,21.52-8.19,22.05-26.38,1.04-33.01,1.29-66.06,2.93-99.07,1.73-34.49-9.08-64.61-30.68-90.67-35.54-42.89-72-85.05-108.06-127.54-5.5-6.47-10.92-13.01-16.42-19.56-.36-.48-.04-1.29.28-1.61.28-.28,1.33-.44,1.61-.16,5.86,6.1,11.73,12.17,17.55,18.27,38.03,39.8,75.82,79.83,114.2,119.26,10.2,10.44,20.72,15.82,31.2,16.22,10.48-.4,21-5.78,31.2-16.22,38.39-39.43,76.18-79.47,114.2-119.26,5.82-6.1,11.69-12.17,17.55-18.27.28-.28,1.33-.12,1.61.16.32.32.64,1.12.28,1.61Z"/>
      <path class="cls-1" d="m1493.06,46.61c-4.9,8.35-11.61,13.81-17.39,19.88-21.04,22.33-42.32,44.45-63.85,66.34-9.24,9.4-18.55,14.42-27.87,15.1h-.88c-9.32-.68-18.63-5.7-27.87-15.1-21.52-21.89-42.81-44.01-63.85-66.34-5.78-6.06-12.49-11.52-17.39-19.88h219.09Z"/>
    </g>
  </g>
</svg>