<svg width="331" height="385" viewBox="0 0 331 385" fill="none" xmlns="http://www.w3.org/2000/svg">
<path d="M330.573 2.04912C325.073 8.59912 319.653 15.1391 314.153 21.6091C278.093 64.0991 241.633 106.259 206.093 149.149C184.493 175.209 173.683 205.329 175.413 239.819C177.063 272.829 177.303 305.879 178.343 338.889C178.863 357.079 182.723 361.739 200.393 365.269C217.663 368.719 234.683 373.539 252.353 375.269C256.043 375.629 261.433 376.469 261.393 381.409C261.393 382.699 261.113 383.579 260.633 384.259H70.8434C70.3634 383.579 70.0834 382.689 70.0834 381.409C70.0434 376.469 75.4234 375.629 79.1234 375.269C96.7934 373.539 113.823 368.719 131.083 365.269C148.753 361.739 152.603 357.079 153.133 338.889C154.173 305.879 154.423 272.829 156.063 239.819C157.793 205.329 146.983 175.209 125.383 149.149C89.8434 106.249 53.3734 64.0891 17.3134 21.5991C11.8134 15.1391 6.39341 8.58912 0.893411 2.04912C0.533411 1.56912 0.853411 0.759121 1.17341 0.439121C1.45341 0.159121 2.50341 -0.000879005 2.78341 0.279121C8.64341 6.37912 14.5134 12.4491 20.3334 18.5491C58.3634 58.3491 96.1534 98.3791 134.533 137.809C144.733 148.249 155.253 153.629 165.733 154.029C176.213 153.629 186.733 148.249 196.933 137.809C235.323 98.3791 273.113 58.3391 311.133 18.5491C316.953 12.4491 322.823 6.37912 328.683 0.279121C328.963 -0.000879005 330.013 0.159121 330.293 0.439121C330.613 0.759121 330.933 1.55912 330.573 2.04912Z" fill="white"/>
</svg>
