<svg width="331" height="385" viewBox="0 0 331 385" fill="none" xmlns="http://www.w3.org/2000/svg">
<path d="M330.083 2.01006C324.583 8.56006 319.163 15.1001 313.663 21.5701C277.603 64.0601 241.143 106.22 205.603 149.11C184.003 175.17 173.193 205.29 174.923 239.78C176.573 272.79 176.813 305.84 177.853 338.85C178.373 357.04 182.233 361.7 199.903 365.23C217.173 368.68 234.193 373.5 251.863 375.23C255.553 375.59 260.943 376.43 260.903 381.37C260.903 382.66 260.623 383.54 260.143 384.22H70.3628C69.8828 383.54 69.6028 382.65 69.6028 381.37C69.5628 376.43 74.9428 375.59 78.6428 375.23C96.3128 373.5 113.343 368.68 130.603 365.23C148.273 361.7 152.123 357.04 152.653 338.85C153.693 305.84 153.943 272.79 155.583 239.78C157.313 205.29 146.503 175.17 124.903 149.11C89.3628 106.22 52.9027 64.0601 16.8427 21.5701C11.3427 15.1001 5.9227 8.56006 0.422701 2.01006C0.0627014 1.53006 0.382731 0.720058 0.702731 0.400058C0.982731 0.120058 2.03272 -0.0399416 2.31272 0.240058C8.17272 6.34006 14.0428 12.4101 19.8628 18.5101C57.8928 58.3101 95.6827 98.34 134.063 137.77C144.263 148.21 154.783 153.59 165.263 153.99C175.743 153.59 186.263 148.21 196.463 137.77C234.853 98.34 272.643 58.3001 310.663 18.5101C316.483 12.4101 322.353 6.34006 328.213 0.240058C328.493 -0.0399416 329.543 0.120058 329.823 0.400058C330.143 0.720058 330.463 1.52006 330.103 2.01006H330.083Z" fill="white"/>
<path d="M274.793 46.7109C269.893 55.0609 263.183 60.5209 257.403 66.5909C236.363 88.9209 215.083 111.041 193.553 132.931C184.313 142.331 175.003 147.351 165.683 148.031H164.803C155.483 147.351 146.173 142.331 136.933 132.931C115.413 111.041 94.1234 88.9209 73.0834 66.5909C67.3034 60.5309 60.5934 55.0709 55.6934 46.7109H274.793Z" fill="white"/>
</svg>
