<svg width="331" height="385" viewBox="0 0 331 385" fill="none" xmlns="http://www.w3.org/2000/svg">
<path d="M330.694 2.01006C325.194 8.56006 319.774 15.1001 314.274 21.5701C278.214 64.0601 241.754 106.22 206.214 149.11C184.614 175.17 173.804 205.29 175.534 239.78C177.184 272.79 177.424 305.84 178.464 338.85C178.984 357.04 182.844 361.7 200.514 365.23C217.784 368.68 234.804 373.5 252.474 375.23C256.164 375.59 261.554 376.43 261.514 381.37C261.514 382.66 261.234 383.54 260.754 384.22H70.974C70.494 383.54 70.214 382.65 70.214 381.37C70.174 376.43 75.5541 375.59 79.2541 375.23C96.9241 373.5 113.954 368.68 131.214 365.23C148.884 361.7 152.734 357.04 153.264 338.85C154.304 305.84 154.554 272.79 156.194 239.78C157.924 205.29 147.114 175.17 125.514 149.11C89.9741 106.22 53.514 64.0601 17.454 21.5701C11.954 15.1001 6.53403 8.56006 1.03403 2.01006C0.67403 1.53006 0.994059 0.720058 1.31406 0.400058C1.59406 0.120058 2.64404 -0.0399416 2.92404 0.240058C8.78404 6.34006 14.654 12.4101 20.474 18.5101C58.504 58.3101 96.294 98.34 134.674 137.77C144.874 148.21 155.394 153.59 165.874 153.99C176.354 153.59 186.874 148.21 197.074 137.77C235.464 98.34 273.254 58.3001 311.274 18.5101C317.094 12.4101 322.964 6.34006 328.824 0.240058C329.104 -0.0399416 330.154 0.120058 330.434 0.400058C330.754 0.720058 331.074 1.52006 330.714 2.01006H330.694Z" fill="white"/>
<path d="M250.204 72.6914C246.434 78.9014 241.264 82.9614 236.814 87.4714C220.614 104.071 204.224 120.521 187.654 136.791C180.544 143.781 173.374 147.511 166.194 148.021H165.514C158.344 147.511 151.164 143.781 144.054 136.791C127.484 120.521 111.094 104.071 94.8939 87.4714C90.4439 82.9614 85.2739 78.9014 81.5039 72.6914H250.204Z" fill="white"/>
</svg>
