<svg width="343" height="173" viewBox="0 0 343 173" fill="none" xmlns="http://www.w3.org/2000/svg">
<path d="M65.1357 63.5831V48.752H67.6721V61.1374H72.0237V63.5861H65.1357V63.5831Z" fill="white"/>
<path d="M79.3345 48.582C83.5869 48.582 86.8956 51.9593 86.8956 56.1706C86.8956 60.3819 83.4396 63.7562 79.3345 63.7562C75.2294 63.7562 71.7734 60.5268 71.7734 56.1706C71.7734 51.8144 75.0822 48.582 79.3345 48.582ZM79.3345 61.2868C82.2435 61.2868 84.3081 59.0097 84.3081 56.1706C84.3081 53.3315 82.3187 51.0544 79.3345 51.0544C76.3504 51.0544 74.3609 53.3789 74.3609 56.1706C74.3609 58.9624 76.4255 61.2868 79.3345 61.2868Z" fill="white"/>
<path d="M99.6771 53.2803C98.7064 51.9347 97.291 51.0534 95.4488 51.0534C92.4646 51.0534 90.4752 53.3779 90.4752 56.1696C90.4752 58.9614 92.5397 61.2858 95.4488 61.2858C96.5427 61.2858 97.5374 60.9665 98.4329 60.4548L99.626 62.5339C98.5081 63.2909 97.0145 63.7582 95.4488 63.7582C91.1453 63.7582 87.8877 60.5288 87.8877 56.1726C87.8877 51.8164 91.1964 48.584 95.4488 48.584C97.7357 48.584 100.173 49.5865 101.742 51.911L99.6771 53.2832V53.2803Z" fill="white"/>
<path d="M99.7734 63.5831L107.707 48.752H110.22L113.501 63.5831H110.941L110.22 60.2797H104.2L102.46 63.5831H99.7734ZM105.444 57.8813H109.697L108.452 52.1795L105.444 57.8813Z" fill="white"/>
<path d="M116.36 63.5841V51.1987H112.706V48.75H123.849V51.1987H118.9V63.5841H116.363H116.36Z" fill="white"/>
<path d="M125.089 63.5831V48.752H127.625V63.5831H125.089Z" fill="white"/>
<path d="M136.923 48.582C141.176 48.582 144.484 51.9593 144.484 56.1706C144.484 60.3819 141.028 63.7562 136.923 63.7562C132.818 63.7562 129.362 60.5268 129.362 56.1706C129.362 51.8144 132.671 48.582 136.923 48.582ZM136.923 61.2868C139.832 61.2868 141.897 59.0097 141.897 56.1706C141.897 53.3315 139.908 51.0544 136.923 51.0544C133.939 51.0544 131.95 53.3789 131.95 56.1706C131.95 58.9624 134.014 61.2868 136.923 61.2868Z" fill="white"/>
<path d="M155.872 63.5831L148.711 53.0845V63.5831H146.226V48.752H148.762L155.824 59.153V48.752H158.312V63.5831H155.875H155.872Z" fill="white"/>
<path d="M206.673 128.234C206.616 128.068 206.556 127.894 206.499 127.734C206.454 127.595 206.403 127.456 206.352 127.323C206.261 127.077 206.171 126.85 206.081 126.616C205.164 124.33 204.001 122.168 202.622 120.16C202.469 119.938 202.313 119.71 202.153 119.498C202.12 119.435 202.075 119.385 202.036 119.332C201.736 118.927 201.426 118.525 201.104 118.131C198.64 115.067 195.65 112.435 192.26 110.377C192.227 110.353 192.197 110.333 192.164 110.315C191.933 110.176 191.701 110.037 191.464 109.904C191.013 109.644 190.553 109.386 190.09 109.147C189.904 109.052 189.712 108.958 189.519 108.857C189.474 108.839 189.435 108.819 189.39 108.795C189.186 108.7 188.979 108.6 188.774 108.505C188.107 108.195 187.428 107.911 186.74 107.647C182.896 106.169 178.719 105.355 174.346 105.355C155.51 105.355 140.24 120.382 140.24 138.919C140.24 157.455 155.51 172.476 174.346 172.476C176.612 172.476 178.821 172.242 180.964 171.831C181.021 171.819 181.072 171.807 181.123 171.799C185.526 170.926 189.622 169.217 193.228 166.848C193.24 166.842 193.252 166.83 193.261 166.824C193.991 166.345 194.703 165.839 195.392 165.307C195.674 165.091 195.951 164.863 196.227 164.633C196.368 164.52 196.504 164.405 196.639 164.287C196.888 164.077 197.135 163.864 197.378 163.648C197.712 163.346 198.039 163.036 198.361 162.725C198.535 162.554 198.7 162.379 198.869 162.208C199.094 161.98 199.319 161.746 199.542 161.507C199.683 161.35 199.83 161.196 199.972 161.034C200.323 160.637 200.672 160.238 201.005 159.833C201.339 159.416 201.66 158.993 201.976 158.564C202.048 158.464 202.123 158.357 202.195 158.26C202.439 157.914 202.682 157.571 202.914 157.219C202.983 157.118 203.049 157.009 203.118 156.902C203.367 156.524 203.605 156.133 203.836 155.746C203.875 155.678 203.914 155.619 203.953 155.551C204.801 154.093 205.537 152.576 206.156 150.991C206.156 150.991 206.156 150.985 206.162 150.979C207.626 147.235 208.44 143.171 208.44 138.916C208.44 135.177 207.818 131.584 206.67 128.228L206.673 128.234ZM174.319 153.886C166.361 153.874 159.146 147.613 159.161 138.886C159.173 130.531 165.971 123.981 174.334 123.975H174.391C183.163 124.002 189.61 131.055 189.537 138.963C189.555 147.223 182.65 153.895 174.319 153.886Z" fill="white"/>
<path d="M342.894 134.555C342.87 134.156 342.843 133.76 342.804 133.366C341.262 116.276 326.675 102.879 308.905 102.879C298.438 102.879 289.074 107.528 282.829 114.836C282.619 115.075 282.417 115.321 282.219 115.569C282.015 115.82 281.813 116.075 281.621 116.332C281.462 116.548 281.299 116.767 281.14 116.983C280.981 117.204 280.83 117.423 280.677 117.645C280.518 117.867 280.368 118.095 280.226 118.322C280.085 118.532 279.95 118.751 279.815 118.967C279.701 119.15 279.589 119.345 279.475 119.535C279.373 119.7 279.277 119.863 279.187 120.029C278.943 120.463 278.706 120.895 278.48 121.336C278.288 121.714 278.108 122.093 277.927 122.477C277.621 123.14 277.335 123.817 277.08 124.503C276.966 124.781 276.861 125.071 276.764 125.355C276.746 125.393 276.731 125.432 276.719 125.476C276.641 125.698 276.566 125.926 276.494 126.153C276.431 126.331 276.38 126.514 276.326 126.697C276.254 126.937 276.184 127.171 276.112 127.41C276.043 127.656 275.977 127.898 275.92 128.144C275.896 128.215 275.881 128.294 275.863 128.371C275.785 128.694 275.704 129.016 275.637 129.338C275.586 129.56 275.541 129.782 275.502 130.001C275.427 130.391 275.358 130.785 275.295 131.181C275.021 132.875 274.868 134.608 274.868 136.38C274.868 154.884 290.111 169.884 308.914 169.884C311.021 169.884 313.085 169.683 315.09 169.322C315.096 169.322 315.108 169.322 315.117 169.316C315.252 169.292 315.387 169.266 315.519 169.245C315.796 169.195 316.078 169.139 316.355 169.079C316.514 169.047 316.67 169.011 316.824 168.973C317.293 168.866 317.761 168.751 318.218 168.624C318.224 168.624 318.23 168.618 318.23 168.618C319.309 168.313 320.361 167.962 321.395 167.562C321.554 167.506 321.704 167.447 321.863 167.379C321.896 167.361 321.936 167.352 321.972 167.335C322.209 167.234 322.446 167.133 322.684 167.03C323.486 166.684 324.277 166.302 325.046 165.888C325.301 165.755 325.554 165.616 325.803 165.477C325.854 165.451 325.911 165.421 325.963 165.389C326.2 165.256 326.437 165.117 326.675 164.972C333.208 161.029 338.29 154.979 340.934 147.786C340.934 147.76 340.934 147.724 340.928 147.698C340.673 147.535 340.42 147.597 340.183 147.597C333.391 147.597 326.597 147.603 319.805 147.585C319.24 147.585 318.804 147.742 318.359 148.079C314.912 150.699 311.024 151.773 306.705 151.11C301.816 150.359 298.17 147.783 295.685 143.596C295.577 143.412 295.487 143.223 295.421 143.028C295.364 142.877 295.427 142.744 295.601 142.738C295.953 142.72 296.307 142.715 296.659 142.715H341.028C341.31 142.715 341.593 142.72 341.875 142.715C342.13 142.709 342.278 142.691 342.368 142.614C342.554 141.653 342.695 140.674 342.792 139.683C342.9 138.598 342.957 137.492 342.957 136.38C342.957 135.768 342.939 135.161 342.906 134.555H342.894ZM321.055 128.67C313.031 128.67 305.004 128.67 296.974 128.658C296.686 128.658 296.274 128.842 296.127 128.501C296.019 128.256 296.331 128.014 296.494 127.789C299.003 124.346 302.366 122.226 306.639 121.561C312.628 120.626 318.41 123.311 321.611 128.052C321.707 128.191 321.776 128.348 321.957 128.67H321.058H321.055Z" fill="white"/>
<path d="M138.768 155.092C138.768 160.48 138.768 165.871 138.762 171.254C138.762 171.638 138.735 172.017 138.717 172.398H119.18C119.051 172.097 119.108 171.78 119.108 171.47C119.114 169.834 119.132 168.199 119.141 166.558C119.192 159.073 119.243 151.584 119.288 144.099C119.327 138.143 119.366 132.193 119.402 126.237C119.402 125.959 119.408 125.681 119.384 125.403C119.21 123.262 117.356 121.505 115.18 121.411C113.127 121.322 111.33 122.599 110.699 124.575C110.468 125.288 110.48 126.015 110.48 126.743V172.398H90.9429C90.9489 169.613 90.9489 166.827 90.967 164.038C91.0241 155.024 91.0842 146.001 91.1353 136.981C91.2044 126.497 91.2645 116.019 91.3276 105.535C91.3396 103.584 91.3847 101.638 91.3336 99.6857C91.2825 97.6659 89.7228 95.9713 87.7845 95.6992C85.179 95.3266 83.6523 96.9827 83.0994 98.4644C82.8439 99.1386 82.8289 99.8277 82.8229 100.523C82.7958 104.249 82.7508 107.975 82.7267 111.702C82.6636 123.507 82.6125 135.316 82.5524 147.116C82.5284 151.854 82.4953 156.588 82.4743 161.326C82.4623 165.02 82.4563 168.708 82.4502 172.398H62.7031C62.6911 169.089 62.6851 165.786 62.664 162.476C62.5919 154.018 62.5048 145.551 62.4266 137.093C62.3545 128.561 62.2734 120.035 62.1952 111.503C62.1682 108.055 62.0991 104.607 62.087 101.164C62.054 90.6185 68.7225 81.2259 78.8049 77.8072C93.296 72.8861 108.024 81.5009 111.375 95.2586C112.093 98.2071 112.202 101.176 111.862 104.175C111.85 104.246 111.835 104.314 111.829 104.385C111.796 104.592 111.874 104.725 112.1 104.725C112.415 104.725 112.734 104.701 113.049 104.693C121.019 104.388 127.702 107.23 133.253 112.751C135.603 115.094 137.265 117.862 138.152 121.062C138.344 121.762 138.485 122.463 138.575 123.176C136.375 127.988 135.155 133.32 135.155 138.927C135.155 144.534 136.451 150.177 138.774 155.095L138.768 155.092Z" fill="white"/>
<path d="M274.078 168.428C274.084 142.862 274.084 117.295 274.084 91.735C274.084 86.5803 274.078 81.4227 274.084 76.268C274.084 75.1265 274.072 75.2566 273.044 75.2507H254.463C254.213 75.2507 253.97 75.2448 253.723 75.2507C253.288 75.2684 253.222 75.3276 253.21 75.7298C253.198 76.0078 253.204 76.2917 253.204 76.5697V86.1811C253.198 91.4748 253.198 96.7714 253.186 102.065C253.186 102.405 253.258 102.754 253.062 103.144C250.673 102.571 248.26 102.083 245.778 101.926C243.292 101.769 240.828 101.876 238.37 102.228C235.918 102.577 233.526 103.213 231.209 104.097C228.864 104.999 226.641 106.137 224.546 107.521C222.484 108.885 220.594 110.452 218.872 112.221C217.153 113.989 215.651 115.92 214.361 118.017C212.931 120.336 211.813 122.784 211.017 125.304C211.05 125.399 211.086 125.493 211.125 125.594C211.194 125.771 211.26 125.961 211.323 126.15C211.323 126.15 211.458 126.534 211.503 126.667C212.85 130.601 213.532 134.732 213.532 138.932C213.532 142.259 213.102 145.538 212.249 148.732C212.982 150.4 213.86 152.018 214.881 153.57C218.457 158.994 223.224 163.102 229.186 165.811C236.918 169.321 244.915 169.783 253.086 167.618C253.255 168.002 253.183 168.351 253.189 168.697C253.207 169.999 253.059 169.883 254.376 169.883C260.461 169.883 266.55 169.889 272.635 169.877C274.273 169.877 274.081 170.144 274.081 168.437L274.078 168.428ZM243.542 150.344C235.166 150.371 228.345 143.687 228.306 135.445C228.266 127.537 234.64 120.484 243.419 120.427C252.197 120.371 258.655 127.413 258.712 135.27C258.769 143.412 252.056 150.326 243.545 150.341L243.542 150.344Z" fill="white"/>
<path d="M227.16 30.5003C227.172 30.314 227.196 30.107 227.196 29.9029C227.187 29.0985 227.227 29.131 228.047 29.131C234.418 29.131 240.786 29.131 247.157 29.131C247.262 29.131 247.37 29.131 247.476 29.131C247.995 29.1488 248.035 29.1813 248.053 29.6486C248.062 29.8911 248.056 30.1365 248.056 30.379C248.056 52.2872 248.056 74.1923 248.056 96.1005C248.056 96.3785 248.05 96.6564 248.05 96.9374C248.05 97.2036 247.89 97.2982 247.647 97.2982C247.4 97.2982 247.151 97.3041 246.905 97.3041C240.711 97.3041 234.52 97.3041 228.326 97.3041C228.113 97.3041 227.903 97.3071 227.689 97.3012C227.251 97.2864 227.218 97.2538 227.206 96.8073C227.193 96.2542 227.193 95.7012 227.19 95.1659C226.797 95.0417 226.496 95.1778 226.196 95.2576C223.097 96.0679 219.942 96.4435 216.744 96.3607C200.718 95.9526 188.165 85.0577 184.535 71.3414C183.552 67.63 183.215 63.8593 183.546 60.0532C184.784 45.6893 194.773 34.8387 206.869 30.9616C211.167 29.5835 215.563 29.0867 220.056 29.3824C222.211 29.5244 224.336 29.9 226.427 30.45C226.662 30.5121 226.884 30.6452 227.169 30.5003H227.16ZM202.304 62.8006C202.244 70.8298 208.817 77.6909 217.327 77.7944C225.502 77.895 232.648 71.4834 232.69 62.9189C232.735 54.103 225.378 47.9162 217.607 47.8689C209.352 47.8186 202.292 54.4194 202.307 62.8006H202.304Z" fill="white"/>
<path d="M158.868 0.00887228C159.043 0.0207017 159.22 0.0443609 159.394 0.0443609C166.057 0.0443609 172.716 0.0414034 179.376 0.038446C179.397 0.384457 179.433 0.730468 179.433 1.07648C179.433 32.7971 179.433 64.5178 179.433 96.2384C179.433 97.5278 179.565 97.4095 178.237 97.4095C172.151 97.4095 166.066 97.4095 159.98 97.4095C159.698 97.4095 159.415 97.4095 159.133 97.4007C158.907 97.3918 158.802 97.2676 158.847 97.0694C158.886 96.9009 158.944 96.7353 158.995 96.5696C160.602 91.3351 161.804 86.0089 162.703 80.6117C163.316 76.9357 163.809 73.2479 164.188 69.5394C164.611 65.3813 164.882 61.2144 165.062 57.0386C165.266 52.3039 165.263 47.5691 165.155 42.8344C165.065 38.9721 164.852 35.1098 164.521 31.2593C163.989 25.0488 163.19 18.8709 161.979 12.7521C161.197 8.78927 160.242 4.86782 159.046 1.00255C158.947 0.680193 158.73 0.36967 158.859 0L158.868 0.00887228Z" fill="white"/>
<path d="M64.0639 30.7448C63.9226 30.7389 63.7814 30.7448 63.6402 30.7448H44.7405C44.5301 30.7448 44.3167 30.7448 44.1064 30.7566C43.902 30.7626 43.7908 30.869 43.7608 31.0731C43.7097 31.4339 43.8569 31.8302 43.6316 32.2087C43.4062 32.1525 43.2018 32.1141 42.9975 32.0579C40.9449 31.5196 38.8563 31.147 36.7346 30.9962C32.1667 30.6857 27.698 31.1736 23.3405 32.5991C10.364 36.8429 1.35146 48.3056 0.152386 61.2352C-0.157149 64.6332 -0.00688945 67.9928 0.711352 71.3139C2.15385 78.0034 5.35739 83.7703 10.364 88.5169C16.729 94.5469 24.3743 97.661 33.1915 97.9715C36.389 98.0839 39.5505 97.6876 42.6519 96.9039C42.9854 96.8211 43.313 96.6703 43.6706 96.7472C43.6977 96.8182 43.7397 96.8862 43.7427 96.9542C43.7488 97.2647 43.7548 97.5812 43.7548 97.8946C43.7608 98.9563 43.6466 98.912 44.7886 98.9061H57.0738C57.3623 94.9728 58.4291 91.214 60.1481 87.8101C59.6042 85.802 59.1925 83.7673 58.8589 81.709C58.0445 76.788 57.6598 71.8255 57.5576 66.8424C57.4434 61.3298 57.6808 55.841 58.36 50.3699C58.7567 47.1493 59.3037 43.9642 60.1301 40.8265C60.656 38.8421 61.2841 36.8843 62.1916 35.0212C62.7446 33.8855 63.3667 32.8031 64.2773 31.8952C64.3734 31.7947 64.4816 31.6941 64.5417 31.5788C64.7851 31.1381 64.5658 30.7655 64.0549 30.7507L64.0639 30.7448ZM33.9638 79.3964C25.1857 79.3283 18.8177 72.2041 18.8687 64.3641C18.9258 56.1042 25.8378 49.3969 34.1231 49.4974C42.1921 49.4412 49.2753 55.977 49.2693 64.4646C49.2633 72.5856 42.5737 79.4585 33.9638 79.3964Z" fill="white"/>
</svg>
