<svg width="245" height="438" viewBox="0 0 245 438" fill="none" xmlns="http://www.w3.org/2000/svg">
<path d="M159.976 0.75L79.5749 7.5914L19.333 60.3148L14.9548 137.477L0.726562 156.108L14.9548 170.669L27.5418 151.705L35.7507 70.6867L82.2669 40.6138V56.5094V70.6867V97.8663V114.284L79.5749 156.108L92.6646 394.684H103.61V402.345V421.499L111.818 437.917H127.689V425.33V394.684L136.445 390.306L120.027 287.423L128.653 181.059L159.976 274.836L147.389 390.306H150.126V402.345L205.398 421.499L213.059 412.196L184.055 394.684L190.075 390.306L194.814 269.297L167.423 181.059L161.599 134.267V97.8663L164.686 60.3148L167.423 28.9466L181.498 78.9376L219.676 132.326L214.502 143.974L223.238 156.108L232.46 170.669L244.594 160.476L242.558 141.924L235.858 132.326L198.971 70.6867L181.498 7.5914L159.976 0.75Z" fill="white"/>
<rect x="10.4844" y="127.215" width="32.9434" height="6.71094" transform="rotate(21.5254 10.4844 127.215)" fill="#BC0123"/>
</svg>
