<svg width="224" height="432" viewBox="0 0 224 432" fill="none" xmlns="http://www.w3.org/2000/svg">
<path d="M175.76 83.3961L215.072 144.391L220.941 152.798L223.358 166.697L213.863 176.209C212.957 177.116 211.443 176.949 210.758 175.866L204.018 165.224L196.365 154.595L200.897 144.391L192.418 134.622L189.365 137.391L168.106 114.727L156.06 91.4272L148.125 67.331L145.727 74.3105V101.382L156.06 137.391L165.321 180.08H156.06L165.321 216.219L177.024 283.275L169.231 390.302L163.958 394.137L189.365 409.477L182.653 417.626L134.236 400.848V390.302H131.839L142.865 289.153L114.163 180.08L107.87 300.179L122.252 390.302L114.582 394.137L116.051 420.982V432.008H100.68L93.489 417.626V394.137H83.9014L78.1682 289.643L62.0561 184.56L55.6378 182.353L62.0561 147.595L68.9116 104.358L62.0561 78.2141L61.2593 82.0521L52.4985 105.806L38.3608 117.646L2.48628 76.4699L2.48613 62.191L4.31243 61.2917L0.498047 32.1454V6.05323L2.48628 4.10398L6.83603 21.1757V2.893L9.82016 0.699219L12.9303 25.0764L21.2185 23.3701L23.272 32.1454L21.2185 51.1598L17.1542 55.7935L35.0327 82.0521L44.5077 27.5588L73.5294 16.774L81.8139 6.05323L106.919 43.3033L111.286 23.3701L114.163 4.10398L122.748 11.5757L161.051 16.774L168.106 57.6451L175.76 83.3961Z" fill="white"/>
<path d="M186.536 142.59L213.188 126.894L215.937 131.562L189.285 147.258L186.536 142.59Z" fill="#BC0123"/>
</svg>
