<svg width="224" height="433" viewBox="0 0 224 433" fill="none" xmlns="http://www.w3.org/2000/svg">
<path d="M176.093 83.5407L215.405 144.536L221.274 152.943L223.691 166.842L214.196 176.353C213.29 177.26 211.776 177.093 211.091 176.01L204.351 165.368L196.698 154.739L201.23 144.536L192.751 134.767L189.698 137.536L168.439 114.871L156.393 91.5718L148.458 67.4755L146.06 74.455V101.527L156.393 137.536L165.654 180.225H156.393L165.654 216.364L177.357 283.419L169.564 390.446L164.291 394.281L189.698 409.621L182.986 417.771L134.569 400.993V390.446H132.172L143.198 289.297L114.496 180.225L108.203 300.323L122.585 390.446L114.915 394.281L116.384 421.127V432.152H101.013L93.822 417.771V394.281H84.2344L78.5013 289.788L62.3891 184.705L55.9708 182.497L62.3891 147.739L69.2446 104.502L62.3891 78.3587L61.5923 82.1966L52.8316 105.95L38.6938 117.791L2.81929 76.6144L2.81913 62.3355L4.64544 61.4363L0.831055 32.2899V6.19776L2.81929 4.24851L7.16904 21.3203V3.03753L10.1532 0.84375L13.2633 25.221L21.5515 23.5146L23.605 32.2899L21.5515 51.3043L17.4872 55.938L35.3657 82.1966L44.8407 27.7034L73.8624 16.9185L82.1469 6.19776L107.252 43.4478L111.619 23.5146L114.496 4.24851L123.081 11.7202L161.384 16.9185L168.439 57.7896L176.093 83.5407Z" fill="#BC0123"/>
<path d="M186.869 142.734L213.521 127.039L216.27 131.706L189.618 147.402L186.869 142.734Z" fill="white"/>
</svg>
