<svg width="175" height="72" viewBox="0 0 175 72" fill="none" xmlns="http://www.w3.org/2000/svg">
<path d="M62.5996 25.8789L62.6596 25.8989C62.6596 25.8989 62.6196 25.8789 62.5996 25.8789Z" fill="white"/>
<path d="M126.43 51.0617C126.43 51.1117 126.46 51.1417 126.51 51.1417C126.49 51.1117 126.46 51.0917 126.43 51.0617ZM126.43 51.0617C126.43 51.1117 126.46 51.1417 126.51 51.1417C126.49 51.1117 126.46 51.0917 126.43 51.0617ZM126.43 51.0617C126.43 51.1117 126.46 51.1417 126.51 51.1417C126.49 51.1117 126.46 51.0917 126.43 51.0617ZM124.33 37.4517C124.38 37.3917 124.42 37.3317 124.45 37.2617C124.41 37.3217 124.37 37.3917 124.33 37.4517ZM126.43 51.0617C126.43 51.1117 126.46 51.1417 126.51 51.1417C126.49 51.1117 126.46 51.0917 126.43 51.0617ZM126.43 51.0617C126.43 51.1117 126.46 51.1417 126.51 51.1417C126.49 51.1117 126.46 51.0917 126.43 51.0617Z" fill="white"/>
<path d="M174.56 35.4502C174.67 35.2802 174.72 35.1202 174.69 34.9802C174.66 34.8402 174.56 34.6702 174.39 34.4602C174.22 34.2602 174.02 33.9302 173.79 33.4702C173.56 33.0702 173.3 32.9502 173.01 33.1302C172.78 33.2502 172.58 33.3202 172.41 33.3502C172.24 33.3802 172.04 33.3902 171.81 33.3902C171.64 33.3902 171.52 33.4202 171.47 33.4802C171.35 33.6002 171.25 33.7302 171.17 33.8702C171.08 34.0102 170.98 34.1402 170.87 34.2602C170.75 34.4302 170.64 34.6202 170.53 34.8202C170.41 35.0202 170.3 35.2102 170.18 35.3802C169.95 35.5502 169.79 35.7602 169.71 35.9802C169.62 36.2102 169.52 36.4402 169.41 36.6702C169.01 37.4802 168.15 38.3902 166.82 39.4302C166.53 39.6602 166.27 39.8302 166.04 39.9502C165.81 40.0702 165.55 40.2402 165.26 40.4702C164.45 41.1002 163.72 41.7302 163.06 42.3702C162.4 43.0002 161.89 43.5802 161.55 44.0902C161.43 44.4402 161.2 44.5502 160.86 44.4402C160.86 44.3302 160.87 44.2102 160.9 44.0902C160.93 43.9802 160.94 43.8602 160.94 43.7502C161 43.5802 161.03 43.3202 161.03 42.9702C161.37 42.9702 161.66 42.8602 161.89 42.6302C161.83 42.5202 161.75 42.4002 161.63 42.2902C161.69 42.1802 161.74 42.0702 161.8 41.9902C161.86 41.9002 161.89 41.8302 161.89 41.7702C161.77 41.4802 161.8 41.2102 161.98 40.9502C162.15 40.6902 162.21 40.4202 162.15 40.1302C162.15 39.9002 162.24 39.7002 162.41 39.5302C162.76 39.1902 162.87 38.8402 162.76 38.5002C162.76 38.4402 162.77 38.4002 162.8 38.3702C162.83 38.3402 162.84 38.3002 162.84 38.2402C162.95 37.9502 163.01 37.6902 163.01 37.4602C163.01 37.2302 163.12 37.0002 163.36 36.7702V36.6002C163.3 36.3102 163.39 36.0002 163.62 35.6502C163.5 35.5402 163.42 35.4202 163.36 35.3002C163.3 35.1902 163.33 35.0402 163.45 34.8702C163.56 34.7602 163.67 34.6302 163.75 34.4802C163.83 34.3402 163.94 34.2102 164.05 34.0902C163.82 33.8002 163.88 33.5402 164.22 33.3102V32.8802C164.33 32.5902 164.38 32.3302 164.35 32.1002C164.32 31.8702 164.28 31.6102 164.22 31.3202C164.22 31.2102 164.19 31.1202 164.13 31.0602C164.07 31.0002 164.02 30.9202 163.96 30.8002C163.9 30.6902 163.84 30.6002 163.79 30.5402C163.73 30.4802 163.7 30.4302 163.7 30.3702C163.87 29.9102 163.84 29.5602 163.61 29.3302C163.72 29.2202 163.7 29.0702 163.52 28.9002C163.41 28.7902 163.3 28.7302 163.22 28.7302C163.14 28.7302 163.06 28.7002 163 28.6402C162.83 28.4702 162.63 28.2102 162.4 27.8602C162.29 27.9802 162.2 28.0302 162.14 28.0302C161.97 27.7402 161.79 27.5802 161.62 27.5602C161.45 27.5302 161.13 27.6302 160.67 27.8602C160.61 27.8602 160.58 27.8002 160.58 27.6902C160.47 27.6302 160.41 27.6602 160.41 27.7802C160.41 27.9002 160.35 27.9202 160.24 27.8702C160.12 27.7602 159.98 27.7302 159.81 27.7802C159.64 27.8402 159.49 27.8702 159.38 27.8702L158.35 28.3902C158.23 28.4502 158.13 28.4902 158.05 28.5202C157.96 28.5502 157.86 28.6202 157.75 28.7402C157.52 28.9102 157.33 29.0902 157.19 29.2602C157.05 29.4302 156.86 29.6002 156.63 29.7802C156.34 29.9502 156.1 30.1702 155.9 30.4302C155.7 30.6902 155.48 30.9602 155.25 31.2502C155.08 31.5402 154.82 31.7402 154.47 31.8502C154.41 31.8502 154.35 31.8802 154.3 31.9402C154.36 32.0002 154.39 32.0402 154.39 32.0702C154.39 32.1002 154.42 32.1402 154.48 32.2002C154.36 32.2602 154.26 32.2902 154.18 32.2902C154.1 32.2902 154.02 32.3502 153.96 32.4602C153.84 32.6302 153.74 32.8102 153.66 32.9802C153.57 33.1502 153.44 33.3302 153.27 33.5002C153.21 33.6202 153.14 33.7202 153.05 33.8002C152.96 33.8902 152.89 33.9902 152.83 34.1002C152.77 34.1602 152.69 34.1902 152.57 34.1902C152.63 34.0202 152.68 33.8602 152.74 33.7202C152.8 33.5802 152.85 33.4502 152.91 33.3302C152.97 33.1602 153 33.0002 153 32.8602C153 32.7202 153.06 32.5902 153.17 32.4702C153.23 32.3002 153.3 32.1602 153.39 32.0402C153.48 31.9302 153.46 31.7502 153.35 31.5202L153.44 31.3502C153.5 31.2402 153.53 31.0902 153.53 30.9202C153.53 30.5702 153.5 30.3202 153.44 30.1402C153.55 30.0802 153.67 30.0402 153.79 30.0102C153.9 29.9802 154.02 29.9402 154.13 29.8802L153.79 29.3602C153.9 29.2502 154.01 29.1702 154.09 29.1402C154.18 29.1102 154.22 29.0402 154.22 28.9202C154.33 28.6902 154.41 28.4602 154.44 28.2302C154.47 28.0002 154.51 27.7702 154.57 27.5402C154.68 27.2502 154.74 27.0102 154.74 26.8102C154.74 26.6102 154.8 26.3602 154.91 26.0802C154.97 25.9702 154.95 25.9102 154.87 25.9102C154.79 25.9102 154.74 25.8502 154.74 25.7402C154.8 25.6802 154.87 25.6502 154.96 25.6502C155.05 25.6502 155.09 25.6202 155.09 25.5602C155.2 25.1002 155.29 24.6402 155.35 24.1802C155.41 23.7202 155.46 23.2602 155.52 22.8002C155.52 22.5702 155.51 22.3402 155.48 22.1102C155.45 21.8802 155.32 21.6802 155.09 21.5102C154.97 21.4002 154.95 21.2902 155 21.2102C155.06 21.1202 155.06 21.0202 155 20.9102L154.22 20.6502V20.3102C153.99 20.0802 153.79 19.9902 153.62 20.0502C153.5 20.1102 153.33 20.1402 153.1 20.1402C152.98 20.0802 152.78 20.1402 152.5 20.3102C152.38 20.4302 152.28 20.5302 152.2 20.6102C152.11 20.7002 152.01 20.7702 151.9 20.8302C151.61 20.9502 151.44 21.1202 151.38 21.3502C151.32 21.5802 151.24 21.8102 151.12 22.0402C151.01 22.3302 150.92 22.6302 150.86 22.9502C150.8 23.2702 150.74 23.5702 150.69 23.8602C150.57 24.1502 150.5 24.4102 150.47 24.6402C150.44 24.8702 150.37 25.1302 150.25 25.4202C150.19 25.7102 150.05 26.1402 149.82 26.7102C149.7 26.9402 149.6 27.1402 149.52 27.3102C149.43 27.4802 149.36 27.6802 149.3 27.9102C149.19 28.3102 149.05 28.6902 148.91 29.0302C148.77 29.3702 148.66 29.7802 148.61 30.2402C148.61 30.5302 148.55 30.7302 148.44 30.8402C148.38 30.9002 148.35 30.9702 148.35 31.0602C148.35 31.1502 148.32 31.2502 148.26 31.3602C148.26 31.5302 148.23 31.6802 148.17 31.7902C148.11 31.9102 148.06 32.0102 148 32.0902C147.94 32.1802 147.91 32.2802 147.91 32.3902C147.85 32.6202 147.75 32.8202 147.61 32.9902C147.53 33.0902 147.5 33.2002 147.52 33.3402H147.4C147.17 33.5702 147.03 33.7702 146.97 33.9402C146.57 34.3402 146.19 34.5702 145.85 34.6302C145.56 34.8002 145.32 34.9502 145.12 35.0602C144.92 35.1802 144.76 35.3202 144.65 35.4902C144.76 35.4902 144.68 35.5602 144.39 35.7102C144.1 35.8502 143.81 35.9802 143.53 36.1002C143.47 36.1002 143.31 36.1702 143.06 36.3202C142.8 36.4602 142.61 36.5702 142.5 36.6202C142.27 36.6202 142.04 36.6802 141.81 36.7902L141.29 36.9602L140.51 37.1302C140.16 37.2502 139.85 37.3002 139.56 37.3002H138.78C138.78 37.1902 138.84 37.0002 138.95 36.7402C139.06 36.4802 139.18 36.2102 139.3 35.9202C139.24 35.9802 139.21 35.8902 139.21 35.6602V35.1402C139.38 34.9102 139.47 34.6802 139.47 34.4502C139.58 34.1602 139.64 33.7002 139.64 33.0702C139.64 32.6102 139.67 32.2602 139.73 32.0402C139.73 31.9302 139.74 31.8102 139.77 31.6902C139.8 31.5802 139.81 31.4902 139.81 31.4302C139.69 31.2002 139.64 31.0002 139.64 30.8302C139.64 30.6602 139.58 30.4602 139.47 30.2302V29.3702L138.69 29.5402C138.75 29.4302 138.79 29.1802 138.82 28.8102C138.85 28.4402 138.83 28.1302 138.78 27.9002L138.52 27.4702L138.26 27.2102L138 26.8702L137.66 26.6102V26.7002C137.43 26.3002 137.17 26.1002 136.88 26.1002C136.82 26.1002 136.78 26.0702 136.75 26.0102C136.73 25.9802 136.71 25.9502 136.68 25.9402L136.96 26.0102C136.56 25.7202 136.1 25.5802 135.58 25.5802C135.29 25.4702 135 25.4402 134.72 25.4902C134.43 25.5502 134.17 25.6302 133.94 25.7502C134.05 25.7502 134.01 25.7802 133.81 25.8402C133.61 25.9002 133.45 25.9602 133.34 26.0102L133.51 25.9202C133.22 25.9202 132.99 26.0102 132.82 26.1802C132.47 26.3502 132.24 26.5002 132.13 26.6102C132.02 26.7202 131.96 26.8402 131.96 26.9602L131.53 27.3002L130.93 27.8202C130.7 28.2202 130.53 28.4502 130.41 28.5102C130.29 28.5702 130.15 28.6502 129.98 28.7702C129.98 28.8302 129.96 28.8702 129.94 28.9002C129.91 28.9302 129.9 28.9702 129.9 29.0302V29.1202L129.47 29.6402C129.36 30.1002 129.16 30.4102 128.87 30.5902C128.87 30.7102 128.81 30.8802 128.7 31.1102H128.61L128.52 31.2002H128.61C128.49 31.3202 128.36 31.4202 128.22 31.5002C128.08 31.5902 127.95 31.7702 127.83 32.0602V31.8902L127.74 32.0602L127.05 33.0102C126.93 33.1302 126.83 33.2102 126.75 33.2702C126.66 33.3302 126.56 33.3902 126.45 33.4402C126.45 33.5002 126.42 33.5802 126.36 33.7002C126.07 34.1002 125.93 34.4202 125.93 34.6502H125.84L125.49 35.1702L124.89 36.2002C124.89 36.4302 124.86 36.5702 124.8 36.6302V36.4602L124.46 37.3202C124.43 37.3802 124.39 37.4402 124.34 37.5102C124.3 37.5602 124.25 37.6102 124.2 37.6702C123.97 37.9002 123.82 38.1002 123.77 38.2702C123.66 38.6202 123.48 38.9002 123.25 39.1302C123.02 39.3602 122.85 39.6202 122.73 39.9102C122.44 40.0802 122.26 40.2802 122.17 40.5102C122.08 40.7402 121.98 40.9702 121.87 41.2002C121.75 41.3702 121.67 41.5202 121.61 41.6302C121.55 41.7402 121.44 41.8602 121.27 41.9702C121.27 42.0302 121.21 42.1102 121.1 42.2302C120.98 42.4602 120.85 42.7002 120.71 42.9602C120.57 43.2202 120.41 43.4302 120.24 43.6102C119.95 43.9002 119.74 44.2102 119.59 44.5602C119.45 44.9002 119.23 45.2202 118.94 45.5102C118.77 45.6802 118.61 45.8802 118.47 46.1102C118.33 46.3402 118.17 46.5702 118 46.8002C117.88 46.9702 117.75 47.1602 117.61 47.3602C117.47 47.5602 117.34 47.7502 117.22 47.9202C117.22 48.0902 117.16 48.1802 117.05 48.1802C116.76 48.3502 116.59 48.5502 116.53 48.7802C116.53 48.8402 116.47 48.9202 116.36 49.0402C116.07 49.1602 115.86 49.3302 115.71 49.5602C115.57 49.7902 115.44 50.0502 115.32 50.3402L115.06 50.6002C114.72 50.8302 114.48 51.0602 114.37 51.2902C114.26 51.6902 114.05 51.9202 113.77 51.9802C113.66 52.0402 113.58 52.1002 113.55 52.1502C113.52 52.2102 113.45 52.2702 113.33 52.3202C113.16 52.5502 112.99 52.7702 112.81 52.9702C112.64 53.1702 112.41 53.3302 112.12 53.4402C112.12 53.6102 112 53.7602 111.78 53.8702C111.55 53.9902 111.49 54.1602 111.61 54.3902C111.21 54.5602 110.8 54.7602 110.4 54.9902V53.2202C110.4 52.9102 110.49 52.5702 110.66 52.2302C110.72 52.1202 110.75 51.8602 110.75 51.4502C110.81 51.2802 110.83 51.1202 110.83 50.9802C110.83 50.8402 110.86 50.6802 110.92 50.5102C111.03 50.2202 111.14 49.9802 111.22 49.7802C111.31 49.5802 111.32 49.3402 111.26 49.0502C111.26 48.6502 111.35 48.3602 111.52 48.1902C111.63 48.0202 111.69 47.8302 111.69 47.6302C111.69 47.4302 111.75 47.2402 111.86 47.0702C111.97 46.9002 112.03 46.6802 112.03 46.4202C112.03 46.1602 112.09 45.9502 112.2 45.7702C112.31 45.4802 112.4 45.1802 112.46 44.8602C112.52 44.5402 112.6 44.2402 112.72 43.9502C112.83 43.8402 112.89 43.6602 112.89 43.4302C112.83 43.0302 113.03 42.8302 113.49 42.8302C113.37 42.6002 113.32 42.5102 113.32 42.5702C113.32 42.4002 113.39 42.2402 113.54 42.1002C113.68 41.9602 113.7 41.7702 113.58 41.5402L113.75 41.3702C113.75 41.3102 113.78 41.2802 113.84 41.2802C113.84 41.2202 113.87 41.1702 113.93 41.1102C114.04 40.7602 114.1 40.5602 114.1 40.5102C114.21 39.9402 114.41 39.4502 114.7 39.0402C114.93 38.8102 115.01 38.5502 114.96 38.2602C114.96 38.0902 115 37.9602 115.09 37.8702C115.18 37.7802 115.28 37.6802 115.39 37.5702V37.2202C115.56 37.0502 115.66 36.8302 115.69 36.5702C115.72 36.3102 115.79 36.0702 115.91 35.8402C116.02 35.5502 116.05 35.3802 116 35.3202C115.88 35.1502 115.9 35.0302 116.04 34.9802C116.18 34.9202 116.28 34.8402 116.34 34.7202C116.34 34.6602 116.48 34.5502 116.77 34.3802C116.77 34.1502 116.8 33.9802 116.86 33.8602C116.92 33.7502 117 33.6302 117.12 33.5102C117.23 33.4002 117.23 33.2202 117.12 32.9902C117 32.9902 117.03 32.9002 117.21 32.7302C117.27 32.7302 117.35 32.5902 117.47 32.3002C117.47 31.7302 117.73 31.3802 118.25 31.2702C118.13 31.0402 118.11 30.8702 118.16 30.7502C118.16 30.6402 118.19 30.5102 118.25 30.3602C118.31 30.2202 118.36 30.0902 118.42 29.9702C118.53 29.6802 118.66 29.4402 118.81 29.2402C118.95 29.0402 119.08 28.7902 119.2 28.5102C119.31 28.3402 119.37 28.1502 119.37 27.9502C119.37 27.7502 119.43 27.5302 119.54 27.3002C119.83 26.7802 120.09 26.2702 120.32 25.7502C120.55 25.2302 120.78 24.6902 121.01 24.1102C121.07 24.0002 121.14 23.8802 121.23 23.7702C121.32 23.6602 121.39 23.5102 121.45 23.3402C121.51 23.1102 121.58 22.8902 121.67 22.6902C121.75 22.4902 121.86 22.2702 121.97 22.0402C122.08 21.8102 122.21 21.5802 122.36 21.3502C122.5 21.1202 122.63 20.8902 122.75 20.6602C122.92 20.2002 123.12 19.7702 123.35 19.3702C123.58 18.9702 123.75 18.5402 123.87 18.0802L123.96 17.9102C124.19 17.6802 124.39 17.3902 124.56 17.0502C124.67 16.7602 124.82 16.4602 124.99 16.1402C125.16 15.8302 125.31 15.5202 125.42 15.2302C125.65 14.7702 125.82 14.3102 125.94 13.8502C126.05 13.3902 126.17 12.9302 126.28 12.4702C125.99 12.1802 125.85 11.9202 125.85 11.6902C125.91 11.4602 125.94 11.3302 125.94 11.3002C125.94 11.2702 125.8 11.2002 125.51 11.0802C125.45 11.0802 125.41 11.0702 125.38 11.0402C125.35 11.0102 125.31 11.0002 125.25 11.0002C125.08 10.8902 124.91 10.7802 124.73 10.7002C124.56 10.6102 124.38 10.5102 124.21 10.4002C123.81 10.2902 123.46 10.3702 123.18 10.6602C123.06 10.8902 122.95 11.0302 122.83 11.0902C122.37 11.3802 122.28 11.7802 122.57 12.3002C122.51 12.3002 122.45 12.3202 122.4 12.3402C122.34 12.3702 122.28 12.3802 122.23 12.3802C121.89 12.5002 121.68 12.7302 121.63 13.0702C121.57 13.3002 121.49 13.5002 121.37 13.6702C121.25 13.8402 121.14 14.0402 121.02 14.2702C120.9 14.5002 120.82 14.7002 120.76 14.8702C120.7 15.0402 120.62 15.2702 120.5 15.5602C120.44 15.5602 120.38 15.5702 120.33 15.6002C120.27 15.6302 120.22 15.6402 120.16 15.6402L119.99 16.3302C119.76 16.4502 119.63 16.5902 119.6 16.7602C119.57 16.9302 119.5 17.0802 119.38 17.1902C119.32 17.2502 119.28 17.3102 119.25 17.3602C119.22 17.4202 119.18 17.4702 119.12 17.5302V17.7902C119.12 17.8502 119.15 17.8802 119.21 17.8802C119.09 18.0002 118.98 18.1702 118.87 18.4002C118.52 18.7402 118.24 19.2902 118.01 20.0402L117.92 20.1302C117.81 20.2502 117.7 20.3802 117.62 20.5202C117.54 20.6602 117.46 20.8202 117.4 20.9902C117.29 21.2202 117.21 21.4402 117.18 21.6402C117.15 21.8402 116.99 22.0002 116.71 22.1102C116.77 22.4002 116.68 22.6102 116.45 22.7602C116.22 22.9002 116.16 23.1202 116.28 23.4102C116.28 23.4702 116.22 23.5502 116.11 23.6702C116 23.9002 115.86 24.1002 115.72 24.2702C115.58 24.4402 115.45 24.6702 115.33 24.9602C115.21 25.1902 115.14 25.4302 115.11 25.6902C115.08 25.9502 114.98 26.1602 114.81 26.3402C114.69 26.4502 114.59 26.5702 114.51 26.6802C114.42 26.8002 114.38 26.9102 114.38 27.0202C114.32 27.3702 114.12 27.5702 113.78 27.6202C113.84 27.7402 113.87 27.8802 113.87 28.0502C113.81 28.1602 113.76 28.2802 113.7 28.3902C113.64 28.5102 113.58 28.6502 113.53 28.8202C113.41 28.5902 113.28 28.3902 113.14 28.2202C113 28.0502 112.87 27.8802 112.75 27.7002C112.63 27.4702 112.52 27.2702 112.41 27.1002C112.29 26.9302 112.12 26.7902 111.89 26.6702C111.14 26.3302 110.45 26.1802 109.82 26.2402C109.24 26.2402 108.81 26.2702 108.53 26.3302C108.24 26.3902 107.98 26.4302 107.75 26.4602C107.52 26.4902 107.29 26.5602 107.06 26.6802C106.48 26.9702 105.94 27.2702 105.42 27.5902C104.9 27.9102 104.38 28.2702 103.87 28.6702C103.64 28.8402 103.44 29.0102 103.27 29.1902C103.1 29.3602 102.9 29.5302 102.67 29.7102C102.15 30.1102 101.75 30.5402 101.46 31.0002C101.4 31.1102 101.35 31.1902 101.29 31.2202C101.23 31.2502 101.15 31.3202 101.03 31.4402C100.86 31.6102 100.69 31.7802 100.51 31.9602C100.34 32.1302 100.19 32.3302 100.08 32.5602C99.9197 32.8102 99.7497 33.0202 99.5597 33.1802C99.3997 33.0602 99.2297 33.0502 99.0497 33.1602C98.8197 33.2802 98.6197 33.3502 98.4497 33.3802C98.2797 33.4102 98.0797 33.4202 97.8497 33.4202C97.6797 33.4202 97.5597 33.4502 97.5097 33.5102C97.3897 33.6302 97.2897 33.7602 97.2097 33.9002C97.1197 34.0402 97.0197 34.1702 96.9097 34.2902C96.7897 34.4602 96.6797 34.6502 96.5697 34.8502C96.4497 35.0502 96.3397 35.2402 96.2197 35.4102C95.9897 35.5802 95.8297 35.7902 95.7497 36.0102C95.6597 36.2402 95.5597 36.4702 95.4497 36.7002C95.0497 37.5102 94.1897 38.4202 92.8597 39.4602C92.5697 39.6902 92.3097 39.8602 92.0797 39.9802C91.8497 40.1002 91.5897 40.2702 91.2997 40.5002C90.4897 41.1302 89.7597 41.7602 89.0997 42.4002C88.4397 43.0302 87.9297 43.6102 87.5897 44.1202C87.4697 44.4702 87.2397 44.5802 86.8997 44.4702C86.8997 44.3602 86.9097 44.2402 86.9397 44.1202C86.9697 44.0102 86.9797 43.8902 86.9797 43.7802C87.0397 43.6102 87.0697 43.3502 87.0697 43.0002C87.4097 43.0002 87.6997 42.8902 87.9297 42.6602C87.8697 42.5502 87.7897 42.4302 87.6697 42.3202C87.7297 42.2102 87.7797 42.1002 87.8397 42.0202C87.8997 41.9302 87.9297 41.8602 87.9297 41.8002C87.8097 41.5102 87.8397 41.2402 88.0197 40.9802C88.1897 40.7202 88.2497 40.4502 88.1897 40.1602C88.1897 39.9302 88.2797 39.7302 88.4497 39.5602C88.7997 39.2202 88.9097 38.8702 88.7997 38.5302C88.7997 38.4702 88.8097 38.4302 88.8397 38.4002C88.8697 38.3702 88.8797 38.3302 88.8797 38.2702C88.9897 37.9802 89.0497 37.7202 89.0497 37.4902C89.0497 37.2602 89.1597 37.0302 89.3997 36.8002V36.6302C89.3397 36.3402 89.4297 36.0302 89.6597 35.6802C89.5497 35.5702 89.4597 35.4502 89.3997 35.3302C89.3397 35.2202 89.3697 35.0702 89.4897 34.9002C89.5997 34.7902 89.7097 34.6602 89.7897 34.5102C89.8797 34.3702 89.9797 34.2402 90.0897 34.1202C89.8597 33.8302 89.9197 33.5702 90.2597 33.3402V32.9102C90.3697 32.6202 90.4197 32.3602 90.3897 32.1302C90.3597 31.9002 90.3197 31.6402 90.2597 31.3502C90.2597 31.2402 90.2297 31.1502 90.1697 31.0902C90.1097 31.0302 90.0597 30.9502 89.9997 30.8302C89.9397 30.7202 89.8797 30.6302 89.8297 30.5702C89.7697 30.5102 89.7397 30.4602 89.7397 30.4002C89.9097 29.9402 89.8797 29.5902 89.6497 29.3602C89.7597 29.2502 89.7397 29.1002 89.5597 28.9302C89.4497 28.8202 89.3397 28.7602 89.2597 28.7602C89.1797 28.7602 89.0997 28.7302 89.0397 28.6702C88.8697 28.5002 88.6697 28.2402 88.4397 27.8902C88.3297 28.0102 88.2397 28.0602 88.1797 28.0602C88.0097 27.7702 87.8297 27.6102 87.6597 27.5902C87.4897 27.5602 87.1697 27.6602 86.7097 27.8902C86.6497 27.8902 86.6197 27.8302 86.6197 27.7202C86.5097 27.6602 86.4497 27.6902 86.4497 27.8102C86.4497 27.9302 86.3897 27.9502 86.2797 27.9002C86.1597 27.7902 86.0197 27.7602 85.8497 27.8102C85.6797 27.8702 85.5297 27.9002 85.4197 27.9002L84.3897 28.4202C84.2697 28.4802 84.1697 28.5202 84.0897 28.5502C83.9997 28.5802 83.8997 28.6502 83.7897 28.7702C83.5597 28.9402 83.3697 29.1202 83.2297 29.2902C83.0897 29.4602 82.8997 29.6302 82.6697 29.8102C82.3797 29.9802 82.1397 30.2002 81.9397 30.4602C81.7397 30.7202 81.5197 30.9902 81.2897 31.2802C81.1197 31.5702 80.8597 31.7702 80.5097 31.8802C80.4497 31.8802 80.3897 31.9102 80.3397 31.9702C80.3997 32.0302 80.4297 32.0702 80.4297 32.1002C80.4297 32.1302 80.4597 32.1702 80.5197 32.2302C80.3997 32.2902 80.2997 32.3202 80.2197 32.3202C80.1397 32.3202 80.0597 32.3802 79.9997 32.4902C79.8797 32.6602 79.7797 32.8402 79.6997 33.0102C79.6097 33.1802 79.4797 33.3602 79.3097 33.5302C79.2497 33.6502 79.1797 33.7502 79.0897 33.8302C78.9997 33.9202 78.9297 34.0202 78.8697 34.1302C78.8097 34.1902 78.7297 34.2202 78.6097 34.2202C78.6697 34.0502 78.7197 33.8902 78.7797 33.7502C78.8397 33.6102 78.8897 33.4802 78.9497 33.3602C79.0097 33.1902 79.0397 33.0302 79.0397 32.8902C79.0397 32.7502 79.0997 32.6202 79.2097 32.5002C79.2697 32.3302 79.3397 32.1902 79.4297 32.0702C79.5197 31.9602 79.4997 31.7802 79.3897 31.5502L79.4797 31.3802C79.5397 31.2702 79.5697 31.1202 79.5697 30.9502C79.5697 30.6002 79.5397 30.3502 79.4797 30.1702C79.5897 30.1102 79.7097 30.0702 79.8197 30.0402C79.9297 30.0102 80.0497 29.9702 80.1597 29.9102L79.8197 29.3902C79.9297 29.2802 80.0397 29.2002 80.1197 29.1702C80.2097 29.1402 80.2497 29.0702 80.2497 28.9502C80.3597 28.7202 80.4397 28.4902 80.4697 28.2602C80.4997 28.0302 80.5397 27.8002 80.5997 27.5702C80.7097 27.2802 80.7697 27.0402 80.7697 26.8402C80.7697 26.6402 80.8297 26.3902 80.9397 26.1102C80.9997 26.0002 80.9797 25.9402 80.8997 25.9402C80.8197 25.9402 80.7697 25.8802 80.7697 25.7702C80.8297 25.7102 80.8997 25.6802 80.9897 25.6802C81.0797 25.6802 81.1197 25.6502 81.1197 25.5902C81.2297 25.1302 81.3197 24.6702 81.3797 24.2102C81.4397 23.7502 81.4897 23.2902 81.5497 22.8302C81.5497 22.6002 81.5397 22.3702 81.5097 22.1402C81.4797 21.9102 81.3497 21.7102 81.1197 21.5402C80.9997 21.4302 80.9797 21.3202 81.0297 21.2402C81.0897 21.1502 81.0897 21.0502 81.0297 20.9402L80.2497 20.6802V20.3402C80.0197 20.1102 79.8197 20.0202 79.6497 20.0802C79.5297 20.1402 79.3597 20.1702 79.1297 20.1702C79.0097 20.1102 78.8097 20.1702 78.5297 20.3402C78.4097 20.4602 78.3097 20.5602 78.2297 20.6402C78.1397 20.7302 78.0397 20.8002 77.9297 20.8602C77.6397 20.9802 77.4697 21.1502 77.4097 21.3802C77.3497 21.6102 77.2697 21.8402 77.1497 22.0702C77.0397 22.3602 76.9497 22.6602 76.8897 22.9802C76.8297 23.3002 76.7697 23.6002 76.7197 23.8902C76.5997 24.1802 76.5297 24.4402 76.4997 24.6702C76.4697 24.9002 76.3997 25.1602 76.2797 25.4502C76.2197 25.7402 76.0797 26.1702 75.8497 26.7402C75.7297 26.9702 75.6297 27.1702 75.5497 27.3402C75.4597 27.5102 75.3897 27.7102 75.3297 27.9402C75.2097 28.3402 75.0797 28.7202 74.9397 29.0602C74.7997 29.4002 74.6897 29.8102 74.6397 30.2702C74.6397 30.5602 74.5797 30.7602 74.4697 30.8702C74.4097 30.9302 74.3797 31.0002 74.3797 31.0902C74.3797 31.1802 74.3497 31.2802 74.2897 31.3902C74.2897 31.5602 74.2597 31.7102 74.1997 31.8202C74.1397 31.9402 74.0897 32.0402 74.0297 32.1202C73.9697 32.2102 73.9397 32.3102 73.9397 32.4202C73.8797 32.6502 73.7797 32.8502 73.6397 33.0202C73.5597 33.1202 73.5297 33.2302 73.5497 33.3702H73.4297C73.1997 33.6002 73.0597 33.8002 72.9997 33.9702C72.5997 34.3702 72.2197 34.6002 71.8797 34.6602C71.5897 34.8302 71.3497 34.9802 71.1497 35.0902C70.9497 35.2102 70.7897 35.3502 70.6797 35.5202C70.7897 35.5202 70.7097 35.5902 70.4197 35.7402C70.1297 35.8802 69.8397 36.0102 69.5597 36.1302C69.4997 36.1302 69.3397 36.2002 69.0897 36.3502C68.8297 36.4902 68.6397 36.6002 68.5297 36.6502C68.2997 36.6502 68.0697 36.7102 67.8397 36.8202L67.3197 36.9902L66.5397 37.1602C66.1897 37.2802 65.8797 37.3302 65.5897 37.3302H64.8097C64.8097 37.2202 64.8697 37.0302 64.9797 36.7702C65.0897 36.5102 65.2097 36.2402 65.3297 35.9502C65.2697 36.0102 65.2397 35.9202 65.2397 35.6902V35.1702C65.4097 34.9402 65.4997 34.7102 65.4997 34.4802C65.6097 34.1902 65.6697 33.7302 65.6697 33.1002C65.6697 32.6402 65.6997 32.2902 65.7597 32.0702C65.7597 31.9602 65.7697 31.8402 65.7997 31.7202C65.8297 31.6102 65.8397 31.5202 65.8397 31.4602C65.7197 31.2302 65.6697 31.0302 65.6697 30.8602C65.6697 30.6902 65.6097 30.4902 65.4997 30.2602V29.4002L64.7197 29.5702C64.7797 29.4602 64.8197 29.2102 64.8497 28.8402C64.8797 28.4702 64.8597 28.1602 64.8097 27.9302L64.5497 27.5002L64.2897 27.2402L64.0297 26.9002L63.6897 26.6402V26.7302C63.4597 26.3302 63.1997 26.1302 62.9097 26.1302C62.8497 26.1302 62.8097 26.1002 62.7797 26.0402C62.7597 26.0102 62.7397 25.9802 62.7097 25.9702L62.6497 25.9502C62.6497 25.9502 62.6897 25.9502 62.7097 25.9702L62.9897 26.0402C62.5897 25.7502 62.1297 25.6102 61.6097 25.6102C61.3197 25.5002 61.0297 25.4702 60.7497 25.5202C60.4597 25.5802 60.1997 25.6602 59.9697 25.7802C60.0797 25.7802 60.0397 25.8102 59.8397 25.8702C59.6397 25.9302 59.4797 25.9902 59.3697 26.0402L59.5397 25.9502C59.2497 25.9502 59.0197 26.0402 58.8497 26.2102C58.4997 26.3802 58.2697 26.5302 58.1597 26.6402C58.0497 26.7502 57.9897 26.8702 57.9897 26.9902L57.5597 27.3302L56.9597 27.8502C56.7297 28.2502 56.5597 28.4802 56.4397 28.5402C56.3197 28.6002 56.1797 28.6802 56.0097 28.8002C56.0097 28.8602 55.9897 28.9002 55.9697 28.9302C55.9397 28.9602 55.9297 29.0002 55.9297 29.0602V29.1502L55.4997 29.6702C55.3897 30.1302 55.1897 30.4402 54.8997 30.6202C54.8997 30.7402 54.8397 30.9102 54.7297 31.1402H54.6397L54.5497 31.2302H54.6397C54.5197 31.3502 54.3897 31.4502 54.2497 31.5302C54.1097 31.6202 53.9797 31.8002 53.8597 32.0902V31.9202L53.7697 32.0902L53.0797 33.0402C52.9597 33.1602 52.8597 33.2402 52.7797 33.3002C52.6897 33.3602 52.5897 33.4202 52.4797 33.4702C52.4797 33.5302 52.4497 33.6102 52.3897 33.7302C52.0997 34.1302 51.9597 34.4502 51.9597 34.6802H51.8697L51.5197 35.2002L50.9197 36.2302C50.9197 36.4602 50.8897 36.6002 50.8297 36.6602V36.4902L50.4897 37.3502C49.9697 38.1602 49.6297 38.7602 49.4597 39.1602V39.4202L49.1097 39.8502C48.9397 40.1402 48.8497 40.3702 48.8497 40.5402C48.7397 40.6502 48.6797 40.8002 48.6797 40.9702C48.6197 41.0902 48.5897 41.1702 48.5897 41.2302L48.2497 41.5802L48.0797 42.7902C47.7397 43.4202 47.5597 43.8802 47.5597 44.1702C47.3897 44.4602 47.2997 44.7202 47.2997 44.9502C47.2997 45.0102 47.2397 45.2102 47.1297 45.5502C47.1297 45.6102 47.1597 45.6402 47.2197 45.6402L46.7897 46.5002V46.4102C46.7297 46.5202 46.6997 46.7302 46.6997 47.0102V47.7002C46.5897 47.9302 46.5897 48.1902 46.6997 48.4802C46.6397 48.6502 46.6097 48.8602 46.6097 49.0802V49.6002C46.7297 49.9502 46.7797 50.0902 46.7797 50.0302V50.4602C46.8397 50.5802 46.8997 50.6802 46.9497 50.7602C47.0097 50.8502 47.0397 50.9202 47.0397 50.9802V51.0702C47.0397 51.1902 47.0997 51.4102 47.2097 51.7602V52.0102C46.8997 51.9702 46.5797 51.9902 46.2597 52.0702C45.9097 52.1602 45.5697 52.1702 45.2197 52.1102C44.9297 52.1102 44.6597 52.1702 44.3997 52.2802C44.1397 52.4002 43.8697 52.4202 43.5797 52.3702C43.2897 52.3702 43.0197 52.4002 42.7597 52.4602C42.4997 52.5202 42.2297 52.5502 41.9397 52.5502C41.6497 52.5502 41.3797 52.6102 41.1197 52.7202C40.8597 52.8402 40.5897 52.8402 40.2997 52.7202C40.2397 52.7202 40.1797 52.7502 40.1297 52.8102C40.0097 52.8702 39.8097 52.9002 39.5297 52.9002C39.2397 52.9602 38.9397 53.0002 38.6197 53.0302C38.2997 53.0602 38.0297 53.1602 37.7997 53.3302C37.6297 53.3302 37.4697 53.3202 37.3297 53.2902C37.1897 53.2602 37.0597 53.2502 36.9397 53.2502C36.7097 53.3102 36.4797 53.3802 36.2497 53.4702C36.0197 53.5602 35.7597 53.5402 35.4697 53.4302C35.1797 53.5502 34.9097 53.6202 34.6497 53.6502C34.3897 53.6802 34.1197 53.7502 33.8297 53.8702C33.4297 53.9302 33.0497 54.0002 32.7097 54.0902C32.3597 54.1802 32.0197 54.2802 31.6697 54.3902C31.0397 54.5102 30.4097 54.6402 29.7697 54.7802C29.1397 54.9202 28.4997 55.0802 27.8697 55.2502C27.4097 55.3702 26.9897 55.5102 26.6197 55.6802C26.2497 55.8502 25.8297 56.0002 25.3697 56.1102C25.0297 56.1102 24.7697 56.1402 24.5897 56.2002C24.2997 56.3202 23.9897 56.4502 23.6397 56.5902C23.2997 56.7302 22.9797 56.8402 22.6897 56.8902C21.8797 57.0602 21.2497 57.2602 20.7897 57.4902C20.4997 57.6102 20.2397 57.7102 20.0097 57.7902C19.7797 57.8802 19.5197 57.9802 19.2297 58.0902H19.0597C18.8297 58.2102 18.6097 58.2802 18.4097 58.3102C18.2097 58.3402 17.9897 58.4102 17.7597 58.5302C17.5897 58.5302 17.4397 58.5602 17.3297 58.6202V55.9902C17.3297 55.6802 17.3597 55.3402 17.4197 55.0002V54.5702C17.4197 54.4002 17.4097 54.2202 17.3797 54.0502C17.3497 53.8802 17.3697 53.7002 17.4197 53.5302C17.5897 52.9602 17.6497 52.4402 17.5897 51.9802C17.5897 51.7502 17.5797 51.5402 17.5497 51.3302C17.5197 51.1302 17.5297 50.9102 17.5897 50.6802C17.5897 50.3902 17.6197 50.1302 17.6797 49.9002C17.7397 49.6702 17.7897 49.4102 17.8497 49.1202C17.9097 48.8302 17.9597 48.5702 18.0197 48.3402C18.0797 48.1102 18.1097 47.8502 18.1097 47.5602C18.1097 47.3902 18.0997 47.2302 18.0697 47.0902C18.0397 46.9502 18.0497 46.8202 18.1097 46.7002C18.2197 46.4102 18.2797 46.1702 18.2797 45.9702C18.2797 45.7702 18.3097 45.5202 18.3697 45.2402C18.4797 44.6102 18.5697 43.9602 18.6297 43.3002C18.6897 42.6402 18.7697 41.9902 18.8897 41.3602C18.9997 41.1302 19.0597 40.9002 19.0597 40.6702C18.9397 40.2102 18.9597 39.7902 19.0997 39.4202C19.2397 39.0502 19.3397 38.6302 19.3997 38.1702C19.4597 37.8202 19.5297 37.4802 19.6197 37.1302C19.7097 36.7902 19.7797 36.4402 19.8397 36.1002C19.9497 35.6402 20.0397 35.1702 20.0997 34.6802C20.1597 34.1902 20.2397 33.6902 20.3597 33.1702C20.3597 33.0602 20.3897 32.9502 20.4397 32.8702C20.4997 32.7802 20.5297 32.6802 20.5297 32.5702C20.6397 32.2802 20.6997 31.9802 20.6997 31.6602C20.6997 31.3402 20.7297 31.0402 20.7897 30.7502C20.8497 30.6402 20.8797 30.5302 20.8797 30.4502C20.8797 30.3702 20.9097 30.2602 20.9697 30.1502C21.1397 29.6902 21.2597 29.2602 21.3197 28.8602C21.3797 28.4602 21.4097 28.0302 21.4097 27.5702V27.4002C21.5797 27.2302 21.6497 27.0302 21.6297 26.8002C21.5997 26.5702 21.6397 26.3702 21.7597 26.2002C21.8197 26.0902 21.7997 25.9402 21.7197 25.7702C21.6297 25.6002 21.6997 25.4502 21.9397 25.3402C21.8797 25.1102 21.9397 24.9102 22.1097 24.7402C22.2797 24.5702 22.3097 24.4302 22.1897 24.3102C22.0797 24.0202 22.0897 23.8102 22.2297 23.6602C22.3697 23.5202 22.4497 23.3602 22.4497 23.1902C22.3897 23.0202 22.4197 22.7602 22.5397 22.4102C22.5397 22.2402 22.5697 22.0702 22.6297 21.8902C22.6897 21.7202 22.7197 21.5502 22.7197 21.3702C22.7797 21.0802 22.8497 20.8402 22.9397 20.6402C23.0297 20.4402 23.0997 20.2202 23.1597 19.9902C23.2697 19.7002 23.3197 19.4302 23.2897 19.1702C23.2597 18.9102 23.3297 18.6702 23.5097 18.4402C23.5097 18.3802 23.4997 18.3102 23.4697 18.2202C23.4397 18.1302 23.4297 18.0302 23.4297 17.9202C23.5397 17.9202 23.6297 17.8902 23.6897 17.8302C23.6297 17.6002 23.6597 17.3702 23.7797 17.1402C23.8897 16.9102 23.8897 16.6502 23.7797 16.3602L23.8697 16.2702C24.2097 15.9202 24.2397 15.4902 23.9597 14.9802L24.4797 14.7202C24.5397 14.4302 24.5697 14.1602 24.5697 13.9002C24.5697 13.6402 24.5997 13.3702 24.6497 13.0802C24.7097 12.9702 24.7597 12.8402 24.8197 12.6902C24.8797 12.5502 24.8497 12.3902 24.7297 12.2202C24.7297 12.0502 24.7597 11.9602 24.8197 11.9602C24.9897 11.9602 25.0397 11.8902 24.9497 11.7402C24.8597 11.6002 24.8797 11.5202 24.9897 11.5202C25.1597 11.4102 25.2197 11.3002 25.1597 11.2202C25.0997 11.1302 25.0997 11.0302 25.1597 10.9202C25.3297 10.7502 25.4097 10.5502 25.3797 10.3202C25.3497 10.0902 25.3597 9.86016 25.4197 9.63016C25.4797 9.46016 25.5097 9.17016 25.5097 8.77016C25.5697 8.66016 25.6197 8.51016 25.6797 8.34016C25.7397 8.17016 25.7897 8.00016 25.8497 7.82016C25.9597 7.53016 26.0397 7.22016 26.0697 6.87016C26.0997 6.52016 26.1397 6.21016 26.1997 5.92016C26.3097 5.63016 26.3897 5.32016 26.4197 4.97016C26.4497 4.62016 26.5197 4.31016 26.6397 4.02016C26.6397 3.96016 26.6297 3.92016 26.5997 3.89016C26.5697 3.86016 26.5597 3.82016 26.5597 3.76016V2.47016C26.4397 2.36016 26.3897 2.27016 26.3897 2.21016C26.3897 2.10016 26.3997 2.01016 26.4297 1.95016C26.4597 1.89016 26.3897 1.89016 26.2097 1.95016C26.0897 1.66016 25.9397 1.49016 25.7397 1.43016C25.5397 1.37016 25.3797 1.20016 25.2697 0.910156C25.1597 1.02016 25.0497 1.13016 24.9697 1.21016C24.8797 1.30016 24.7797 1.22016 24.6697 0.990156C24.4397 1.16016 24.2197 1.35016 24.0197 1.55016C23.8197 1.75016 23.5997 1.97016 23.3697 2.20016C23.3697 2.31016 23.3797 2.42016 23.4097 2.50016C23.4397 2.59016 23.3697 2.69016 23.1897 2.80016V3.06016C23.1297 3.18016 23.0997 3.32016 23.0997 3.49016C23.0997 3.66016 23.0097 3.81016 22.8397 3.92016C22.7797 3.92016 22.7497 3.98016 22.7497 4.09016C22.8097 4.49016 22.7597 4.87016 22.6197 5.21016C22.4797 5.56016 22.3497 5.93016 22.2297 6.33016C22.1197 6.62016 22.0297 6.91016 21.9697 7.19016C21.9097 7.48016 21.8297 7.77016 21.7097 8.05016C21.6497 8.22016 21.6197 8.41016 21.6197 8.61016C21.6197 8.81016 21.5897 9.00016 21.5297 9.17016C21.4697 9.40016 21.4097 9.60016 21.3597 9.77016C21.2997 9.94016 21.2397 10.1102 21.1897 10.2902C20.9597 10.9802 20.7597 11.6602 20.5897 12.3202C20.4197 12.9802 20.2497 13.6602 20.0697 14.3502C20.0097 14.5202 19.9797 14.7102 19.9797 14.9102C19.9797 15.1102 19.9497 15.3002 19.8897 15.4702C19.7797 15.6402 19.7297 15.8302 19.7597 16.0302C19.7897 16.2302 19.7497 16.3902 19.6297 16.5002C19.5097 16.6202 19.4297 16.7302 19.3697 16.8502C19.3097 16.9602 19.3097 17.0502 19.3697 17.1102C19.4797 17.2802 19.4697 17.4002 19.3297 17.4602C19.1897 17.5202 19.1397 17.6002 19.1997 17.7202C19.2597 17.9502 19.2297 18.1802 19.1097 18.4102C19.1097 18.5302 19.0897 18.6302 19.0697 18.7102C19.0397 18.8002 19.0297 18.9002 19.0297 19.0102C18.9097 19.4102 18.8397 19.8002 18.8097 20.1802C18.7797 20.5502 18.7097 20.9402 18.5897 21.3402C18.4697 21.6902 18.3897 22.0402 18.3297 22.4202C18.2697 22.7902 18.1897 23.1502 18.0697 23.5002V24.1002C17.8997 24.3902 17.7697 24.6902 17.6797 25.0102C17.5897 25.3302 17.6097 25.6602 17.7197 26.0002C17.7197 26.0602 17.6597 26.1402 17.5497 26.2602C17.4397 26.6602 17.3297 27.0402 17.2497 27.3802C17.1697 27.7202 17.1497 28.1302 17.2097 28.5902C17.2097 28.9902 17.1197 29.2802 16.9497 29.4502C16.8397 29.5702 16.7897 29.6802 16.8197 29.8002C16.8497 29.9202 16.8597 30.0002 16.8597 30.0602C16.7997 30.1802 16.7497 30.2602 16.6897 30.3202C16.6297 30.3802 16.5997 30.4602 16.5997 30.5802C16.5397 30.8102 16.5097 31.0402 16.5097 31.2702C16.5097 31.5002 16.4797 31.7602 16.4197 32.0502C16.3597 32.3402 16.2797 32.6502 16.1597 33.0002C16.0397 33.3502 15.9897 33.6902 15.9897 34.0402C15.9897 34.1502 15.9997 34.2602 16.0297 34.3402C16.0597 34.4302 16.0397 34.5302 15.9897 34.6402C15.9897 34.7502 15.9597 34.8902 15.8997 35.0302C15.8397 35.1702 15.7797 35.3302 15.7297 35.5002C15.6197 35.9602 15.5397 36.4402 15.5097 36.9202C15.4797 37.4102 15.4097 37.8802 15.2897 38.3402L15.0297 40.6702C14.9697 40.9602 14.9297 41.2002 14.8997 41.4002C14.8697 41.6002 14.8297 41.8502 14.7697 42.1302C14.7097 42.2502 14.7097 42.3502 14.7697 42.4302C14.8297 42.5202 14.8597 42.6202 14.8597 42.7302H14.7697C14.7097 42.7302 14.6797 42.7402 14.6797 42.7702C14.6797 42.8002 14.6497 42.8102 14.5897 42.8102C14.5297 43.1002 14.4997 43.4102 14.4997 43.7602C14.4997 44.1102 14.4697 44.4502 14.4097 44.7902C14.4097 44.9102 14.4397 45.0102 14.4997 45.0902C14.5597 45.1802 14.5297 45.2802 14.4097 45.3902C14.1197 45.9102 14.0097 46.4002 14.0597 46.8602C14.0597 47.0902 14.0497 47.3202 14.0197 47.5502C13.9897 47.7802 13.9997 48.0402 14.0597 48.3302C14.0597 48.5002 14.0297 48.6502 13.9697 48.7602V49.5802C13.9697 49.8402 13.9397 50.1102 13.8797 50.4002C13.7697 50.8002 13.7497 51.1902 13.8397 51.5602C13.9297 51.9402 13.9097 52.3202 13.7997 52.7302C13.6797 52.9602 13.6297 53.1602 13.6297 53.3302C13.6297 53.6202 13.6597 53.8802 13.7197 54.1102C13.7797 54.3402 13.7497 54.5402 13.6297 54.7102C13.5097 54.9402 13.5297 55.1702 13.6697 55.4002C13.8097 55.6302 13.7397 55.8302 13.4497 56.0002C13.5597 56.2302 13.6097 56.4502 13.5797 56.6502C13.5497 56.8502 13.5697 57.0402 13.6197 57.2102C13.6197 57.2702 13.6497 57.3102 13.7097 57.3402C13.7697 57.3702 13.7997 57.4102 13.7997 57.4702C13.7397 57.8702 13.6997 58.2602 13.6697 58.6302C13.6397 59.0102 13.6597 59.3602 13.7097 59.7102C13.7097 60.0602 13.5697 60.2902 13.2797 60.4002C13.0497 60.5202 12.8297 60.6202 12.6297 60.7002C12.4297 60.7902 12.1797 60.8602 11.8997 60.9202C11.7797 60.9202 11.6497 60.9602 11.5097 61.0502C11.3697 61.1402 11.2097 61.2402 11.0397 61.3502C10.6997 61.5802 10.4397 61.7202 10.2597 61.7802C9.7397 62.1202 9.2497 62.4102 8.7897 62.6402C8.4997 62.8102 8.20969 62.9602 7.92969 63.0702C7.69969 63.1802 7.47969 63.3002 7.27969 63.4202C7.07969 63.5302 6.8597 63.6502 6.6297 63.7602C6.0497 64.1102 5.38969 64.5702 4.64969 65.1402C4.58969 65.1402 4.54968 65.1502 4.51968 65.1802C4.48968 65.2102 4.44971 65.2202 4.38971 65.2202C3.92971 65.3302 3.56969 65.5502 3.30969 65.8702C3.04969 66.1902 2.7197 66.4602 2.3197 66.6902C2.3197 66.7502 2.30969 66.7902 2.27969 66.8202C2.24969 66.8502 2.23969 66.8901 2.23969 66.9501C2.17969 67.0101 2.13968 67.0802 2.10968 67.1702C2.07968 67.2602 2.03971 67.3002 1.97971 67.3002C1.62971 67.3602 1.41968 67.5402 1.32968 67.8602C1.23968 68.1702 1.05968 68.3902 0.769684 68.5102C0.709684 68.5102 0.679688 68.5702 0.679688 68.6802V69.5402L0.939697 70.3202C1.2297 70.4302 1.36969 70.5202 1.36969 70.5802C1.59969 70.6902 1.80968 70.7801 2.01968 70.8401C2.21968 70.9001 2.43971 70.9502 2.66971 71.0102C3.01971 71.0102 3.24968 70.9802 3.35968 70.9202C3.58968 70.7502 3.81968 70.5802 4.04968 70.4002C4.27968 70.2302 4.39969 69.9402 4.39969 69.5402C4.33969 69.4802 4.1997 69.4002 3.9697 69.2802L4.3197 68.5901C4.4297 68.5301 4.53969 68.5002 4.61969 68.5002C4.69969 68.5002 4.77969 68.4702 4.83969 68.4102C5.40969 67.8302 6.01969 67.4602 6.64969 67.2902C6.75969 67.2302 6.8497 67.1802 6.9097 67.1202C6.9697 67.0602 7.04971 67.0001 7.16971 66.9501L8.45969 66.1702C8.74969 66.0502 9.00969 65.9402 9.23969 65.8302C9.46969 65.7102 9.69969 65.5402 9.92969 65.3102C10.0397 65.3102 10.0997 65.2802 10.0997 65.2202C11.4197 64.7002 12.6897 64.1602 13.8897 63.5802C13.9497 63.6902 13.9997 63.8102 14.0597 63.9202C14.1197 64.0302 14.1497 64.1802 14.1497 64.3502C14.0297 64.5202 14.0497 64.7502 14.1897 65.0402C14.3297 65.3302 14.4897 65.5002 14.6597 65.5602C14.8897 65.6202 15.0097 65.8502 15.0097 66.2502C15.1797 66.2502 15.3697 66.2602 15.5697 66.2902C15.7697 66.3202 15.9297 66.3002 16.0397 66.2502C16.2697 66.1302 16.4897 66.0002 16.6897 65.8602C16.8897 65.7202 17.1397 65.6402 17.4197 65.6402C17.4197 65.4702 17.4097 65.3202 17.3797 65.2102C17.3497 65.0902 17.3697 64.9802 17.4197 64.8602C17.4197 64.8002 17.4597 64.7602 17.5497 64.7302C17.6397 64.7002 17.6197 64.6302 17.5097 64.5102C17.4497 64.4502 17.4697 64.3802 17.5497 64.2902C17.6397 64.2002 17.6497 64.1002 17.5897 63.9902C17.4697 63.7602 17.4597 63.5302 17.5497 63.3002C17.6397 63.0702 17.6197 62.8402 17.5097 62.6102C17.4497 62.4402 17.4497 62.3202 17.5097 62.2702C17.5697 62.2102 17.6497 62.1302 17.7697 62.0102C18.6297 61.5502 19.6097 61.1802 20.6997 60.8902C20.8097 60.8902 20.8997 60.8602 20.9597 60.8002C21.0197 60.7402 21.0697 60.7102 21.1297 60.7102C21.3597 60.8302 21.5597 60.8302 21.7297 60.7102C21.8997 60.6002 22.0797 60.5102 22.2497 60.4502C22.5397 60.3402 22.8197 60.2202 23.1097 60.1002C23.3997 59.9902 23.6797 59.9002 23.9697 59.8402C24.2597 59.7802 24.5297 59.7002 24.7897 59.5802C25.0497 59.4702 25.2897 59.3502 25.5197 59.2402C25.5797 59.2402 25.6297 59.2302 25.6897 59.2002C25.7497 59.1702 25.7997 59.1602 25.8597 59.1602C25.9697 59.2802 26.1197 59.3002 26.2897 59.2502C26.4597 59.1902 26.6097 59.1402 26.7197 59.0802C27.1797 58.9702 27.6097 58.8402 28.0097 58.6902C28.4097 58.5502 28.8397 58.4202 29.2997 58.3002C29.4097 58.2402 29.5297 58.1902 29.6497 58.1302C29.7597 58.0702 29.8797 58.0202 29.9897 57.9602C30.0497 57.9602 30.0997 57.9802 30.1597 58.0002C30.2197 58.0302 30.2697 58.0402 30.3297 58.0402H30.4997C30.5597 57.8702 30.6297 57.8002 30.7197 57.8202C30.8097 57.8502 30.9097 57.8302 31.0197 57.7802C31.3697 57.7202 31.7197 57.6702 32.0997 57.6102C32.4697 57.5502 32.8597 57.4402 33.2697 57.2602C33.3797 57.2602 33.4397 57.2302 33.4397 57.1702C33.6697 57.1702 33.8397 57.1402 33.9597 57.0802C34.3597 56.7902 34.7397 56.7102 35.0797 56.8202H35.5097C35.7997 56.8202 36.0797 56.7502 36.3697 56.6002C36.6597 56.4602 36.9697 56.3802 37.3197 56.3802C37.4297 56.4402 37.5597 56.4402 37.7097 56.3802C37.8497 56.3202 38.0097 56.2702 38.1797 56.2102C38.2897 56.2102 38.4397 56.2202 38.6097 56.2502C38.7797 56.2802 38.9497 56.2402 39.1297 56.1202C39.4697 56.0102 39.8297 55.9302 40.2097 55.9002C40.5797 55.8702 40.9397 55.8302 41.2897 55.7702C41.6897 55.7702 42.0797 55.7602 42.4597 55.7302C42.8297 55.7002 43.1597 55.5402 43.4497 55.2602C43.5597 55.4302 43.7097 55.5202 43.8797 55.5202H44.3097C44.5397 55.4602 44.7397 55.4202 44.9097 55.3902C45.0797 55.3602 45.2797 55.3202 45.5097 55.2602C45.7997 55.2002 46.1097 55.1902 46.4597 55.2202C46.8097 55.2502 47.1197 55.1802 47.4097 55.0002C47.7497 55.1202 48.0997 55.1002 48.4397 54.9602C48.7797 54.8202 49.1297 54.7702 49.4697 54.8302C49.5597 54.8302 49.6497 54.8302 49.7497 54.8002C50.0297 54.9902 50.3397 55.0902 50.6797 55.0902C50.7997 55.2102 50.9297 55.2602 51.0697 55.2602H51.4597C51.6897 55.3702 51.8597 55.4302 51.9797 55.4302H52.6697C52.7797 55.4302 53.0197 55.3702 53.3597 55.2602C53.5297 55.2602 53.6697 55.2502 53.7897 55.2202C53.8997 55.1902 53.9897 55.1802 54.0497 55.1802C54.1097 55.1802 54.2397 55.1202 54.4397 55.0102C54.6397 54.9002 54.7697 54.8102 54.8297 54.7502C54.9997 54.7502 55.1797 54.6602 55.3497 54.4902C55.7497 54.3802 56.0697 54.1202 56.2997 53.7102H56.3897L56.7297 53.3702C56.8997 53.3702 57.0197 53.3002 57.0797 53.1502C57.1397 53.0102 57.2197 52.8202 57.3397 52.5902V52.7602L57.8597 52.2402C57.9197 52.1802 57.9897 52.1002 58.0797 51.9802C58.1597 51.8702 58.3497 51.4902 58.6397 50.8602V51.0302L58.8997 50.6002V50.7702L59.1597 50.2502V50.3402L59.5897 49.9902C59.5897 49.8802 59.6197 49.7202 59.6797 49.5202C59.7397 49.3202 59.7697 49.1302 59.7697 48.9602L59.6797 49.3102C59.6197 49.3702 59.6497 49.2502 59.7697 48.9602C59.7697 48.9002 59.8297 48.7602 59.9397 48.5302H60.2797C60.3397 48.3002 60.4797 48.0702 60.7097 47.8402V47.2402L61.6597 45.6002C61.7697 45.4302 61.8597 45.2302 61.9197 45.0002C61.9797 44.7702 62.0597 44.6002 62.1797 44.4802V44.3902C62.1797 44.3302 62.1897 44.3002 62.2197 44.3002C62.2497 44.3002 62.2597 44.2702 62.2597 44.2102L62.7797 42.9202C62.8397 42.8602 62.8697 42.8102 62.8697 42.7502C62.8697 42.6402 62.8997 42.5502 62.9597 42.4902C63.0197 42.3802 63.0897 42.2002 63.1797 41.9702C63.2697 41.7402 63.3097 41.6002 63.3097 41.5402C63.3697 41.4802 63.4497 41.3102 63.5697 41.0202C63.9097 41.0802 64.2897 41.0802 64.6897 41.0202C64.7997 40.9602 65.0597 40.9302 65.4697 40.9302H66.0297C66.2297 40.9302 66.3897 40.9002 66.4997 40.8402H66.4097C66.4697 40.8402 66.5097 40.8302 66.5397 40.8002C66.5697 40.7702 66.6097 40.7602 66.6697 40.7602C66.8397 40.7602 67.0697 40.7002 67.3597 40.5902C67.5897 40.7102 67.7597 40.6202 67.8797 40.3302C68.0497 40.3302 68.2497 40.3002 68.4797 40.2402C68.7097 40.1802 68.8797 40.1302 68.9997 40.0702H68.8297L69.1697 39.9002L69.6897 39.7302C69.7997 39.6202 70.0097 39.5102 70.2897 39.4302C70.5797 39.3402 70.8097 39.2402 70.9797 39.1302H71.1497L71.3197 39.0502C71.3197 39.0502 71.2897 39.1302 71.2797 39.1802C71.2497 39.3202 71.1797 39.4302 71.0597 39.4802C70.7697 39.6002 70.6697 39.7302 70.7597 39.8702C70.8497 40.0102 70.8597 40.1402 70.7997 40.2602V40.4302C70.5697 40.6602 70.4397 40.9002 70.4097 41.1602C70.3797 41.4202 70.2797 41.6602 70.1097 41.8902C69.9397 42.1802 69.8197 42.4502 69.7697 42.7102C69.7097 42.9702 69.6297 43.2402 69.5097 43.5302C69.3997 43.7602 69.3197 43.9602 69.2897 44.1302C69.2597 44.3002 69.1597 44.4502 68.9897 44.5602C68.9297 44.6202 68.8997 44.7002 68.8997 44.8202C68.7897 45.0502 68.7097 45.2802 68.6797 45.5102C68.6497 45.7402 68.5797 45.9702 68.4597 46.2002C68.3497 46.4302 68.2297 46.6702 68.1197 46.9302C68.0097 47.1902 67.8597 47.4002 67.6897 47.5802C67.6297 47.5802 67.5997 47.6402 67.5997 47.7502C67.5397 47.9802 67.4997 48.2102 67.4697 48.4402C67.4397 48.6702 67.3997 48.9302 67.3397 49.2202L67.2497 49.3902C67.1397 49.5102 67.0597 49.6402 67.0297 49.7802C66.9997 49.9202 66.9597 50.0502 66.8997 50.1702C66.7897 50.4602 66.6797 50.7302 66.5997 50.9902C66.5097 51.2502 66.4397 51.5202 66.3797 51.8102C66.3197 52.1602 66.1497 52.3902 65.8597 52.5002C65.9197 52.5602 65.9797 52.6002 66.0297 52.6302C66.0897 52.6602 66.1497 52.7002 66.1997 52.7602V52.8502C65.9097 53.4302 65.8797 54.0002 66.1097 54.5702C66.1697 54.6802 66.1797 54.7902 66.1497 54.8702C66.1197 54.9602 66.1097 55.0602 66.1097 55.1702L66.2797 55.2602V55.3502C66.2197 56.0402 66.5397 56.3902 67.2297 56.3902L67.5797 56.5602C67.5197 56.6802 67.4897 56.8202 67.4897 56.9902C67.8897 57.2802 68.1797 57.2202 68.3497 56.8202C68.5197 56.8802 68.6997 56.9402 68.8697 56.9902C69.0397 57.0502 69.1897 56.9302 69.2997 56.6402C69.3597 56.6402 69.3897 56.6302 69.3897 56.6002C69.3897 56.5702 69.4197 56.5602 69.4797 56.5602C69.6497 56.6802 69.8097 56.6802 69.9497 56.5602C70.0897 56.4502 70.2497 56.3602 70.4197 56.3002C70.8797 56.1302 71.0797 55.8102 71.0197 55.3502L71.1897 55.4402H71.2797C71.3397 55.3302 71.3997 55.2402 71.4497 55.1802C71.5097 55.1202 71.5697 55.0402 71.6197 54.9202C71.6797 54.7502 71.7297 54.5902 71.7897 54.4502C71.8497 54.3102 71.9297 54.1502 72.0497 53.9802C72.1097 53.8702 72.2197 53.7802 72.3897 53.7202C72.5597 53.6602 72.6197 53.5202 72.5597 53.2902C72.8497 53.1802 73.0197 53.0202 73.0797 52.8202C73.1397 52.6202 73.2197 52.3802 73.3397 52.0902C73.3997 51.8602 73.5397 51.7502 73.7697 51.7502V51.3202C73.8797 51.1502 73.9697 50.9802 74.0297 50.8002C74.0897 50.6302 74.1697 50.4602 74.2897 50.2802C74.2897 50.1102 74.3197 50.0202 74.3797 50.0202C74.6697 49.9102 74.7797 49.7302 74.7197 49.5002C74.8297 49.2102 74.9797 48.9502 75.1497 48.7202C75.3197 48.4902 75.4597 48.2302 75.5797 47.9402C75.6897 47.7102 75.8497 47.5502 76.0497 47.4702C76.2497 47.3802 76.3797 47.2002 76.4397 46.9102C76.4997 46.8002 76.5497 46.6702 76.6097 46.5202C76.6697 46.3802 76.7197 46.2502 76.7797 46.1302C77.0097 45.7902 77.1197 45.5302 77.1197 45.3502C77.1797 45.1802 77.2597 45.0602 77.3797 45.0102C77.4897 44.9502 77.5797 44.8402 77.6397 44.6702C77.6397 44.3202 77.8097 43.9802 78.1597 43.6302C78.4997 43.2902 78.6497 42.9702 78.5897 42.6802C78.5897 42.3902 78.7597 42.1302 79.1097 41.9002C79.3397 41.7302 79.5097 41.5302 79.6297 41.3002C79.7397 41.0702 79.8597 40.8402 79.9697 40.6102C80.0797 40.3202 80.2297 40.0502 80.3997 39.7902C80.5697 39.5302 80.8297 39.3502 81.1797 39.2302C81.0697 39.0002 81.0897 38.8002 81.2697 38.6302C81.5597 38.2802 81.8297 37.9302 82.0897 37.5502C82.3497 37.1802 82.6197 36.8202 82.9097 36.4702C83.2497 36.0102 83.5097 35.6902 83.6897 35.5202C83.7497 35.4602 83.8597 35.4302 84.0397 35.4302C83.9797 35.7202 83.9497 35.9802 83.9497 36.2102C83.9497 36.4402 83.8897 36.6702 83.7797 36.9002C83.6597 37.1902 83.5497 37.4802 83.4397 37.7602C83.3197 38.0502 83.2397 38.3602 83.1797 38.7102C83.1197 38.9402 83.0897 39.1602 83.0897 39.3602C83.0897 39.5602 83.0597 39.7802 82.9997 40.0102C82.8897 40.0702 82.7997 40.1302 82.7397 40.1802C82.6797 40.2402 82.5997 40.3002 82.4797 40.3502C82.5397 40.5202 82.5697 40.7202 82.5697 40.9502C82.4497 41.0702 82.3697 41.1402 82.3097 41.1702C82.2497 41.2002 82.1897 41.2402 82.1397 41.3002C82.1397 41.4202 82.1497 41.5002 82.1797 41.5602C82.2097 41.6202 82.2197 41.6802 82.2197 41.7302C81.9897 42.1302 81.8697 42.6502 81.8697 43.2802C81.8697 43.5702 81.7297 43.8602 81.4397 44.1402C81.5497 44.3102 81.5797 44.4302 81.5297 44.4902C81.5297 44.8302 81.4997 45.0902 81.4397 45.2702C81.3797 45.5002 81.3697 45.7202 81.3997 45.9202C81.4297 46.1202 81.3797 46.3102 81.2697 46.4802C81.2097 46.7702 81.1797 47.1402 81.1797 47.6002C81.1797 47.7102 81.2097 47.8302 81.2697 47.9402C81.3297 48.0602 81.3297 48.1702 81.2697 48.2802C81.2097 48.4002 81.2397 48.5002 81.3597 48.5802C81.4697 48.6702 81.4697 48.8002 81.3597 48.9702C81.4697 49.1402 81.5597 49.3502 81.6197 49.5702C81.6797 49.8002 81.8797 49.9502 82.2197 50.0002C81.9897 50.4002 82.0497 50.7802 82.3897 51.1202C82.4997 51.1802 82.6197 51.3202 82.7397 51.5502C82.9097 51.8902 83.1897 52.1802 83.5597 52.4102C83.9297 52.6402 84.3197 52.7302 84.7197 52.6702C84.8897 52.6102 85.0797 52.6002 85.2797 52.6302C85.4797 52.6602 85.6397 52.5902 85.7497 52.4102H86.2697C86.8397 52.2402 87.6197 51.8102 88.5997 51.1202C88.7697 51.0102 88.9597 50.8602 89.1597 50.6902C89.3597 50.5202 89.5797 50.3502 89.8097 50.1702C89.9197 50.0602 90.0497 49.9402 90.1997 49.8302C90.3397 49.7202 90.4697 49.6002 90.5897 49.4802C90.7597 49.3702 90.9197 49.2202 91.0597 49.0502C91.1997 48.8802 91.3597 48.7402 91.5297 48.6202C91.8197 48.3302 92.0897 48.0502 92.3497 47.7602C92.4497 47.6502 92.5397 47.5502 92.6397 47.4402C92.5797 47.6602 92.5297 47.9102 92.4697 48.1902C92.4697 48.3002 92.4297 48.4202 92.3397 48.5302C92.2497 48.6502 92.2697 48.7602 92.3797 48.8702C92.4997 49.3302 92.5797 49.6502 92.6397 49.8202C92.4097 50.1602 92.3097 50.4402 92.3397 50.6402C92.3697 50.8402 92.4097 51.1102 92.4697 51.4602C92.5297 51.6302 92.5997 51.7902 92.6897 51.9302C92.7797 52.0702 92.7597 52.2302 92.6497 52.4002V52.5702C92.7697 52.6902 92.8497 52.8002 92.9097 52.9202C92.9697 53.0302 93.0497 53.1502 93.1697 53.2602C93.2297 53.3802 93.2897 53.4902 93.3397 53.6002C93.3997 53.7202 93.4297 53.8302 93.4297 53.9502C93.4297 54.2402 93.5197 54.4702 93.6897 54.6402C93.8597 54.7502 94.0697 54.9302 94.2897 55.1602C94.4097 55.3302 94.5197 55.3602 94.6397 55.2502C94.6997 55.1902 94.7497 55.1602 94.8097 55.1602V55.6802C94.9797 55.7402 95.1397 55.8002 95.2797 55.8502C95.4197 55.9102 95.5797 55.9602 95.7497 56.0202C95.8697 56.0802 95.9697 56.0902 96.0497 56.0602C96.1397 56.0302 96.2397 56.0702 96.3497 56.1902C96.5197 56.4802 96.7197 56.5602 96.9497 56.4502C97.5797 56.3902 98.2197 56.2202 98.8497 55.9302C99.1897 55.7002 99.5197 55.4702 99.8397 55.2402C100.16 55.0102 100.46 54.7802 100.75 54.5502C100.86 54.4402 100.95 54.3202 101.01 54.2002C101.07 54.0902 101.15 54.0002 101.27 53.9402C101.67 53.6502 102.08 53.2202 102.48 52.6502C102.65 52.4802 102.8 52.2902 102.91 52.0902C103.02 51.8902 103.17 51.7302 103.34 51.6202C103.63 51.3902 103.89 51.1502 104.12 50.8902C104.35 50.6302 104.58 50.3602 104.81 50.0702C104.92 50.0102 105 49.9602 105.03 49.9002C105.06 49.8402 105.13 49.7602 105.25 49.6402C105.31 49.8102 105.35 49.9602 105.38 50.0702C105.41 50.1902 105.42 50.3002 105.42 50.4202C105.36 50.5402 105.31 50.6702 105.25 50.8102C105.19 50.9502 105.16 51.0802 105.16 51.2002C104.93 51.7802 104.84 52.2102 104.9 52.4902C104.9 52.6102 104.91 52.7402 104.94 52.8802C104.97 53.0202 104.95 53.1502 104.9 53.2702C104.79 53.4402 104.74 53.6402 104.77 53.8702C104.8 54.1002 104.78 54.3302 104.73 54.5602C104.67 54.7302 104.66 54.9002 104.69 55.0802C104.72 55.2502 104.73 55.4202 104.73 55.6002C104.73 55.6602 104.76 55.6902 104.82 55.6902C104.99 55.7502 105.07 55.8302 105.04 55.9502C105.01 56.0702 105 56.1802 105 56.3002C105 56.5902 105.01 56.7902 105.04 56.9002C105.07 57.0202 105.17 57.2202 105.34 57.5002C105.45 57.8402 105.54 58.1302 105.6 58.3602C105.6 58.4802 105.63 58.5602 105.69 58.6202C105.86 58.6802 106.01 58.8502 106.12 59.1402C106.23 59.4302 106.44 59.6302 106.72 59.7402C106.89 59.8602 107.08 59.9602 107.28 60.0402C107.48 60.1302 107.64 60.2302 107.75 60.3402C108.27 60.7402 108.81 60.8002 109.39 60.5102C109.56 60.5702 109.68 60.6802 109.73 60.8502C109.79 60.7402 109.87 60.6202 109.99 60.5102L110.51 60.7702C110.62 60.7102 110.73 60.6602 110.81 60.6002C110.9 60.5402 111 60.4902 111.11 60.4302C111.34 60.3202 111.57 60.2102 111.8 60.1302C112.03 60.0402 112.23 59.9402 112.4 59.8302C112.74 59.6602 113.03 59.4602 113.26 59.2302C113.49 59.0602 113.69 58.8602 113.86 58.6302C114.03 58.4002 114.23 58.2302 114.46 58.1102C114.69 58.0002 114.86 57.8402 114.98 57.6402C115.09 57.4402 115.21 57.2502 115.33 57.0802C115.44 56.9102 115.55 56.8102 115.63 56.7802C115.72 56.7502 115.82 56.7102 115.93 56.6502C115.93 56.5402 115.9 56.4502 115.84 56.3902C116.18 56.2802 116.44 56.1602 116.62 56.0402V55.7802C116.85 55.6702 116.98 55.4602 117.01 55.1802C117.04 54.8902 117.17 54.6902 117.4 54.5802V54.3202H117.66C117.66 54.2602 117.64 54.2202 117.62 54.1902C117.59 54.1602 117.58 54.1202 117.58 54.0602C117.69 54.0002 117.84 53.9602 118.01 53.9302C118.18 53.9002 118.33 53.8602 118.44 53.8002C118.44 53.5702 118.47 53.4302 118.53 53.3702C118.64 53.2602 118.75 53.1402 118.83 53.0202C118.92 52.9102 119.02 52.7902 119.13 52.6802C119.24 52.5102 119.37 52.3202 119.52 52.1202C119.66 51.9202 119.79 51.7302 119.91 51.5602L120.43 50.7802C120.49 50.6702 120.54 50.5902 120.6 50.5602C120.63 50.5402 120.67 50.5102 120.7 50.4602C120.75 50.5602 120.8 50.6502 120.86 50.7302C120.92 50.8202 120.95 50.8902 120.95 50.9502V51.0402C120.95 51.1602 121.01 51.3802 121.12 51.7302V52.2502L121.98 53.3702L122.67 53.8902L123.45 54.5802C123.79 54.9202 124.2 55.1002 124.66 55.1002C124.78 55.2202 124.91 55.2702 125.05 55.2702H125.44C125.67 55.3802 125.84 55.4402 125.96 55.4402H126.65C126.76 55.4402 127 55.3802 127.34 55.2702C127.51 55.2702 127.65 55.2602 127.77 55.2302C127.88 55.2002 127.97 55.1902 128.03 55.1902C128.09 55.1902 128.22 55.1302 128.42 55.0202C128.62 54.9102 128.75 54.8202 128.81 54.7602C128.98 54.7602 129.16 54.6702 129.33 54.5002C129.73 54.3902 130.05 54.1302 130.28 53.7202H130.37L130.71 53.3802C130.88 53.3802 131 53.3102 131.06 53.1602C131.12 53.0202 131.2 52.8302 131.32 52.6002V52.7702L131.84 52.2502C131.9 52.1902 131.97 52.1102 132.06 51.9902C132.15 51.8802 132.33 51.5002 132.62 50.8702V51.0402L132.88 50.6102V50.7802L133.14 50.2602V50.3502L133.57 50.0002C133.57 49.8902 133.6 49.7302 133.66 49.5302C133.72 49.3302 133.75 49.1402 133.75 48.9702L133.66 49.3202C133.6 49.3802 133.63 49.2602 133.75 48.9702C133.75 48.9102 133.81 48.7702 133.92 48.5402H134.26C134.32 48.3102 134.46 48.0802 134.69 47.8502V47.2502L135.64 45.6102C135.75 45.4402 135.84 45.2402 135.9 45.0102C135.96 44.7802 136.04 44.6102 136.16 44.4902V44.4002C136.16 44.3402 136.17 44.3102 136.2 44.3102C136.23 44.3102 136.24 44.2802 136.24 44.2202L136.76 42.9302C136.82 42.8702 136.85 42.8202 136.85 42.7602C136.85 42.6502 136.88 42.5602 136.94 42.5002C137 42.3902 137.07 42.2102 137.16 41.9802C137.25 41.7502 137.29 41.6102 137.29 41.5502C137.35 41.4902 137.43 41.3202 137.55 41.0302C137.89 41.0902 138.27 41.0902 138.67 41.0302C138.78 40.9702 139.04 40.9402 139.45 40.9402H140.01C140.21 40.9402 140.37 40.9102 140.48 40.8502H140.39C140.45 40.8502 140.49 40.8402 140.52 40.8102C140.55 40.7802 140.59 40.7702 140.65 40.7702C140.82 40.7702 141.05 40.7102 141.34 40.6002C141.57 40.7202 141.74 40.6302 141.86 40.3402C142.03 40.3402 142.23 40.3102 142.46 40.2502C142.69 40.1902 142.86 40.1402 142.98 40.0802H142.81L143.15 39.9102L143.67 39.7402C143.78 39.6302 143.99 39.5202 144.27 39.4402C144.56 39.3502 144.79 39.2502 144.96 39.1402H145.13L145.3 39.0602C145.3 39.0602 145.27 39.1402 145.26 39.1902C145.23 39.3302 145.16 39.4402 145.04 39.4902C144.75 39.6102 144.65 39.7402 144.74 39.8802C144.82 40.0202 144.84 40.1502 144.78 40.2702V40.4402C144.55 40.6702 144.42 40.9102 144.39 41.1702C144.36 41.4302 144.26 41.6702 144.09 41.9002C143.92 42.1902 143.8 42.4602 143.75 42.7202C143.69 42.9802 143.61 43.2502 143.49 43.5402C143.38 43.7702 143.3 43.9702 143.27 44.1402C143.24 44.3102 143.14 44.4602 142.97 44.5702C142.91 44.6302 142.88 44.7102 142.88 44.8302C142.77 45.0602 142.69 45.2902 142.66 45.5202C142.63 45.7502 142.56 45.9802 142.44 46.2102C142.33 46.4402 142.21 46.6802 142.1 46.9402C141.99 47.2002 141.84 47.4102 141.67 47.5902C141.61 47.5902 141.58 47.6502 141.58 47.7602C141.52 47.9902 141.48 48.2202 141.45 48.4502C141.42 48.6802 141.38 48.9402 141.32 49.2302L141.23 49.4002C141.12 49.5202 141.04 49.6502 141.01 49.7902C140.98 49.9302 140.94 50.0602 140.88 50.1802C140.77 50.4702 140.66 50.7402 140.58 51.0002C140.49 51.2602 140.42 51.5302 140.36 51.8202C140.3 52.1702 140.13 52.4002 139.84 52.5102C139.9 52.5702 139.96 52.6102 140.01 52.6402C140.07 52.6702 140.13 52.7102 140.18 52.7702V52.8602C139.89 53.4402 139.86 54.0102 140.09 54.5802C140.15 54.6902 140.16 54.8002 140.13 54.8802C140.1 54.9702 140.09 55.0702 140.09 55.1802L140.26 55.2702V55.3602C140.2 56.0502 140.52 56.4002 141.21 56.4002L141.55 56.5702C141.49 56.6902 141.46 56.8302 141.46 57.0002C141.86 57.2902 142.15 57.2302 142.32 56.8302C142.49 56.8902 142.67 56.9502 142.84 57.0002C143.01 57.0602 143.16 56.9402 143.27 56.6502C143.33 56.6502 143.35 56.6402 143.35 56.6102C143.35 56.5802 143.38 56.5702 143.44 56.5702C143.61 56.6902 143.77 56.6902 143.91 56.5702C144.05 56.4602 144.21 56.3702 144.38 56.3102C144.84 56.1402 145.04 55.8202 144.98 55.3602L145.15 55.4502H145.24C145.3 55.3402 145.36 55.2502 145.41 55.1902C145.47 55.1302 145.53 55.0502 145.58 54.9302C145.64 54.7602 145.69 54.6002 145.75 54.4602C145.81 54.3202 145.89 54.1602 146.01 53.9902C146.07 53.8802 146.18 53.7902 146.35 53.7302C146.52 53.6702 146.58 53.5302 146.52 53.3002C146.81 53.1902 146.98 53.0302 147.04 52.8302C147.1 52.6302 147.18 52.3902 147.3 52.1002C147.36 51.8702 147.5 51.7602 147.73 51.7602V51.3302C147.84 51.1602 147.93 50.9902 147.99 50.8102C148.05 50.6402 148.13 50.4702 148.25 50.2902C148.25 50.1202 148.28 50.0302 148.34 50.0302C148.63 49.9202 148.74 49.7402 148.68 49.5102C148.79 49.2202 148.94 48.9602 149.11 48.7302C149.28 48.5002 149.42 48.2402 149.54 47.9502C149.65 47.7202 149.81 47.5602 150.01 47.4802C150.21 47.3902 150.34 47.2102 150.4 46.9202C150.46 46.8102 150.51 46.6802 150.57 46.5302C150.63 46.3902 150.68 46.2602 150.74 46.1402C150.97 45.8002 151.08 45.5402 151.08 45.3602C151.14 45.1902 151.22 45.0702 151.34 45.0202C151.45 44.9602 151.54 44.8502 151.6 44.6802C151.6 44.3302 151.77 43.9902 152.12 43.6402C152.46 43.3002 152.61 42.9802 152.55 42.6902C152.55 42.4002 152.72 42.1402 153.07 41.9102C153.3 41.7402 153.47 41.5402 153.59 41.3102C153.7 41.0802 153.82 40.8502 153.93 40.6202C154.04 40.3302 154.19 40.0602 154.36 39.8002C154.53 39.5402 154.79 39.3602 155.14 39.2402C155.03 39.0102 155.05 38.8102 155.23 38.6402C155.52 38.2902 155.79 37.9402 156.05 37.5602C156.31 37.1902 156.58 36.8302 156.87 36.4802C157.22 36.0202 157.47 35.7002 157.65 35.5302C157.71 35.4702 157.82 35.4402 158 35.4402C157.94 35.7302 157.91 35.9902 157.91 36.2202C157.91 36.4502 157.85 36.6802 157.74 36.9102C157.62 37.2002 157.51 37.4902 157.4 37.7702C157.28 38.0602 157.2 38.3702 157.14 38.7202C157.08 38.9502 157.05 39.1702 157.05 39.3702C157.05 39.5702 157.02 39.7902 156.96 40.0202C156.85 40.0802 156.76 40.1402 156.7 40.1902C156.64 40.2502 156.56 40.3102 156.44 40.3602C156.5 40.5302 156.53 40.7302 156.53 40.9602C156.41 41.0802 156.33 41.1502 156.27 41.1802C156.21 41.2102 156.16 41.2502 156.1 41.3102C156.1 41.4302 156.11 41.5102 156.14 41.5702C156.17 41.6302 156.18 41.6902 156.18 41.7402C155.95 42.1402 155.83 42.6602 155.83 43.2902C155.83 43.5802 155.69 43.8702 155.4 44.1502C155.51 44.3202 155.54 44.4402 155.49 44.5002C155.49 44.8402 155.46 45.1002 155.4 45.2802C155.34 45.5102 155.33 45.7302 155.36 45.9302C155.39 46.1302 155.34 46.3202 155.23 46.4902C155.17 46.7802 155.14 47.1502 155.14 47.6102C155.14 47.7202 155.17 47.8402 155.23 47.9502C155.29 48.0702 155.29 48.1802 155.23 48.2902C155.17 48.4102 155.2 48.5102 155.32 48.5902C155.43 48.6802 155.43 48.8102 155.32 48.9802C155.43 49.1502 155.52 49.3602 155.58 49.5802C155.64 49.8102 155.84 49.9602 156.18 50.0102C155.95 50.4102 156.01 50.7902 156.35 51.1302C156.46 51.1902 156.58 51.3302 156.7 51.5602C156.87 51.9002 157.15 52.1902 157.52 52.4202C157.89 52.6502 158.28 52.7402 158.68 52.6802C158.85 52.6202 159.04 52.6102 159.24 52.6402C159.44 52.6702 159.6 52.6002 159.71 52.4202H160.23C160.8 52.2502 161.58 51.8202 162.56 51.1302C162.73 51.0202 162.92 50.8702 163.12 50.7002C163.32 50.5302 163.54 50.3602 163.77 50.1802C163.88 50.0702 164.01 49.9502 164.16 49.8402C164.3 49.7302 164.43 49.6102 164.55 49.4902C164.72 49.3802 164.88 49.2302 165.02 49.0602C165.16 48.8902 165.32 48.7502 165.49 48.6302C165.78 48.3402 166.05 48.0602 166.31 47.7702C166.57 47.4802 166.84 47.2002 167.13 46.9102C167.24 46.8002 167.35 46.6802 167.43 46.5602C167.52 46.4502 167.62 46.3302 167.73 46.2202C167.96 45.9902 168.19 45.7602 168.42 45.5302C168.65 45.3002 168.85 45.0702 169.02 44.8402C169.31 44.4402 169.59 44.0602 169.88 43.7202C170.17 43.3802 170.43 43.0302 170.66 42.6902C170.95 42.2302 171.19 41.8802 171.39 41.6602C171.59 41.4302 171.75 41.1702 171.86 40.8802C171.92 40.7702 172.03 40.6802 172.2 40.6202C172.37 40.5602 172.49 40.4802 172.55 40.3602C172.72 40.1302 172.79 39.8602 172.77 39.5402C172.74 39.2202 172.78 38.9202 172.9 38.6302C172.96 38.5202 173.07 38.3702 173.25 38.2002C173.42 38.0302 173.54 37.8802 173.59 37.7702C173.7 37.6002 173.72 37.3802 173.63 37.1202C173.54 36.8602 173.56 36.6202 173.67 36.3902C174.07 35.9902 174.33 35.7002 174.45 35.5302L174.56 35.4502ZM59.4597 39.4202C59.4297 39.3602 59.4197 39.3602 59.4197 39.4202L59.1597 40.0202C59.2697 39.9102 59.2997 39.9602 59.2497 40.1902C59.1897 40.4202 59.1097 40.5902 58.9897 40.7102L58.6497 41.4902C58.4197 41.6102 58.3097 41.8602 58.3097 42.2702L57.7097 43.7402C57.5897 44.2002 57.5097 44.5002 57.4497 44.6502C57.3897 44.7902 57.3297 44.9202 57.2797 45.0402V44.9502C57.1097 45.1202 57.0197 45.2702 57.0197 45.3802V45.5502L56.3297 46.5002C56.3897 46.5002 56.3897 46.5302 56.3297 46.5902L56.2397 46.7602L55.7197 47.5402H55.8097C55.6897 47.6502 55.5897 47.7702 55.5097 47.8802C55.4197 48.0002 55.3497 48.1102 55.2897 48.2202C55.2897 48.1602 55.1997 48.2202 55.0297 48.3902C54.9697 48.5102 54.8897 48.6902 54.7697 48.9502C54.6497 49.2102 54.5697 49.4002 54.5097 49.5102L53.1297 50.6302H53.2197L52.8797 50.8902C52.5897 50.8902 52.4497 50.9502 52.4497 51.0602L51.8497 50.3702L51.5897 50.2002L51.3297 49.7702L51.4197 50.1102L51.2497 49.8502V48.7302C51.1897 48.5602 51.1897 48.3602 51.2497 48.1302V47.4402C51.1897 47.3802 51.2197 47.2402 51.3397 47.0102L51.5097 46.5802C51.5097 46.4702 51.5297 46.3802 51.5497 46.3202C51.5797 46.2602 51.5897 46.2102 51.5897 46.1502C51.5897 46.0402 51.6197 45.8902 51.6797 45.7202C51.7397 45.5502 51.7697 45.4002 51.7697 45.2902C52.1097 44.6002 52.2897 44.1402 52.2897 43.9102C52.4597 43.6802 52.5497 43.4502 52.5497 43.2202L52.4597 43.3902C52.4597 43.2202 52.3697 43.0402 52.1997 42.8702L52.5397 43.0402L53.1397 41.8302C53.1397 41.7702 53.1497 41.6902 53.1797 41.5702C53.1997 41.4702 53.2797 41.3102 53.4197 41.0802C53.5797 40.5502 53.7697 40.1602 53.9997 39.9302L54.6897 38.5502L54.8597 38.2002L55.0297 37.6002C55.0297 37.5402 55.0397 37.5002 55.0697 37.4702C55.0697 37.4702 55.0797 37.4602 55.0897 37.4502L55.1197 37.3402C55.1197 37.3402 55.1197 37.4202 55.0897 37.4502L55.0297 37.6902L55.1197 37.6002V37.6902C55.1797 37.9202 55.2097 38.2402 55.2097 38.6402L55.8997 38.9802L55.6397 38.8902C56.0397 39.1802 56.4597 39.2902 56.8897 39.2402C57.3197 39.1802 57.6497 39.0402 57.8797 38.8102C58.0497 38.6402 58.1997 38.4402 58.3097 38.2102L58.8297 38.6402H58.7397L59.0797 38.9002L59.5097 39.3302C59.5097 39.4502 59.4897 39.4702 59.4697 39.4202H59.4597ZM61.4797 32.3502V32.9502C61.5397 33.1202 61.4497 33.3802 61.2197 33.7302C61.2197 33.7902 61.1997 33.8302 61.1797 33.8602C61.1497 33.8902 61.1397 33.9302 61.1397 33.9902V33.9002C61.0797 34.1902 61.0497 34.4502 61.0497 34.6802L60.8797 35.2002L60.7097 35.6302L59.5297 34.3702C59.5297 34.3702 59.5497 34.4002 59.4997 34.3802C59.4397 34.3502 59.4397 34.2802 59.4997 34.1602L59.5897 33.6402C59.5897 33.5802 59.5997 33.5402 59.6297 33.5102C59.6597 33.4802 59.6697 33.4402 59.6697 33.3802C59.7797 33.0302 59.8397 32.7502 59.8397 32.5202C59.8997 32.0602 59.8997 31.7102 59.8397 31.4902C59.7797 31.2602 59.7197 31.0302 59.6697 30.8002C59.6097 30.7402 59.5797 30.6902 59.5797 30.6302L59.9297 30.2802H59.7597L60.6197 29.7602L60.9597 29.5002L61.2197 29.7602C61.2197 29.9902 61.2797 30.2202 61.3897 30.4502C61.3897 30.5602 61.4497 30.7402 61.5597 30.9702V31.6602C61.5597 31.7202 61.5897 31.7502 61.6497 31.7502C61.5297 31.9202 61.4797 32.1302 61.4797 32.3502ZM63.2097 40.8902C63.2697 40.8902 63.3097 40.9002 63.3397 40.9302C63.3697 40.9602 63.4097 40.9702 63.4697 40.9702C63.4097 41.0302 63.3297 41.0002 63.2097 40.8802V40.8902ZM109.87 35.3202C109.75 35.6402 109.64 35.9702 109.53 36.3102C109.41 36.6002 109.41 36.8902 109.53 37.1702C109.59 37.4602 109.57 37.6902 109.49 37.8602C109.41 38.0302 109.3 38.2002 109.19 38.3802C109.13 38.5002 109.06 38.6302 108.97 38.7702C108.88 38.9102 108.84 39.0402 108.84 39.1602C108.78 39.3302 108.71 39.4902 108.62 39.6302C108.53 39.7702 108.46 39.9002 108.4 40.0202C108.11 40.3702 107.85 40.7302 107.62 41.1002C107.39 41.4702 107.13 41.8002 106.84 42.0902C106.67 42.2102 106.52 42.3602 106.41 42.5602C106.29 42.7602 106.18 42.9202 106.06 43.0302C105.77 43.4902 105.46 43.8902 105.11 44.2402C104.77 44.5902 104.42 44.9902 104.08 45.4502L103.3 46.4802C103.01 46.7102 102.77 46.9402 102.57 47.1702C102.37 47.4002 102.15 47.6602 101.92 47.9502C101.69 48.2402 101.46 48.5002 101.23 48.7302C101 48.9602 100.8 49.2202 100.63 49.5102C100.46 49.7402 100.25 49.9302 100.03 50.0702C99.7997 50.2102 99.6297 50.4002 99.5097 50.6302C99.2797 50.9202 99.0397 51.1502 98.7797 51.3202C98.5197 51.4902 98.2797 51.7202 98.0497 52.0102C97.8797 52.1302 97.6897 52.1402 97.4897 52.0502C97.2897 51.9602 97.1297 51.8102 97.0197 51.5802C96.7897 50.4302 96.7897 49.2502 97.0197 48.0402C97.0797 47.9302 97.1197 47.8102 97.1497 47.6902C97.1797 47.5802 97.2197 47.4602 97.2797 47.3502C97.3397 47.1802 97.3497 46.9902 97.3197 46.7902C97.2897 46.5902 97.3297 46.4302 97.4497 46.3202C97.6197 45.9702 97.7397 45.6002 97.7897 45.2002C97.8497 44.8002 98.0197 44.4502 98.3097 44.1702C98.4197 44.1102 98.4397 44.0302 98.3497 43.9102C98.2597 43.8002 98.3097 43.6802 98.4797 43.5602C98.4797 43.2702 98.5497 43.0602 98.6997 42.9102C98.8397 42.7702 98.9497 42.5502 98.9997 42.2602C98.9997 42.1502 99.0397 42.0002 99.1297 41.8302C99.2197 41.6602 99.3197 41.4902 99.4297 41.3102C99.6597 41.0202 99.8497 40.6902 99.9897 40.3202C100.13 39.9502 100.29 39.5902 100.46 39.2402C100.46 39.1802 100.44 39.1302 100.42 39.0702C100.39 39.0102 100.38 38.9302 100.38 38.8102C100.49 38.7502 100.61 38.7002 100.72 38.6402C100.83 38.5802 100.98 38.5302 101.15 38.4702C101.09 38.3602 101.01 38.2402 100.89 38.1302C100.95 38.1302 100.98 38.1202 100.98 38.0902C100.98 38.0602 101.01 38.0502 101.07 38.0502C101.59 37.6502 101.96 37.1602 102.19 36.5802C102.25 36.4702 102.39 36.2902 102.62 36.0602C102.79 35.8902 102.95 35.7202 103.09 35.5402C103.23 35.3702 103.39 35.1702 103.56 34.9402C103.62 34.8302 103.65 34.7202 103.65 34.6402C103.65 34.5602 103.68 34.4802 103.74 34.4202C104.03 34.1302 104.26 33.9602 104.43 33.9002L104.95 33.3802C105.12 33.2102 105.27 33.0102 105.38 32.7802C105.61 32.4302 105.9 32.1502 106.24 31.9202L107.53 30.8902C107.64 30.7802 107.76 30.6302 107.87 30.4602C107.98 30.2902 108.16 30.2602 108.39 30.3702C108.5 30.3702 108.56 30.3102 108.56 30.2002C108.96 29.8602 109.45 29.6802 110.03 29.6802C110.61 29.6802 110.89 30.0002 110.89 30.6302C110.77 31.0902 110.7 31.5702 110.67 32.0502C110.64 32.5402 110.57 33.0102 110.45 33.4702C110.45 33.6402 110.42 33.8002 110.36 33.9402C110.3 34.0802 110.24 34.2402 110.19 34.4102C110.08 34.7002 109.96 35.0002 109.85 35.3202H109.87ZM133.46 39.4202C133.43 39.3602 133.42 39.3602 133.42 39.4202L133.16 40.0202C133.27 39.9102 133.3 39.9602 133.25 40.1902C133.19 40.4202 133.11 40.5902 132.99 40.7102L132.65 41.4902C132.42 41.6102 132.31 41.8602 132.31 42.2702L131.71 43.7402C131.59 44.2002 131.51 44.5002 131.45 44.6502C131.39 44.7902 131.33 44.9202 131.28 45.0402V44.9502C131.11 45.1202 131.02 45.2702 131.02 45.3802V45.5502L130.33 46.5002C130.39 46.5002 130.39 46.5302 130.33 46.5902L130.24 46.7602L129.72 47.5402H129.81C129.69 47.6502 129.59 47.7702 129.51 47.8802C129.42 48.0002 129.35 48.1102 129.29 48.2202C129.29 48.1602 129.2 48.2202 129.03 48.3902C128.97 48.5102 128.89 48.6902 128.77 48.9502C128.65 49.2102 128.57 49.4002 128.51 49.5102L127.13 50.6302H127.22L126.88 50.8902C126.59 50.8902 126.45 50.9502 126.45 51.0602C126.51 51.0602 126.56 51.0902 126.62 51.1502H126.53C126.59 51.2202 126.62 51.2802 126.62 51.3202L126.28 50.9802C126.34 51.0402 126.39 51.0702 126.45 51.0702L125.85 50.3802L125.59 50.2102L125.33 49.7802L125.42 50.1202L125.25 49.8602V48.7402C125.19 48.5702 125.19 48.3702 125.25 48.1402V47.4502C125.19 47.3902 125.22 47.2502 125.33 47.0202L125.5 46.5902C125.5 46.4802 125.52 46.3902 125.54 46.3302C125.57 46.2702 125.58 46.2202 125.58 46.1602C125.58 46.0502 125.61 45.9002 125.67 45.7302C125.73 45.5602 125.76 45.4102 125.76 45.3002C126.1 44.6102 126.28 44.1502 126.28 43.9202C126.45 43.6902 126.54 43.4602 126.54 43.2302L126.46 43.4002C126.46 43.2302 126.37 43.0502 126.2 42.8802L126.54 43.0502L127.14 41.8402C127.14 41.7802 127.15 41.7002 127.18 41.5802C127.2 41.4802 127.28 41.3202 127.42 41.0902C127.58 40.5602 127.77 40.1702 128 39.9402L128.69 38.5602L128.86 38.2102L129.03 37.6102C129.03 37.5502 129.04 37.5102 129.07 37.4802C129.07 37.4802 129.08 37.4702 129.09 37.4602L129.12 37.3502C129.12 37.3502 129.12 37.4302 129.09 37.4602L129.03 37.7002L129.12 37.6102V37.7002C129.18 37.9302 129.21 38.2502 129.21 38.6502L129.9 38.9902L129.64 38.9002C130.04 39.1902 130.46 39.3002 130.89 39.2502C131.32 39.1902 131.65 39.0502 131.88 38.8202C132.05 38.6502 132.2 38.4502 132.31 38.2202L132.83 38.6502H132.74L133.08 38.9102L133.51 39.3402C133.51 39.4602 133.49 39.4802 133.47 39.4302L133.46 39.4202ZM134.71 36.1402L134.62 36.0502H134.71V36.1402ZM135.49 32.9502C135.55 33.1202 135.46 33.3802 135.23 33.7302C135.23 33.7902 135.21 33.8302 135.19 33.8602C135.16 33.8902 135.15 33.9302 135.15 33.9902V33.9002C135.09 34.1902 135.06 34.4502 135.06 34.6802L134.89 35.2002L134.72 35.6302L133.54 34.3702C133.54 34.3702 133.54 34.4002 133.51 34.3702C133.45 34.3402 133.45 34.2702 133.51 34.1502L133.6 33.6302C133.6 33.5702 133.61 33.5302 133.64 33.5002C133.67 33.4702 133.68 33.4302 133.68 33.3702C133.79 33.0202 133.85 32.7402 133.85 32.5102C133.91 32.0502 133.91 31.7002 133.85 31.4802C133.79 31.2502 133.73 31.0202 133.68 30.7902C133.62 30.7302 133.59 30.6802 133.59 30.6202L133.94 30.2702H133.77L134.63 29.7502L134.97 29.4902L135.23 29.7502C135.23 29.9802 135.29 30.2102 135.4 30.4402C135.4 30.5502 135.46 30.7302 135.57 30.9602V31.6502C135.57 31.7102 135.6 31.7402 135.66 31.7402C135.54 31.9102 135.49 32.1202 135.49 32.3402V32.9502ZM137.21 40.8902C137.27 40.8902 137.31 40.9002 137.34 40.9302C137.37 40.9602 137.41 40.9702 137.47 40.9702C137.41 41.0302 137.33 41.0002 137.21 40.8802V40.8902Z" fill="white"/>
</svg>
