<svg width="211" height="86" viewBox="0 0 211 86" fill="none" xmlns="http://www.w3.org/2000/svg">
<path d="M75.0851 30.9908L75.1579 31.015C75.1579 31.015 75.1094 30.9908 75.0851 30.9908Z" fill="white"/>
<path d="M152.483 61.5263C152.483 61.5869 152.519 61.6233 152.58 61.6233C152.556 61.5869 152.519 61.5627 152.483 61.5263ZM152.483 61.5263C152.483 61.5869 152.519 61.6233 152.58 61.6233C152.556 61.5869 152.519 61.5627 152.483 61.5263ZM152.483 61.5263C152.483 61.5869 152.519 61.6233 152.58 61.6233C152.556 61.5869 152.519 61.5627 152.483 61.5263ZM149.937 45.0234C149.997 44.9507 150.046 44.8779 150.082 44.7931C150.034 44.8658 149.985 44.9507 149.937 45.0234ZM152.483 61.5263C152.483 61.5869 152.519 61.6233 152.58 61.6233C152.556 61.5869 152.519 61.5627 152.483 61.5263ZM152.483 61.5263C152.483 61.5869 152.519 61.6233 152.58 61.6233C152.556 61.5869 152.519 61.5627 152.483 61.5263Z" fill="white"/>
<path d="M210.843 42.5964C210.976 42.3903 211.037 42.1963 211 42.0265C210.964 41.8568 210.843 41.6506 210.637 41.396C210.43 41.1535 210.188 40.7534 209.909 40.1956C209.63 39.7106 209.315 39.5651 208.963 39.7833C208.684 39.9288 208.442 40.0137 208.236 40.0501C208.03 40.0865 207.787 40.0986 207.508 40.0986C207.302 40.0986 207.156 40.135 207.096 40.2077C206.95 40.3532 206.829 40.5108 206.732 40.6806C206.623 40.8504 206.502 41.008 206.368 41.1535C206.223 41.3596 206.09 41.59 205.956 41.8325C205.811 42.075 205.677 42.3054 205.532 42.5116C205.253 42.7177 205.059 42.9723 204.962 43.2391C204.853 43.518 204.731 43.7969 204.598 44.0758C204.113 45.0579 203.07 46.1613 201.458 47.4224C201.106 47.7013 200.791 47.9074 200.512 48.0529C200.233 48.1984 199.918 48.4046 199.566 48.6835C198.584 49.4474 197.699 50.2113 196.898 50.9873C196.098 51.7512 195.48 52.4545 195.067 53.0729C194.922 53.4973 194.643 53.6307 194.231 53.4973C194.231 53.3639 194.243 53.2184 194.279 53.0729C194.316 52.9395 194.328 52.794 194.328 52.6606C194.4 52.4545 194.437 52.1392 194.437 51.7148C194.849 51.7148 195.201 51.5815 195.48 51.3026C195.407 51.1692 195.31 51.0237 195.164 50.8903C195.237 50.7569 195.298 50.6235 195.371 50.5265C195.443 50.4174 195.48 50.3325 195.48 50.2598C195.334 49.9081 195.371 49.5807 195.589 49.2655C195.795 48.9502 195.868 48.6228 195.795 48.2712C195.795 47.9923 195.904 47.7498 196.11 47.5437C196.535 47.1314 196.668 46.707 196.535 46.2947C196.535 46.222 196.547 46.1735 196.583 46.1371C196.619 46.1007 196.632 46.0522 196.632 45.9795C196.765 45.6278 196.838 45.3126 196.838 45.0337C196.838 44.7548 196.971 44.4759 197.262 44.197V43.9909C197.189 43.6392 197.298 43.2633 197.577 42.839C197.432 42.7056 197.335 42.5601 197.262 42.4146C197.189 42.2812 197.226 42.0993 197.371 41.8932C197.505 41.7598 197.638 41.6021 197.735 41.4203C197.832 41.2505 197.965 41.0929 198.099 40.9474C197.82 40.5957 197.893 40.2805 198.305 40.0016V39.4802C198.438 39.1285 198.499 38.8133 198.463 38.5344C198.426 38.2555 198.378 37.9402 198.305 37.5886C198.305 37.4552 198.269 37.3461 198.196 37.2733C198.123 37.2006 198.062 37.1036 197.99 36.9581C197.917 36.8247 197.844 36.7156 197.784 36.6428C197.711 36.57 197.674 36.5094 197.674 36.4367C197.881 35.8789 197.844 35.4545 197.565 35.1756C197.699 35.0422 197.674 34.8603 197.456 34.6542C197.323 34.5208 197.189 34.4481 197.092 34.4481C196.995 34.4481 196.898 34.4117 196.826 34.3389C196.619 34.1328 196.377 33.8176 196.098 33.3932C195.965 33.5387 195.856 33.5993 195.783 33.5993C195.577 33.2476 195.358 33.0536 195.152 33.0294C194.946 32.993 194.558 33.1143 194 33.3932C193.928 33.3932 193.891 33.3204 193.891 33.187C193.758 33.1143 193.685 33.1506 193.685 33.2962C193.685 33.4417 193.612 33.4659 193.479 33.4053C193.333 33.2719 193.164 33.2355 192.958 33.2962C192.751 33.3689 192.57 33.4053 192.436 33.4053L191.187 34.0358C191.042 34.1086 190.92 34.1571 190.823 34.1934C190.714 34.2298 190.593 34.3147 190.46 34.4602C190.181 34.6663 189.95 34.8846 189.781 35.0907C189.611 35.2969 189.381 35.503 189.102 35.7213C188.75 35.9274 188.459 36.1942 188.216 36.5094C187.974 36.8247 187.707 37.1521 187.428 37.5037C187.222 37.8554 186.907 38.0979 186.483 38.2312C186.41 38.2312 186.337 38.2676 186.276 38.3404C186.349 38.4131 186.386 38.4616 186.386 38.498C186.386 38.5344 186.422 38.5829 186.495 38.6556C186.349 38.7284 186.228 38.7648 186.131 38.7648C186.034 38.7648 185.937 38.8375 185.864 38.9709C185.719 39.177 185.597 39.3953 185.5 39.6014C185.391 39.8076 185.234 40.0258 185.027 40.232C184.955 40.3775 184.87 40.4987 184.761 40.5957C184.652 40.7049 184.567 40.8261 184.494 40.9595C184.421 41.0322 184.324 41.0686 184.179 41.0686C184.251 40.8625 184.312 40.6685 184.385 40.4987C184.458 40.329 184.518 40.1713 184.591 40.0258C184.664 39.8197 184.7 39.6257 184.7 39.4559C184.7 39.2862 184.773 39.1285 184.906 38.983C184.979 38.7769 185.064 38.6071 185.173 38.4616C185.282 38.3283 185.258 38.11 185.124 37.8311L185.234 37.625C185.306 37.4916 185.343 37.3097 185.343 37.1036C185.343 36.6792 185.306 36.376 185.234 36.1578C185.367 36.085 185.512 36.0365 185.658 36.0001C185.791 35.9638 185.937 35.9153 186.07 35.8425L185.658 35.212C185.791 35.0786 185.925 34.9816 186.022 34.9452C186.131 34.9088 186.179 34.824 186.179 34.6785C186.313 34.3996 186.41 34.1207 186.446 33.8418C186.483 33.5629 186.531 33.284 186.604 33.0051C186.737 32.6535 186.81 32.3625 186.81 32.12C186.81 31.8775 186.883 31.5743 187.016 31.2348C187.089 31.1014 187.065 31.0287 186.968 31.0287C186.871 31.0287 186.81 30.9559 186.81 30.8225C186.883 30.7498 186.968 30.7134 187.077 30.7134C187.186 30.7134 187.234 30.677 187.234 30.6043C187.368 30.0465 187.477 29.4887 187.55 28.931C187.622 28.3732 187.683 27.8154 187.756 27.2576C187.756 26.9787 187.744 26.6999 187.707 26.421C187.671 26.1421 187.513 25.8996 187.234 25.6934C187.089 25.5601 187.065 25.4267 187.125 25.3297C187.198 25.2205 187.198 25.0993 187.125 24.9659L186.179 24.6506V24.2384C185.9 23.9595 185.658 23.8504 185.452 23.9231C185.306 23.9959 185.1 24.0322 184.821 24.0322C184.676 23.9595 184.433 24.0322 184.094 24.2384C183.948 24.3839 183.827 24.5051 183.73 24.6021C183.621 24.7113 183.5 24.7962 183.366 24.8689C183.015 25.0144 182.808 25.2205 182.736 25.4994C182.663 25.7783 182.566 26.0572 182.42 26.3361C182.287 26.6877 182.178 27.0515 182.105 27.4395C182.032 27.8275 181.96 28.1913 181.899 28.5429C181.754 28.8946 181.669 29.2098 181.632 29.4887C181.596 29.7676 181.511 30.0829 181.366 30.4345C181.293 30.7862 181.123 31.3076 180.844 31.9987C180.699 32.2776 180.577 32.5201 180.48 32.7263C180.371 32.9324 180.286 33.1749 180.214 33.4538C180.08 33.9388 179.91 34.3996 179.741 34.8118C179.571 35.2241 179.438 35.7213 179.377 36.279C179.377 36.6307 179.304 36.8732 179.171 37.0066C179.098 37.0793 179.062 37.1642 179.062 37.2733C179.062 37.3825 179.025 37.5037 178.953 37.6371C178.953 37.8432 178.916 38.0251 178.843 38.1585C178.771 38.304 178.71 38.4253 178.637 38.5223C178.565 38.6314 178.528 38.7526 178.528 38.886C178.455 39.1649 178.334 39.4074 178.164 39.6136C178.067 39.7348 178.031 39.8682 178.055 40.038H177.91C177.631 40.3168 177.461 40.5593 177.388 40.7655C176.903 41.2505 176.443 41.5294 176.03 41.6021C175.679 41.8083 175.388 41.9902 175.145 42.1235C174.903 42.269 174.709 42.4388 174.575 42.6449C174.709 42.6449 174.612 42.7298 174.26 42.9117C173.908 43.0815 173.557 43.2391 173.217 43.3846C173.144 43.3846 172.95 43.4695 172.647 43.6514C172.332 43.8211 172.102 43.9545 171.968 44.0151C171.689 44.0151 171.41 44.0879 171.132 44.2213L170.501 44.4274L169.555 44.6335C169.131 44.779 168.755 44.8397 168.403 44.8397H167.458C167.458 44.7063 167.53 44.4759 167.664 44.1606C167.797 43.8454 167.943 43.518 168.088 43.1663C168.015 43.2391 167.979 43.13 167.979 42.8511V42.2205C168.185 41.9417 168.294 41.6628 168.294 41.3839C168.428 41.0322 168.5 40.4745 168.5 39.7106C168.5 39.1528 168.537 38.7284 168.609 38.4616C168.609 38.3283 168.622 38.1827 168.658 38.0372C168.694 37.9039 168.706 37.7947 168.706 37.722C168.561 37.4431 168.5 37.2006 168.5 36.9944C168.5 36.7883 168.428 36.5458 168.294 36.2669V35.2241L167.348 35.4302C167.421 35.2969 167.47 34.9937 167.506 34.5451C167.542 34.0964 167.518 33.7205 167.458 33.4417L167.142 32.9203L166.827 32.605L166.512 32.1927L166.099 31.8775V31.9866C165.821 31.5016 165.505 31.2591 165.154 31.2591C165.081 31.2591 165.032 31.2227 164.996 31.1499C164.972 31.1136 164.948 31.0772 164.911 31.0651L165.251 31.1499C164.766 30.7983 164.208 30.6285 163.577 30.6285C163.226 30.4952 162.874 30.4588 162.535 30.5194C162.183 30.5922 161.868 30.6892 161.589 30.8347C161.722 30.8347 161.674 30.871 161.431 30.9438C161.189 31.0166 160.995 31.0893 160.861 31.1499L161.067 31.0408C160.716 31.0408 160.437 31.1499 160.231 31.3561C159.806 31.5622 159.527 31.7441 159.394 31.8775C159.261 32.0108 159.188 32.1564 159.188 32.3019L158.667 32.7141L157.939 33.3447C157.66 33.8297 157.454 34.1086 157.308 34.1813C157.163 34.2541 156.993 34.3511 156.787 34.4966C156.787 34.5693 156.763 34.6178 156.739 34.6542C156.702 34.6906 156.69 34.7391 156.69 34.8118V34.921L156.169 35.5515C156.035 36.1093 155.793 36.4852 155.441 36.7034C155.441 36.8489 155.368 37.0551 155.235 37.334H155.126L155.017 37.4431H155.126C154.98 37.5886 154.823 37.7098 154.653 37.8069C154.483 37.916 154.326 38.1342 154.18 38.4859V38.2797L154.071 38.4859L153.234 39.6378C153.089 39.7833 152.968 39.8803 152.871 39.9531C152.761 40.0258 152.64 40.0986 152.507 40.1592C152.507 40.232 152.47 40.329 152.398 40.4745C152.046 40.9595 151.876 41.3475 151.876 41.6264H151.767L151.343 42.2569L150.615 43.5059C150.615 43.7847 150.579 43.9545 150.506 44.0273V43.8211L150.094 44.8639C150.057 44.9367 150.009 45.0094 149.948 45.0943C149.9 45.1549 149.839 45.2156 149.779 45.2883C149.5 45.5672 149.318 45.8097 149.257 46.0158C149.124 46.4402 148.905 46.7797 148.627 47.0586C148.348 47.3375 148.142 47.6528 147.996 48.0044C147.644 48.2106 147.426 48.4531 147.317 48.732C147.208 49.0108 147.087 49.2897 146.953 49.5686C146.808 49.7748 146.711 49.9566 146.638 50.09C146.565 50.2234 146.432 50.3689 146.226 50.5023C146.226 50.575 146.153 50.672 146.02 50.8175C145.874 51.0964 145.716 51.3874 145.547 51.7027C145.377 52.018 145.183 52.2726 144.977 52.4909C144.625 52.8425 144.371 53.2184 144.189 53.6428C144.019 54.0551 143.752 54.4431 143.4 54.7947C143.194 55.0009 143 55.2434 142.831 55.5223C142.661 55.8011 142.467 56.08 142.261 56.3589C142.115 56.5651 141.958 56.7954 141.788 57.0379C141.618 57.2805 141.46 57.5108 141.315 57.717C141.315 57.9231 141.242 58.0322 141.109 58.0322C140.757 58.2384 140.551 58.4809 140.478 58.7598C140.478 58.8325 140.405 58.9295 140.272 59.075C139.92 59.2205 139.666 59.4267 139.484 59.7056C139.314 59.9845 139.157 60.2997 139.011 60.6514L138.696 60.9666C138.283 61.2455 137.992 61.5244 137.859 61.8033C137.726 62.2883 137.471 62.5672 137.132 62.6399C136.998 62.7127 136.901 62.7855 136.865 62.8461C136.828 62.9188 136.744 62.9916 136.598 63.0522C136.392 63.3311 136.186 63.5979 135.968 63.8404C135.761 64.0829 135.482 64.2769 135.131 64.4103C135.131 64.6164 134.985 64.7983 134.719 64.9317C134.44 65.0772 134.367 65.2833 134.512 65.5622C134.027 65.7683 133.53 66.0108 133.045 66.2897V64.1435C133.045 63.7676 133.154 63.3554 133.361 62.9431C133.433 62.8097 133.47 62.4944 133.47 61.9973C133.542 61.7912 133.567 61.5971 133.567 61.4274C133.567 61.2576 133.603 61.0636 133.676 60.8575C133.809 60.5058 133.943 60.2148 134.04 59.9723C134.149 59.7298 134.161 59.4388 134.088 59.0872C134.088 58.6021 134.197 58.2505 134.403 58.0444C134.537 57.8382 134.609 57.6078 134.609 57.3653C134.609 57.1228 134.682 56.8924 134.816 56.6863C134.949 56.4802 135.022 56.2134 135.022 55.8981C135.022 55.5829 135.095 55.3282 135.228 55.11C135.361 54.7583 135.47 54.3946 135.543 54.0066C135.616 53.6185 135.713 53.2548 135.858 52.9031C135.992 52.7698 136.065 52.5515 136.065 52.2726C135.992 51.7876 136.234 51.5451 136.792 51.5451C136.647 51.2662 136.586 51.1571 136.586 51.2298C136.586 51.0237 136.671 50.8297 136.853 50.6599C137.022 50.4902 137.047 50.2598 136.901 49.9809L137.107 49.7748C137.107 49.702 137.144 49.6656 137.216 49.6656C137.216 49.5929 137.253 49.5322 137.326 49.4595C137.459 49.0351 137.532 48.7926 137.532 48.732C137.665 48.0408 137.908 47.4467 138.259 46.9495C138.538 46.6706 138.635 46.3554 138.575 46.0037C138.575 45.7976 138.623 45.6399 138.732 45.5308C138.841 45.4217 138.963 45.3004 139.096 45.1671V44.7427C139.302 44.5365 139.423 44.2698 139.46 43.9545C139.496 43.6392 139.581 43.3482 139.726 43.0693C139.86 42.7177 139.896 42.5116 139.836 42.4388C139.69 42.2327 139.714 42.0872 139.884 42.0265C140.054 41.9538 140.175 41.8568 140.248 41.7113C140.248 41.6385 140.418 41.5051 140.769 41.299C140.769 41.0201 140.806 40.814 140.878 40.6685C140.951 40.5351 141.048 40.3896 141.194 40.2441C141.327 40.1107 141.327 39.8924 141.194 39.6136C141.048 39.6136 141.084 39.5044 141.303 39.2983C141.376 39.2983 141.473 39.1285 141.618 38.7769C141.618 38.0857 141.933 37.6613 142.564 37.528C142.418 37.2491 142.394 37.0429 142.455 36.8974C142.455 36.7641 142.491 36.6064 142.564 36.4245C142.637 36.2548 142.697 36.0972 142.77 35.9516C142.903 35.6 143.061 35.309 143.243 35.0665C143.413 34.824 143.57 34.5208 143.716 34.1813C143.849 33.9752 143.922 33.7448 143.922 33.5023C143.922 33.2598 143.995 32.993 144.128 32.7141C144.48 32.0836 144.795 31.4652 145.074 30.8347C145.353 30.2041 145.632 29.5494 145.91 28.8461C145.983 28.7127 146.068 28.5672 146.177 28.4338C146.286 28.3004 146.371 28.1186 146.444 27.9124C146.517 27.6335 146.602 27.3668 146.711 27.1243C146.808 26.8817 146.941 26.615 147.075 26.3361C147.208 26.0572 147.366 25.7783 147.547 25.4994C147.717 25.2205 147.875 24.9417 148.02 24.6628C148.226 24.105 148.469 23.5836 148.748 23.0986C149.027 22.6136 149.233 22.0922 149.378 21.5344L149.487 21.3283C149.766 21.0494 150.009 20.6977 150.215 20.2855C150.348 19.9338 150.53 19.57 150.736 19.182C150.943 18.8061 151.124 18.4302 151.258 18.0786C151.537 17.5208 151.743 16.9631 151.888 16.4053C152.022 15.8475 152.167 15.2897 152.301 14.732C151.949 14.3803 151.779 14.0651 151.779 13.7862C151.852 13.5073 151.888 13.3496 151.888 13.3133C151.888 13.2769 151.719 13.192 151.367 13.0465C151.294 13.0465 151.246 13.0344 151.209 12.998C151.173 12.9616 151.124 12.9495 151.052 12.9495C150.846 12.8161 150.639 12.6827 150.421 12.5857C150.215 12.4766 149.997 12.3554 149.791 12.222C149.306 12.0886 148.881 12.1856 148.542 12.5372C148.396 12.8161 148.263 12.9859 148.117 13.0586C147.56 13.4103 147.45 13.8953 147.802 14.5258C147.729 14.5258 147.657 14.5501 147.596 14.5743C147.523 14.6107 147.45 14.6228 147.39 14.6228C146.978 14.7683 146.723 15.0472 146.662 15.4595C146.589 15.7384 146.492 15.9809 146.347 16.187C146.201 16.3932 146.068 16.6357 145.923 16.9146C145.777 17.1934 145.68 17.436 145.607 17.6421C145.535 17.8482 145.438 18.1271 145.292 18.4788C145.219 18.4788 145.147 18.4909 145.086 18.5273C145.013 18.5636 144.953 18.5758 144.88 18.5758L144.674 19.4124C144.395 19.5579 144.237 19.7277 144.201 19.9338C144.164 20.1399 144.08 20.3218 143.934 20.4552C143.861 20.528 143.813 20.6007 143.776 20.6613C143.74 20.7341 143.691 20.7947 143.619 20.8675V21.1827C143.619 21.2555 143.655 21.2919 143.728 21.2919C143.582 21.4374 143.449 21.6435 143.316 21.9224C142.891 22.3347 142.552 23.0016 142.273 23.911L142.164 24.0201C142.03 24.1656 141.897 24.3233 141.8 24.493C141.703 24.6628 141.606 24.8568 141.533 25.0629C141.4 25.3418 141.303 25.6086 141.266 25.8511C141.23 26.0936 141.036 26.2876 140.696 26.421C140.769 26.7726 140.66 27.0273 140.381 27.2091C140.102 27.3789 140.03 27.6457 140.175 27.9973C140.175 28.07 140.102 28.1671 139.969 28.3126C139.836 28.5914 139.666 28.834 139.496 29.0401C139.326 29.2462 139.169 29.5251 139.023 29.8768C138.878 30.1556 138.793 30.4467 138.756 30.7619C138.72 31.0772 138.599 31.3318 138.393 31.5501C138.247 31.6835 138.126 31.829 138.029 31.9623C137.92 32.1079 137.871 32.2412 137.871 32.3746C137.798 32.799 137.556 33.0415 137.144 33.1021C137.216 33.2476 137.253 33.4174 137.253 33.6235C137.18 33.7569 137.119 33.9024 137.047 34.0358C136.974 34.1813 136.901 34.3511 136.841 34.5572C136.695 34.2783 136.537 34.0358 136.368 33.8297C136.198 33.6235 136.04 33.4174 135.895 33.1991C135.749 32.9203 135.616 32.6777 135.483 32.4716C135.337 32.2655 135.131 32.0957 134.852 31.9502C133.943 31.5379 133.106 31.3561 132.342 31.4288C131.639 31.4288 131.117 31.4652 130.778 31.538C130.426 31.6107 130.111 31.6592 129.832 31.6956C129.553 31.732 129.274 31.8168 128.995 31.9623C128.292 32.314 127.637 32.6778 127.007 33.0658C126.376 33.4538 125.746 33.8903 125.127 34.3753C124.848 34.5815 124.606 34.7876 124.4 35.0059C124.194 35.212 123.951 35.4181 123.672 35.6364C123.042 36.1214 122.557 36.6428 122.205 37.2006C122.132 37.334 122.072 37.431 121.999 37.4673C121.926 37.5037 121.829 37.5886 121.684 37.7341C121.478 37.9402 121.271 38.1464 121.053 38.3646C120.847 38.5708 120.665 38.8133 120.532 39.0922C120.338 39.3953 120.132 39.6499 119.901 39.8439C119.707 39.6984 119.501 39.6863 119.283 39.8197C119.004 39.9652 118.761 40.0501 118.555 40.0865C118.349 40.1228 118.107 40.135 117.828 40.135C117.622 40.135 117.476 40.1713 117.415 40.2441C117.27 40.3896 117.149 40.5472 117.052 40.717C116.943 40.8867 116.821 41.0444 116.688 41.1899C116.542 41.396 116.409 41.6264 116.276 41.8689C116.13 42.1114 115.997 42.3418 115.851 42.5479C115.572 42.7541 115.378 43.0087 115.281 43.2755C115.172 43.5544 115.051 43.8332 114.918 44.1121C114.433 45.0943 113.39 46.1977 111.777 47.4588C111.425 47.7377 111.11 47.9438 110.831 48.0893C110.552 48.2348 110.237 48.4409 109.885 48.7198C108.903 49.4837 108.018 50.2477 107.218 51.0237C106.418 51.7876 105.799 52.4909 105.387 53.1093C105.241 53.5337 104.963 53.6671 104.55 53.5337C104.55 53.4003 104.562 53.2548 104.599 53.1093C104.635 52.9759 104.647 52.8304 104.647 52.697C104.72 52.4909 104.756 52.1756 104.756 51.7512C105.169 51.7512 105.52 51.6178 105.799 51.3389C105.726 51.2056 105.629 51.0601 105.484 50.9267C105.557 50.7933 105.617 50.6599 105.69 50.5629C105.763 50.4538 105.799 50.3689 105.799 50.2962C105.654 49.9445 105.69 49.6171 105.908 49.3019C106.114 48.9866 106.187 48.6592 106.114 48.3076C106.114 48.0287 106.224 47.7862 106.43 47.58C106.854 47.1678 106.987 46.7434 106.854 46.3311C106.854 46.2583 106.866 46.2098 106.903 46.1735C106.939 46.1371 106.951 46.0886 106.951 46.0158C107.085 45.6642 107.157 45.3489 107.157 45.07C107.157 44.7912 107.291 44.5123 107.582 44.2334V44.0273C107.509 43.6756 107.618 43.2997 107.897 42.8753C107.764 42.7419 107.654 42.5964 107.582 42.4509C107.509 42.3176 107.545 42.1357 107.691 41.9295C107.824 41.7962 107.958 41.6385 108.055 41.4566C108.164 41.2869 108.285 41.1292 108.418 40.9837C108.139 40.6321 108.212 40.3168 108.624 40.038V39.5166C108.758 39.1649 108.818 38.8496 108.782 38.5708C108.746 38.2919 108.697 37.9766 108.624 37.625C108.624 37.4916 108.588 37.3825 108.515 37.3097C108.443 37.237 108.382 37.1399 108.309 36.9944C108.236 36.8611 108.164 36.7519 108.103 36.6792C108.03 36.6064 107.994 36.5458 107.994 36.473C108.2 35.9153 108.164 35.4909 107.885 35.212C108.018 35.0786 107.994 34.8967 107.776 34.6906C107.642 34.5572 107.509 34.4845 107.412 34.4845C107.315 34.4845 107.218 34.4481 107.145 34.3753C106.939 34.1692 106.696 33.8539 106.418 33.4295C106.284 33.575 106.175 33.6357 106.102 33.6357C105.896 33.284 105.678 33.09 105.472 33.0658C105.266 33.0294 104.878 33.1506 104.32 33.4295C104.247 33.4295 104.211 33.3568 104.211 33.2234C104.077 33.1506 104.005 33.187 104.005 33.3325C104.005 33.478 103.932 33.5023 103.798 33.4417C103.653 33.3083 103.483 33.2719 103.277 33.3325C103.071 33.4053 102.889 33.4417 102.756 33.4417L101.507 34.0722C101.361 34.1449 101.24 34.1934 101.143 34.2298C101.034 34.2662 100.913 34.3511 100.779 34.4966C100.5 34.7027 100.27 34.921 100.1 35.1271C99.9305 35.3332 99.7001 35.5394 99.4212 35.7576C99.0695 35.9638 98.7785 36.2305 98.536 36.5458C98.2935 36.8611 98.0267 37.1884 97.7479 37.5401C97.5417 37.8917 97.2265 38.1342 96.8021 38.2676C96.7293 38.2676 96.6565 38.304 96.5959 38.3768C96.6687 38.4495 96.705 38.498 96.705 38.5344C96.705 38.5708 96.7414 38.6193 96.8142 38.692C96.6687 38.7648 96.5474 38.8011 96.4504 38.8011C96.3534 38.8011 96.2564 38.8739 96.1836 39.0073C96.0381 39.2134 95.9169 39.4317 95.8199 39.6378C95.7108 39.8439 95.5531 40.0622 95.347 40.2683C95.2742 40.4138 95.1894 40.5351 95.0802 40.6321C94.9711 40.7412 94.8862 40.8625 94.8135 40.9959C94.7407 41.0686 94.6437 41.105 94.4982 41.105C94.5709 40.8989 94.6316 40.7049 94.7043 40.5351C94.7771 40.3653 94.8377 40.2077 94.9105 40.0622C94.9832 39.8561 95.0196 39.6621 95.0196 39.4923C95.0196 39.3225 95.0923 39.1649 95.2257 39.0194C95.2985 38.8133 95.3834 38.6435 95.4925 38.498C95.6016 38.3646 95.5774 38.1464 95.444 37.8675L95.5531 37.6613C95.6259 37.528 95.6623 37.3461 95.6623 37.1399C95.6623 36.7156 95.6259 36.4124 95.5531 36.1942C95.6865 36.1214 95.832 36.0729 95.9654 36.0365C96.0988 36.0001 96.2443 35.9516 96.3777 35.8789L95.9654 35.2484C96.0988 35.115 96.2321 35.018 96.3291 34.9816C96.4383 34.9452 96.4868 34.8603 96.4868 34.7148C96.6202 34.436 96.7172 34.1571 96.7536 33.8782C96.7899 33.5993 96.8384 33.3204 96.9112 33.0415C97.0446 32.6899 97.1173 32.3989 97.1173 32.1564C97.1173 31.9138 97.1901 31.6107 97.3235 31.2712C97.3962 31.1378 97.3719 31.0651 97.2749 31.0651C97.1779 31.0651 97.1173 30.9923 97.1173 30.8589C97.1901 30.7862 97.2749 30.7498 97.3841 30.7498C97.4932 30.7498 97.5417 30.7134 97.5417 30.6407C97.6751 30.0829 97.7842 29.5251 97.857 28.9673C97.9297 28.4096 97.9903 27.8518 98.0631 27.294C98.0631 27.0151 98.051 26.7362 98.0146 26.4574C97.9782 26.1785 97.8206 25.936 97.5417 25.7298C97.3962 25.5964 97.372 25.4631 97.4326 25.3661C97.5053 25.2569 97.5053 25.1357 97.4326 25.0023L96.4868 24.687V24.2748C96.2079 23.9959 95.9654 23.8867 95.7592 23.9595C95.6137 24.0322 95.4076 24.0686 95.1287 24.0686C94.9832 23.9959 94.7407 24.0686 94.4012 24.2748C94.2557 24.4203 94.1344 24.5415 94.0374 24.6385C93.9283 24.7477 93.807 24.8325 93.6737 24.9053C93.322 25.0508 93.1159 25.2569 93.0431 25.5358C92.9704 25.8147 92.8734 26.0936 92.7279 26.3725C92.5945 26.7241 92.4854 27.0879 92.4126 27.4759C92.3399 27.8639 92.2671 28.2277 92.2065 28.5793C92.061 28.931 91.9761 29.2462 91.9397 29.5251C91.9033 29.804 91.8185 30.1193 91.6729 30.4709C91.6002 30.8225 91.4304 31.3439 91.1516 32.0351C91.0061 32.314 90.8848 32.5565 90.7878 32.7626C90.6786 32.9688 90.5938 33.2113 90.521 33.4902C90.3755 33.9752 90.2179 34.436 90.0481 34.8482C89.8784 35.2605 89.745 35.7576 89.6844 36.3154C89.6844 36.6671 89.6116 36.9096 89.4782 37.0429C89.4055 37.1157 89.3691 37.2006 89.3691 37.3097C89.3691 37.4188 89.3327 37.5401 89.26 37.6735C89.26 37.8796 89.2236 38.0615 89.1509 38.1949C89.0781 38.3404 89.0175 38.4616 88.9447 38.5586C88.872 38.6678 88.8356 38.789 88.8356 38.9224C88.7628 39.2013 88.6416 39.4438 88.4718 39.6499C88.3748 39.7712 88.3384 39.9046 88.3627 40.0743H88.2172C87.9383 40.3532 87.7685 40.5957 87.6958 40.8019C87.2108 41.2869 86.75 41.5658 86.3377 41.6385C85.9861 41.8447 85.6951 42.0265 85.4525 42.1599C85.21 42.3054 85.016 42.4752 84.8826 42.6813C85.016 42.6813 84.919 42.7662 84.5674 42.9481C84.2158 43.1178 83.8641 43.2755 83.5246 43.421C83.4518 43.421 83.2578 43.5059 82.9547 43.6877C82.6394 43.8575 82.409 43.9909 82.2757 44.0515C81.9968 44.0515 81.7179 44.1243 81.439 44.2576L80.8085 44.4638L79.8627 44.6699C79.4383 44.8154 79.0624 44.876 78.7108 44.876H77.765C77.765 44.7427 77.8377 44.5123 77.9711 44.197C78.1045 43.8817 78.25 43.5544 78.3955 43.2027C78.3227 43.2755 78.2863 43.1663 78.2863 42.8874V42.2569C78.4925 41.978 78.6016 41.6991 78.6016 41.4203C78.735 41.0686 78.8078 40.5108 78.8078 39.7469C78.8078 39.1892 78.8441 38.7648 78.9169 38.498C78.9169 38.3646 78.929 38.2191 78.9654 38.0736C79.0018 37.9402 79.0139 37.8311 79.0139 37.7583C78.8684 37.4795 78.8078 37.237 78.8078 37.0308C78.8078 36.8247 78.735 36.5822 78.6016 36.3033V35.2605L77.6558 35.4666C77.7286 35.3332 77.7771 35.0301 77.8135 34.5815C77.8498 34.1328 77.8256 33.7569 77.765 33.478L77.4497 32.9566L77.1344 32.6414L76.8192 32.2291L76.4069 31.9138V32.023C76.128 31.538 75.8128 31.2954 75.4611 31.2954C75.3884 31.2954 75.3399 31.2591 75.3035 31.1863C75.2792 31.1499 75.255 31.1136 75.2186 31.1014L75.1458 31.0772C75.1458 31.0772 75.1943 31.0772 75.2186 31.1014L75.5581 31.1863C75.0731 30.8347 74.5153 30.6649 73.8848 30.6649C73.5331 30.5315 73.1815 30.4952 72.842 30.5558C72.4904 30.6285 72.1751 30.7255 71.8962 30.871C72.0296 30.871 71.9811 30.9074 71.7386 30.9802C71.4961 31.0529 71.302 31.1257 71.1687 31.1863L71.3748 31.0772C71.0232 31.0772 70.7443 31.1863 70.5382 31.3924C70.1138 31.5986 69.8349 31.7805 69.7015 31.9138C69.5681 32.0472 69.4953 32.1927 69.4953 32.3382L68.9739 32.7505L68.2464 33.381C67.9675 33.8661 67.7614 34.1449 67.6159 34.2177C67.4704 34.2904 67.3006 34.3875 67.0945 34.533C67.0945 34.6057 67.0702 34.6542 67.046 34.6906C67.0096 34.727 66.9975 34.7755 66.9975 34.8482V34.9574L66.4761 35.5879C66.3427 36.1457 66.1002 36.5215 65.7486 36.7398C65.7486 36.8853 65.6758 37.0914 65.5424 37.3703H65.4333L65.3242 37.4795H65.4333C65.2878 37.625 65.1302 37.7462 64.9604 37.8432C64.7906 37.9524 64.633 38.1706 64.4875 38.5223V38.3161L64.3784 38.5223L63.5417 39.6742C63.3962 39.8197 63.2749 39.9167 63.1779 39.9894C63.0688 40.0622 62.9476 40.135 62.8142 40.1956C62.8142 40.2683 62.7778 40.3653 62.7051 40.5108C62.3534 40.9959 62.1836 41.3839 62.1836 41.6628H62.0745L61.6501 42.2933L60.9226 43.5422C60.9226 43.8211 60.8862 43.9909 60.8135 44.0636V43.8575L60.4012 44.9003C59.7707 45.8825 59.3584 46.61 59.1523 47.095V47.4103L58.7279 47.9317C58.5217 48.2833 58.4126 48.5622 58.4126 48.7683C58.2792 48.9017 58.2065 49.0836 58.2065 49.2897C58.1337 49.4352 58.0973 49.5322 58.0973 49.605L57.6851 50.0294L57.4789 51.4966C57.0667 52.2605 56.8484 52.8183 56.8484 53.1699C56.6423 53.5215 56.5331 53.8368 56.5331 54.1157C56.5331 54.1884 56.4604 54.431 56.327 54.8432C56.327 54.916 56.3634 54.9524 56.4362 54.9524L55.9148 55.9952V55.886C55.842 56.0194 55.8056 56.274 55.8056 56.6136V57.4502C55.6723 57.7291 55.6723 58.0444 55.8056 58.396C55.7329 58.6021 55.6965 58.8568 55.6965 59.1235V59.7541C55.842 60.1785 55.9026 60.3482 55.9026 60.2755V60.7969C55.9754 60.9424 56.0481 61.0636 56.1088 61.1606C56.1815 61.2698 56.2179 61.3546 56.2179 61.4274V61.5365C56.2179 61.682 56.2906 61.9488 56.424 62.3732V62.6763C56.0481 62.6278 55.6601 62.6521 55.2721 62.7491C54.8477 62.8582 54.4354 62.8703 54.011 62.7976C53.6594 62.7976 53.332 62.8703 53.0167 63.0037C52.7015 63.1492 52.3741 63.1735 52.0224 63.1128C51.6708 63.1128 51.3434 63.1492 51.0282 63.222C50.7129 63.2947 50.3855 63.3311 50.0339 63.3311C49.6822 63.3311 49.3548 63.4039 49.0396 63.5372C48.7243 63.6827 48.3969 63.6827 48.0453 63.5372C47.9725 63.5372 47.8998 63.5736 47.8392 63.6464C47.6936 63.7191 47.4511 63.7555 47.1116 63.7555C46.76 63.8282 46.3962 63.8767 46.0082 63.9131C45.6202 63.9495 45.2928 64.0708 45.0139 64.2769C44.8077 64.2769 44.6137 64.2648 44.444 64.2284C44.2742 64.192 44.1166 64.1799 43.9711 64.1799C43.6922 64.2526 43.4133 64.3375 43.1344 64.4467C42.8556 64.5558 42.5403 64.5315 42.1886 64.3981C41.837 64.5437 41.5096 64.6285 41.1943 64.6649C40.8791 64.7013 40.5517 64.7862 40.2 64.9317C39.715 65.0044 39.2543 65.0893 38.842 65.1984C38.4176 65.3076 38.0054 65.4288 37.581 65.5622C36.8171 65.7077 36.0531 65.8653 35.2771 66.0351C34.5132 66.2049 33.7371 66.3989 32.9732 66.605C32.4155 66.7505 31.9062 66.9203 31.4575 67.1264C31.0089 67.3325 30.4996 67.5144 29.9419 67.6478C29.5296 67.6478 29.2143 67.6842 28.9961 67.7569C28.6444 67.9024 28.2686 68.0601 27.8442 68.2298C27.4319 68.3996 27.0439 68.533 26.6922 68.5936C25.71 68.7997 24.9461 69.0422 24.3884 69.3211C24.0367 69.4666 23.7215 69.5879 23.4426 69.6849C23.1637 69.794 22.8484 69.9153 22.4968 70.0486H22.2906C22.0118 70.1941 21.745 70.279 21.5025 70.3154C21.26 70.3518 20.9932 70.4367 20.7143 70.5822C20.5082 70.5822 20.3263 70.6185 20.1929 70.6913V67.5023C20.1929 67.1264 20.2293 66.7141 20.3021 66.3019V65.7805C20.3021 65.5743 20.2899 65.3561 20.2536 65.1499C20.2172 64.9438 20.2414 64.7255 20.3021 64.5194C20.5082 63.8282 20.5809 63.1977 20.5082 62.6399C20.5082 62.3611 20.4961 62.1064 20.4597 61.8518C20.4233 61.6093 20.4354 61.3425 20.5082 61.0636C20.5082 60.712 20.5446 60.3967 20.6173 60.1178C20.6901 59.8389 20.7507 59.5237 20.8235 59.172C20.8962 58.8204 20.9568 58.5051 21.0296 58.2263C21.1023 57.9474 21.1387 57.6321 21.1387 57.2805C21.1387 57.0743 21.1266 56.8803 21.0902 56.7106C21.0539 56.5408 21.0659 56.3832 21.1387 56.2377C21.2721 55.886 21.3449 55.595 21.3449 55.3525C21.3449 55.11 21.3812 54.8069 21.454 54.4673C21.5874 53.7034 21.6965 52.9153 21.7693 52.115C21.842 51.3147 21.939 50.5265 22.0845 49.7626C22.2179 49.4837 22.2906 49.2049 22.2906 48.926C22.1451 48.3682 22.1694 47.8589 22.3392 47.4103C22.5089 46.9616 22.6302 46.4524 22.7029 45.8946C22.7757 45.4702 22.8605 45.0579 22.9697 44.6335C23.0788 44.2213 23.1637 43.7969 23.2364 43.3846C23.3698 42.8268 23.479 42.2569 23.5517 41.6628C23.6245 41.0686 23.7214 40.4623 23.8669 39.8318C23.8669 39.6984 23.9033 39.5651 23.964 39.468C24.0367 39.3589 24.0731 39.2377 24.0731 39.1043C24.2065 38.7526 24.2792 38.3889 24.2792 38.0009C24.2792 37.6128 24.3156 37.2491 24.3884 36.8974C24.4611 36.7641 24.4975 36.6307 24.4975 36.5337C24.4975 36.4367 24.5339 36.3033 24.6066 36.1699C24.8128 35.6121 24.9583 35.0907 25.031 34.6057C25.1038 34.1207 25.1402 33.5993 25.1402 33.0415V32.8354C25.3463 32.6293 25.4312 32.3867 25.4069 32.1079C25.3705 31.829 25.419 31.5865 25.5646 31.3803C25.6373 31.2469 25.613 31.0651 25.516 30.8589C25.4069 30.6528 25.4918 30.4709 25.7828 30.3375C25.71 30.0586 25.7828 29.8161 25.9889 29.61C26.1951 29.4039 26.2314 29.2341 26.0859 29.0886C25.9526 28.737 25.9647 28.4823 26.1345 28.3004C26.3042 28.1307 26.4012 27.9367 26.4012 27.7305C26.3285 27.5244 26.3648 27.2091 26.5103 26.7847C26.5103 26.5786 26.5467 26.3725 26.6195 26.1542C26.6922 25.9481 26.7286 25.7419 26.7286 25.5237C26.8013 25.172 26.8862 24.881 26.9954 24.6385C27.1045 24.396 27.1894 24.1292 27.2621 23.8504C27.3955 23.4987 27.4561 23.1713 27.4198 22.8561C27.3834 22.5408 27.4683 22.2498 27.6865 21.9709C27.6865 21.8982 27.6744 21.8133 27.638 21.7041C27.6016 21.595 27.5895 21.4738 27.5895 21.3404C27.7229 21.3404 27.832 21.304 27.9048 21.2312C27.832 20.9524 27.8684 20.6735 28.0139 20.3946C28.1473 20.1157 28.1473 19.8004 28.0139 19.4488L28.123 19.3397C28.5353 18.9153 28.5717 18.3939 28.2321 17.7755L28.8627 17.4602C28.9355 17.1086 28.9718 16.7812 28.9718 16.4659C28.9718 16.1506 29.0082 15.8233 29.0688 15.4716C29.1416 15.3382 29.2022 15.1806 29.275 14.9987C29.3477 14.829 29.3113 14.635 29.1658 14.4288C29.1658 14.2227 29.2022 14.1136 29.275 14.1136C29.4811 14.1136 29.5417 14.0287 29.4326 13.8468C29.3235 13.677 29.3477 13.58 29.4811 13.58C29.6872 13.4467 29.76 13.3133 29.6872 13.2163C29.6145 13.1071 29.6145 12.9859 29.6872 12.8525C29.8934 12.6464 29.9904 12.4039 29.954 12.125C29.9176 11.8461 29.9297 11.5672 30.0025 11.2883C30.0753 11.0822 30.1116 10.7305 30.1116 10.2455C30.1844 10.1121 30.245 9.93025 30.3177 9.72412C30.3905 9.51798 30.4511 9.31185 30.5239 9.09359C30.6573 8.74195 30.7543 8.36606 30.7907 7.94166C30.827 7.51727 30.8755 7.14138 30.9483 6.78974C31.0817 6.4381 31.1787 6.0622 31.2151 5.63781C31.2514 5.21342 31.3363 4.83753 31.4818 4.48589C31.4818 4.41313 31.4697 4.36463 31.4333 4.32825C31.3969 4.29188 31.3848 4.24337 31.3848 4.17062V2.60643C31.2393 2.47305 31.1787 2.36392 31.1787 2.29116C31.1787 2.15778 31.1908 2.04865 31.2272 1.9759C31.2635 1.90315 31.1787 1.90315 30.9604 1.9759C30.8149 1.62426 30.633 1.41813 30.3905 1.34537C30.148 1.27262 29.954 1.06648 29.8206 0.714844C29.6872 0.848225 29.5538 0.981606 29.4568 1.07861C29.3477 1.18774 29.2265 1.09074 29.0931 0.811848C28.8142 1.01798 28.5474 1.24837 28.3049 1.49088C28.0624 1.73339 27.7956 2.00015 27.5167 2.27904C27.5167 2.41242 27.5289 2.5458 27.5653 2.6428C27.6016 2.75193 27.5168 2.87319 27.2985 3.00657V3.32183C27.2257 3.46734 27.1894 3.6371 27.1894 3.84323C27.1894 4.04937 27.0802 4.23125 26.8741 4.36463C26.8013 4.36463 26.765 4.43738 26.765 4.57076C26.8377 5.05579 26.7771 5.51655 26.6073 5.92882C26.4376 6.35322 26.28 6.80186 26.1345 7.28688C26.0011 7.63852 25.8919 7.99016 25.8192 8.32968C25.7464 8.68132 25.6494 9.03296 25.5039 9.37247C25.4311 9.57861 25.3948 9.809 25.3948 10.0515C25.3948 10.294 25.3584 10.5244 25.2857 10.7305C25.2129 11.0094 25.1401 11.2519 25.0795 11.4581C25.0067 11.6642 24.934 11.8703 24.8734 12.0886C24.5945 12.9253 24.352 13.7498 24.1458 14.5501C23.9397 15.3504 23.7336 16.1749 23.5153 17.0116C23.4426 17.2177 23.4062 17.4481 23.4062 17.6906C23.4062 17.9331 23.3698 18.1635 23.2971 18.3696C23.1637 18.5758 23.1031 18.8061 23.1394 19.0487C23.1758 19.2912 23.1273 19.4852 22.9818 19.6186C22.8363 19.7641 22.7393 19.8974 22.6665 20.0429C22.5938 20.1763 22.5938 20.2855 22.6665 20.3582C22.7999 20.5643 22.7878 20.7098 22.618 20.7826C22.4483 20.8554 22.3877 20.9524 22.4604 21.0979C22.5332 21.3768 22.4968 21.6556 22.3513 21.9345C22.3513 22.08 22.327 22.2013 22.3028 22.2983C22.2664 22.4074 22.2543 22.5287 22.2543 22.6621C22.1088 23.1471 22.0239 23.62 21.9875 24.0807C21.9511 24.5294 21.8662 25.0023 21.7207 25.4873C21.5752 25.9117 21.4782 26.3361 21.4055 26.7969C21.3327 27.2455 21.2357 27.682 21.0902 28.1064V28.834C20.8841 29.1856 20.7264 29.5494 20.6173 29.9374C20.5082 30.3254 20.5324 30.7255 20.6658 31.1378C20.6658 31.2106 20.5931 31.3076 20.4597 31.4531C20.3263 31.9381 20.1929 32.3989 20.0959 32.8111C19.9989 33.2234 19.9747 33.7205 20.0474 34.2783C20.0474 34.7633 19.9383 35.115 19.7322 35.3211C19.5988 35.4666 19.5382 35.6 19.5745 35.7455C19.6109 35.891 19.623 35.988 19.623 36.0608C19.5503 36.2063 19.4897 36.3033 19.4169 36.376C19.3441 36.4488 19.3078 36.5458 19.3078 36.6913C19.235 36.9702 19.1986 37.2491 19.1986 37.528C19.1986 37.8069 19.1623 38.1221 19.0895 38.4738C19.0168 38.8254 18.9198 39.2013 18.7742 39.6257C18.6287 40.0501 18.5681 40.4623 18.5681 40.8867C18.5681 41.0201 18.5802 41.1535 18.6166 41.2505C18.653 41.3596 18.6287 41.4809 18.5681 41.6143C18.5681 41.7476 18.5317 41.9174 18.459 42.0872C18.3862 42.2569 18.3135 42.4509 18.2529 42.6571C18.1195 43.2148 18.0225 43.7969 17.9861 44.3789C17.9497 44.973 17.8648 45.5429 17.7193 46.1007L17.4041 48.926C17.3313 49.2776 17.2828 49.5686 17.2464 49.8111C17.21 50.0536 17.1615 50.3568 17.0888 50.6963C17.016 50.8418 17.016 50.9631 17.0888 51.0601C17.1615 51.1692 17.1979 51.2904 17.1979 51.4238H17.0888C17.016 51.4238 16.9797 51.436 16.9797 51.4723C16.9797 51.5087 16.9433 51.5208 16.8705 51.5208C16.7978 51.8725 16.7614 52.2484 16.7614 52.6728C16.7614 53.0971 16.725 53.5094 16.6523 53.9217C16.6523 54.0672 16.6886 54.1884 16.7614 54.2855C16.8342 54.3946 16.7978 54.5158 16.6523 54.6492C16.3006 55.2797 16.1672 55.8739 16.2279 56.4317C16.2279 56.7106 16.2157 56.9894 16.1794 57.2683C16.143 57.5472 16.1551 57.8625 16.2279 58.2141C16.2279 58.4203 16.1915 58.6021 16.1188 58.7355V59.7298C16.1188 60.0451 16.0824 60.3725 16.0096 60.7241C15.8762 61.2091 15.852 61.682 15.9611 62.1307C16.0702 62.5914 16.046 63.0522 15.9126 63.5494C15.7671 63.8283 15.7065 64.0708 15.7065 64.2769C15.7065 64.6285 15.7429 64.9438 15.8156 65.2227C15.8884 65.5016 15.852 65.7441 15.7065 65.9502C15.561 66.2291 15.5852 66.508 15.755 66.7869C15.9248 67.0658 15.8399 67.3083 15.4882 67.5144C15.6216 67.7933 15.6822 68.0601 15.6458 68.3026C15.6095 68.5451 15.6337 68.7755 15.6943 68.9816C15.6943 69.0544 15.7307 69.1029 15.8035 69.1392C15.8762 69.1756 15.9126 69.2241 15.9126 69.2969C15.8398 69.7819 15.7914 70.2548 15.755 70.7034C15.7186 71.1642 15.7428 71.5886 15.8035 72.013C15.8035 72.4374 15.6337 72.7163 15.2821 72.8496C15.0032 72.9952 14.7364 73.1164 14.4939 73.2134C14.2514 73.3225 13.9483 73.4074 13.6088 73.4802C13.4633 73.4802 13.3056 73.5287 13.1359 73.6378C12.9661 73.7469 12.7721 73.8682 12.566 74.0016C12.1537 74.2805 11.8384 74.4502 11.6202 74.523C10.9897 74.9352 10.3955 75.2869 9.83773 75.5658C9.48609 75.7719 9.13443 75.9538 8.79492 76.0872C8.51603 76.2205 8.24928 76.366 8.00677 76.5116C7.76426 76.6449 7.4975 76.7904 7.21861 76.9238C6.51533 77.3482 5.71503 77.906 4.81774 78.5971C4.74499 78.5971 4.69648 78.6093 4.66011 78.6457C4.62373 78.682 4.57526 78.6941 4.50251 78.6941C3.94473 78.8275 3.50819 79.0943 3.19293 79.4823C2.87766 79.8703 2.47753 80.1977 1.99251 80.4766C1.99251 80.5494 1.98038 80.5979 1.944 80.6342C1.90762 80.6706 1.89549 80.7191 1.89549 80.7919C1.82273 80.8646 1.77423 80.9495 1.73785 81.0586C1.70147 81.1678 1.653 81.2163 1.58025 81.2163C1.15585 81.289 0.901188 81.5073 0.792059 81.8953C0.682929 82.2712 0.464672 82.538 0.113032 82.6835C0.0402784 82.6835 0.00390625 82.7562 0.00390625 82.8896V83.9324L0.319182 84.8782C0.670822 85.0116 0.840571 85.1207 0.840571 85.1934C1.11946 85.3268 1.37409 85.4359 1.62872 85.5087C1.87123 85.5814 2.13803 85.6421 2.41691 85.7148C2.84131 85.7148 3.12016 85.6785 3.25354 85.6057C3.53243 85.3996 3.81132 85.1934 4.09021 84.9752C4.36909 84.7691 4.51461 84.4174 4.51461 83.9324C4.44185 83.8596 4.2721 83.7626 3.99322 83.6171L4.41762 82.7804C4.551 82.7077 4.68437 82.6713 4.78137 82.6713C4.87837 82.6713 4.97538 82.635 5.04813 82.5622C5.73929 81.8589 6.47894 81.4103 7.24285 81.2041C7.37623 81.1314 7.48537 81.0708 7.55813 80.998C7.63088 80.9253 7.7279 80.8525 7.8734 80.7919L9.43757 79.8461C9.78921 79.7006 10.1045 79.5672 10.3834 79.4338C10.6622 79.2883 10.9411 79.0822 11.22 78.8033C11.3534 78.8033 11.4262 78.7669 11.4262 78.6941C13.0267 78.0636 14.5667 77.4088 16.0218 76.7056C16.0945 76.8389 16.1551 76.9844 16.2279 77.1178C16.3006 77.2512 16.337 77.4331 16.337 77.6392C16.1915 77.8454 16.2158 78.1243 16.3855 78.4759C16.5553 78.8275 16.7493 79.0337 16.9554 79.1064C17.2343 79.1792 17.3798 79.4581 17.3798 79.9431C17.586 79.9431 17.8163 79.9552 18.0588 79.9916C18.3014 80.028 18.4954 80.0037 18.6287 79.9431C18.9076 79.7976 19.1744 79.6399 19.4169 79.4702C19.6594 79.3004 19.9626 79.2034 20.3021 79.2034C20.3021 78.9973 20.2899 78.8154 20.2536 78.682C20.2172 78.5365 20.2414 78.4031 20.3021 78.2576C20.3021 78.1849 20.3505 78.1364 20.4597 78.1C20.5688 78.0636 20.5446 77.9787 20.4112 77.8332C20.3384 77.7605 20.3627 77.6756 20.4597 77.5665C20.5688 77.4573 20.5809 77.3361 20.5082 77.2027C20.3627 76.9238 20.3505 76.6449 20.4597 76.3661C20.5688 76.0872 20.5446 75.8083 20.4112 75.5294C20.3384 75.3233 20.3384 75.1777 20.4112 75.1171C20.484 75.0444 20.5809 74.9474 20.7264 74.8019C21.7692 74.2441 22.9576 73.7954 24.2792 73.4438C24.4126 73.4438 24.5217 73.4074 24.5945 73.3347C24.6672 73.2619 24.7279 73.2255 24.8006 73.2255C25.0795 73.371 25.322 73.371 25.5282 73.2255C25.7343 73.0922 25.9526 72.983 26.1587 72.9103C26.5103 72.7769 26.8498 72.6314 27.2015 72.4859C27.5531 72.3525 27.8926 72.2434 28.2443 72.1706C28.5959 72.0979 28.9233 72.0009 29.2386 71.8554C29.5539 71.722 29.8448 71.5765 30.1237 71.4431C30.1965 71.4431 30.2571 71.431 30.3299 71.3946C30.4026 71.3582 30.4632 71.3461 30.536 71.3461C30.6694 71.4916 30.8513 71.5158 31.0574 71.4552C31.2636 71.3825 31.4454 71.3218 31.5788 71.2491C32.1366 71.1157 32.658 70.9581 33.143 70.7762C33.628 70.6064 34.1494 70.4488 34.7072 70.3033C34.8406 70.2305 34.9861 70.1699 35.1316 70.0971C35.265 70.0244 35.4105 69.9638 35.5438 69.891C35.6166 69.891 35.6772 69.9153 35.75 69.9395C35.8227 69.9759 35.8834 69.988 35.9561 69.988H36.1623C36.235 69.7819 36.3199 69.697 36.429 69.7213C36.5382 69.7576 36.6594 69.7334 36.7928 69.6728C37.2172 69.6 37.6416 69.5394 38.1023 69.4666C38.551 69.3939 39.0239 69.2605 39.521 69.0422C39.6544 69.0422 39.7272 69.0058 39.7272 68.9331C40.0061 68.9331 40.2122 68.8967 40.3577 68.824C40.8427 68.4723 41.3035 68.3753 41.7157 68.5087H42.2372C42.5888 68.5087 42.9283 68.4238 43.2799 68.2419C43.6316 68.0722 44.0075 67.9752 44.4319 67.9752C44.5653 68.0479 44.7229 68.0479 44.9048 67.9752C45.0745 67.9024 45.2685 67.8418 45.4747 67.769C45.608 67.769 45.7899 67.7812 45.996 67.8175C46.2022 67.8539 46.4083 67.8054 46.6266 67.6599C47.0389 67.5265 47.4754 67.4295 47.9361 67.3932C48.3848 67.3568 48.8213 67.3083 49.2457 67.2355C49.7307 67.2355 50.2036 67.2234 50.6644 67.187C51.113 67.1506 51.5132 66.9566 51.8648 66.6171C51.9982 66.8233 52.1801 66.9324 52.3862 66.9324H52.9076C53.1865 66.8596 53.429 66.8111 53.6352 66.7748C53.8413 66.7384 54.0838 66.6899 54.3627 66.6171C54.7143 66.5444 55.0902 66.5322 55.5146 66.5686C55.939 66.605 56.3149 66.5201 56.6665 66.3019C57.0788 66.4474 57.5032 66.4231 57.9155 66.2534C58.3277 66.0836 58.7521 66.023 59.1644 66.0957C59.2735 66.0957 59.3827 66.0957 59.5039 66.0593C59.8434 66.2897 60.2193 66.411 60.6316 66.411C60.7771 66.5565 60.9347 66.6171 61.1045 66.6171H61.5774C61.8563 66.7505 62.0624 66.8233 62.2079 66.8233H63.0446C63.178 66.8233 63.4689 66.7505 63.8812 66.6171C64.0873 66.6171 64.2571 66.605 64.4026 66.5686C64.536 66.5322 64.6451 66.5201 64.7179 66.5201C64.7906 66.5201 64.9483 66.4474 65.1908 66.314C65.4333 66.1806 65.5909 66.0715 65.6637 65.9987C65.8698 65.9987 66.0881 65.8896 66.2942 65.6835C66.7792 65.5501 67.1672 65.2348 67.4461 64.7377H67.5553L67.9675 64.3254C68.1737 64.3254 68.3192 64.2405 68.3919 64.0586C68.4647 63.8889 68.5617 63.6585 68.7072 63.3796V63.5857L69.3377 62.9552C69.4105 62.8825 69.4953 62.7855 69.6045 62.6399C69.7015 62.5066 69.9319 62.0458 70.2835 61.2819V61.488L70.5988 60.9666V61.1728L70.914 60.5422V60.6514L71.4354 60.227C71.4354 60.0936 71.4718 59.8996 71.5446 59.6571C71.6173 59.4146 71.6537 59.1842 71.6537 58.978L71.5446 59.4024C71.4718 59.4752 71.5082 59.3297 71.6537 58.978C71.6537 58.9053 71.7265 58.7355 71.8598 58.4566H72.2721C72.3448 58.1777 72.5146 57.8989 72.7935 57.62V56.8924L73.9454 54.9039C74.0788 54.6977 74.1879 54.4552 74.2607 54.1763C74.3335 53.8974 74.4304 53.6913 74.5759 53.5458V53.4367C74.5759 53.3639 74.5881 53.3275 74.6245 53.3275C74.6608 53.3275 74.673 53.2912 74.673 53.2184L75.3035 51.6542C75.3762 51.5815 75.4126 51.5208 75.4126 51.4481C75.4126 51.3147 75.449 51.2056 75.5217 51.1328C75.5945 50.9994 75.6794 50.7812 75.7885 50.5023C75.8976 50.2234 75.9461 50.0536 75.9461 49.9809C76.0189 49.9081 76.1159 49.702 76.2614 49.3504C76.6737 49.4231 77.1344 49.4231 77.6195 49.3504C77.7528 49.2776 78.0681 49.2412 78.5653 49.2412H79.2443C79.4868 49.2412 79.6808 49.2049 79.8142 49.1321H79.7051C79.7778 49.1321 79.8263 49.12 79.8627 49.0836C79.8991 49.0472 79.9476 49.0351 80.0203 49.0351C80.2265 49.0351 80.5053 48.9623 80.857 48.829C81.1358 48.9745 81.342 48.8653 81.4875 48.5137C81.6936 48.5137 81.9362 48.4773 82.215 48.4046C82.4939 48.3318 82.7001 48.2712 82.8456 48.1984H82.6394L83.0517 47.9923L83.6822 47.7862C83.8156 47.6528 84.0703 47.5194 84.4098 47.4224C84.7614 47.3133 85.0403 47.192 85.2464 47.0586H85.4525L85.6587 46.9616C85.6587 46.9616 85.6223 47.0586 85.6102 47.1193C85.5738 47.289 85.4889 47.4224 85.3434 47.483C84.9918 47.6285 84.8705 47.7862 84.9797 47.9559C85.0888 48.1257 85.1009 48.2833 85.0281 48.4288V48.635C84.7493 48.9138 84.5916 49.2049 84.5553 49.5201C84.5189 49.8354 84.3976 50.1264 84.1915 50.4053C83.9853 50.7569 83.8398 51.0843 83.7792 51.3996C83.7065 51.7148 83.6095 52.0422 83.464 52.3939C83.3306 52.6728 83.2336 52.9153 83.1972 53.1214C83.1608 53.3275 83.0396 53.5094 82.8334 53.6428C82.7607 53.7156 82.7243 53.8126 82.7243 53.9581C82.5909 54.2369 82.4939 54.5158 82.4575 54.7947C82.4212 55.0736 82.3363 55.3525 82.1908 55.6314C82.0574 55.9103 81.9119 56.2013 81.7785 56.5166C81.6451 56.8318 81.4633 57.0865 81.2571 57.3047C81.1844 57.3047 81.148 57.3775 81.148 57.5108C81.0752 57.7897 81.0267 58.0686 80.9904 58.3475C80.954 58.6264 80.9055 58.9417 80.8327 59.2933L80.7236 59.4994C80.5902 59.6449 80.4932 59.8026 80.4568 59.9723C80.4205 60.1421 80.3719 60.2997 80.2992 60.4452C80.1658 60.7969 80.0324 61.1243 79.9354 61.4395C79.8263 61.7548 79.7414 62.0822 79.6687 62.4338C79.5959 62.8582 79.3898 63.1371 79.0381 63.2705C79.1109 63.3432 79.1836 63.3917 79.2443 63.4281C79.317 63.4645 79.3898 63.513 79.4504 63.5857V63.6949C79.0988 64.3981 79.0624 65.0893 79.3413 65.7805C79.414 65.9138 79.4262 66.0472 79.3898 66.1442C79.3534 66.2534 79.3413 66.3746 79.3413 66.508L79.5474 66.6171V66.7262C79.4747 67.5629 79.8627 67.9873 80.6994 67.9873L81.1237 68.1934C81.051 68.3389 81.0146 68.5087 81.0146 68.7148C81.4996 69.0665 81.8513 68.9937 82.0574 68.5087C82.2635 68.5815 82.4818 68.6542 82.6879 68.7148C82.8941 68.7876 83.0759 68.6421 83.2093 68.2904C83.2821 68.2904 83.3185 68.2783 83.3185 68.2419C83.3185 68.2056 83.3548 68.1934 83.4276 68.1934C83.6337 68.3389 83.8277 68.3389 83.9975 68.1934C84.1673 68.0601 84.3613 67.9509 84.5674 67.8782C85.1252 67.672 85.3677 67.284 85.2949 66.7262L85.5011 66.8354H85.6102C85.6829 66.702 85.7557 66.5929 85.8163 66.5201C85.8891 66.4474 85.9618 66.3504 86.0224 66.2048C86.0952 65.9987 86.1558 65.8047 86.2286 65.6349C86.3013 65.4652 86.3983 65.2712 86.5438 65.0651C86.6166 64.9317 86.75 64.8225 86.9561 64.7498C87.1623 64.677 87.235 64.5073 87.1622 64.2284C87.5139 64.095 87.72 63.901 87.7928 63.6585C87.8655 63.416 87.9625 63.125 88.108 62.7733C88.1808 62.4944 88.3505 62.3611 88.6294 62.3611V61.8397C88.7628 61.6335 88.872 61.4274 88.9447 61.2091C89.0175 61.003 89.1145 60.7969 89.26 60.5786C89.26 60.3725 89.2964 60.2633 89.3691 60.2633C89.7207 60.13 89.8541 59.9117 89.7814 59.6328C89.9147 59.2812 90.0966 58.9659 90.3028 58.687C90.5089 58.4081 90.6786 58.0929 90.8241 57.7412C90.9575 57.4623 91.1515 57.2683 91.394 57.1713C91.6366 57.0622 91.7942 56.8439 91.867 56.4923C91.9397 56.3589 92.0003 56.2013 92.0731 56.0194C92.1458 55.8496 92.2065 55.692 92.2792 55.5465C92.5581 55.1342 92.6915 54.819 92.6915 54.6007C92.7642 54.3946 92.8613 54.2491 93.0068 54.1884C93.1401 54.1157 93.2493 53.9823 93.322 53.7762C93.322 53.3518 93.5282 52.9395 93.9526 52.5151C94.3648 52.1029 94.5467 51.7148 94.4739 51.3632C94.4739 51.0116 94.6801 50.6963 95.1045 50.4174C95.3833 50.2113 95.5895 49.9688 95.735 49.6899C95.8684 49.411 96.0139 49.1321 96.1473 48.8532C96.2807 48.5016 96.4625 48.1742 96.6687 47.8589C96.8748 47.5437 97.1901 47.3254 97.6145 47.1799C97.4811 46.901 97.5053 46.6585 97.7236 46.4524C98.0752 46.028 98.4026 45.6036 98.7179 45.1428C99.0331 44.6942 99.3605 44.2576 99.7122 43.8332C100.124 43.2755 100.44 42.8875 100.658 42.6813C100.731 42.6086 100.864 42.5722 101.082 42.5722C101.01 42.9238 100.973 43.2391 100.973 43.518C100.973 43.7969 100.9 44.0758 100.767 44.3546C100.622 44.7063 100.488 45.0579 100.355 45.3974C100.209 45.7491 100.112 46.125 100.04 46.5494C99.9668 46.8282 99.9304 47.095 99.9304 47.3375C99.9304 47.58 99.8941 47.8468 99.8213 48.1257C99.6879 48.1984 99.5788 48.2712 99.506 48.3318C99.4333 48.4046 99.3363 48.4773 99.1908 48.5379C99.2635 48.7441 99.2999 48.9866 99.2999 49.2655C99.1544 49.411 99.0574 49.4959 98.9846 49.5322C98.9119 49.5686 98.8392 49.6171 98.7785 49.6899C98.7785 49.8354 98.7906 49.9324 98.827 50.0051C98.8634 50.0779 98.8755 50.1506 98.8755 50.2113C98.5966 50.6963 98.4511 51.3268 98.4511 52.0907C98.4511 52.4424 98.2814 52.794 97.9297 53.1335C98.0631 53.3397 98.0995 53.4852 98.0389 53.5579C98.0389 53.9702 98.0025 54.2855 97.9297 54.5037C97.857 54.7826 97.8448 55.0494 97.8812 55.2919C97.9176 55.5344 97.857 55.7648 97.7236 55.9709C97.6508 56.3225 97.6145 56.7712 97.6145 57.329C97.6145 57.4623 97.6508 57.6078 97.7236 57.7412C97.7963 57.8867 97.7963 58.0201 97.7236 58.1535C97.6508 58.299 97.6872 58.4203 97.8327 58.5173C97.9661 58.6264 97.9661 58.784 97.8327 58.9902C97.9661 59.1963 98.0752 59.4509 98.148 59.7177C98.2207 59.9966 98.4633 60.1785 98.8755 60.2391C98.5966 60.7241 98.6694 61.1849 99.0817 61.5971C99.2151 61.6699 99.3605 61.8397 99.506 62.1185C99.7122 62.5308 100.052 62.8825 100.5 63.1613C100.949 63.4402 101.422 63.5494 101.907 63.4766C102.113 63.4039 102.343 63.3917 102.586 63.4281C102.828 63.4645 103.022 63.3796 103.156 63.1613H103.786C104.478 62.9552 105.423 62.4338 106.612 61.5971C106.818 61.4638 107.048 61.2819 107.291 61.0757C107.533 60.8696 107.8 60.6635 108.079 60.4452C108.212 60.3118 108.37 60.1663 108.552 60.033C108.721 59.8996 108.879 59.7541 109.025 59.6086C109.231 59.4752 109.425 59.2933 109.594 59.0872C109.764 58.881 109.958 58.7113 110.164 58.5658C110.516 58.2141 110.843 57.8746 111.159 57.523C111.28 57.3896 111.389 57.2683 111.51 57.135C111.438 57.4017 111.377 57.7049 111.304 58.0444C111.304 58.1777 111.256 58.3233 111.147 58.4566C111.037 58.6021 111.062 58.7355 111.195 58.8689C111.341 59.4267 111.438 59.8147 111.51 60.0208C111.231 60.4331 111.11 60.7726 111.147 61.0151C111.183 61.2576 111.231 61.585 111.304 62.0094C111.377 62.2156 111.462 62.4096 111.571 62.5793C111.68 62.7491 111.656 62.9431 111.522 63.1492V63.3554C111.668 63.5009 111.765 63.6342 111.838 63.7797C111.91 63.9131 112.007 64.0586 112.153 64.192C112.226 64.3375 112.298 64.4709 112.359 64.6043C112.432 64.7498 112.468 64.8832 112.468 65.0287C112.468 65.3803 112.577 65.6592 112.784 65.8653C112.99 65.9987 113.244 66.217 113.511 66.4959C113.657 66.702 113.79 66.7384 113.935 66.605C114.008 66.5322 114.069 66.4959 114.142 66.4959V67.1264C114.348 67.1991 114.542 67.2719 114.711 67.3325C114.881 67.4053 115.075 67.4659 115.281 67.5387C115.427 67.6114 115.548 67.6235 115.645 67.5872C115.754 67.5508 115.876 67.5993 116.009 67.7448C116.215 68.0964 116.458 68.1934 116.736 68.0601C117.5 67.9873 118.276 67.7812 119.04 67.4295C119.453 67.1506 119.853 66.8718 120.241 66.5929C120.629 66.314 120.992 66.0351 121.344 65.7562C121.478 65.6228 121.587 65.4773 121.659 65.3318C121.732 65.1984 121.829 65.0893 121.975 65.0166C122.46 64.6649 122.957 64.1435 123.442 63.4524C123.648 63.2462 123.83 63.0158 123.963 62.7733C124.097 62.5308 124.279 62.3368 124.485 62.2034C124.836 61.9245 125.152 61.6335 125.43 61.3183C125.709 61.003 125.988 60.6756 126.267 60.324C126.4 60.2512 126.497 60.1906 126.534 60.1178C126.57 60.0451 126.655 59.9481 126.801 59.8026C126.873 60.0087 126.922 60.1906 126.958 60.324C126.995 60.4695 127.007 60.6029 127.007 60.7484C126.934 60.8939 126.873 61.0515 126.801 61.2213C126.728 61.391 126.691 61.5486 126.691 61.6942C126.413 62.3974 126.303 62.9188 126.376 63.2583C126.376 63.4039 126.388 63.5615 126.425 63.7312C126.461 63.901 126.437 64.0586 126.376 64.2041C126.243 64.4103 126.182 64.6528 126.219 64.9317C126.255 65.2106 126.231 65.4894 126.17 65.7683C126.097 65.9745 126.085 66.1806 126.122 66.3989C126.158 66.605 126.17 66.8111 126.17 67.0294C126.17 67.1021 126.206 67.1385 126.279 67.1385C126.485 67.2113 126.582 67.3083 126.546 67.4538C126.51 67.5993 126.497 67.7327 126.497 67.8782C126.497 68.2298 126.51 68.4723 126.546 68.6057C126.582 68.7512 126.704 68.9937 126.91 69.3332C127.043 69.7455 127.152 70.0971 127.225 70.376C127.225 70.5215 127.261 70.6185 127.334 70.6913C127.54 70.7641 127.722 70.9702 127.856 71.3218C127.989 71.6735 128.244 71.916 128.583 72.0494C128.789 72.1949 129.02 72.3161 129.262 72.4131C129.505 72.5223 129.699 72.6435 129.832 72.7769C130.463 73.2619 131.117 73.3347 131.821 72.983C132.027 73.0558 132.172 73.1892 132.233 73.3953C132.306 73.2619 132.403 73.1164 132.548 72.983L133.179 73.2983C133.312 73.2255 133.445 73.1649 133.542 73.0922C133.652 73.0194 133.773 72.9588 133.906 72.886C134.185 72.7526 134.464 72.6193 134.743 72.5223C135.022 72.4131 135.264 72.2919 135.47 72.1585C135.883 71.9524 136.234 71.7098 136.513 71.431C136.792 71.2248 137.035 70.9823 137.241 70.7034C137.447 70.4245 137.689 70.2184 137.968 70.0729C138.247 69.9395 138.453 69.7455 138.599 69.503C138.732 69.2605 138.878 69.0301 139.023 68.824C139.157 68.6178 139.29 68.4966 139.387 68.4602C139.496 68.4238 139.617 68.3753 139.751 68.3026C139.751 68.1692 139.714 68.0601 139.642 67.9873C140.054 67.8539 140.369 67.7084 140.587 67.5629V67.2476C140.866 67.1143 141.024 66.8596 141.06 66.5201C141.097 66.1685 141.254 65.926 141.533 65.7926V65.4773H141.848C141.848 65.4046 141.824 65.3561 141.8 65.3197C141.764 65.2833 141.751 65.2348 141.751 65.1621C141.885 65.0893 142.067 65.0408 142.273 65.0044C142.479 64.968 142.661 64.9195 142.794 64.8468C142.794 64.5679 142.831 64.3982 142.903 64.3254C143.037 64.192 143.17 64.0465 143.267 63.901C143.376 63.7676 143.497 63.6221 143.631 63.4887C143.764 63.2826 143.922 63.0522 144.104 62.8097C144.274 62.5672 144.431 62.3368 144.577 62.1307L145.207 61.1849C145.28 61.0515 145.341 60.9545 145.413 60.9181C145.45 60.8939 145.498 60.8575 145.535 60.7969C145.595 60.9181 145.656 61.0272 145.729 61.1243C145.801 61.2334 145.838 61.3183 145.838 61.391V61.5001C145.838 61.6457 145.91 61.9124 146.044 62.3368V62.9673L147.087 64.3254L147.923 64.9559L148.869 65.7926C149.281 66.2049 149.779 66.4231 150.336 66.4231C150.482 66.5686 150.639 66.6292 150.809 66.6292H151.282C151.561 66.7626 151.767 66.8354 151.913 66.8354H152.749C152.883 66.8354 153.174 66.7626 153.586 66.6292C153.792 66.6292 153.962 66.6171 154.107 66.5807C154.241 66.5444 154.35 66.5322 154.423 66.5322C154.495 66.5322 154.653 66.4595 154.896 66.3261C155.138 66.1927 155.296 66.0836 155.368 66.0108C155.575 66.0108 155.793 65.9017 155.999 65.6956C156.484 65.5622 156.872 65.2469 157.151 64.7498H157.26L157.672 64.3375C157.878 64.3375 158.024 64.2526 158.097 64.0708C158.169 63.901 158.266 63.6706 158.412 63.3917V63.5979L159.042 62.9673C159.115 62.8946 159.2 62.7976 159.309 62.6521C159.418 62.5187 159.637 62.0579 159.988 61.294V61.5001L160.303 60.9787V61.1849L160.619 60.5544V60.6635L161.14 60.2391C161.14 60.1057 161.177 59.9117 161.249 59.6692C161.322 59.4267 161.358 59.1963 161.358 58.9902L161.249 59.4146C161.177 59.4873 161.213 59.3418 161.358 58.9902C161.358 58.9174 161.431 58.7476 161.565 58.4688H161.977C162.05 58.1899 162.219 57.911 162.498 57.6321V56.9046L163.65 54.916C163.784 54.7098 163.893 54.4673 163.965 54.1884C164.038 53.9096 164.135 53.7034 164.281 53.5579V53.4488C164.281 53.376 164.293 53.3397 164.329 53.3397C164.366 53.3397 164.378 53.3033 164.378 53.2305L165.008 51.6663C165.081 51.5936 165.117 51.533 165.117 51.4602C165.117 51.3268 165.154 51.2177 165.226 51.1449C165.299 51.0116 165.384 50.7933 165.493 50.5144C165.602 50.2355 165.651 50.0658 165.651 49.993C165.724 49.9203 165.821 49.7141 165.966 49.3625C166.378 49.4352 166.839 49.4352 167.324 49.3625C167.458 49.2897 167.773 49.2534 168.27 49.2534H168.949C169.192 49.2534 169.386 49.217 169.519 49.1442H169.41C169.483 49.1442 169.531 49.1321 169.567 49.0957C169.604 49.0593 169.652 49.0472 169.725 49.0472C169.931 49.0472 170.21 48.9745 170.562 48.8411C170.841 48.9866 171.047 48.8775 171.192 48.5258C171.398 48.5258 171.641 48.4894 171.92 48.4167C172.199 48.3439 172.405 48.2833 172.55 48.2106H172.344L172.756 48.0044L173.387 47.7983C173.52 47.6649 173.775 47.5315 174.114 47.4345C174.466 47.3254 174.745 47.2041 174.951 47.0708H175.157L175.363 46.9738C175.363 46.9738 175.327 47.0708 175.315 47.1314C175.279 47.3011 175.194 47.4345 175.048 47.4952C174.696 47.6407 174.575 47.7983 174.684 47.9681C174.781 48.1378 174.806 48.2954 174.733 48.4409V48.6471C174.454 48.926 174.296 49.217 174.26 49.5322C174.224 49.8475 174.102 50.1385 173.896 50.4174C173.69 50.769 173.545 51.0964 173.484 51.4117C173.411 51.727 173.314 52.0544 173.169 52.406C173.035 52.6849 172.938 52.9274 172.902 53.1335C172.866 53.3397 172.744 53.5215 172.538 53.6549C172.465 53.7277 172.429 53.8247 172.429 53.9702C172.296 54.2491 172.199 54.528 172.162 54.8069C172.126 55.0857 172.041 55.3646 171.895 55.6435C171.762 55.9224 171.617 56.2134 171.483 56.5287C171.35 56.8439 171.168 57.0986 170.962 57.3168C170.889 57.3168 170.853 57.3896 170.853 57.523C170.78 57.8019 170.731 58.0807 170.695 58.3596C170.659 58.6385 170.61 58.9538 170.537 59.3054L170.428 59.5116C170.295 59.6571 170.198 59.8147 170.162 59.9845C170.125 60.1542 170.077 60.3118 170.004 60.4573C169.871 60.809 169.737 61.1364 169.64 61.4516C169.531 61.7669 169.446 62.0943 169.373 62.4459C169.301 62.8703 169.094 63.1492 168.743 63.2826C168.816 63.3554 168.888 63.4039 168.949 63.4402C169.022 63.4766 169.094 63.5251 169.155 63.5979V63.707C168.803 64.4103 168.767 65.1014 169.046 65.7926C169.119 65.926 169.131 66.0593 169.094 66.1563C169.058 66.2655 169.046 66.3867 169.046 66.5201L169.252 66.6292V66.7384C169.179 67.575 169.567 67.9994 170.404 67.9994L170.816 68.2056C170.744 68.3511 170.707 68.5208 170.707 68.727C171.192 69.0786 171.544 69.0059 171.75 68.5208C171.956 68.5936 172.174 68.6663 172.38 68.727C172.587 68.7997 172.769 68.6542 172.902 68.3026C172.975 68.3026 172.999 68.2904 172.999 68.2541C172.999 68.2177 173.035 68.2056 173.108 68.2056C173.314 68.3511 173.508 68.3511 173.678 68.2056C173.848 68.0722 174.042 67.9631 174.248 67.8903C174.806 67.6842 175.048 67.2962 174.975 66.7384L175.181 66.8475H175.291C175.363 66.7141 175.436 66.605 175.497 66.5322C175.57 66.4595 175.642 66.3625 175.703 66.217C175.776 66.0108 175.836 65.8168 175.909 65.6471C175.982 65.4773 176.079 65.2833 176.224 65.0772C176.297 64.9438 176.43 64.8347 176.637 64.7619C176.843 64.6892 176.915 64.5194 176.843 64.2405C177.194 64.1071 177.4 63.9131 177.473 63.6706C177.546 63.4281 177.643 63.1371 177.788 62.7854C177.861 62.5066 178.031 62.3732 178.31 62.3732V61.8518C178.443 61.6457 178.552 61.4395 178.625 61.2213C178.698 61.0151 178.795 60.809 178.94 60.5907C178.94 60.3846 178.977 60.2755 179.05 60.2755C179.401 60.1421 179.535 59.9238 179.462 59.6449C179.595 59.2933 179.777 58.978 179.983 58.6991C180.189 58.4203 180.359 58.105 180.505 57.7534C180.638 57.4745 180.832 57.2805 181.075 57.1835C181.317 57.0743 181.475 56.8561 181.547 56.5044C181.62 56.371 181.681 56.2134 181.754 56.0315C181.826 55.8618 181.887 55.7041 181.96 55.5586C182.239 55.1464 182.372 54.8311 182.372 54.6128C182.445 54.4067 182.542 54.2612 182.687 54.2006C182.821 54.1278 182.93 53.9944 183.002 53.7883C183.002 53.3639 183.209 52.9516 183.633 52.5272C184.045 52.115 184.227 51.727 184.154 51.3753C184.154 51.0237 184.361 50.7084 184.785 50.4295C185.064 50.2234 185.27 49.9809 185.415 49.702C185.549 49.4231 185.694 49.1442 185.828 48.8653C185.961 48.5137 186.143 48.1863 186.349 47.871C186.555 47.5558 186.871 47.3375 187.295 47.192C187.162 46.9131 187.186 46.6706 187.404 46.4645C187.756 46.0401 188.083 45.6157 188.398 45.1549C188.714 44.7063 189.041 44.2698 189.393 43.8454C189.817 43.2876 190.12 42.8996 190.338 42.6934C190.411 42.6207 190.545 42.5843 190.763 42.5843C190.69 42.936 190.654 43.2512 190.654 43.5301C190.654 43.809 190.581 44.0879 190.448 44.3668C190.302 44.7184 190.169 45.07 190.035 45.4096C189.89 45.7612 189.793 46.1371 189.72 46.5615C189.647 46.8404 189.611 47.1071 189.611 47.3496C189.611 47.5922 189.575 47.8589 189.502 48.1378C189.368 48.2106 189.259 48.2833 189.187 48.3439C189.114 48.4167 189.017 48.4894 188.871 48.5501C188.944 48.7562 188.98 48.9987 188.98 49.2776C188.835 49.4231 188.738 49.508 188.665 49.5444C188.592 49.5807 188.532 49.6292 188.459 49.702C188.459 49.8475 188.471 49.9445 188.507 50.0173C188.544 50.09 188.556 50.1628 188.556 50.2234C188.277 50.7084 188.132 51.3389 188.132 52.1029C188.132 52.4545 187.962 52.8061 187.61 53.1457C187.744 53.3518 187.78 53.4973 187.719 53.57C187.719 53.9823 187.683 54.2976 187.61 54.5158C187.537 54.7947 187.525 55.0615 187.562 55.304C187.598 55.5465 187.537 55.7769 187.404 55.983C187.331 56.3347 187.295 56.7833 187.295 57.3411C187.295 57.4745 187.331 57.62 187.404 57.7534C187.477 57.8989 187.477 58.0322 187.404 58.1656C187.331 58.3111 187.368 58.4324 187.513 58.5294C187.647 58.6385 187.647 58.7962 187.513 59.0023C187.647 59.2084 187.756 59.4631 187.828 59.7298C187.901 60.0087 188.144 60.1906 188.556 60.2512C188.277 60.7362 188.35 61.197 188.762 61.6093C188.895 61.682 189.041 61.8518 189.187 62.1307C189.393 62.5429 189.732 62.8946 190.181 63.1735C190.629 63.4524 191.102 63.5615 191.587 63.4887C191.793 63.416 192.024 63.4039 192.266 63.4402C192.509 63.4766 192.703 63.3917 192.836 63.1735H193.467C194.158 62.9673 195.104 62.4459 196.292 61.6093C196.498 61.4759 196.729 61.294 196.971 61.0879C197.214 60.8817 197.48 60.6756 197.759 60.4573C197.893 60.324 198.05 60.1785 198.232 60.0451C198.402 59.9117 198.56 59.7662 198.705 59.6207C198.911 59.4873 199.105 59.3054 199.275 59.0993C199.445 58.8932 199.639 58.7234 199.845 58.5779C200.196 58.2263 200.524 57.8867 200.839 57.5351C201.154 57.1835 201.482 56.8439 201.833 56.4923C201.967 56.3589 202.1 56.2134 202.197 56.0679C202.306 55.9345 202.428 55.789 202.561 55.6556C202.84 55.3768 203.119 55.0979 203.398 54.819C203.677 54.5401 203.919 54.2612 204.125 53.9823C204.477 53.4973 204.816 53.0365 205.168 52.6243C205.52 52.212 205.835 51.7876 206.114 51.3753C206.465 50.8175 206.756 50.3932 206.999 50.1264C207.241 49.8475 207.435 49.5322 207.569 49.1806C207.642 49.0472 207.775 48.9381 207.981 48.8653C208.187 48.7926 208.333 48.6956 208.405 48.5501C208.612 48.2712 208.697 47.9438 208.672 47.5558C208.636 47.1678 208.684 46.804 208.83 46.4524C208.903 46.319 209.036 46.1371 209.254 45.931C209.46 45.7248 209.606 45.5429 209.667 45.4096C209.8 45.2034 209.824 44.9367 209.715 44.6214C209.606 44.3061 209.63 44.0151 209.764 43.7362C210.249 43.2512 210.564 42.8996 210.709 42.6934L210.843 42.5964ZM71.2778 47.4103C71.2414 47.3375 71.2293 47.3375 71.2293 47.4103L70.914 48.1378C71.0474 48.0044 71.0838 48.0651 71.0232 48.3439C70.9504 48.6228 70.8534 48.829 70.7079 48.9745L70.2956 49.9203C70.0167 50.0658 69.8834 50.3689 69.8834 50.8661L69.1558 52.6485C69.0103 53.2063 68.9133 53.57 68.8406 53.7519C68.7678 53.9217 68.6951 54.0793 68.6344 54.2248V54.1157C68.4283 54.3218 68.3192 54.5037 68.3192 54.6371V54.8432L67.4825 55.9952C67.5552 55.9952 67.5552 56.0315 67.4825 56.1043L67.3734 56.3104L66.7429 57.2562H66.852C66.7065 57.3896 66.5852 57.5351 66.4882 57.6685C66.3791 57.814 66.2942 57.9474 66.2215 58.0807C66.2215 58.008 66.1123 58.0807 65.9062 58.2869C65.8334 58.4324 65.7364 58.6506 65.5909 58.9659C65.4454 59.2812 65.3484 59.5116 65.2757 59.6449L63.6023 61.003H63.7115L63.2992 61.3183C62.9476 61.3183 62.7778 61.391 62.7778 61.5244L62.0503 60.6877L61.735 60.4816L61.4197 59.9602L61.5289 60.3725L61.3227 60.0572V58.6991C61.25 58.493 61.25 58.2505 61.3227 57.9716V57.135C61.25 57.0622 61.2864 56.8924 61.4319 56.6136L61.638 56.0922C61.638 55.9588 61.6622 55.8496 61.6865 55.7769C61.7229 55.7041 61.735 55.6435 61.735 55.5708C61.735 55.4374 61.7714 55.2555 61.8441 55.0494C61.9169 54.8432 61.9533 54.6613 61.9533 54.528C62.3655 53.6913 62.5838 53.1335 62.5838 52.8546C62.7899 52.5758 62.899 52.2969 62.899 52.018L62.7899 52.2241C62.7899 52.018 62.6808 51.7997 62.4747 51.5936L62.8869 51.7997L63.6145 50.3325C63.6145 50.2598 63.6266 50.1628 63.663 50.0173C63.6872 49.896 63.7842 49.702 63.954 49.4231C64.148 48.7805 64.3784 48.3076 64.6573 48.0287L65.4939 46.3554L65.7 45.931L65.9062 45.2034C65.9062 45.1307 65.9183 45.0822 65.9547 45.0458C65.9547 45.0458 65.9668 45.0337 65.9789 45.0215L66.0153 44.8882C66.0153 44.8882 66.0153 44.9852 65.9789 45.0215L65.9062 45.3126L66.0153 45.2034V45.3126C66.0881 45.5914 66.1244 45.9795 66.1244 46.4645L66.9611 46.8768L66.6459 46.7676C67.1309 47.1193 67.6402 47.2526 68.1616 47.192C68.683 47.1193 69.0831 46.9495 69.362 46.6706C69.5681 46.4645 69.75 46.222 69.8834 45.9431L70.5139 46.4645H70.4048L70.817 46.7797L71.3384 47.3011C71.3384 47.4467 71.3142 47.4709 71.2899 47.4103H71.2778ZM73.7272 38.8375V39.5651C73.7999 39.7712 73.6908 40.0865 73.4119 40.5108C73.4119 40.5836 73.3876 40.6321 73.3634 40.6685C73.327 40.7049 73.3149 40.7534 73.3149 40.8261V40.717C73.2422 41.0686 73.2057 41.3839 73.2057 41.6628L72.9996 42.2933L72.7935 42.8147L71.3627 41.2869C71.3627 41.2869 71.3869 41.3233 71.3263 41.299C71.2536 41.2626 71.2536 41.1778 71.3263 41.0322L71.4354 40.4017C71.4354 40.329 71.4476 40.2805 71.4839 40.2441C71.5203 40.2077 71.5325 40.1592 71.5325 40.0865C71.6658 39.6621 71.7386 39.3225 71.7386 39.0437C71.8113 38.4859 71.8113 38.0615 71.7386 37.7947C71.6658 37.5158 71.5931 37.237 71.5325 36.9581C71.4597 36.8853 71.4233 36.8247 71.4233 36.7519L71.8477 36.3275H71.6416L72.6844 35.697L73.0966 35.3817L73.4119 35.697C73.4119 35.9759 73.4847 36.2548 73.618 36.5337C73.618 36.6671 73.6908 36.8853 73.8242 37.1642V38.0009C73.8242 38.0736 73.8605 38.11 73.9333 38.11C73.7878 38.3161 73.7272 38.5708 73.7272 38.8375ZM75.8249 49.1927C75.8976 49.1927 75.9461 49.2049 75.9825 49.2412C76.0189 49.2776 76.0674 49.2897 76.1401 49.2897C76.0674 49.3625 75.9704 49.3261 75.8249 49.1806V49.1927ZM132.403 42.4388C132.257 42.8268 132.124 43.227 131.99 43.6392C131.845 43.9909 131.845 44.3425 131.99 44.682C132.063 45.0337 132.039 45.3126 131.942 45.5187C131.845 45.7248 131.711 45.931 131.578 46.1492C131.505 46.2947 131.42 46.4524 131.311 46.6221C131.202 46.7919 131.154 46.9495 131.154 47.095C131.081 47.3011 130.996 47.4952 130.887 47.6649C130.778 47.8347 130.693 47.9923 130.62 48.1378C130.269 48.5622 129.953 48.9987 129.674 49.4474C129.395 49.896 129.08 50.2962 128.729 50.6478C128.522 50.7933 128.341 50.9752 128.207 51.2177C128.062 51.4602 127.928 51.6542 127.783 51.7876C127.431 52.3454 127.055 52.8304 126.631 53.2548C126.219 53.6792 125.794 54.1642 125.382 54.722L124.436 55.9709C124.084 56.2498 123.793 56.5287 123.551 56.8076C123.308 57.0864 123.042 57.4017 122.763 57.7534C122.484 58.105 122.205 58.4203 121.926 58.6991C121.647 58.978 121.405 59.2933 121.199 59.6449C120.992 59.9238 120.738 60.1542 120.471 60.324C120.192 60.4937 119.986 60.7241 119.841 61.003C119.562 61.3546 119.271 61.6335 118.955 61.8397C118.64 62.0458 118.349 62.3247 118.07 62.6763C117.864 62.8218 117.634 62.834 117.391 62.7248C117.149 62.6157 116.955 62.4338 116.821 62.1549C116.542 60.7605 116.542 59.3297 116.821 57.8625C116.894 57.7291 116.943 57.5836 116.979 57.4381C117.015 57.3047 117.064 57.1592 117.137 57.0258C117.209 56.8197 117.221 56.5893 117.185 56.3468C117.149 56.1043 117.197 55.9103 117.343 55.7769C117.549 55.3525 117.694 54.9039 117.755 54.4188C117.828 53.9338 118.034 53.5094 118.385 53.1699C118.519 53.0971 118.543 53.0001 118.434 52.8546C118.325 52.7213 118.386 52.5758 118.592 52.4302C118.592 52.0786 118.677 51.824 118.858 51.6421C119.028 51.4723 119.162 51.2056 119.222 50.8539C119.222 50.7205 119.271 50.5387 119.38 50.3325C119.489 50.1264 119.61 49.9203 119.744 49.702C120.022 49.3504 120.253 48.9502 120.423 48.5016C120.592 48.0529 120.786 47.6164 120.992 47.192C120.992 47.1193 120.968 47.0586 120.944 46.9859C120.908 46.9131 120.895 46.8161 120.895 46.6706C121.029 46.5979 121.174 46.5372 121.308 46.4645C121.441 46.3917 121.623 46.3311 121.829 46.2584C121.756 46.125 121.659 45.9795 121.514 45.8461C121.587 45.8461 121.623 45.834 121.623 45.7976C121.623 45.7612 121.659 45.7491 121.732 45.7491C122.363 45.2641 122.811 44.6699 123.09 43.9666C123.163 43.8332 123.333 43.615 123.612 43.3361C123.818 43.13 124.012 42.9238 124.182 42.7056C124.351 42.4994 124.545 42.2569 124.751 41.978C124.824 41.8447 124.861 41.7113 124.861 41.6143C124.861 41.5173 124.897 41.4203 124.97 41.3475C125.321 40.9959 125.6 40.7897 125.806 40.717L126.437 40.0865C126.643 39.8803 126.825 39.6378 126.958 39.3589C127.237 38.9345 127.589 38.595 128.001 38.3161L129.565 37.0672C129.699 36.9338 129.844 36.7519 129.978 36.5458C130.111 36.3397 130.329 36.3033 130.608 36.4367C130.741 36.4367 130.814 36.3639 130.814 36.2305C131.299 35.8183 131.893 35.6 132.597 35.6C133.3 35.6 133.639 35.988 133.639 36.7519C133.494 37.3097 133.409 37.8917 133.373 38.4738C133.336 39.0679 133.251 39.6378 133.106 40.1956C133.106 40.4017 133.07 40.5957 132.997 40.7655C132.924 40.9352 132.851 41.1292 132.791 41.3354C132.657 41.687 132.512 42.0508 132.378 42.4388H132.403ZM161.007 47.4103C160.97 47.3375 160.958 47.3375 160.958 47.4103L160.643 48.1378C160.776 48.0044 160.813 48.0651 160.752 48.3439C160.679 48.6228 160.582 48.829 160.437 48.9745L160.025 49.9203C159.746 50.0658 159.612 50.3689 159.612 50.8661L158.885 52.6485C158.739 53.2063 158.642 53.57 158.57 53.7519C158.497 53.9217 158.424 54.0793 158.363 54.2248V54.1157C158.157 54.3218 158.048 54.5037 158.048 54.6371V54.8432L157.211 55.9952C157.284 55.9952 157.284 56.0315 157.211 56.1043L157.102 56.3104L156.472 57.2562H156.581C156.435 57.3896 156.314 57.5351 156.217 57.6685C156.108 57.814 156.023 57.9474 155.95 58.0807C155.95 58.008 155.841 58.0807 155.635 58.2869C155.562 58.4324 155.465 58.6506 155.32 58.9659C155.174 59.2812 155.077 59.5116 155.005 59.6449L153.331 61.003H153.44L153.028 61.3183C152.677 61.3183 152.507 61.391 152.507 61.5244C152.58 61.5244 152.64 61.5608 152.713 61.6335H152.604C152.677 61.7184 152.713 61.7912 152.713 61.8397L152.301 61.4274C152.373 61.5001 152.434 61.5365 152.507 61.5365L151.779 60.6999L151.464 60.4937L151.149 59.9723L151.258 60.3846L151.052 60.0693V58.7113C150.979 58.5051 150.979 58.2626 151.052 57.9837V57.1471C150.979 57.0743 151.015 56.9046 151.149 56.6257L151.355 56.1043C151.355 55.9709 151.379 55.8618 151.403 55.789C151.44 55.7163 151.452 55.6556 151.452 55.5829C151.452 55.4495 151.488 55.2676 151.561 55.0615C151.634 54.8554 151.67 54.6735 151.67 54.5401C152.082 53.7034 152.301 53.1456 152.301 52.8668C152.507 52.5879 152.616 52.309 152.616 52.0301L152.519 52.2362C152.519 52.0301 152.41 51.8118 152.204 51.6057L152.616 51.8118L153.343 50.3447C153.343 50.2719 153.356 50.1749 153.392 50.0294C153.416 49.9081 153.513 49.7141 153.683 49.4352C153.877 48.7926 154.107 48.3197 154.386 48.0408L155.223 46.3675L155.429 45.9431L155.635 45.2156C155.635 45.1428 155.647 45.0943 155.684 45.0579C155.684 45.0579 155.696 45.0458 155.708 45.0337L155.744 44.9003C155.744 44.9003 155.744 44.9973 155.708 45.0337L155.635 45.3247L155.744 45.2156V45.3247C155.817 45.6036 155.853 45.9916 155.853 46.4766L156.69 46.8889L156.375 46.7797C156.86 47.1314 157.369 47.2648 157.891 47.2041C158.412 47.1314 158.812 46.9616 159.091 46.6827C159.297 46.4766 159.479 46.2341 159.612 45.9552L160.243 46.4766H160.134L160.546 46.7919L161.067 47.3133C161.067 47.4588 161.043 47.483 161.019 47.4224L161.007 47.4103ZM162.522 43.4331L162.413 43.324H162.522V43.4331ZM163.468 39.5651C163.541 39.7712 163.432 40.0865 163.153 40.5108C163.153 40.5836 163.129 40.6321 163.104 40.6685C163.068 40.7049 163.056 40.7534 163.056 40.8261V40.717C162.983 41.0686 162.947 41.3839 162.947 41.6628L162.741 42.2933L162.535 42.8147L161.104 41.2869C161.104 41.2869 161.104 41.3233 161.067 41.2869C160.995 41.2505 160.995 41.1656 161.067 41.0201L161.177 40.3896C161.177 40.3168 161.189 40.2683 161.225 40.232C161.261 40.1956 161.274 40.1471 161.274 40.0743C161.407 39.6499 161.48 39.3104 161.48 39.0315C161.552 38.4738 161.552 38.0494 161.48 37.7826C161.407 37.5037 161.334 37.2248 161.274 36.9459C161.201 36.8732 161.164 36.8126 161.164 36.7398L161.589 36.3154H161.383L162.425 35.6849L162.838 35.3696L163.153 35.6849C163.153 35.9638 163.226 36.2427 163.359 36.5215C163.359 36.6549 163.432 36.8732 163.565 37.1521V37.9887C163.565 38.0615 163.602 38.0979 163.674 38.0979C163.529 38.304 163.468 38.5586 163.468 38.8254V39.5651ZM165.554 49.1927C165.627 49.1927 165.675 49.2049 165.711 49.2412C165.748 49.2776 165.796 49.2897 165.869 49.2897C165.796 49.3625 165.699 49.3261 165.554 49.1806V49.1927Z" fill="white"/>
</svg>
