<svg width="391" height="691" viewBox="0 0 391 691" fill="none" xmlns="http://www.w3.org/2000/svg">
<g clip-path="url(#clip0_1691_23)">
<path d="M387.734 252.264L376.991 236.874L328.353 155.587L317.85 138.037L312.593 122.947L305.836 102.054L320.615 95.908L294.161 55.9654L274.851 30.8077L241.04 24.8959L230.101 8.34409L223.481 0.0109073C223.481 0.0109073 223.47 0.0109073 223.388 0C223.388 0 175.23 0.207239 175.285 0.239961L171.244 15.4611L127.999 28.2445L119.432 35.6996L29.8294 121.409L22.8111 245.136L0 275.006L22.8111 298.353L42.9936 267.949L56.1524 138.037L93.4419 113.927L99.2497 109.989L104.278 113.927L130.737 89.8217V207.942L127.285 261.53L138.737 272.536L138.541 362.548L138.486 388.715L137.564 402.136L137.45 403.74V404.012L137.33 459.149L135.045 464.39L68.0678 617.856L56.6105 644.115L73.1503 654.651L78.02 673.625L91.2551 676.995L91.626 667.98L100.28 682.53L138.622 688.35L163.926 685.186V680.022L159.557 679.836L159.808 673.745L154.273 670.936L146.153 666.813L139.658 663.519L145.308 663.759L140.318 647.6L144.904 644.055L154.142 636.916L181.294 500.422L181.321 500.989L193.128 462.421L198.674 423.209L202.295 391.502V391.447L202.311 391.365L202.322 391.289L202.338 391.163L204.672 374.672L209.875 329.286L255.328 465.382L237.605 627.988L235.952 643.106L235.238 650.534L234.415 659.074L237.278 673.385L263.121 682.056L263.464 678.129L263.677 675.724L274.027 681.789L281.651 686.255L288.724 686.882L335.148 691L340.274 685.535L342.886 682.743L334.411 681.996L332.465 681.821L332.546 680.867L333.135 674.214L314.987 670.265L308.405 668.831L303.17 663.126L299.467 659.096L303.639 659.467L304.527 629.914H304.391L311.186 456.498L267.271 315.014L262.237 274.602L278.226 258.743L264.435 98.3131L289.836 151.268L311.006 180.881L351.044 236.874L342.749 255.553L356.759 275.006L371.543 298.353L391 282.014L387.734 252.264ZM214.27 24.7541L178.235 2.05057C186.84 7.13338 211.364 20.0804 220.285 8.59496L214.27 24.7541Z" fill="white"/>
<path d="M19.3167 237.6L15.3682 247.609L64.5031 266.995L68.4516 256.986L19.3167 237.6Z" fill="#BC0123"/>
</g>
<defs>
<clipPath id="clip0_1691_23">
<rect width="391" height="691" fill="white"/>
</clipPath>
</defs>
</svg>
