<svg width="245" height="438" viewBox="0 0 245 438" fill="none" xmlns="http://www.w3.org/2000/svg">
<path d="M151.941 0L79.2233 6.86311L18.9814 59.5865L14.6032 136.749L0.375 155.38L14.6032 169.94L27.1902 150.977L35.3992 69.9584L58.6572 54.922L62.2768 52.4644L65.4145 54.922L73.5921 48.0831L81.9153 39.8855V55.7811V69.9584V97.138V113.555L79.2233 155.38L92.313 393.956H103.258V401.617V420.771L111.467 437.188H127.337V424.602V393.956L136.093 389.578L119.675 286.695L128.302 180.331L159.625 274.108L147.038 389.578H149.774V401.617L205.046 420.771L212.708 411.468L183.704 393.956L189.723 389.578L194.463 268.569L167.072 180.331L161.247 133.539V97.138L164.334 59.5865L167.072 28.2183L181.147 78.2093L219.324 131.598L214.151 143.246L222.887 155.38L232.109 169.94L244.242 159.748L242.206 141.196L235.506 131.598L198.619 69.9584L190.268 41.6794L198.619 37.208L181.147 6.86311L151.941 0Z" fill="white"/>
<rect x="10.1328" y="126.488" width="32.9434" height="6.71094" transform="rotate(21.5254 10.1328 126.488)" fill="#BC0123"/>
</svg>
