<svg width="245" height="438" viewBox="0 0 245 438" fill="none" xmlns="http://www.w3.org/2000/svg">
<path d="M152.198 0.164062L79.4811 7.02717L19.2392 59.7505L14.861 136.913L0.632812 155.544L14.861 170.104L27.4481 151.141L35.657 70.1225L58.9151 55.086L62.5346 52.6284L65.6723 55.086L73.8499 48.2472L82.1731 40.0496V55.9452V70.1225V97.302V113.719L79.4811 155.544L92.5708 394.12H103.516V401.781V420.935L111.725 437.352H127.595V424.766V394.12L136.351 389.742L119.933 286.859L128.559 180.495L159.882 274.272L147.296 389.742H150.032V401.781L205.304 420.935L212.966 411.632L183.961 394.12L189.981 389.742L194.72 268.733L167.329 180.495L161.505 133.703V97.302L164.592 59.7505L167.329 28.3824L181.405 78.3734L219.582 131.762L214.408 143.41L223.145 155.544L232.366 170.104L244.5 159.912L242.464 141.36L235.764 131.762L198.877 70.1225L190.526 41.8434L198.877 37.3721L181.405 7.02717L152.198 0.164062Z" fill="white"/>
<rect x="10.3906" y="126.652" width="32.9434" height="6.71094" transform="rotate(21.5254 10.3906 126.652)" fill="#BC0123"/>
</svg>
