<svg width="245" height="438" viewBox="0 0 245 438" fill="none" xmlns="http://www.w3.org/2000/svg">
<path d="M159.556 0.414062L79.155 7.25546L18.913 59.9788L14.5349 137.141L0.306641 155.772L14.5349 170.333L27.1219 151.369L35.3308 70.3508L81.847 40.2779V56.1735V70.3508V97.5303V113.948L79.155 155.772L92.2447 394.348H103.19V402.009V421.163L111.398 437.581H127.269V424.994V394.348L136.025 389.97L119.607 287.087L128.233 180.723L159.556 274.5L146.97 389.97H149.706V402.009L204.978 421.163L212.639 411.86L183.635 394.348L189.655 389.97L194.394 268.962L167.003 180.723L161.179 133.932V97.5303L164.266 59.9788L167.003 28.6107L181.078 78.6017L219.256 131.99L214.082 143.639L222.819 155.772L232.04 170.333L244.174 160.14L242.138 141.588L235.438 131.99L198.551 70.3508L181.078 7.25546L159.556 0.414062Z" fill="#BC0123"/>
<rect x="10.0645" y="126.879" width="32.9434" height="6.71094" transform="rotate(21.5254 10.0645 126.879)" fill="white"/>
</svg>
