<svg width="392" height="691" viewBox="0 0 392 691" fill="none" xmlns="http://www.w3.org/2000/svg">
<g clip-path="url(#clip0_1695_64)">
<path d="M388.56 252.264L377.817 236.874L329.179 155.587L318.676 138.037L313.419 122.947L306.662 102.054L321.441 95.908L294.987 55.9654L275.677 30.8077L241.867 24.8959L230.927 8.34409L224.307 0.0109073C224.307 0.0109073 224.296 0.0109073 224.214 0C224.214 0 176.056 0.207239 176.111 0.239961L172.07 15.4611L128.826 28.2445L120.258 35.6996L30.6556 121.409L23.6372 245.136L0.826172 275.006L23.6372 298.353L43.8198 267.949L56.9786 138.037L94.2681 113.927L100.076 109.989L105.104 113.927L131.563 89.8217V207.942L128.111 261.53L139.563 272.536L139.367 362.548L139.312 388.715L138.391 402.136L138.276 403.74V404.012L138.156 459.149L135.871 464.39L68.894 617.856L57.4366 644.115L73.9764 654.651L78.8462 673.625L92.0813 676.995L92.4521 667.98L101.106 682.53L139.448 688.35L164.752 685.186V680.022L160.384 679.836L160.634 673.745L155.099 670.936L146.979 666.813L140.485 663.519L146.134 663.759L141.144 647.6L145.731 644.055L154.969 636.916L182.12 500.422L182.148 500.989L193.954 462.421L199.5 423.209L203.121 391.502V391.447L203.137 391.365L203.148 391.289L203.165 391.163L205.499 374.672L210.701 329.286L256.154 465.382L238.431 627.988L236.779 643.106L236.064 650.534L235.241 659.074L238.104 673.385L263.947 682.056L264.29 678.129L264.503 675.724L274.853 681.789L282.477 686.255L289.55 686.882L335.974 691L341.1 685.535L343.712 682.743L335.238 681.996L333.291 681.821L333.373 680.867L333.961 674.214L315.813 670.265L309.231 668.831L303.996 663.126L300.293 659.096L304.465 659.467L305.354 629.914H305.217L312.012 456.498L268.097 315.014L263.063 274.602L279.052 258.743L265.261 98.3131L290.662 151.268L311.832 180.881L351.87 236.874L343.576 255.553L357.585 275.006L372.369 298.353L391.826 282.014L388.56 252.264ZM215.096 24.7541L179.061 2.05057C187.666 7.13338 212.19 20.0804 221.111 8.59496L215.096 24.7541Z" fill="#BC0123"/>
<path d="M20.1429 237.6L16.1943 247.609L65.3293 266.995L69.2778 256.986L20.1429 237.6Z" fill="white"/>
</g>
<defs>
<clipPath id="clip0_1695_64">
<rect width="391" height="691" fill="white" transform="translate(0.826172)"/>
</clipPath>
</defs>
</svg>
