<svg width="245" height="438" viewBox="0 0 245 438" fill="none" xmlns="http://www.w3.org/2000/svg">
<path d="M152.007 0.179688L79.2897 7.0428L19.0478 59.7662L14.6696 136.928L0.441406 155.56L14.6696 170.12L27.2567 151.157L35.4656 70.1381L58.7236 55.1016L62.3432 52.6441L65.4809 55.1016L73.6585 48.2628L81.9817 40.0652V55.9608V70.1381V97.3177V113.735L79.2897 155.56L92.3794 394.135H103.324V401.797V420.951L111.533 437.368H127.403V424.781V394.135L136.159 389.757L119.742 286.875L128.368 180.51L159.691 274.288L147.104 389.757H149.841V401.797L205.113 420.951L212.774 411.647L183.77 394.135L189.79 389.757L194.529 268.749L167.138 180.51L161.314 133.719V97.3177L164.401 59.7662L167.138 28.398L181.213 78.389L219.391 131.777L214.217 143.426L222.953 155.56L232.175 170.12L244.309 159.928L242.273 141.375L235.572 131.777L198.686 70.1381L190.335 41.859L198.686 37.3877L181.213 7.0428L152.007 0.179688Z" fill="#BC0123"/>
<rect x="10.1992" y="126.668" width="32.9434" height="6.71094" transform="rotate(21.5254 10.1992 126.668)" fill="white"/>
</svg>
