<svg width="908" height="2166" viewBox="0 0 908 2166" fill="none" xmlns="http://www.w3.org/2000/svg">
<path fill-rule="evenodd" clip-rule="evenodd" d="M412.621 41.5039C452.315 52.3631 537.201 59.4245 559.185 0.796875L629.414 18.0975L729.159 9.95499C747.328 10.1512 791.288 51.9527 821.78 217.588C823.07 220.575 821.774 229.12 806.279 239.411L907.48 539.632L878.196 770.928L873.718 817.646L867.295 841.178L871.298 955.64L808.62 1033.58C769.845 1033.58 768.206 1033.58 768.206 1033.58L788.879 950.211L768.206 982.277L762.656 980.244L791.908 846.932L806.136 797.296L823.806 551.884L718.982 296.77L665.77 539.632H658.415V590.478H665.77L775.984 1315.66L742.456 1694.04L656.243 2010.16L722.718 2070.7L710.138 2093.34L722.718 2110.96V2147.06L693.784 2165.05H656.243L603.209 2110.96H551.631L527.73 2082.02L506.344 2039.25L500.054 1953.71L567.985 1605.24L584.339 1388.87L489.99 1051.73L448.476 971.259L435.896 1406.48L478.668 1878.23L500.054 2082.02L409.479 2110.96L345.323 2165.05L286.423 2157.6L271.101 2132.08V2103.41L292.486 2082.02L277.391 2016.61L345.323 1928.55L277.391 1630.4L227.072 1381.32L196.881 816.485L301.293 539.632H325.195L344.065 509.536L126.107 490.417L108.813 530.635L72.6352 550.208L0.273438 509.536L31.7087 462.426L26.9651 439.089L72.6352 420.315L113.894 431.758L147.354 435.526L171.535 447.578L281.164 357.319L267.336 305.692L256.012 311.869L237.482 239.411V187.307L246.747 117.305L375.426 70.9803L412.621 41.5039ZM343.948 480.557L344.969 469.549C332.31 471.697 319.512 472.931 306.675 473.242L134.415 477.408L343.948 480.557ZM162.321 473.043L209.675 464.575L207.832 458.858C201.661 464.242 190.327 466.652 178.659 469.133C173.116 470.311 167.497 471.506 162.321 473.043ZM169.182 485.412C180.643 485.331 203.433 485.172 212.123 482.726L214.537 488.895C207.757 487.747 199.945 487.58 192.038 487.41C183.144 487.22 174.13 487.026 166.33 485.433C167.169 485.426 168.123 485.419 169.172 485.412H169.182Z" fill="white"/>
<path d="M769.845 826.635L768.206 844.791L885.462 855.381L887.101 837.225L769.845 826.635Z" fill="#BC0123"/>
</svg>
