<svg width="146" height="86" viewBox="0 0 146 86" fill="none" xmlns="http://www.w3.org/2000/svg">
<path d="M47.4771 36.0758C47.5922 35.9607 47.7178 35.8351 47.8433 35.7095C47.9585 35.5944 47.9898 35.406 47.9375 35.1653C47.8747 34.9246 47.8747 34.7153 47.9375 34.5373C48.0003 34.3594 48.0527 34.1501 48.1155 33.9094C48.1155 33.6687 48.084 33.4593 48.0212 33.2814C48.1992 33.1035 48.2934 33.0407 48.2934 33.1035C48.1678 32.9256 48.1992 32.7581 48.3876 32.6116C48.5655 32.4651 48.6283 32.2662 48.5655 32.0255C48.5655 31.722 48.6283 31.3348 48.7434 30.8533C48.6806 30.7905 48.6806 30.7591 48.7434 30.7591C48.9841 30.5812 49.0888 30.3719 49.0574 30.1312C49.026 29.8905 49.0469 29.6497 49.0993 29.409C49.1621 29.2939 49.1934 29.0218 49.1934 28.5927L49.7377 28.2264C49.5598 27.9229 49.5598 27.6822 49.7377 27.5042C49.8528 27.3891 49.9051 27.253 49.8737 27.0961C49.8423 26.9495 49.8319 26.7821 49.8319 26.6042C49.947 26.1855 50.104 25.9134 50.2819 25.7878C50.2191 25.6727 50.1354 25.5471 50.0098 25.4215L50.3761 25.0552C50.2505 24.5738 50.2819 24.1028 50.4703 23.6528C50.6482 23.2027 50.7738 22.7318 50.8366 22.2503C50.9517 22.1875 51.0668 22.1352 51.1506 22.0724C51.2447 22.0096 51.3495 21.9259 51.4646 21.8003C51.339 21.7375 51.2343 21.6852 51.1506 21.6224C51.0564 21.5596 50.9517 21.5073 50.8366 21.4445C50.9517 21.3293 51.0773 21.2456 51.2029 21.2142C51.3181 21.1828 51.3181 21.0782 51.2029 20.9002C51.2029 20.8374 51.2343 20.7851 51.2971 20.7223C51.3599 20.6595 51.3913 20.5758 51.3913 20.4502C51.3913 20.3874 51.4018 20.3141 51.4332 20.2199C51.4645 20.1258 51.475 20.0525 51.475 19.9897C51.3494 19.6862 51.3494 19.4664 51.475 19.3094C51.5901 19.1629 51.7157 19.0268 51.8413 18.9012C51.8413 18.7861 51.8518 18.671 51.8832 18.5873C51.9146 18.4931 51.9251 18.3884 51.9251 18.2733C51.9251 17.9698 51.9669 17.7291 52.0611 17.5511C52.1553 17.3732 52.1971 17.1325 52.1971 16.829C52.1971 16.7139 52.239 16.5778 52.3332 16.4208C52.4274 16.2743 52.4065 16.1068 52.2914 15.9289C52.2914 15.8661 52.3541 15.6254 52.4693 15.2068L52.6472 15.0288C52.7623 14.9137 52.8565 14.7881 52.9193 14.673C52.9821 14.5579 52.9821 14.3695 52.9193 14.1288C52.8565 13.8253 52.9507 13.438 53.1914 12.9566C53.1914 12.8415 53.2019 12.7577 53.2333 12.7263C53.2647 12.6949 53.2752 12.6531 53.2752 12.5903C53.2124 12.1716 53.2647 11.7949 53.4112 11.46C53.5577 11.1251 53.6101 10.7483 53.5473 10.3296C53.6101 10.2668 53.6414 10.2145 53.6414 10.1517C53.8194 9.91101 53.9136 9.6075 53.9136 9.25165C53.9136 9.13653 53.9554 8.97954 54.0496 8.80162C54.1438 8.6237 54.1857 8.44578 54.1857 8.25739V7.90155C54.1229 7.83875 54.0601 7.80736 54.0078 7.80736C54.0078 7.93295 53.945 8.04807 53.8298 8.1632C53.7042 8.58184 53.5264 8.85395 53.2856 8.97954C53.1077 9.15746 52.9821 9.31445 52.9193 9.42958C52.8565 9.67029 52.7519 9.87961 52.6053 10.0575C52.4588 10.2355 52.3227 10.4238 52.1971 10.6018C52.0192 10.8425 51.8099 11.2611 51.5692 11.8681C51.4436 12.0461 51.3599 12.2449 51.2971 12.4542C51.2343 12.6635 51.1506 12.8624 51.025 13.0403C50.847 13.3438 50.6482 13.6473 50.4389 13.9404C50.2296 14.2439 50.0307 14.5474 49.8528 14.8405C49.7272 14.9661 49.6749 15.0812 49.6749 15.2068C49.5493 15.4475 49.4656 15.6987 49.4028 15.9708C49.34 16.2429 49.2562 16.4627 49.1306 16.6511C48.8271 17.0174 48.6074 17.4046 48.4504 17.8232C48.3039 18.2419 48.105 18.6396 47.8643 18.9954C47.6864 19.2989 47.5293 19.5815 47.4142 19.8536C47.2886 20.1258 47.1735 20.4397 47.0479 20.806C46.9851 20.984 46.9014 21.1619 46.7758 21.3503C46.6502 21.5282 46.5351 21.7689 46.4095 22.0724C46.3467 22.198 46.3153 22.355 46.3153 22.5643C46.3153 22.7736 46.2525 22.9411 46.1374 23.0562C45.9595 23.2341 45.8339 23.433 45.7711 23.6423C45.7083 23.8516 45.6246 24.0819 45.499 24.3226C45.3734 24.6889 45.2269 25.0343 45.049 25.3587C44.871 25.6936 44.7141 26.0076 44.5989 26.3111L44.0547 27.9333C43.9919 27.9961 43.9605 28.1427 43.9605 28.3834C43.8349 28.509 43.7198 28.5613 43.5942 28.5613L43.5 28.6555V28.8334C43.322 29.252 43.1965 29.6916 43.1337 30.1416C43.0709 30.5917 42.8929 31.0312 42.5894 31.4499L42.4953 31.5441C42.6104 31.8476 42.5894 31.9941 42.4011 31.9941H41.951C42.1917 32.4128 42.1917 32.7477 41.951 32.9884C41.8882 33.114 41.8568 33.2605 41.8568 33.4384C41.7312 34.2234 41.5219 34.8513 41.2289 35.3327C41.1661 35.3327 41.1347 35.4583 41.1347 35.6886C41.0719 35.8142 41.0091 35.9188 40.9567 36.0026C40.894 36.0968 40.8312 36.2014 40.7788 36.3165C40.6533 36.5573 40.58 36.7666 40.5486 36.9445C40.5172 37.1224 40.4439 37.3317 40.3183 37.5724C40.2555 37.698 40.2241 37.8027 40.2241 37.8864C40.2241 37.9702 40.1928 38.0853 40.13 38.2004V38.2946C39.8892 38.5981 39.7636 38.9435 39.7636 39.3307C39.7636 39.718 39.6171 40.0633 39.3136 40.3669C39.188 40.4924 39.1357 40.6285 39.1357 40.775C39.1357 40.9215 39.1043 41.0576 39.0415 41.1832C38.9159 41.4867 38.8322 41.7693 38.7694 42.0414C38.7066 42.3135 38.6229 42.5961 38.4973 42.8996C38.4973 42.9624 38.4868 43.0252 38.4554 43.0775C38.424 43.1403 38.4135 43.2031 38.4135 43.2554C38.3507 43.4334 38.3194 43.6113 38.3194 43.7997C38.3194 43.9881 38.2565 44.1346 38.1414 44.2497C38.0158 44.4904 37.9426 44.7416 37.9112 45.0137C37.8798 45.2858 37.8065 45.537 37.6809 45.7777C37.5553 46.0185 37.4716 46.165 37.4088 46.2278C37.346 46.5313 37.2832 46.8034 37.2309 47.0441C37.1681 47.2848 37.1053 47.5569 37.053 47.8605C37.053 47.986 37.0216 48.0384 36.9588 48.0384C36.6552 48.5198 36.446 49.1268 36.3308 49.849C36.268 49.9746 36.2053 50.0897 36.1529 50.2153C36.0901 50.3409 36.0273 50.456 35.975 50.5711C35.9122 50.8746 35.8494 51.1468 35.7971 51.3875C35.7343 51.6282 35.6715 51.8689 35.6192 52.1096L34.8028 54.8203C34.6772 55.3017 34.4993 55.7413 34.2586 56.1285C34.0179 56.5158 33.8399 56.9554 33.7143 57.4368L33.1701 59.059C32.9922 59.3625 32.8352 59.6451 32.7201 59.9172C32.5945 60.1893 32.4165 60.4719 32.1758 60.7754C32.0502 60.901 31.9456 61.0161 31.8619 61.1313C31.7677 61.2568 31.7258 61.4348 31.7258 61.6755C31.6002 61.979 31.4223 62.2511 31.1816 62.4918C30.9409 62.7953 30.7106 63.0674 30.5013 63.3082C30.292 63.5489 30.0304 63.7896 29.7373 64.0303C29.5594 64.1559 29.3605 64.271 29.1512 64.3966C28.9419 64.5222 28.6802 64.6373 28.3872 64.7525C28.3872 64.6373 28.3244 64.449 28.2093 64.2082H28.1151C27.9895 64.449 27.6964 64.5745 27.215 64.5745C26.9743 64.5117 26.765 64.5013 26.5871 64.5327C26.4091 64.5641 26.1998 64.5431 25.9591 64.4908C25.9591 64.1873 25.8335 63.978 25.5928 63.8629C25.2265 63.7477 24.9125 63.5803 24.6404 63.371C24.3683 63.1616 24.1171 62.9105 23.8763 62.6069C23.8136 62.5442 23.7717 62.4918 23.7403 62.429C23.7089 62.3662 23.667 62.3139 23.6042 62.2511C23.5414 62.136 23.531 62.0104 23.5624 61.8848C23.5938 61.7697 23.5206 61.6755 23.3322 61.6127V61.4348C23.4473 61.0685 23.3949 60.7231 23.1542 60.3986C22.9135 60.0637 22.767 59.7498 22.7042 59.4462L22.61 59.352C22.7251 59.1113 22.7565 58.8915 22.7042 58.6718C22.6414 58.4624 22.61 58.2322 22.61 57.9915V56.8193C22.61 56.7565 22.5786 56.7251 22.5158 56.7251C22.3902 56.7251 22.3379 56.6937 22.3379 56.6309C22.4007 56.5158 22.4739 56.4007 22.5681 56.3169C22.6623 56.2227 22.61 56.1181 22.432 56.0029V55.825C22.5472 55.5215 22.61 55.1971 22.61 54.8308C22.61 54.4645 22.6414 54.14 22.7042 53.8365C22.8193 53.533 22.8716 53.1876 22.8402 52.8004C22.8088 52.4131 22.7984 52.0364 22.7984 51.6701C22.7984 51.5549 22.8926 51.4921 23.0705 51.4921C22.8926 51.3142 22.7984 51.1886 22.7984 51.1258C22.9135 50.8223 22.9659 50.5397 22.9345 50.2676C22.9031 49.9955 22.9449 49.7443 23.0705 49.5036C23.1856 49.3885 23.1856 49.2629 23.0705 49.1373C22.9449 49.0222 22.9449 48.8966 23.0705 48.771C23.1856 48.6559 23.238 48.5303 23.2066 48.4152C23.1752 48.3 23.1647 48.1744 23.1647 48.0488C23.1647 47.9233 23.1752 47.8395 23.2066 47.7767C23.238 47.7139 23.2484 47.6616 23.2484 47.5988C23.2484 47.536 23.2798 47.4941 23.3426 47.4628C23.4054 47.4314 23.4054 47.3895 23.3426 47.3267C23.1647 47.1488 23.1333 46.9813 23.2484 46.8348C23.3635 46.6883 23.4263 46.5208 23.4263 46.3429C23.4263 46.165 23.4577 45.9766 23.5205 45.7987C23.5833 45.6207 23.6357 45.4324 23.6984 45.2544C23.6984 45.0765 23.7299 44.9509 23.7927 44.8881V44.302C23.7927 44.0927 23.8554 43.8939 23.9706 43.716L24.0647 43.6218C23.9391 43.4438 23.9287 43.2764 24.0229 43.1299C24.1171 42.9833 24.1275 42.8473 24.0647 42.7217C24.0019 42.4182 24.0334 42.1356 24.1589 41.8635C24.2741 41.5914 24.3996 41.3088 24.5252 41.0053V40.5552C24.5252 40.4401 24.5357 40.3459 24.5671 40.2831C24.5985 40.2203 24.609 40.1366 24.609 40.011C24.6718 39.8959 24.7032 39.7598 24.7032 39.6028C24.7032 39.4459 24.7346 39.3203 24.7974 39.1947C24.8602 39.0795 24.902 38.9435 24.9334 38.7865C24.9648 38.64 24.9229 38.4725 24.7974 38.2946L24.8916 38.2004C24.9544 38.0225 25.0067 37.8341 25.0695 37.6562C25.1323 37.4783 25.1637 37.2899 25.1637 37.112C25.2265 36.8084 25.2788 36.5259 25.3416 36.2537C25.4044 35.9816 25.4567 35.6991 25.5195 35.3955C25.6346 34.9769 25.7497 34.5687 25.8335 34.1815C25.9277 33.7943 26.001 33.3861 26.0638 32.9674C26.1789 32.3709 26.3673 31.7953 26.608 31.251C26.7859 31.251 26.8173 31.1882 26.7022 31.0731C26.5766 30.7696 26.5766 30.4556 26.7022 30.1207C26.8173 29.7858 26.9115 29.4718 26.9743 29.1683C26.9743 28.9904 27.0162 28.8229 27.1103 28.6764C27.2045 28.5299 27.215 28.3624 27.1522 28.1845L27.4243 27.9124C27.3615 27.4938 27.4243 27.0437 27.6022 26.5623C27.7173 26.0809 27.7802 25.6936 27.7802 25.3901C27.8953 25.0866 27.9894 24.9401 28.0522 24.9401C28.2302 24.825 28.1988 24.5842 27.9581 24.2179C28.1988 24.1028 28.3244 23.9458 28.3244 23.7679C28.3244 23.59 28.3558 23.4121 28.4186 23.2237C28.4186 23.1085 28.4081 23.0248 28.3767 22.9934C28.3454 22.962 28.3663 22.8888 28.4186 22.7632C28.4814 22.7004 28.5127 22.648 28.5127 22.5852C28.5127 22.5225 28.5442 22.4387 28.607 22.3131V22.041C28.6698 22.041 28.7012 21.9468 28.7012 21.7689C28.8163 21.4131 28.9105 21.0572 28.9732 20.7328C29.036 20.3979 29.1198 20.0839 29.2454 19.7804C29.3605 19.4769 29.4547 19.2048 29.5175 18.964C29.5803 18.7233 29.664 18.4826 29.7896 18.2419C29.664 18.0012 29.664 17.7814 29.7896 17.5616C29.9047 17.3523 29.9361 17.122 29.8838 16.8813H29.5175C29.3919 17.0592 29.2349 17.2162 29.0256 17.3314C28.8163 17.4569 28.6488 17.6663 28.5337 17.9593C28.3558 18.3779 28.1674 18.7861 27.9895 19.1734C27.8115 19.5606 27.5708 19.9374 27.2673 20.3037C27.1417 20.4293 27.0371 20.5863 26.9533 20.7956C26.8591 21.0049 26.7545 21.2037 26.6394 21.3817C26.5138 21.7375 26.3673 22.0933 26.1893 22.4178C26.0114 22.7527 25.823 23.0667 25.6451 23.3702C25.5195 23.6737 25.4149 23.9458 25.3311 24.1865C25.2369 24.4272 25.0695 24.668 24.8393 24.9087C24.7137 25.0343 24.6404 25.2122 24.609 25.4529C24.5776 25.6936 24.5043 25.9343 24.3788 26.1751L24.1066 26.7193C23.981 27.0228 23.8659 27.2949 23.7403 27.5356C23.6147 27.7763 23.531 28.0485 23.4682 28.352C23.4682 28.5927 23.3426 28.7706 23.1019 28.8962C22.8612 29.0741 22.7356 29.252 22.7356 29.4404C22.7356 29.6811 22.7042 29.88 22.6414 30.0265C22.5786 30.173 22.5158 30.3405 22.4635 30.5184C22.3379 30.7591 22.2541 30.9999 22.1913 31.2406C22.1286 31.4813 22.0448 31.722 21.9192 31.9627C21.7936 32.2662 21.7099 32.5383 21.6471 32.7791C21.5843 33.0198 21.4692 33.2605 21.2808 33.5012C20.9773 34.0454 20.7994 34.5897 20.7366 35.1234C20.611 35.6677 20.4017 36.0549 20.1086 36.2956L20.0144 36.3898C20.1295 36.7456 20.1086 37.0492 19.9203 37.2899C19.7423 37.5306 19.5854 37.8027 19.4702 38.1062C19.4074 38.169 19.376 38.2527 19.376 38.3783C19.376 38.797 19.2295 39.247 18.926 39.7284C18.8632 39.7912 18.8318 39.854 18.8318 39.9064C18.9469 40.2099 18.9364 40.461 18.7899 40.6704C18.6434 40.8797 18.5283 41.1099 18.476 41.3506C18.476 41.4762 18.4445 41.5809 18.3817 41.6646C18.3189 41.7588 18.2876 41.8635 18.2876 41.9786C18.162 42.3344 17.984 42.5542 17.7433 42.6066C17.8585 42.8473 17.8585 43.2136 17.7433 43.6846C17.5654 44.1032 17.4084 44.5323 17.2933 44.9509C17.1677 45.3696 17.0526 45.7987 16.927 46.2173C16.927 46.3952 16.8956 46.4894 16.8328 46.4894C16.7072 46.9081 16.5921 47.4209 16.4665 48.0279C16.4665 48.1535 16.4351 48.2896 16.3723 48.4361C16.3095 48.5826 16.2467 48.7501 16.1944 48.928C16.0688 49.1059 16.0164 49.2838 16.0164 49.4722V49.9222C15.8908 50.163 15.8072 50.3618 15.7444 50.5083C15.6816 50.6549 15.6187 50.7909 15.5664 50.9165C15.5036 51.0421 15.4722 51.1258 15.4722 51.1886C15.4722 51.2514 15.4408 51.3351 15.378 51.4607C15.3152 51.6387 15.2524 51.8166 15.2001 52.005C15.1373 52.1829 15.1059 52.3922 15.1059 52.6329C15.0431 52.7585 15.0431 52.8946 15.1059 53.0411C15.1687 53.1876 15.0431 53.3027 14.7396 53.3551C14.8024 53.4807 14.8024 53.5958 14.7396 53.7109C14.6768 53.8365 14.614 53.9516 14.5617 54.0772C14.4361 54.3807 14.3837 54.6633 14.3837 54.9354C14.3837 55.2075 14.321 55.4901 14.2058 55.7936C14.143 56.0343 14.1012 56.2437 14.0698 56.4216C14.0384 56.5995 13.9965 56.8088 13.9337 57.0495C13.8709 57.4054 13.7872 57.7612 13.6616 58.0857C13.536 58.4206 13.4523 58.766 13.3895 59.1218C13.2639 59.7288 13.1488 60.1789 13.0232 60.4719C12.8976 60.7126 12.8139 60.9429 12.7511 61.1522C12.6883 61.3615 12.6255 61.6232 12.5732 61.9162C12.5104 62.4604 12.3638 63.1198 12.1231 63.9047L11.5789 66.3433C11.4533 66.6468 11.3486 66.9608 11.2649 67.2957C11.1707 67.6306 11.0661 67.9446 10.951 68.2481C10.8254 68.4888 10.7416 68.719 10.6788 68.9284C10.616 69.1377 10.5323 69.3679 10.4067 69.6087C10.3439 69.7342 10.2811 69.818 10.2288 69.8808C10.166 69.9436 10.1032 70.0273 10.0509 70.1529C10.166 70.3936 10.1974 70.6238 10.1451 70.8332C10.0823 71.0425 10.0195 71.2727 9.96715 71.5135C9.84156 71.9949 9.69505 72.4763 9.51713 72.9578C9.33921 73.4392 9.1508 73.9206 8.97288 74.402V74.58C8.73216 74.6428 8.6066 74.7579 8.6066 74.9358C8.6066 75.1137 8.54376 75.2707 8.42863 75.3858C8.30304 75.4486 8.28214 75.5533 8.33447 75.6998C8.39727 75.8463 8.36584 75.9824 8.24025 76.108C8.11466 76.2336 8.04143 76.3801 8.01003 76.558C7.97863 76.7359 7.90534 76.8929 7.77975 77.0081C7.71695 77.1337 7.67508 77.2383 7.64368 77.322C7.61229 77.4162 7.57048 77.5209 7.50769 77.636C7.20417 78.2954 6.84829 78.8396 6.41919 79.2582C6.35639 79.2582 6.32503 79.2896 6.32503 79.3524C6.19944 79.4676 6.09473 79.6036 6.011 79.7606C5.91681 79.9071 5.81216 79.9909 5.69704 79.9909C5.2784 80.106 5.03768 80.263 4.97489 80.4409C4.79697 80.4409 4.60862 80.4095 4.4307 80.3467C4.25278 80.2839 4.09574 80.3467 3.98061 80.5246C3.85502 80.4618 3.77135 80.4828 3.70855 80.5665C3.64575 80.6607 3.56202 80.6711 3.43643 80.6083C3.31083 80.4828 3.19567 80.4618 3.07008 80.5141C2.94449 80.5769 2.82939 80.5769 2.7038 80.5141C2.57821 80.4514 2.49447 80.3886 2.43167 80.3362C2.36888 80.2734 2.28514 80.2106 2.15955 80.1583C2.03396 80.0327 1.91886 79.949 1.79327 79.8862C1.66768 79.8234 1.55258 79.7606 1.42699 79.7083C1.12347 79.4048 1.12347 79.1012 1.42699 78.8082C1.30139 78.7454 1.18623 78.714 1.06064 78.714C0.935049 78.714 0.819949 78.6826 0.694358 78.6198C0.328051 77.3011 0.181535 76.0033 0.244331 74.737C0.244331 74.559 0.233824 74.3602 0.202426 74.1509C0.171028 73.9416 0.160586 73.7427 0.160586 73.5648C0.0977899 73.2613 0.0559211 72.9891 0.0245233 72.7484C-0.00687444 72.5077 0.0140344 72.2356 0.0663641 71.9321C0.12916 71.6286 0.160586 71.1785 0.160586 70.582C0.160586 69.3156 0.254789 68.0492 0.43271 66.7933C0.495505 66.3747 0.526867 65.977 0.526867 65.6211C0.526867 65.2653 0.558293 64.8676 0.621089 64.449C0.621089 64.3862 0.683867 64.2396 0.798992 63.9989C0.861787 63.9361 0.893213 63.8838 0.893213 63.821C0.767622 63.3396 0.757115 62.8477 0.851309 62.3348C0.945502 61.822 0.987371 61.3301 0.987371 60.8487C0.924575 60.4824 0.987417 60.0951 1.16534 59.6765C1.34326 59.373 1.4374 59.0485 1.4374 58.6822V55.6994C1.55252 55.5843 1.63628 55.3855 1.66768 55.1133C1.69908 54.8412 1.70952 54.6214 1.70952 54.4331V54.0668C1.70952 53.9516 1.74095 53.826 1.80374 53.7004C1.91887 53.219 1.98165 52.7376 1.98165 52.2561C1.98165 51.7747 2.04442 51.2933 2.15955 50.8118C2.27467 50.3304 2.35844 49.8594 2.38983 49.4094C2.42123 48.9594 2.49446 48.5198 2.62005 48.1012C2.68285 48.1012 2.72472 48.0907 2.75612 48.0593C2.78751 48.0279 2.86081 48.0174 2.9864 48.0174C2.62009 47.8395 2.56772 47.5046 2.80843 47.0232C2.92356 46.9081 2.95498 46.7511 2.90265 46.5731C2.83986 46.3952 2.83986 46.2382 2.90265 46.1231C2.96545 45.7673 2.99687 45.401 2.99687 45.0451C2.99687 44.6893 3.02824 44.323 3.09103 43.9567C3.15383 43.6532 3.20614 43.402 3.26894 43.1927C3.33173 42.9833 3.38411 42.7322 3.4469 42.4286C3.5097 42.2507 3.54106 42.0519 3.54106 41.8425C3.54106 41.6332 3.57249 41.4344 3.63528 41.2565C3.69808 40.9006 3.73995 40.5238 3.77134 40.1261C3.80274 39.7389 3.84461 39.3621 3.90741 38.9958C3.9702 38.8179 3.98064 38.6295 3.94925 38.4516C3.91785 38.2737 3.90741 38.1167 3.90741 38.0016V37.8236C4.14812 37.7085 4.22135 37.5515 4.13763 37.3736C4.04343 37.1957 4.06434 37.0387 4.17947 36.9236C4.29459 36.7456 4.34693 36.5573 4.31553 36.3793C4.28413 36.2014 4.3051 36.013 4.35743 35.8351C4.35743 35.3537 4.38879 35.0188 4.45159 34.8408C4.56672 34.5373 4.65048 34.2548 4.68187 33.9826C4.71327 33.7105 4.7865 33.4279 4.91209 33.1244C4.97489 33.0616 4.97489 33.0093 4.91209 32.9465C4.7865 32.643 4.77606 32.3709 4.87025 32.1302C4.96445 31.8895 5.03768 31.6487 5.10047 31.408C5.16327 31.0417 5.21564 30.6859 5.27844 30.3196C5.34123 29.9533 5.3726 29.5974 5.3726 29.2311C5.3726 29.0532 5.40402 28.8753 5.46682 28.6869C5.52961 28.509 5.58193 28.331 5.64472 28.1427L5.91685 26.2483C5.91685 25.9448 5.97962 25.6204 6.09475 25.2541C6.09475 25.0133 6.12617 24.804 6.18897 24.6261C6.25177 24.4482 6.25177 24.2389 6.18897 23.9981C6.18897 23.883 6.22033 23.747 6.28313 23.59C6.34592 23.4435 6.3983 23.3074 6.46109 23.1818C6.57622 22.9411 6.60758 22.7004 6.55525 22.4597C6.49246 22.2189 6.55523 22.0096 6.73315 21.8317C6.73315 21.6538 6.67038 21.5596 6.55525 21.5596C6.79597 20.963 6.94248 20.5025 7.00528 20.2095C7.06807 20.0316 7.14137 19.8432 7.23556 19.6653C7.32976 19.4873 7.30878 19.2466 7.19366 18.9431C7.13086 18.828 7.15183 18.6919 7.23556 18.5349C7.32976 18.3884 7.40299 18.221 7.46578 18.043C7.52858 17.6244 7.60187 17.2162 7.69607 16.829C7.79026 16.4417 7.89491 16.0336 8.01003 15.6149C8.07283 15.4998 8.10419 15.3847 8.10419 15.301C8.10419 15.2172 8.13561 15.1021 8.19841 14.987C8.26121 14.7463 8.30307 14.5055 8.33447 14.2648C8.36587 14.0241 8.4391 13.8148 8.56469 13.6369C8.67982 13.3334 8.81589 13.0926 8.97288 12.9147C9.1194 12.7368 9.28689 12.5484 9.46481 12.3705C9.57994 12.4333 9.7055 12.5066 9.83109 12.6008C9.94622 12.6949 10.0718 12.6112 10.1974 12.3705C10.2602 12.3705 10.302 12.381 10.3334 12.4124C10.3648 12.4438 10.4381 12.4542 10.5637 12.4542C11.401 12.6321 11.9138 13.2078 12.1022 14.1706C12.165 14.2334 12.1964 14.3172 12.1964 14.4428C12.0708 14.8091 12.0708 15.1544 12.1964 15.4789C12.3115 15.8138 12.3743 16.1278 12.3743 16.4313C12.3743 16.4941 12.4371 16.5778 12.5522 16.7034C12.3115 17.0697 12.1022 17.3314 11.9243 17.5197C11.7987 17.6977 11.8301 17.8546 12.0185 17.9698C12.1964 18.0954 12.2278 18.2733 12.1127 18.514H11.8405C11.4742 18.514 11.2963 18.6605 11.2963 18.964C11.2336 19.2048 11.2021 19.435 11.2021 19.6443C11.2021 19.8536 11.1708 20.0525 11.108 20.2304C11.108 20.4711 11.0765 20.6804 11.0137 20.8584C10.951 21.0363 10.8882 21.2142 10.8358 21.4026C10.773 21.7061 10.7416 22.0096 10.7416 22.3027C10.7416 22.5957 10.7103 22.9097 10.6475 23.2027C10.6475 23.3283 10.637 23.4016 10.6056 23.433C10.5742 23.4644 10.5637 23.5376 10.5637 23.6632C10.3858 24.0295 10.2916 24.3959 10.2916 24.7936V26.196C10.2916 26.2588 10.323 26.2902 10.3858 26.2902C10.2079 26.4158 10.1137 26.5728 10.1137 26.7821C10.1137 26.9914 10.0823 27.1589 10.0195 27.274C9.89388 27.6403 9.81014 27.9961 9.74735 28.3624C9.68455 28.7183 9.68455 29.0846 9.74735 29.4509C9.74735 29.7544 9.71598 29.9951 9.65319 30.173C9.59039 30.351 9.52755 30.5289 9.47522 30.7173C9.47522 31.3243 9.44386 31.7429 9.38107 31.9836C9.25547 32.2872 9.20316 32.5593 9.20316 32.8V33.6163C9.26596 33.7419 9.26596 33.857 9.20316 33.9826C9.14037 34.1082 9.07753 34.2234 9.0252 34.3385C8.9624 34.5164 8.93104 34.7048 8.93104 34.8827C8.93104 35.0606 8.89961 35.249 8.83682 35.4269V35.6049C8.71123 36.0235 8.66936 36.4631 8.70075 36.9131C8.73215 37.3631 8.69028 37.8027 8.56469 38.2213C8.5019 38.5249 8.46003 38.776 8.42863 38.9854C8.39723 39.1947 8.35543 39.4249 8.29263 39.6656C8.22984 39.9691 8.19841 40.2727 8.19841 40.5657C8.19841 40.8588 8.16698 41.1727 8.10419 41.4658C8.04139 41.7065 8.01003 41.9367 8.01003 42.1461C8.01003 42.3554 7.9786 42.5856 7.91581 42.8263C7.91581 43.3078 7.87394 43.8101 7.77975 44.3125C7.68555 44.8253 7.61232 45.3172 7.54953 45.7987C7.54953 45.8615 7.55997 45.9243 7.59137 45.9766C7.62277 46.0394 7.63327 46.1231 7.63327 46.2487C7.39256 46.3743 7.25648 46.5522 7.22509 46.7929C7.19369 47.0336 7.18325 47.2744 7.18325 47.5151V48.4152C7.18325 48.7187 7.1204 49.0222 7.00528 49.3152C6.94248 49.4408 6.93204 49.5769 6.96344 49.7234C6.99484 49.8699 7.00528 50.006 7.00528 50.1316C6.87969 50.4874 6.83782 50.8537 6.86922 51.2096C6.90061 51.5759 6.87971 51.9317 6.82738 52.298C6.82738 52.6015 6.79595 52.9155 6.73315 53.2504C6.67036 53.5853 6.60758 53.8993 6.55525 54.2028C6.49246 54.5063 6.42968 54.7889 6.37735 55.061C6.31455 55.3331 6.31455 55.6157 6.37735 55.9192C6.37735 56.0971 6.34592 56.2855 6.28313 56.4635C6.22033 56.6414 6.15755 56.8193 6.10522 57.0077C6.04243 57.4263 6.00056 57.8554 5.96916 58.2741C5.93776 58.6927 5.92732 59.1427 5.92732 59.6242C5.92732 59.687 5.91681 59.7184 5.88542 59.7184C5.85402 59.7184 5.84358 59.7497 5.84358 59.8125C5.71798 60.1161 5.67612 60.43 5.70751 60.7649C5.73891 61.0999 5.69704 61.4138 5.57145 61.7173C5.50866 61.7801 5.57143 61.8639 5.74935 61.9895C5.68656 62.0523 5.6552 62.0941 5.6552 62.1255C5.6552 62.1569 5.62377 62.1988 5.56098 62.2616C5.43538 62.3872 5.38307 62.5965 5.38307 62.8895C5.38307 63.0151 5.4145 63.1302 5.47729 63.2558C5.54009 63.3814 5.57145 63.4652 5.57145 63.528C5.33074 63.7059 5.29937 63.9152 5.47729 64.1559C5.47729 64.2187 5.44587 64.2815 5.38307 64.3338C5.32028 64.5117 5.28885 64.7525 5.28885 65.056C5.28885 65.3595 5.27841 65.6316 5.24701 65.8723C5.21561 66.113 5.20517 66.3538 5.20517 66.5945C5.07958 66.9608 5.05862 67.2224 5.11095 67.4108C5.17374 67.5364 5.17374 67.6829 5.11095 67.8608C5.04815 68.0388 5.01679 68.1958 5.01679 68.3109C4.954 68.6144 4.92257 68.897 4.92257 69.1691V70.0273C4.98536 70.268 4.98536 70.4773 4.92257 70.6552C4.85977 70.8332 4.8912 71.0425 5.01679 71.2832C4.77607 71.4088 4.68187 71.5448 4.74467 71.6914C4.80746 71.8379 4.83882 71.974 4.83882 72.0995C4.83882 72.1623 4.93303 72.3717 5.11095 72.7275C5.28887 72.1833 5.44585 71.8588 5.56098 71.7332C5.80169 71.189 5.94821 70.7076 6.011 70.2889C6.0738 69.9854 6.15754 69.7028 6.28313 69.4307C6.39825 69.1586 6.52388 68.876 6.64947 68.5725C6.7646 68.3946 6.82738 68.1958 6.82738 67.9864C6.82738 67.7771 6.94248 67.6097 7.19366 67.4945C7.13086 67.191 7.12042 66.8352 7.15182 66.4165C7.18321 65.9979 7.25645 65.6944 7.38204 65.5165C7.62275 65.3386 7.72746 65.1083 7.69607 64.8362C7.66467 64.5641 7.7379 64.3129 7.92629 64.0722C8.10421 63.7687 8.20885 63.4233 8.24025 63.0361C8.27165 62.6488 8.37636 62.3034 8.55428 61.9999C8.66941 61.822 8.73218 61.5185 8.73218 61.0999C8.73218 60.8591 8.82639 60.6498 9.00431 60.4719C9.11943 60.3568 9.14034 60.2626 9.04615 60.1998C8.95195 60.137 8.94151 60.0847 9.00431 60.0219C9.11943 59.9067 9.18221 59.7811 9.18221 59.666C9.24501 59.3625 9.32874 58.9753 9.45433 58.4938C9.56946 58.3159 9.60082 58.1275 9.54849 57.9496C9.4857 57.7717 9.54854 57.6147 9.72646 57.4996C9.60087 57.3845 9.57991 57.2903 9.63224 57.2275C9.69503 57.1647 9.74734 57.0809 9.81014 56.9553C9.87294 56.7774 9.9148 56.61 9.9462 56.4635C9.9776 56.3169 10.0195 56.1495 10.0823 55.9716C10.1974 55.5529 10.2916 55.1552 10.3544 54.7994C10.4172 54.4331 10.5009 54.0772 10.6265 53.7109C10.7416 53.4074 10.8568 53.0934 10.9405 52.7585C11.0347 52.4236 11.1393 52.1096 11.2544 51.8061L11.5266 50.456C11.5266 50.2781 11.6208 50.0374 11.7987 49.7339C11.8615 49.6187 11.9138 49.4827 11.9766 49.3257C12.0394 49.1792 12.0708 49.0117 12.0708 48.8338C12.0708 48.5303 12.1127 48.2372 12.2069 47.9337C12.3011 47.6302 12.4057 47.3372 12.5208 47.0336C12.636 46.5522 12.772 46.1126 12.929 45.7254C13.0756 45.3382 13.2116 44.8986 13.3372 44.4172C13.3999 44.2392 13.4523 44.0613 13.5151 43.8729C13.5779 43.695 13.6302 43.5066 13.693 43.3287C13.7558 43.2136 13.7977 43.0566 13.8291 42.8787C13.8605 42.7008 13.9024 42.5438 13.9651 42.4286C14.0803 42.1251 14.1745 41.8321 14.2373 41.5286C14.3001 41.2251 14.3524 40.932 14.4152 40.6285C14.478 40.325 14.5826 40.0738 14.7291 39.8645C14.8757 39.6552 15.0117 39.404 15.1373 39.1005C15.1373 38.9854 15.2001 38.797 15.3152 38.5562C15.378 38.3783 15.4094 38.1795 15.4094 37.9702C15.4094 37.7608 15.4722 37.562 15.5874 37.3841C15.7025 37.0282 15.828 36.6619 15.9536 36.2956C16.0688 35.9398 16.1944 35.5421 16.32 35.1234C16.4351 34.8199 16.5607 34.4327 16.6863 33.9512C16.8642 33.3547 17.0735 32.7791 17.3143 32.2348C17.555 31.6906 17.7328 31.1254 17.8584 30.5184V30.4242C18.162 30.1207 18.3503 29.7963 18.4445 29.43C18.5387 29.0741 18.6434 28.7078 18.7586 28.352C18.9993 27.8705 19.24 27.3786 19.4807 26.8658C19.7214 26.353 19.9307 25.8297 20.1086 25.2855C20.2238 25.0447 20.3493 24.6889 20.4749 24.197L20.5691 24.0191C20.8099 23.9563 20.9354 23.7784 20.9354 23.4749V23.3807C21.2389 23.1399 21.396 22.8888 21.4274 22.6166C21.4588 22.3445 21.532 22.0619 21.6576 21.7584C21.7204 21.6433 21.7727 21.5491 21.8355 21.4863C21.8983 21.4235 21.982 21.3398 22.1076 21.2142C22.2227 20.9107 22.3588 20.6177 22.5158 20.3141C22.6623 20.0106 22.8298 19.7176 23.0077 19.4141C23.1228 19.1734 23.2484 18.9536 23.374 18.7338C23.4891 18.5245 23.6147 18.2733 23.7403 17.9698C23.8554 17.8546 23.9496 17.7919 24.0124 17.7919C24.1275 17.6767 24.2532 17.4569 24.3788 17.1639C24.4939 16.7976 24.6509 16.5359 24.8288 16.3476C25.0067 16.044 25.1637 15.7615 25.2788 15.4893C25.3939 15.2172 25.5823 14.9661 25.8231 14.7253C26.001 14.6625 26.0951 14.5474 26.0951 14.359C26.273 14.0555 26.4719 13.7415 26.6812 13.4066C26.8905 13.0717 27.1731 12.7891 27.5394 12.5484L27.6336 12.4542C27.5081 12.2135 27.5394 12.0147 27.7278 11.8681C27.9057 11.7216 28.0628 11.5856 28.1779 11.46C28.293 11.2192 28.5442 10.9157 28.9 10.5599C29.2036 10.2564 29.4756 9.96334 29.7164 9.65983C29.9571 9.35631 30.2292 9.06327 30.5327 8.75976L30.6269 8.66556C30.9304 8.60277 31.2025 8.49811 31.4433 8.35158C31.684 8.20506 31.9247 8.06901 32.1654 7.94341C32.2805 7.94341 32.4061 8.01668 32.5317 8.17366C32.6468 8.32019 32.8038 8.30972 32.9817 8.1318C33.1596 8.37252 33.3585 8.44578 33.5678 8.36205C33.7771 8.26786 33.976 8.22599 34.1539 8.22599C34.3318 8.22599 34.426 8.32019 34.426 8.49811C34.4888 8.73882 34.6353 8.88535 34.876 8.94814C35.2424 9.07373 35.4203 9.31445 35.4203 9.67029V9.94241C35.7238 10.3087 35.8599 10.675 35.8285 11.0727C35.7971 11.46 35.818 11.8681 35.8703 12.2868C35.9331 12.4647 35.9122 12.6635 35.8285 12.8729C35.7343 13.0822 35.6924 13.281 35.6924 13.459C35.7552 13.6997 35.7657 13.909 35.7343 14.0869C35.7029 14.2648 35.6924 14.4742 35.6924 14.7149C35.6924 14.7777 35.7238 14.8405 35.7866 14.8928C35.7866 14.9556 35.7552 14.987 35.6924 14.987C35.3889 14.987 35.3052 15.0812 35.4203 15.2591C35.4203 15.7405 35.3575 16.1068 35.2424 16.3371C35.1168 16.7034 35.0435 17.0592 35.0121 17.4255C34.9807 17.7919 34.9388 18.1791 34.876 18.5977C34.8133 18.7756 34.7714 18.985 34.74 19.2257C34.7086 19.4664 34.6354 19.6757 34.5098 19.8536C34.447 20.0316 34.447 20.199 34.5098 20.3455C34.5726 20.4921 34.5411 20.6595 34.4155 20.8374C34.2376 21.0154 34.2063 21.2875 34.3214 21.6538C34.3214 21.7166 34.1958 21.8631 33.955 22.1038C34.0702 22.3445 34.1016 22.6166 34.0493 22.9202C33.9237 23.0981 33.8399 23.3074 33.7771 23.5481C33.7143 23.7888 33.6829 23.9981 33.6829 24.1761C33.6201 24.4796 33.5469 24.7622 33.4527 25.0343C33.3585 25.3064 33.3166 25.589 33.3166 25.8925C33.191 26.1332 33.1701 26.3111 33.2224 26.4367C33.2852 26.4995 33.2224 26.6146 33.0445 26.7925C32.9189 26.9181 32.8666 27.0647 32.8666 27.2426C32.8666 27.724 32.7724 28.0589 32.5945 28.2368C32.5945 28.2996 32.6049 28.3834 32.6363 28.509C32.6677 28.6346 32.6782 28.7497 32.6782 28.8753C32.6154 28.8753 32.584 28.9067 32.584 28.9695C32.5212 29.0323 32.4899 29.116 32.4899 29.2416C32.4271 29.4195 32.3956 29.6079 32.3956 29.7858C32.3956 29.9637 32.3643 30.1521 32.3015 30.33C32.3015 30.6859 32.2073 30.958 32.0293 31.1464C31.9666 31.272 31.9979 31.5127 32.1235 31.8685L31.5793 32.6849C31.6421 32.6849 31.4851 32.6221 31.1292 32.5069C31.192 32.8105 31.2444 32.957 31.3072 32.957C31.4223 33.0826 31.4851 33.2291 31.4851 33.407C31.4223 33.7105 31.4119 33.9826 31.4433 34.2234C31.4747 34.4641 31.4328 34.7048 31.3072 34.9455C31.1816 35.1862 31.1397 35.4165 31.1711 35.6258C31.2025 35.8351 31.1292 36.0654 30.9408 36.3061C30.9408 36.3689 30.9514 36.4421 30.9828 36.5363C31.0142 36.6305 31.0246 36.7352 31.0246 36.8503C30.7839 36.9759 30.6897 37.1852 30.7525 37.4783C30.7525 37.8969 30.6897 38.2004 30.5746 38.3783C30.449 38.5562 30.3967 38.7865 30.3967 39.0586C30.3967 39.3307 30.3025 39.5505 30.1245 39.7389C30.1873 40.0947 30.0617 40.3983 29.7582 40.639V40.9111C29.8733 41.089 29.8943 41.2669 29.8001 41.4553C29.7059 41.6332 29.7268 41.8112 29.8419 41.9995C29.8419 42.0623 29.8106 42.1042 29.7478 42.1356C29.685 42.167 29.6221 42.2403 29.5698 42.3658C29.6326 42.4286 29.664 42.4914 29.664 42.5438C29.664 42.5961 29.6954 42.6694 29.7582 42.7217L29.4861 43.2659C29.5489 43.3915 29.5907 43.4648 29.6221 43.4962C29.6535 43.5276 29.6954 43.6008 29.7582 43.7264C29.6326 43.852 29.5175 43.9671 29.3919 44.0927C29.2663 44.2183 29.3291 44.3648 29.5698 44.5428C29.507 44.6056 29.4442 44.637 29.3919 44.637H29.2977C29.2349 44.9405 29.1512 45.1812 29.0256 45.3591C28.9 45.537 28.9314 45.7777 29.1198 46.0812V46.1754C28.9419 46.5418 28.8477 46.9081 28.8477 47.3058C28.8477 47.7035 28.8163 48.0698 28.7535 48.4361C28.6907 48.614 28.6279 48.7815 28.5755 48.928C28.5127 49.0745 28.4814 49.242 28.4814 49.4199C28.4814 49.5455 28.45 49.6815 28.3872 49.8281C28.3244 49.9746 28.2616 50.1106 28.2093 50.2362V50.3304C28.45 50.6339 28.45 50.906 28.2093 51.1468C28.1465 51.3247 28.1151 51.5968 28.1151 51.9631C28.1779 52.2666 28.1465 52.6225 28.0209 53.0516C27.8953 53.3551 27.8534 53.6376 27.8848 53.9098C27.9162 54.1819 27.9267 54.4645 27.9267 54.768C27.8639 55.0715 27.8639 55.375 27.9267 55.668C27.9895 55.9716 27.9581 56.2751 27.8325 56.5681C27.7697 56.8088 27.7697 57.0495 27.8325 57.2903C27.8953 57.531 27.7697 57.7089 27.4662 57.8345L27.7383 58.1066C27.6755 58.2845 27.7069 58.3892 27.8325 58.4206C27.9476 58.452 28.0418 58.4938 28.1046 58.5566C28.2197 58.4938 28.3349 58.4415 28.4186 58.3787C28.5128 58.3159 28.6174 58.2322 28.7326 58.1066C28.607 57.8659 28.7325 57.688 29.0988 57.5624C29.0988 57.2589 29.1093 57.0077 29.1407 56.7984C29.1721 56.589 29.3082 56.3588 29.5489 56.1181C29.6641 56.0029 29.7477 55.846 29.7791 55.668C29.8105 55.4901 29.821 55.3331 29.821 55.218C29.9361 54.7366 30.0722 54.2865 30.2292 53.8679C30.3757 53.4493 30.5432 52.9992 30.7211 52.5178C30.7839 52.4027 30.8153 52.2771 30.8153 52.162C30.8153 52.0468 30.9304 51.9526 31.1816 51.8898C31.2444 51.827 31.2444 51.7747 31.1816 51.7119C31.1188 51.534 31.2444 51.377 31.5479 51.2619C31.37 50.7177 31.4851 50.1525 31.9142 49.5455C32.0921 49.3048 32.1968 49.064 32.2282 48.8233C32.2596 48.5826 32.3015 48.3419 32.3643 48.1012C32.4794 47.9233 32.5422 47.7453 32.5422 47.5569C32.5422 47.3686 32.6364 47.2011 32.8143 47.0127C32.9294 46.9499 32.9922 46.8348 32.9922 46.6569C32.9922 46.479 33.0236 46.322 33.0864 46.2068C33.1492 45.9661 33.2015 45.7463 33.2643 45.5266C33.3271 45.3172 33.3585 45.087 33.3585 44.8463C33.3585 44.6683 33.4527 44.5323 33.6306 44.4381C33.8085 44.3439 33.8399 44.1869 33.7248 43.9462C33.9027 43.5799 34.0074 43.2136 34.0388 42.8159C34.0702 42.4286 34.1748 42.0519 34.3527 41.6856C34.4155 41.5704 34.447 41.4762 34.447 41.4134C34.447 41.3507 34.4783 41.2983 34.5411 41.2355C34.719 40.9948 34.8447 40.7436 34.9075 40.4715C34.9703 40.1994 35.054 39.9168 35.1796 39.6133L35.7238 37.9911C35.7866 37.9283 35.818 37.876 35.818 37.8132C35.818 37.7504 35.8494 37.698 35.9122 37.6352C35.9122 37.2794 36.0901 37.1538 36.4564 37.2794C36.1529 37.0387 36.0483 36.8294 36.1424 36.6515C36.2366 36.4735 36.3099 36.2851 36.3727 36.1072C36.4878 35.563 36.739 35.1758 37.0948 34.935C37.0948 34.8199 37.0844 34.7257 37.053 34.6629C37.0216 34.6001 37.0111 34.5478 37.0111 34.485C37.1891 34.0036 37.3565 33.5535 37.503 33.1349C37.6495 32.7163 37.7856 32.2662 37.9112 31.7848H38.0053C38.1205 31.6697 38.2356 31.5441 38.3194 31.4185C38.4136 31.3034 38.424 31.115 38.3612 30.8743C38.3612 30.7591 38.4763 30.4556 38.7275 29.9742C38.7903 29.7963 38.8427 29.5974 38.9055 29.3881C38.9683 29.1788 39.0834 28.9799 39.2717 28.802C39.3345 28.802 39.345 28.7706 39.3136 28.7078C39.2822 28.645 39.3032 28.5927 39.3555 28.5299C39.4183 28.2892 39.4706 28.0694 39.5334 27.8496C39.5962 27.6403 39.6799 27.41 39.8055 27.1693C40.109 26.5728 40.4021 25.8192 40.7056 24.9087C40.7056 24.7936 40.7998 24.668 40.9777 24.5424C41.0405 24.4796 41.1242 24.2703 41.2498 23.9144C41.1242 23.6109 41.2498 23.2551 41.6161 22.8364C41.7312 22.355 41.8569 21.9992 41.9825 21.748L43.0709 19.5815C43.1337 19.4664 43.165 19.3722 43.165 19.3094C43.165 19.2466 43.1965 19.1943 43.2593 19.1315C43.3744 18.6501 43.5 18.2942 43.6255 18.043C43.6883 17.9802 43.7407 17.9488 43.8035 17.9488C43.8663 17.9488 43.95 17.9174 44.0756 17.8546C43.95 17.6139 43.95 17.4046 44.0756 17.2267C44.3164 16.8604 44.4419 16.5045 44.4419 16.1382C44.4419 16.0754 44.4733 16.0231 44.5361 15.9603C44.9547 15.5417 45.2583 15.0288 45.4362 14.4218C45.4362 14.359 45.4466 14.3276 45.478 14.3276C45.5094 14.3276 45.5199 14.2962 45.5199 14.2334C45.9385 13.752 46.2421 13.145 46.42 12.4228C46.5351 12.1193 46.6921 11.8367 46.87 11.5646C47.0479 11.2925 47.2049 11.0099 47.32 10.7064C47.4352 10.5285 47.5503 10.4343 47.634 10.4343C47.7177 10.4343 47.8329 10.3715 47.948 10.2564L47.7701 9.90054L47.8643 9.80635H48.2724C48.3666 9.80635 48.3457 9.69122 48.2306 9.44004C48.3457 9.32492 48.4085 9.15746 48.4085 8.94814C48.4085 8.73882 48.4399 8.57137 48.5027 8.45624C48.6178 8.27832 48.7434 8.12133 48.869 8.00621C48.9841 7.89108 49.1097 7.76549 49.2353 7.6399C49.3505 7.52478 49.3818 7.33639 49.3295 7.09567C49.633 7.03288 49.8424 6.79216 49.9575 6.37352C50.0726 6.1956 50.1667 6.01768 50.2295 5.8293C50.2923 5.65138 50.3761 5.49439 50.5017 5.37926C50.9831 4.7827 51.4018 4.17568 51.7681 3.56866C51.946 3.15002 52.3123 2.99303 52.8565 3.11862V2.49067C52.9716 2.24995 53.0658 2.04063 53.1286 1.86271C53.2438 1.92551 53.3694 2.00923 53.495 2.13482L53.5891 2.04063C53.4635 1.73712 53.5263 1.5906 53.767 1.5906C54.0705 1.5278 54.3113 1.42314 54.4892 1.27662C54.6671 1.1301 54.8555 0.96264 55.0334 0.78472C55.2741 0.669594 55.494 0.585867 55.7137 0.554469C55.9231 0.523071 56.1533 0.44981 56.394 0.324219C56.5719 0.564935 56.7708 0.68006 56.9801 0.68006C57.1894 0.68006 57.4197 0.711458 57.6604 0.774254C58.0267 0.899845 58.2883 1.07777 58.4767 1.31848C58.5918 1.38128 58.7175 1.5278 58.843 1.76852C58.7175 1.89411 58.5709 2.00923 58.393 2.12436C58.8117 2.06156 59.0837 2.12436 59.2093 2.30228C59.3245 2.4802 59.4501 2.72092 59.5757 3.02443C59.6908 3.32794 59.7849 3.61052 59.8477 3.88263C59.9105 4.15475 59.9105 4.43733 59.8477 4.74084C59.7221 4.80364 59.5756 4.91876 59.3977 5.09668C59.5128 5.2746 59.7012 5.306 59.942 5.19087V6.00722C60.0571 6.48865 60.0361 6.93868 59.8477 7.35732C59.7849 7.59804 59.7536 7.82829 59.7536 8.03761C59.7536 8.24693 59.7221 8.47718 59.6594 8.71789C59.6594 8.78069 59.6908 8.82255 59.7536 8.85395C59.8164 8.88535 59.8477 8.92721 59.8477 8.99001C59.7849 9.29352 59.6803 9.53423 59.5338 9.71216C59.3872 9.89008 59.3663 10.1308 59.4919 10.4343V10.5285C59.3663 10.832 59.314 11.146 59.314 11.4809C59.314 11.8158 59.2198 12.1298 59.0419 12.4333C58.9791 12.5589 58.9686 12.674 59 12.7996C59.0314 12.9252 59.0419 13.0403 59.0419 13.1554C59.0419 13.2706 58.9791 13.3962 58.8639 13.5218C58.7383 13.6473 58.7698 13.7939 58.9582 13.9718C58.8954 14.0974 58.8326 14.2125 58.7803 14.3381C58.7175 14.4637 58.6546 14.6102 58.6023 14.7881C58.6651 14.8509 58.7069 14.8823 58.7383 14.8823C58.7697 14.8823 58.8116 14.9451 58.8744 15.0602C58.5081 15.5417 58.2674 16.201 58.1523 17.0488C58.1523 17.2267 58.1104 17.3941 58.0162 17.5407C57.922 17.6872 57.943 17.886 58.0581 18.1268C57.8802 18.2524 57.8173 18.3884 57.8801 18.5349C57.9429 18.6815 57.9116 18.8175 57.786 18.9431C57.7232 19.0059 57.6081 19.0373 57.4197 19.0373V19.2152C57.4197 19.278 57.4301 19.3094 57.4615 19.3094C57.4929 19.3094 57.5034 19.3408 57.5034 19.4036C57.5034 19.4664 57.5348 19.4978 57.5976 19.4978C57.472 19.8013 57.4301 20.0734 57.4615 20.3141C57.4929 20.5549 57.4511 20.827 57.3255 21.1305C57.1999 21.434 57.0638 21.7794 56.9173 22.1666C56.7708 22.5538 56.7499 22.962 56.8754 23.3807C56.6975 23.5062 56.6033 23.6842 56.6033 23.9249C56.6033 24.1656 56.4568 24.3435 56.1533 24.4691C56.3312 24.9505 56.2998 25.4006 56.0591 25.8192C55.9963 25.882 55.9649 25.9657 55.9649 26.0913C55.9021 26.3948 55.8707 26.6774 55.8707 26.9495C55.8707 27.2217 55.8393 27.5042 55.7765 27.8077C55.7137 27.9333 55.5672 28.1113 55.3265 28.352L55.5986 28.6241L55.3265 29.4404C55.3265 29.5032 55.2532 29.6811 55.0962 29.9847C54.9497 30.2882 54.866 30.4661 54.866 30.5289C54.866 30.6545 54.8555 30.7277 54.8241 30.7591C54.7927 30.7905 54.7823 30.8638 54.7823 30.9894C54.7823 31.3452 54.7404 31.7011 54.6462 32.0255C54.552 32.3604 54.4787 32.7058 54.4159 33.0616C54.3531 33.3024 54.3218 33.5431 54.3218 33.7838C54.3218 34.0245 54.2903 34.2966 54.2275 34.6001C54.1647 34.7257 54.0915 34.8618 53.9973 35.0083C53.9031 35.1548 53.8298 35.3223 53.767 35.5002C53.7042 35.6258 53.6415 35.7618 53.5891 35.9084C53.5263 36.0549 53.5578 36.2223 53.6834 36.4003C53.6206 36.4631 53.5891 36.5259 53.5891 36.5782C53.5891 36.7038 53.5787 36.7875 53.5473 36.8503C53.5159 36.9131 53.5054 36.9968 53.5054 37.1224C53.4426 37.1852 53.4112 37.248 53.4112 37.3003C53.4112 37.3527 53.3798 37.4259 53.317 37.4783C53.1391 37.6562 53.1077 37.9283 53.2228 38.2946C53.0973 38.6609 53.0449 38.954 53.0449 39.1947C52.9821 39.3726 52.9089 39.54 52.8147 39.6866C52.7205 39.8331 52.71 40.0005 52.7728 40.1785C52.5949 40.3041 52.5111 40.4401 52.5425 40.5866C52.5739 40.7332 52.553 40.8692 52.5007 40.9948C52.4379 41.1727 52.4379 41.3716 52.5007 41.5809C52.5635 41.7902 52.5006 41.9577 52.3227 42.0728C52.2599 42.0728 52.2286 42.1042 52.2286 42.167C52.3437 42.4705 52.3333 42.7112 52.1867 42.8891C52.0402 43.0671 51.9564 43.3078 51.9564 43.6113C51.9564 43.7892 51.8937 44.0613 51.7785 44.4276C51.7157 44.6684 51.6529 44.8986 51.6006 45.1079C51.5378 45.3172 51.5378 45.5789 51.6006 45.8719C51.6006 46.0499 51.5378 46.322 51.4227 46.6883C51.2971 46.9918 51.2239 47.3162 51.1925 47.6825C51.1611 48.0488 51.0564 48.3733 50.8785 48.6768L51.0564 49.221C50.8157 49.221 50.69 49.3989 50.69 49.7653V50.5816C50.69 50.8223 50.5959 51.063 50.418 51.3037C50.4808 51.3037 50.5121 51.4293 50.5121 51.6701C50.4493 51.7329 50.3866 51.7747 50.3342 51.8061C50.2714 51.8375 50.2087 51.8794 50.1563 51.9422C50.2715 52.1829 50.3028 52.3294 50.2505 52.3922C50.1249 52.6957 50.083 52.9678 50.1144 53.2085C50.1458 53.4493 50.1249 53.69 50.0726 53.9307C50.0098 54.1086 49.9993 54.2761 50.0307 54.4226C50.0621 54.5691 50.0412 54.7052 49.9888 54.8308C49.9261 55.1866 49.8633 55.5529 49.8109 55.9192C49.7481 56.2751 49.6644 56.6414 49.5388 56.9972C49.5388 57.06 49.5284 57.1019 49.497 57.1333C49.4656 57.1647 49.4551 57.2379 49.4551 57.3635C49.5179 57.5414 49.5179 57.7298 49.4551 57.9077C49.3923 58.0857 49.3609 58.2427 49.3609 58.3578C49.2981 58.6613 49.2248 58.9125 49.1306 59.1218C49.0364 59.3311 49.0574 59.5928 49.1725 59.8858C49.2353 60.0114 49.2458 60.1475 49.2144 60.294C49.183 60.4405 49.2039 60.608 49.2562 60.7859C49.0155 61.0266 48.8899 61.4138 48.8899 61.9581C48.8899 62.3244 48.8272 62.743 48.712 63.2244C48.6492 63.528 48.6492 63.7791 48.712 63.9885C48.7748 64.1978 48.7434 64.428 48.6178 64.6687L48.7957 65.1188C48.7329 65.1816 48.6701 65.2234 48.6178 65.2548C48.555 65.2862 48.4922 65.3595 48.4399 65.4851C48.555 65.7886 48.555 66.113 48.4399 66.4793C48.3771 66.7829 48.3666 67.0654 48.398 67.3375C48.4294 67.6097 48.4399 67.8922 48.4399 68.1958C48.4399 68.3737 48.398 68.5621 48.3038 68.74C48.2097 68.9179 48.262 69.0749 48.4399 69.19C48.3771 69.5563 48.3352 69.9017 48.3038 70.2261C48.2725 70.5611 48.262 70.875 48.262 71.1785C48.1992 71.3041 48.1887 71.4402 48.2201 71.5867C48.2515 71.7332 48.2306 71.8693 48.1783 71.9949C48.1783 72.1205 48.1887 72.1937 48.2201 72.2251C48.2515 72.2565 48.262 72.3298 48.262 72.4554C48.3248 72.9368 48.3666 73.3869 48.398 73.8055C48.4294 74.2241 48.5027 74.6532 48.6283 75.0719C48.6911 75.3126 48.7015 75.5638 48.6701 75.8359C48.6387 76.108 48.712 76.3278 48.9004 76.5162C48.7748 76.8197 48.7957 77.1023 48.9423 77.3744C49.0888 77.6465 49.2249 77.9291 49.3504 78.2326C49.4656 78.6512 49.6016 79.0594 49.7586 79.4466C49.9052 79.8339 50.0726 80.242 50.2505 80.6607C50.3133 80.8386 50.3866 80.9956 50.4808 81.1107C50.575 81.2258 50.6796 81.3828 50.7947 81.5607L51.3389 82.3771V82.6492C51.0354 82.8899 50.9726 83.1097 51.161 83.3295C51.3389 83.5388 51.3704 83.79 51.2552 84.0935L50.3552 84.9936L50.4494 85.0878C50.3238 85.025 50.1145 84.9936 49.8214 84.9936C49.5807 84.9308 49.4028 84.9308 49.2772 84.9936C49.1516 85.0564 48.9423 85.1401 48.6492 85.2657C48.2829 85.3808 48.0213 85.3285 47.8329 85.0878C47.948 84.847 48.0108 84.6691 48.0108 84.5435C47.8329 84.5435 47.7073 84.5749 47.6445 84.6377C47.341 84.7529 47.1317 84.6377 47.0166 84.2714C46.8386 83.79 46.5665 83.3714 46.2002 83.005C46.0746 82.7015 45.9281 82.4503 45.7502 82.241C45.5722 82.0317 45.4153 81.7701 45.3001 81.477C45.2373 81.4142 45.1955 81.3514 45.1641 81.2991C45.1327 81.2363 45.0594 81.1526 44.9338 81.027C44.9338 80.9014 44.9757 80.7863 45.0698 80.6607C45.164 80.5351 45.0803 80.42 44.8396 80.3048C44.714 80.3048 44.6617 80.1583 44.6617 79.8548L44.3896 79.3106C44.3268 79.1327 44.2849 78.9652 44.2535 78.8187C44.2221 78.6721 44.1803 78.5047 44.1175 78.3268C44.0547 78.1489 44.0233 77.9814 44.0233 77.8349C44.0233 77.6883 43.9605 77.5523 43.8454 77.4267C43.7826 77.3639 43.7511 77.2802 43.7511 77.1546C43.6883 76.8511 43.657 76.579 43.657 76.3382C43.657 76.0975 43.5942 75.8254 43.4791 75.5219C43.3012 75.2184 43.3012 74.9253 43.4791 74.6218C43.1756 74.5067 43.0604 74.3497 43.1127 74.1718C43.1755 73.9939 43.2069 73.8055 43.2069 73.6276C43.1442 73.3869 43.1336 73.1461 43.165 72.9054C43.1964 72.6647 43.2069 72.424 43.2069 72.1833C43.1442 71.8798 43.1127 71.4297 43.1127 70.8332C43.1127 70.5924 43.1442 70.4145 43.2069 70.2889C43.2697 69.9854 43.2383 69.6924 43.1127 69.3889C42.9871 69.0854 42.9662 68.7923 43.0186 68.4888C43.0814 68.1853 43.0918 67.9132 43.0604 67.6725C43.029 67.4317 43.0709 67.191 43.1965 66.9503C43.3116 66.6468 43.343 66.3747 43.2907 66.134C43.2279 65.8932 43.1651 65.6211 43.1127 65.3176C43.1127 64.9513 43.2279 64.7211 43.4791 64.5955C43.4163 64.5955 43.3325 64.5327 43.2069 64.4176C43.3221 64.2396 43.3849 64.0408 43.3849 63.8315V63.2454C43.3849 62.9419 43.4163 62.6697 43.4791 62.429C43.5419 62.1883 43.5419 61.9162 43.4791 61.6127C43.4791 61.3092 43.5209 61.0371 43.6151 60.7963C43.7093 60.5556 43.7198 60.2835 43.657 59.98C43.657 59.8021 43.6883 59.6242 43.7511 59.4358C43.8139 59.2579 43.7826 59.0799 43.657 58.8915C43.7198 58.8915 43.7511 58.7974 43.7511 58.6194C43.8139 58.4415 43.8558 58.2741 43.8872 58.1275C43.9186 57.981 43.9605 57.8136 44.0233 57.6356C44.0233 57.2798 44.0547 56.9763 44.1175 56.7356C44.0547 56.7356 43.9082 56.6414 43.6675 56.4635C44.2117 56.2227 44.3582 55.9192 44.1175 55.5634C44.1175 55.5006 44.1279 55.4587 44.1593 55.4273C44.1907 55.3959 44.2012 55.3541 44.2012 55.2913L44.4733 55.0192C44.5361 54.904 44.5047 54.768 44.3791 54.611C44.2535 54.4645 44.2535 54.3284 44.3791 54.2028C44.4419 54.0877 44.4733 53.8156 44.4733 53.3865C44.4733 53.2085 44.5361 52.9364 44.6513 52.5701C44.714 52.2666 44.7664 51.9526 44.8292 51.6177C44.8919 51.2828 44.9443 50.9374 45.0071 50.5816C45.0071 50.2781 45.0489 50.0269 45.1431 49.8176C45.2373 49.6083 45.2792 49.3571 45.2792 49.0536C45.342 48.8129 45.3734 48.6035 45.3734 48.4256C45.3734 48.2477 45.4048 48.0384 45.4676 47.7977V47.7035C45.5827 47.4628 45.6455 47.1278 45.6455 46.7092C45.6455 46.2278 45.7397 45.8091 45.9176 45.4428C46.0955 45.0765 46.1897 44.7207 46.1897 44.3544C46.1269 43.9357 46.1793 43.538 46.3258 43.1822C46.4723 42.8263 46.6084 42.4286 46.734 42.01C46.734 41.9472 46.7444 41.9053 46.7758 41.8739C46.8072 41.8425 46.8177 41.8007 46.8177 41.7379C46.6921 41.4344 46.6502 41.1623 46.6816 40.9215C46.713 40.6808 46.7549 40.4087 46.8177 40.1052C46.8177 39.9901 46.8491 39.8331 46.9119 39.6552C46.9747 39.4773 47.027 39.2889 47.0898 39.1109C47.1526 38.7446 47.2991 38.3574 47.5399 37.9388V36.9445C47.7178 36.7038 47.8119 36.5677 47.8119 36.5363C47.8119 36.5049 47.7178 36.4003 47.5399 36.2223L47.4771 36.0758ZM29.6012 16.672C29.664 16.672 29.7164 16.6825 29.7791 16.7139C29.8419 16.7453 29.8943 16.7557 29.957 16.7557C30.0722 16.3999 30.1664 16.1592 30.2292 16.0336C30.1664 16.0336 30.135 16.0022 30.135 15.9394C30.0094 16.065 29.9257 16.1801 29.8629 16.2952C29.8001 16.4208 29.7164 16.5359 29.5908 16.6615L29.6012 16.672ZM46.3886 82.6597H46.4828C46.5456 82.6597 46.5769 82.5655 46.5769 82.3875H46.399V82.6597H46.3886Z" fill="white"/>
<path d="M74.2914 31.7434C74.1135 31.262 73.8099 30.9899 73.3913 30.9271C73.3285 30.9271 73.2134 30.8329 73.025 30.655C72.8994 30.7701 72.8471 30.8643 72.8471 30.9271C72.732 30.7492 72.4913 30.6864 72.1249 30.7492C71.5807 31.105 70.9528 31.3771 70.2306 31.5655C69.812 31.6283 69.4352 31.7644 69.1003 31.9737C68.7654 32.183 68.4514 32.4446 68.1479 32.7377C67.8444 32.9784 67.6037 33.2191 67.4258 33.4598C67.2478 33.7006 67.0385 33.9727 66.7978 34.2762C66.6198 34.5797 66.5571 34.8832 66.6199 35.1762C66.735 35.3018 66.735 35.417 66.6199 35.5426C66.5571 35.6053 66.5256 35.7519 66.5256 35.9926C66.5884 36.1705 66.6199 36.3484 66.6199 36.5368C66.8606 36.7147 67.1641 36.9869 67.5199 37.3532C67.5827 37.3532 67.635 37.3427 67.6978 37.3113C67.7606 37.2799 67.813 37.2694 67.8758 37.2694C68.2944 37.3322 68.6607 37.1752 68.9642 36.8194C69.1421 36.4531 69.3514 36.16 69.5921 35.9193C69.8957 35.5007 70.2411 35.1658 70.6283 34.9251C71.0156 34.6844 71.4551 34.4436 71.9366 34.2029C72.3552 34.025 72.7843 33.8575 73.2029 33.711C73.6215 33.5645 73.9879 33.3028 74.2809 32.947V32.497C74.3961 32.319 74.3961 32.0783 74.2809 31.7748L74.2914 31.7434Z" fill="white"/>
<path d="M96.2274 49.8943C96.196 49.9989 96.1647 50.1036 96.1123 50.1978C96.1751 50.135 96.2484 50.0827 96.3112 50.0303C96.3635 49.9885 96.4263 49.9466 96.4786 49.8943H96.217H96.2274Z" fill="white"/>
<path d="M145.146 51.7031C145.261 51.5252 145.313 51.3577 145.282 51.2112C145.251 51.0647 145.146 50.8763 144.968 50.667C144.79 50.4576 144.581 50.1123 144.34 49.6308C144.099 49.2122 143.827 49.0866 143.524 49.275C143.283 49.3901 143.074 49.4738 142.896 49.5052C142.718 49.5366 142.498 49.5471 142.268 49.5471C142.09 49.5471 141.964 49.5785 141.902 49.6413C141.776 49.7669 141.671 49.903 141.588 50.0495C141.493 50.196 141.389 50.3321 141.274 50.4576C141.148 50.6356 141.033 50.8344 140.918 51.0437C140.792 51.2531 140.677 51.4519 140.551 51.6298C140.311 51.8077 140.143 52.0171 140.06 52.2578C139.965 52.4985 139.861 52.7392 139.746 52.9799C139.327 53.8277 138.416 54.7801 137.035 55.8685C136.731 56.1092 136.459 56.2872 136.219 56.4128C135.978 56.5383 135.706 56.7163 135.402 56.957C134.554 57.6163 133.79 58.2862 133.1 58.9455C132.409 59.6049 131.875 60.2119 131.519 60.7457C131.394 61.1015 131.163 61.2271 130.797 61.1015C130.797 60.9864 130.808 60.8608 130.839 60.7457C130.87 60.6305 130.881 60.5049 130.881 60.3898C130.944 60.2119 130.975 59.9398 130.975 59.5735C131.331 59.5735 131.634 59.4583 131.875 59.2176C131.812 59.1025 131.729 58.9769 131.603 58.8513C131.666 58.7362 131.718 58.6211 131.781 58.5373C131.844 58.4431 131.875 58.3699 131.875 58.3071C131.76 58.0036 131.781 57.721 131.969 57.4489C132.147 57.1768 132.21 56.8942 132.147 56.5907C132.147 56.35 132.241 56.1406 132.419 55.9627C132.775 55.5964 132.901 55.2406 132.775 54.8847C132.775 54.8219 132.786 54.7801 132.817 54.7487C132.849 54.7173 132.859 54.6754 132.859 54.6126C132.974 54.3091 133.037 54.037 133.037 53.7963C133.037 53.5556 133.152 53.3148 133.393 53.0741V52.8962C133.33 52.5927 133.424 52.2683 133.665 51.9019C133.539 51.7868 133.456 51.6612 133.393 51.5461C133.33 51.431 133.361 51.274 133.487 51.0961C133.602 50.9809 133.717 50.8449 133.801 50.6879C133.895 50.5414 134 50.4053 134.115 50.2797C133.874 49.9762 133.937 49.7041 134.293 49.4634V49.0133C134.408 48.7098 134.46 48.4377 134.429 48.197C134.397 47.9563 134.356 47.6842 134.293 47.3807C134.293 47.2655 134.261 47.1713 134.199 47.1085C134.136 47.0458 134.073 46.962 134.021 46.8364C133.958 46.7213 133.895 46.6271 133.843 46.5643C133.78 46.5015 133.749 46.4492 133.749 46.3864C133.927 45.905 133.895 45.5491 133.654 45.3084C133.769 45.1933 133.749 45.0363 133.56 44.8584C133.435 44.7432 133.33 44.6805 133.246 44.6805C133.162 44.6805 133.079 44.6491 133.016 44.5863C132.838 44.4083 132.618 44.1362 132.388 43.7699C132.262 43.8955 132.179 43.9478 132.116 43.9478C131.938 43.6443 131.76 43.4769 131.572 43.4559C131.394 43.4245 131.059 43.5292 130.577 43.7699C130.515 43.7699 130.483 43.7071 130.483 43.592C130.358 43.5292 130.305 43.5606 130.305 43.6862C130.305 43.8118 130.242 43.8327 130.127 43.7804C130.002 43.6653 129.855 43.6339 129.677 43.6862C129.499 43.749 129.342 43.7804 129.227 43.7804L128.139 44.3246C128.024 44.3874 127.909 44.4293 127.825 44.4607C127.731 44.4921 127.626 44.5653 127.511 44.6909C127.27 44.8688 127.071 45.0468 126.925 45.2351C126.778 45.4131 126.579 45.6015 126.339 45.7794C126.035 45.9573 125.784 46.1875 125.575 46.4597C125.365 46.7318 125.135 47.0144 124.894 47.3179C124.716 47.6214 124.444 47.8307 124.078 47.9458C124.015 47.9458 123.952 47.9772 123.9 48.04C123.963 48.1028 123.994 48.1447 123.994 48.1761C123.994 48.2075 124.026 48.2493 124.088 48.3121C123.963 48.3749 123.858 48.4063 123.775 48.4063C123.691 48.4063 123.607 48.4691 123.544 48.5842C123.419 48.7622 123.314 48.9401 123.23 49.1285C123.147 49.3169 123 49.4843 122.822 49.6727C122.759 49.7983 122.686 49.9029 122.592 49.9867C122.498 50.0809 122.424 50.1855 122.362 50.3007C122.299 50.3635 122.215 50.3948 122.09 50.3948C122.152 50.2169 122.205 50.0495 122.267 49.903C122.33 49.7564 122.383 49.6204 122.445 49.4948C122.508 49.3169 122.529 49.1494 122.529 49.0029C122.529 48.8564 122.592 48.7203 122.707 48.5947C122.77 48.4168 122.843 48.2598 122.937 48.1447C123.031 48.0296 123.011 47.8412 122.895 47.6004L122.99 47.4225C123.052 47.3074 123.084 47.1504 123.084 46.9725C123.084 46.6167 123.052 46.3445 122.99 46.1561C123.105 46.0934 123.23 46.0515 123.345 46.0201C123.461 45.9887 123.586 45.9468 123.712 45.884L123.345 45.3398C123.461 45.2247 123.576 45.141 123.659 45.1096C123.754 45.0782 123.795 45.0049 123.795 44.8793C123.911 44.6386 123.994 44.3979 124.026 44.1572C124.057 43.9164 124.099 43.6757 124.162 43.435C124.277 43.1315 124.34 42.8803 124.34 42.671C124.34 42.4617 124.403 42.2 124.518 41.907C124.58 41.7919 124.559 41.7291 124.476 41.7291C124.392 41.7291 124.34 41.6663 124.34 41.5511C124.402 41.4883 124.476 41.4569 124.57 41.4569C124.664 41.4569 124.706 41.4256 124.706 41.3628C124.821 40.8813 124.915 40.3999 124.978 39.9185C125.041 39.437 125.093 38.9556 125.156 38.4742C125.156 38.2334 125.146 37.9927 125.114 37.752C125.083 37.5113 124.947 37.302 124.706 37.1241C124.58 37.0089 124.559 36.8938 124.612 36.8101C124.675 36.7159 124.675 36.6112 124.612 36.4961L123.795 36.224V35.8577C123.555 35.617 123.345 35.5332 123.167 35.5856C123.052 35.6484 122.864 35.6798 122.623 35.6798C122.508 35.617 122.288 35.6798 121.995 35.8577C121.88 35.9833 121.765 36.0879 121.681 36.1717C121.587 36.2658 121.483 36.3391 121.367 36.4019C121.064 36.5275 120.886 36.7054 120.823 36.9461C120.76 37.1868 120.677 37.4276 120.551 37.6683C120.425 37.9718 120.342 38.2858 120.279 38.6207C120.216 38.9556 120.153 39.2696 120.101 39.5731C119.986 39.8766 119.902 40.1487 119.871 40.3894C119.839 40.6301 119.766 40.9023 119.64 41.2058C119.578 41.5093 119.431 41.9593 119.19 42.5559C119.065 42.7966 118.96 43.0059 118.876 43.1838C118.782 43.3617 118.709 43.5711 118.646 43.8118C118.521 44.2304 118.385 44.6281 118.238 44.984C118.092 45.3398 117.976 45.7689 117.924 46.2503C117.924 46.5539 117.861 46.7632 117.746 46.8783C117.683 46.9411 117.652 47.0144 117.652 47.1085C117.652 47.2027 117.621 47.3074 117.558 47.4225C117.558 47.6004 117.526 47.7574 117.464 47.8726C117.401 47.9982 117.338 48.1028 117.286 48.1865C117.223 48.2807 117.191 48.3854 117.191 48.5005C117.129 48.7412 117.024 48.9506 116.878 49.1285C116.731 49.3064 116.741 49.5471 116.919 49.8506C116.616 49.7878 116.438 49.8402 116.375 49.9867C116.312 50.1332 116.26 50.3007 116.197 50.4786V50.9705C116.197 51.0542 116.197 51.1275 116.166 51.2007C116.082 51.3263 116.009 51.4624 115.925 51.5984C115.799 51.8077 115.684 52.0066 115.559 52.1845C115.077 52.7288 114.711 53.3148 114.481 53.9428C114.24 54.5708 113.874 55.1568 113.403 55.7011C112.984 56.1197 112.775 56.5697 112.775 57.0512C112.712 57.3547 112.576 57.5745 112.367 57.7315C112.157 57.878 111.99 58.0768 111.875 58.3176C111.697 58.6211 111.529 58.9036 111.383 59.1758C111.236 59.4479 111.1 59.7305 110.975 60.034C110.797 60.4003 110.608 60.7561 110.43 61.112C110.253 61.4783 110.043 61.8027 109.803 62.1062C109.677 62.2841 109.572 62.4621 109.489 62.6505C109.394 62.8284 109.29 63.0377 109.175 63.2784C108.934 63.5819 108.725 63.9064 108.547 64.2727C108.369 64.639 108.149 65.0262 107.919 65.4449C107.856 65.5704 107.824 65.6542 107.824 65.717C107.824 65.7798 107.793 65.8635 107.73 65.9891C107.73 66.2298 107.636 66.3763 107.458 66.4391C107.28 66.4391 107.155 66.5333 107.102 66.7112C107.04 66.8368 106.977 66.9205 106.924 66.9833C106.862 67.0461 106.799 67.1299 106.746 67.2555C106.506 67.559 106.276 67.8415 106.066 68.1137C105.857 68.3858 105.595 68.6998 105.302 69.0661C105.239 68.9509 105.177 68.8672 105.124 68.8358C105.061 68.8044 105.03 68.7626 105.03 68.6998C104.904 68.3962 104.789 67.9462 104.674 67.3497C104.674 67.1717 104.653 67.0043 104.632 66.8578C104.601 66.7112 104.622 66.5438 104.674 66.3659C104.737 66.1879 104.779 65.9891 104.81 65.7798C104.842 65.5704 104.884 65.3716 104.946 65.1937C105.009 64.8274 105.061 64.4715 105.124 64.1157C105.187 63.7494 105.302 63.3935 105.491 63.0272C105.606 62.6714 105.731 62.2737 105.846 61.855C105.962 61.4364 106.118 61.0178 106.296 60.5887C106.537 59.8665 106.893 59.0292 107.374 58.0559C107.678 57.3966 107.981 56.7163 108.274 56.0255C108.578 55.3348 108.871 54.6545 109.175 53.9951C109.29 53.5765 109.478 53.3358 109.719 53.273C109.782 53.2102 109.897 53.0323 110.075 52.7288C110.19 52.3729 110.315 52.0275 110.43 51.6926C110.546 51.3682 110.765 51.0437 111.058 50.7402C111.362 50.4367 111.571 50.0809 111.686 49.6622C111.802 49.2436 111.99 48.8459 112.231 48.49C112.293 48.3749 112.346 48.2598 112.409 48.1761C112.471 48.0819 112.524 47.9772 112.586 47.8621C113.183 47.0144 113.162 46.1771 112.492 45.3293C112.429 45.2665 112.283 45.2351 112.042 45.2351C111.917 45.3607 111.843 45.4026 111.812 45.3712C111.781 45.3398 111.707 45.2979 111.582 45.2351C111.1 44.9944 110.65 45.0886 110.232 45.5073L110.054 45.6852C109.991 45.6852 109.844 45.748 109.604 45.8631C109.426 45.9887 109.269 46.1248 109.154 46.2713C109.028 46.4178 108.882 46.5539 108.704 46.6794C108.348 46.983 108.044 47.2969 107.804 47.6318C107.563 47.9668 107.291 48.2807 106.987 48.5842C106.862 48.7098 106.726 48.8145 106.579 48.8982C106.432 48.9924 106.265 49.0657 106.087 49.1285C106.024 49.0133 105.982 48.9296 105.951 48.8982C105.92 48.8668 105.878 48.7936 105.815 48.668C105.752 48.3017 105.512 48.04 105.093 47.8516C104.967 47.7365 104.852 47.6423 104.737 47.5795C104.611 47.5167 104.496 47.4644 104.371 47.4016C104.015 47.2865 103.659 47.1609 103.335 47.0353C103 46.9202 102.654 46.9202 102.298 47.0353C102.173 47.0353 102.026 47.0667 101.848 47.1295C101.67 47.1923 101.513 47.1923 101.398 47.1295C101.22 47.0667 101.063 47.0667 100.948 47.1295C100.823 47.1923 100.708 47.2551 100.582 47.3074C100.404 47.3702 100.237 47.4435 100.09 47.5376C99.9436 47.6318 99.7762 47.7051 99.5983 47.7679C99.1796 47.8935 98.8133 48.0819 98.5202 48.354C98.2167 48.6261 97.8923 48.8459 97.526 49.0343C97.4108 49.1599 97.2957 49.2645 97.212 49.3483C97.1283 49.4424 96.9817 49.5157 96.8038 49.5785L96.6259 49.7564C96.5631 49.8192 96.5003 49.882 96.4271 49.9343C96.3747 49.9867 96.312 50.0285 96.2596 50.0704C96.1968 50.1227 96.1236 50.1751 96.0608 50.2379C96.0084 50.2902 95.9561 50.3321 95.9038 50.3844C95.7782 50.51 95.6735 50.6251 95.5898 50.7402C95.4956 50.8658 95.3595 50.9181 95.1816 50.9181C95.056 51.274 94.8676 51.5461 94.5955 51.7345C94.3234 51.9124 94.0722 52.1531 93.8315 52.4566C93.528 52.7601 93.2559 53.0637 93.0152 53.3567C92.7744 53.6602 92.5337 53.9847 92.293 54.351C92.1779 54.4766 92.0942 54.6231 92.0628 54.801C92.0314 54.9789 91.9581 55.1045 91.8325 55.1568C91.5918 55.2196 91.4558 55.3243 91.4244 55.4708C91.393 55.6173 91.3197 55.7534 91.1941 55.879C90.9534 56.0046 90.8069 56.1197 90.7441 56.2348C90.6289 56.4756 90.4405 56.8942 90.1998 57.5012C90.0219 57.4384 89.844 57.5326 89.6556 57.7733C89.5405 58.0768 89.4567 58.3804 89.4253 58.6734C89.3939 58.9769 89.1951 59.1862 88.8393 59.3014V59.4793C88.7241 59.72 88.609 59.9502 88.5253 60.1596C88.4311 60.3689 88.3265 60.5991 88.2113 60.8398C88.0962 61.0178 88.0124 61.2271 87.981 61.4678C87.9496 61.7085 87.845 61.9178 87.6671 62.0958L87.7613 62.2737L87.6671 62.4516C87.4264 62.5772 87.2903 62.7342 87.2589 62.9435C87.2275 63.1528 87.1856 63.3831 87.1228 63.6238C87.1228 63.7494 87.1438 63.8226 87.1647 63.854C87.1961 63.8854 87.1752 63.9587 87.1228 64.0843C87.0077 64.325 86.8926 64.5657 86.8089 64.8064C86.7147 65.0471 86.61 65.3193 86.4949 65.6228C86.3902 65.8426 86.3693 66.0728 86.4321 66.3135L86.0449 66.8892C85.9193 67.0147 85.846 67.1299 85.8146 67.2555C85.7832 67.3706 85.71 67.4962 85.5844 67.6113C85.1657 68.0299 84.8622 68.5114 84.6843 69.0556C84.5587 69.1707 84.5378 69.2335 84.5901 69.2335C84.1715 69.537 83.8052 70.0185 83.5121 70.6778C83.3865 70.9813 83.24 71.2325 83.0621 71.4418C82.8842 71.6511 82.6748 71.8814 82.4341 72.1221C82.1934 72.3628 81.9841 72.5721 81.8062 72.7501C81.6283 72.928 81.4713 73.1687 81.3562 73.4722C81.1782 73.6501 81.0212 73.7757 80.9061 73.8385C80.7281 73.9641 80.5293 74.1002 80.32 74.2467C80.1107 74.3932 79.9432 74.5607 79.8281 74.7386C79.7025 74.9165 79.5664 75.0526 79.4199 75.1468C79.2734 75.241 79.1373 75.3456 79.0117 75.4607C78.8338 75.5863 78.5931 75.5549 78.2896 75.3665C77.9861 75.1258 77.871 74.9479 77.9338 74.8223C78.0489 74.6444 78.0279 74.5397 77.8396 74.5083C77.6616 74.4769 77.5989 74.4037 77.6617 74.2781C77.7245 74.0374 77.6617 73.8071 77.4838 73.5978C77.3058 73.3885 77.2744 73.1268 77.3895 72.8338C77.4523 72.771 77.4523 72.7187 77.3895 72.6559C77.3267 72.5931 77.2954 72.5407 77.2954 72.478C77.2326 72.3 77.1697 72.1012 77.1174 71.8919C77.0546 71.6825 77.1175 71.4837 77.2954 71.3058V71.0337C77.2326 70.6778 77.2221 70.301 77.2535 69.9033C77.2849 69.5161 77.243 69.1079 77.1174 68.6788L77.2116 68.5009C77.4523 68.0195 77.4838 67.4752 77.3058 66.8787C77.6617 66.3972 77.9023 66.0414 78.0279 65.8007L77.7559 65.5286C77.871 65.3507 77.9547 65.1727 77.9861 64.9844C78.0175 64.8064 78.0908 64.6285 78.2164 64.4401C77.9757 64.2622 77.9338 64.0633 78.0803 63.854C78.2268 63.6447 78.2478 63.4459 78.1222 63.2679C78.2373 63.2051 78.3943 63.09 78.5722 62.9121L78.2059 62.5458C78.4466 62.3051 78.5931 62.1272 78.6559 62.0016C78.7187 61.9388 78.7501 61.8655 78.7501 61.7713C78.7501 61.6771 78.7815 61.5725 78.8338 61.4573C78.8966 61.1538 78.9489 60.8712 79.0117 60.5991C79.0745 60.327 79.1583 60.0758 79.2839 59.8351C79.5246 59.5316 79.556 59.2595 79.3781 59.0188C79.6188 58.9036 79.7653 58.8095 79.8281 58.7467C79.6502 58.4431 79.6816 58.2024 79.9223 58.0245L80.1002 57.8466C80.0374 57.5431 80.0583 57.2605 80.1421 56.9884C80.2363 56.7163 80.3409 56.4337 80.456 56.1302C80.5712 55.8895 80.6654 55.6383 80.7282 55.3662C80.791 55.094 80.9689 54.8952 81.2724 54.7801C81.0945 54.4766 81.1049 54.194 81.3143 53.9219C81.5236 53.6498 81.5654 53.3672 81.4503 53.0637C81.5654 52.7601 81.7224 52.488 81.9003 52.2473C82.0783 52.0066 82.2352 51.7345 82.3504 51.431L82.2562 51.2531L82.4341 50.6251C82.3085 50.4472 82.3085 50.3007 82.4341 50.1751C82.5492 50.0599 82.6434 49.9343 82.7062 49.8192C82.6434 49.7041 82.5807 49.6099 82.5283 49.5471C82.4655 49.4843 82.4132 49.4006 82.3504 49.275C82.4655 49.1599 82.5911 49.0343 82.7062 48.9087C82.8214 48.7936 82.947 48.668 83.0621 48.5528C83.3028 48.1865 83.5121 47.9249 83.69 47.7365V47.5586C83.7528 47.3179 83.7947 47.0772 83.8261 46.8364C83.8575 46.5957 83.9307 46.3864 84.0563 46.2085C84.1714 46.0306 84.2657 45.8317 84.3284 45.6224C84.3912 45.4131 84.4436 45.2142 84.5063 45.0363C84.5691 44.7956 84.6215 44.5758 84.6843 44.356C84.7471 44.1467 84.8936 43.9792 85.1343 43.8641C85.3123 43.6862 85.375 43.5397 85.3122 43.4141C85.2495 43.2362 85.2704 43.0687 85.3541 42.9222C85.4483 42.7757 85.553 42.6082 85.6681 42.4303C85.7309 42.3152 85.8041 42.1896 85.8983 42.064C85.9925 41.9488 86.0344 41.8233 86.0344 41.7081C85.9088 41.4046 85.9926 41.1639 86.2647 40.986C86.5368 40.8081 86.61 40.5673 86.4949 40.2638C86.8507 39.7196 87.0391 39.1858 87.0391 38.6416C87.0391 38.4637 87.0705 38.2962 87.1333 38.1497C87.1961 38.0032 87.2485 37.8357 87.3113 37.6578C87.552 37.6578 87.6985 37.595 87.7613 37.4799C87.8764 37.3648 87.9392 37.2392 87.9392 37.1136C87.9392 36.988 87.9706 36.8729 88.0334 36.7577C88.0962 36.5798 88.1485 36.3914 88.2113 36.2135C88.2741 36.0356 88.3264 35.8263 88.3892 35.5856C88.5044 35.2821 88.6404 34.9995 88.7974 34.7274C88.9439 34.4552 89.0486 34.1727 89.1114 33.8692C89.1742 33.754 89.2265 33.597 89.2893 33.4191C89.3521 33.2412 89.4358 33.0947 89.5614 32.9691C89.7393 32.7912 89.844 32.5923 89.8754 32.383C89.9068 32.1737 89.9801 32.0062 90.1057 31.8911C90.2208 31.7132 90.3045 31.5143 90.3359 31.305C90.3673 31.0957 90.4091 30.8968 90.4719 30.7189L90.5662 30.6247V30.5305C90.9325 30.0491 91.079 29.5991 91.0162 29.1804C91.0162 29.1176 91.079 29.0339 91.1941 28.9083L91.372 28.7304C91.2464 28.4897 91.3406 28.3117 91.6441 28.1862L91.9162 27.914C91.9162 27.6105 91.979 27.3698 92.0941 27.1919C92.2093 27.014 92.3035 26.8046 92.3663 26.5639C92.4814 26.1453 92.607 25.7371 92.7326 25.3499C92.8477 24.9626 93.0361 24.5545 93.2768 24.1254C93.3396 24.0102 93.392 23.8742 93.4548 23.7172C93.5176 23.5707 93.5176 23.4346 93.4548 23.309C93.392 23.1311 93.4338 23.0055 93.5908 22.9427C93.7374 22.8799 93.821 22.7962 93.821 22.6706C93.8838 22.4927 93.9676 22.3252 94.0932 22.1787C94.2083 22.0322 94.2711 21.8647 94.2711 21.6868C94.2711 21.4461 94.3653 21.174 94.5432 20.8705C94.5432 20.7553 94.606 20.6402 94.7211 20.5565C94.8362 20.4623 94.8362 20.3576 94.7211 20.2425C94.8362 19.7611 94.9723 19.3215 95.1293 18.9343C95.2758 18.547 95.4119 18.1389 95.5375 17.7202C95.6526 17.3539 95.7363 16.9876 95.7677 16.5899C95.7991 16.2027 95.6631 15.8573 95.3596 15.5538C95.2968 15.491 95.2654 15.4387 95.2654 15.3759C95.2654 15.3131 95.2339 15.2293 95.1711 15.1037C95.0455 15.1037 94.9095 15.1142 94.763 15.1456C94.6165 15.177 94.4804 15.0723 94.3548 14.8316C94.1769 14.6537 93.9675 14.5595 93.7268 14.5595C93.664 14.5595 93.6013 14.5909 93.5489 14.6537C93.4861 14.7165 93.4024 14.7688 93.2768 14.8316C93.1512 14.8944 93.0361 14.9572 92.921 15.0095C92.7954 15.0723 92.6802 15.1037 92.5546 15.1037C92.3139 15.1037 92.1361 15.2293 92.0105 15.4596C91.9477 15.7003 91.8325 15.941 91.6546 16.1817C91.529 16.3597 91.4244 16.548 91.3406 16.726C91.2464 16.9039 91.1418 17.1237 91.0267 17.3539C90.9011 17.5946 90.8278 17.8249 90.7964 18.0342C90.765 18.2435 90.6603 18.411 90.4824 18.5261C90.4196 18.5261 90.3883 18.5575 90.3883 18.6203C90.4511 18.7982 90.4511 18.9552 90.3883 19.0703C90.3255 19.1855 90.2417 19.311 90.1161 19.4262C89.9905 19.8448 89.8126 20.1169 89.5719 20.2425C89.5719 20.546 89.5091 20.8495 89.394 21.1426C89.2789 21.4461 89.2789 21.7496 89.394 22.0427C88.9753 22.0427 88.6718 22.2834 88.4939 22.7648C88.4939 23.309 88.316 23.6963 87.9497 23.937C87.8869 23.9998 87.8555 24.1463 87.8555 24.387C87.7927 24.6277 87.7299 24.858 87.6776 25.0673C87.6148 25.2766 87.4996 25.5069 87.3217 25.7476C87.1961 25.8732 87.0914 25.9883 87.0077 26.1034C86.9135 26.229 86.9031 26.4069 86.9659 26.6477C86.9659 26.7733 86.9345 26.8779 86.8717 26.9616C86.8089 27.0558 86.7566 27.1605 86.6938 27.2756L86.1495 28.2699C86.2123 28.5734 86.0553 28.7827 85.6995 28.8978C85.6995 28.9606 85.7309 29.0025 85.7937 29.0339C85.8565 29.0653 85.8565 29.1072 85.7937 29.1699C85.7309 29.4107 85.6681 29.62 85.6157 29.7979C85.5529 29.9758 85.4693 30.1956 85.3437 30.4259C85.1658 30.7922 84.9564 31.1375 84.7157 31.462C84.475 31.7969 84.3284 32.1946 84.2657 32.6865L84.1715 32.8644C84.0459 33.1051 83.9307 33.3145 83.8051 33.4924C83.6796 33.6703 83.5645 33.8901 83.4493 34.1203C83.3865 34.2459 83.3447 34.382 83.3133 34.5285C83.2819 34.675 83.24 34.8111 83.1772 34.9367C83.0621 35.4181 82.9365 35.7216 82.8214 35.8367C82.6434 35.9623 82.5597 36.0775 82.5911 36.2031C82.6225 36.3286 82.5702 36.4438 82.4551 36.5589C82.2144 36.7996 82.0887 37.0717 82.0887 37.3752C82.0259 37.6787 81.9213 37.9509 81.7748 38.1916C81.6282 38.4323 81.4922 38.7044 81.3666 39.0079C81.1259 39.4894 80.9793 39.8766 80.9165 40.1801L80.3724 41.5302L80.0583 41.8442C79.9641 41.9384 79.9851 42.0744 80.1002 42.2524L80.006 42.4303C79.8909 42.5559 79.8072 42.6396 79.7758 42.7024C79.7444 42.7652 79.7025 42.8489 79.6397 42.9745C79.5769 43.1524 79.5351 43.3199 79.5037 43.4664C79.4723 43.6129 79.4304 43.7804 79.3676 43.9583C79.3676 44.1362 79.3048 44.2932 79.1897 44.4083C79.0641 44.5339 78.9804 44.6805 78.9176 44.8584C78.792 45.0991 78.6768 45.4654 78.5617 45.9364C78.321 46.4178 78.1431 46.7527 78.0175 46.9306C78.1327 47.2341 78.1117 47.4539 77.9233 47.6109C77.7454 47.7574 77.6198 47.9563 77.557 48.197C77.4942 48.5005 77.4105 48.7517 77.2849 48.961C77.1593 49.1703 77.0441 49.432 76.9186 49.725C76.8558 49.9029 76.814 50.0704 76.7826 50.2169C76.7512 50.3635 76.7093 50.5309 76.6465 50.7088C76.479 51.0333 76.3429 51.3682 76.2174 51.724C76.1127 51.8601 76.0081 51.9857 75.9243 52.1113C75.7464 52.3834 75.4743 52.6032 75.108 52.7915C74.93 52.9171 74.7626 53.0637 74.6161 53.2416C74.4696 53.4195 74.3335 53.5765 74.2079 53.6916C73.6637 54.173 73.1718 54.6963 72.7218 55.272C72.2717 55.8476 71.8007 56.3709 71.3193 56.8523C71.1414 56.9779 70.9844 57.1244 70.8693 57.3024C70.7437 57.4803 70.6286 57.6373 70.503 57.7524C70.1995 58.1082 69.9273 58.4641 69.6866 58.7885C69.4459 59.1234 69.1738 59.4374 68.8703 59.7409C68.6295 60.0444 68.4202 60.2956 68.2423 60.5049C68.0644 60.7143 67.8446 60.9445 67.6144 61.1852C67.4888 61.3108 67.4364 61.4155 67.4364 61.4992C67.4364 61.5829 67.3736 61.6667 67.2585 61.7294C67.0178 61.7922 66.8713 61.8969 66.8085 62.0434C66.7457 62.1899 66.662 62.326 66.5364 62.4516C66.4108 62.5772 66.3061 62.7132 66.2224 62.8598C66.1282 63.0063 66.0236 63.1423 65.9084 63.2679C65.5421 63.6238 65.1863 63.9796 64.8199 64.3041C64.4641 64.639 64.1292 65.0158 63.8257 65.4344C63.585 65.8007 63.3757 66.0414 63.1977 66.1565C62.8942 66.2821 62.6535 66.46 62.4756 66.7008C62.2977 66.9415 62.0884 67.1508 61.8477 67.3287C61.7849 67.3915 61.743 67.4543 61.7116 67.5066C61.6802 67.5694 61.6069 67.6322 61.4813 67.6846C61.115 67.9253 60.9371 67.8311 60.9371 67.4124C60.9999 67.1717 61.0104 66.9205 60.979 66.6484C60.9476 66.3763 61.0522 66.1565 61.2929 65.9681C61.1673 65.7274 61.115 65.5809 61.115 65.5181L61.3872 64.7018C61.4499 64.3983 61.4918 64.1471 61.5232 63.9378C61.5546 63.7284 61.5965 63.4982 61.6593 63.2575C61.7221 63.0168 61.7744 62.7865 61.8372 62.5772C61.9 62.3679 61.9523 62.1376 62.0151 61.8969C62.1302 61.5934 62.2244 61.2794 62.2872 60.9445C62.35 60.6201 62.4337 60.2642 62.5593 59.9084C62.6745 59.4269 62.8001 59.092 62.9152 58.9141C63.0303 58.6106 63.0617 58.3385 63.0094 58.0978C63.2501 57.8571 63.3756 57.6477 63.3756 57.4698C63.25 57.3547 63.2815 57.2605 63.4699 57.1977C63.7106 57.0198 63.8571 56.8105 63.9199 56.5697C63.9827 56.329 64.035 56.0569 64.0978 55.7534C64.1606 55.5755 64.2025 55.3766 64.2339 55.1673C64.2653 54.958 64.37 54.7905 64.5479 54.6754C64.663 54.5603 64.7153 54.4242 64.6839 54.2672C64.6525 54.1207 64.7258 53.9847 64.9142 53.8591C64.977 53.8591 64.9561 53.7963 64.8723 53.6812C64.7781 53.566 64.799 53.4718 64.9142 53.409C65.2177 53.2939 65.3642 53.0951 65.3642 52.8229C65.3642 52.5508 65.4584 52.3624 65.6363 52.2369C65.6991 51.7554 65.8038 51.3159 65.9503 50.9286C66.0968 50.5414 66.2957 50.1332 66.5364 49.7146C66.5992 49.5994 66.6725 49.4738 66.7667 49.3483C66.8609 49.2331 66.9341 49.0761 66.9969 48.8982C66.9969 48.5947 67.0387 48.3435 67.1329 48.1342C67.2271 47.9249 67.3318 47.6632 67.4469 47.3702C67.4469 47.0667 67.5411 46.9202 67.719 46.9202C67.8969 46.805 68.0435 46.5329 68.1691 46.1038C68.2842 45.7375 68.3784 45.3817 68.4412 45.0154C68.504 44.6595 68.4726 44.2932 68.3574 43.9374C68.2318 43.7595 68.1481 43.592 68.0853 43.4455C68.0225 43.2989 67.9597 43.1629 67.9074 43.0373L68.0016 42.9431C67.5202 42.828 67.1853 42.7338 67.0073 42.671C67.1225 42.5559 67.2167 42.4303 67.2795 42.3152C66.976 42.2 66.7562 42.2105 66.5992 42.357C66.4526 42.5035 66.2852 42.5873 66.1073 42.5873C65.8038 42.5873 65.4166 42.7129 64.9351 42.9536C64.9351 43.0792 64.977 43.1943 65.0712 43.3094C65.1654 43.435 65.1444 43.5501 65.0293 43.6757L64.7572 43.4036C64.642 43.5815 64.5479 43.7594 64.4851 43.9478C64.4223 44.1258 64.3386 44.2827 64.213 44.3979C63.9095 44.7014 63.7001 45.0154 63.585 45.3503C63.4698 45.6852 63.3129 45.9992 63.1349 46.3027C62.8942 46.669 62.7791 46.9306 62.7791 47.119C62.7163 47.4749 62.5803 47.7993 62.371 48.0714C62.1616 48.3435 61.9941 48.6261 61.879 48.9296C61.6383 49.3483 61.4395 49.7774 61.2929 50.196C61.1464 50.6146 60.979 51.0437 60.8011 51.4624C60.6859 51.7659 60.5917 52.038 60.5289 52.2787C60.4661 52.5194 60.351 52.7601 60.1731 53.0009C60.0579 53.116 59.9952 53.2102 59.9952 53.273C59.9952 53.3358 59.9638 53.4195 59.901 53.5451C59.7859 53.8486 59.6917 54.1312 59.6289 54.4033C59.5661 54.6754 59.4824 54.9266 59.3568 55.1673C59.2416 55.4708 59.1056 55.7743 58.9486 56.0674C58.802 56.3709 58.7184 56.6953 58.7184 57.0616C58.4148 57.6059 58.1636 58.1396 57.9543 58.6839C57.745 59.2281 57.5776 59.8037 57.4624 60.4003C57.3473 60.7561 57.2845 61.0596 57.2845 61.3003C57.1694 61.6667 57.0752 61.9074 57.0124 62.0225C56.9496 62.2004 56.9077 62.3679 56.8763 62.5144C56.8449 62.6609 56.8344 62.8284 56.8344 63.0063V63.5505C56.8344 63.7284 56.7717 63.8854 56.6565 64.0006C56.4786 64.2413 56.3844 64.6076 56.3844 65.0785C56.3216 65.3821 56.2903 65.6542 56.2903 65.8949C56.2903 66.1356 56.2588 66.4077 56.196 66.7112C56.196 67.0147 56.1856 67.2973 56.1542 67.5694C56.1228 67.8416 56.1437 68.1241 56.196 68.4276C56.196 68.7312 56.2275 68.9823 56.2903 69.1917C56.353 69.401 56.4158 69.6312 56.4682 69.8719C56.5937 70.1127 56.6775 70.3534 56.7403 70.5941C56.8031 70.8348 56.9182 71.0755 57.1066 71.3162C57.2322 71.4942 57.3473 71.6616 57.4624 71.8081C57.588 71.9547 57.7973 71.9756 58.0904 71.85C58.216 72.0907 58.2683 72.2686 58.2683 72.3942C58.6242 72.5198 58.8754 72.6349 58.9905 72.7605C59.1684 72.8757 59.4091 72.8757 59.7126 72.7605C59.8277 72.7605 59.9533 72.7291 60.0684 72.6663C60.194 72.6035 60.3092 72.6349 60.4243 72.7605C60.4243 72.8233 60.4662 72.8547 60.5604 72.8547C60.6546 72.8547 60.7278 72.8233 60.7906 72.7605C60.9685 72.5826 61.1464 72.5512 61.3348 72.6663C61.3976 72.7291 61.4709 72.7396 61.5651 72.7082C61.6592 72.6768 61.7325 72.6663 61.7953 72.6663C62.0989 72.5512 62.35 72.4256 62.5593 72.3C62.7686 72.1849 62.9989 72.0279 63.2396 71.85C63.4804 71.6721 63.7315 71.5046 64.0036 71.3581C64.2757 71.2116 64.5269 71.0441 64.7676 70.8662C65.1339 70.4999 65.4793 70.1441 65.8037 69.7777C66.1387 69.4219 66.4841 69.0242 66.8399 68.6056C67.0178 68.3648 67.2167 68.1241 67.426 67.8834C67.6353 67.6427 67.8342 67.402 68.0121 67.1613C68.2528 66.8578 68.4517 66.5856 68.5982 66.3449C68.7447 66.1042 68.9436 65.8635 69.1843 65.6228C69.5506 65.3821 69.7599 65.1413 69.8122 64.9006C69.9901 64.3564 70.3251 63.9692 70.8065 63.7284C70.9844 63.6133 71.1205 63.4563 71.2147 63.2784C71.3089 63.1005 71.4135 62.9226 71.5286 62.7342C71.6438 62.5563 71.8007 62.3993 71.9787 62.2841C72.1566 62.169 72.3031 61.9806 72.4287 61.7399C72.6694 61.6771 72.8159 61.562 72.8787 61.3841C72.9415 61.2061 73.0253 61.0282 73.1508 60.8398C73.1613 60.798 73.1927 60.7456 73.2136 60.6933C73.1718 60.8922 73.1508 61.112 73.1508 61.3422C73.1508 61.7922 73.0043 62.169 72.7008 62.4725V62.6505C72.5857 63.1319 72.5229 63.5191 72.5229 63.8226C72.4601 63.8854 72.4915 64.032 72.6171 64.2727C72.1984 64.5134 72.1042 64.7855 72.3449 65.089C72.2298 65.2669 72.167 65.4449 72.167 65.6332V66.1775C72.167 66.481 72.1252 66.7636 72.031 67.0357C71.9368 67.3078 71.8636 67.5904 71.8008 67.8939C71.8008 67.9567 71.7693 67.9881 71.7065 67.9881C71.6437 67.9881 71.5914 68.0195 71.5286 68.0823L71.4344 68.2602L71.7065 68.5323C71.5286 68.7102 71.4658 68.8358 71.5286 68.8881C71.6542 69.1289 71.6751 69.3696 71.6228 69.6103C71.56 69.851 71.56 70.1231 71.6228 70.4266C71.6228 70.5522 71.6333 70.636 71.6647 70.6987C71.6961 70.7615 71.7065 70.8453 71.7065 70.9709C71.5914 71.5151 71.6124 72.0279 71.8008 72.5094C71.9264 72.6349 71.9264 72.8129 71.8008 73.0536C71.738 73.4722 71.8112 73.8385 72.031 74.1316C72.2403 74.4351 72.4392 74.7386 72.6171 75.0316C72.5019 75.2724 72.4706 75.4189 72.5229 75.4817C72.638 75.6596 72.6904 75.848 72.659 76.0259C72.6276 76.2038 72.6694 76.3922 72.795 76.5701C72.9206 76.926 73.0671 77.1981 73.2451 77.3865C73.4858 77.5644 73.7265 77.8993 73.9672 78.3807C74.3335 79.1029 74.8986 79.4901 75.6836 79.5529C75.7464 79.668 75.7882 79.8041 75.8196 79.9611C75.851 80.1076 75.9557 80.1913 76.1336 80.1913C76.3743 80.0658 76.5523 80.0553 76.6779 80.1495C76.793 80.2437 76.8872 80.3169 76.95 80.3797H77.85C77.9652 80.4949 78.1221 80.5576 78.3001 80.5576C78.478 80.5576 78.635 80.5891 78.7501 80.6518C78.9908 80.7146 79.1583 80.6623 79.242 80.5158C79.3362 80.3693 79.4409 80.2332 79.556 80.1076C80.0374 80.2855 80.4247 80.2227 80.7282 79.9297L80.9061 79.8355C81.3875 79.7727 81.9004 79.4797 82.4446 78.9354C82.5074 78.8726 82.5493 78.7994 82.5807 78.7052C82.6121 78.611 82.6853 78.5377 82.8109 78.4749C83.1144 78.3598 83.3551 78.1714 83.533 77.9307C83.7109 77.69 83.8889 77.4493 84.0773 77.2086C84.318 77.0306 84.4854 76.8213 84.5691 76.5806C84.6529 76.3399 84.8518 76.1306 85.1553 75.9526C85.2704 75.9526 85.3332 75.9108 85.3332 75.8166C85.3332 75.7224 85.3646 75.6177 85.4274 75.5026C86.0867 74.9584 86.5681 74.3304 86.8717 73.6083C86.9345 73.4304 87.0077 73.2629 87.1019 73.1164C87.1961 72.9699 87.3008 72.8338 87.4159 72.7082C87.5415 72.5407 87.6776 72.3733 87.8031 72.2163C87.8869 72.6245 88.0857 72.9385 88.4102 73.1582C88.6509 73.3362 89.0695 73.5455 89.6765 73.7862C89.98 73.9641 90.3359 73.9955 90.7545 73.8804C90.8173 73.8804 90.8801 73.8699 90.9324 73.8385C90.9952 73.8071 91.058 73.7967 91.1103 73.7967C91.9581 73.7967 92.6489 73.5559 93.1826 73.0745C93.3082 72.9594 93.4233 72.8652 93.5489 72.8024C94.0304 72.5617 94.5118 72.2058 94.9932 71.7139C95.056 71.6511 95.0979 71.5779 95.1293 71.4837C95.1607 71.3895 95.2026 71.3476 95.2654 71.3476C95.5061 71.2848 95.6735 71.2011 95.7572 71.0755C95.8514 70.9604 95.9561 70.8348 96.0712 70.7197C96.3748 70.4162 96.6468 70.1022 96.8876 69.7673C97.1283 69.4428 97.4004 69.087 97.7039 68.7312C97.8819 68.4276 98.0388 68.1346 98.154 67.8311C98.2691 67.5276 98.5203 67.3183 98.8761 67.2031C98.9389 66.8996 99.054 66.6589 99.2424 66.481C99.4203 66.3031 99.5145 66.0623 99.5145 65.7588L99.6924 65.5809C99.9959 65.403 100.237 65.1727 100.415 64.9006C100.592 64.6285 100.77 64.3459 100.959 64.0424C101.022 63.8645 101.168 63.6552 101.409 63.4145H101.503C101.503 63.5924 101.493 63.7703 101.461 63.9587C101.43 64.1366 101.419 64.3145 101.419 64.5029C101.419 64.6913 101.409 64.8588 101.377 65.0471C101.346 65.2251 101.357 65.3821 101.419 65.4972C101.482 65.7379 101.451 65.9786 101.325 66.2193C101.2 66.46 101.147 66.617 101.147 66.6694C101.084 67.2136 101.116 67.7474 101.241 68.2916C101.357 68.8358 101.514 69.3486 101.691 69.8301C101.807 70.0708 101.932 70.301 102.047 70.5104C102.162 70.7197 102.288 70.9499 102.403 71.1906C102.466 71.3162 102.55 71.4 102.675 71.4628C102.79 71.5256 102.916 71.6093 103.031 71.7349V71.8291C103.031 71.8919 103.062 71.9233 103.125 71.9233C103.24 72.0489 103.366 72.1221 103.492 72.1535C103.607 72.1849 103.732 72.2268 103.847 72.2896C103.963 72.3524 104.078 72.3838 104.161 72.3838C104.245 72.3838 104.36 72.4152 104.475 72.478C104.59 72.478 104.716 72.5094 104.842 72.5721C104.957 72.6349 105.082 72.6349 105.198 72.5721C105.857 72.457 106.401 72.2686 106.82 72.0279C107.479 71.5465 108.117 70.9499 108.714 70.2278C108.85 70.0917 108.976 69.9557 109.091 69.7987C109.112 69.8196 109.143 69.8405 109.164 69.8615V69.9557C108.861 70.5627 108.84 71.1593 109.07 71.7558C109.133 71.8814 109.143 71.9861 109.112 72.0698C109.08 72.164 109.07 72.2686 109.07 72.3838L109.248 72.478V72.5721C109.185 73.2943 109.52 73.6501 110.242 73.6501L110.608 73.8281C110.546 73.9536 110.514 74.1002 110.514 74.2781C110.933 74.5816 111.236 74.5188 111.414 74.1002C111.592 74.163 111.781 74.2153 111.959 74.2781C112.136 74.3409 112.293 74.2153 112.409 73.9223C112.471 73.9223 112.503 73.9118 112.503 73.8804C112.503 73.849 112.534 73.8385 112.597 73.8385C112.775 73.9641 112.942 73.9641 113.089 73.8385C113.235 73.7234 113.403 73.6292 113.581 73.5664C114.062 73.3885 114.271 73.0536 114.209 72.5721L114.387 72.6663H114.481C114.544 72.5512 114.606 72.457 114.659 72.3942C114.721 72.3314 114.784 72.2477 114.837 72.1221C114.899 71.9442 114.962 71.7767 115.015 71.6302C115.077 71.4837 115.161 71.3162 115.287 71.1383C115.349 71.0232 115.465 70.929 115.653 70.8662C115.831 70.8034 115.894 70.6569 115.831 70.4162C116.134 70.301 116.312 70.1336 116.375 69.9243C116.438 69.715 116.522 69.4533 116.647 69.1603C116.71 68.9195 116.857 68.7939 117.097 68.7939V68.3439C117.212 68.166 117.307 67.9881 117.369 67.7997C117.432 67.6218 117.516 67.4334 117.642 67.2555C117.642 67.0775 117.673 66.9833 117.736 66.9833C118.039 66.8682 118.154 66.6798 118.102 66.4391C118.217 66.1356 118.374 65.8635 118.552 65.6228C118.73 65.3821 118.876 65.1099 119.002 64.8064C119.117 64.5657 119.285 64.3983 119.494 64.3145C119.703 64.2203 119.839 64.032 119.902 63.7284C119.965 63.6133 120.017 63.4773 120.08 63.3203C120.143 63.1633 120.195 63.0377 120.258 62.9121C120.499 62.5458 120.624 62.2841 120.624 62.0958C120.687 61.9178 120.771 61.7922 120.896 61.7399C121.012 61.6771 121.106 61.562 121.169 61.3736C121.169 61.0178 121.346 60.6515 121.713 60.2956C122.069 59.9398 122.226 59.6049 122.163 59.3014C122.163 58.9978 122.341 58.7257 122.707 58.485C122.948 58.3071 123.126 58.0978 123.251 57.8571C123.377 57.6163 123.492 57.3756 123.618 57.1349C123.733 56.8314 123.89 56.5488 124.068 56.2767C124.246 56.0046 124.518 55.8057 124.884 55.6906C124.758 55.4499 124.79 55.2406 124.978 55.0627C125.282 54.7068 125.564 54.33 125.836 53.9323C126.108 53.5451 126.391 53.1683 126.694 52.802C127.05 52.3206 127.322 51.9857 127.511 51.8077C127.574 51.745 127.689 51.7136 127.877 51.7136C127.814 52.0171 127.783 52.2892 127.783 52.5299C127.783 52.7706 127.72 53.0113 127.605 53.252C127.49 53.5556 127.364 53.8591 127.249 54.1521C127.124 54.4556 127.04 54.7801 126.977 55.1464C126.914 55.3871 126.883 55.6173 126.883 55.8267C126.883 56.036 126.852 56.2662 126.789 56.5069C126.663 56.5697 126.579 56.6325 126.517 56.6849C126.454 56.7477 126.37 56.8105 126.244 56.8628C126.307 57.0407 126.339 57.2605 126.339 57.4907C126.224 57.6163 126.129 57.6896 126.067 57.721C126.004 57.7524 125.941 57.7943 125.889 57.8571C125.889 57.9826 125.899 58.0664 125.931 58.1292C125.962 58.192 125.972 58.2548 125.972 58.3071C125.732 58.7257 125.617 59.27 125.617 59.9293C125.617 60.2328 125.47 60.5363 125.167 60.8294C125.282 61.0073 125.313 61.1329 125.261 61.1852C125.261 61.5515 125.229 61.8132 125.167 62.0016C125.104 62.2423 125.093 62.4725 125.125 62.6818C125.156 62.8912 125.104 63.09 124.989 63.2679C124.926 63.5715 124.894 63.9587 124.894 64.4401C124.894 64.5657 124.926 64.6808 124.989 64.8064C125.051 64.9216 125.051 65.0471 124.989 65.1623C124.926 65.2879 124.957 65.3925 125.083 65.4763C125.198 65.5704 125.198 65.7065 125.083 65.8844C125.198 66.0623 125.292 66.2717 125.355 66.5124C125.418 66.7531 125.627 66.8996 125.983 66.9624C125.742 67.381 125.805 67.7788 126.161 68.1346C126.276 68.1974 126.401 68.3439 126.517 68.5846C126.695 68.9405 126.988 69.244 127.375 69.4847C127.762 69.7254 128.17 69.8196 128.599 69.7568C128.777 69.694 128.976 69.6835 129.185 69.7149C129.395 69.7463 129.562 69.6731 129.677 69.4847H130.222C130.818 69.3068 131.634 68.8567 132.66 68.1346C132.838 68.0195 133.037 67.8625 133.246 67.6846C133.455 67.5066 133.686 67.3287 133.926 67.1403C134.042 67.0252 134.178 66.8996 134.335 66.774C134.481 66.6589 134.617 66.5333 134.743 66.4182C134.921 66.3031 135.088 66.1461 135.235 65.9681C135.381 65.7902 135.549 65.6332 135.727 65.5181C136.03 65.2146 136.313 64.9216 136.585 64.618C136.857 64.3145 137.14 64.0215 137.443 63.718C137.558 63.6029 137.673 63.4773 137.757 63.3621C137.851 63.247 137.956 63.1214 138.071 63.0063L138.793 62.2841C139.034 62.0434 139.243 61.8027 139.421 61.562C139.725 61.1434 140.018 60.7457 140.321 60.3898C140.625 60.0235 140.897 59.6677 141.138 59.3118C141.441 58.8304 141.692 58.4641 141.902 58.2234C142.111 57.9826 142.278 57.7105 142.393 57.407C142.456 57.2919 142.571 57.1977 142.76 57.1349C142.938 57.0721 143.063 56.9884 143.116 56.8628C143.293 56.6221 143.367 56.3395 143.346 56.0046C143.314 55.6801 143.356 55.3557 143.482 55.0522C143.545 54.9371 143.66 54.7801 143.838 54.6022C144.016 54.4242 144.141 54.2777 144.194 54.1521C144.309 53.9742 144.33 53.7439 144.235 53.4718C144.141 53.1997 144.162 52.9485 144.277 52.7078C144.696 52.2892 144.968 51.9857 145.094 51.8077L145.146 51.7031ZM98.9284 48.1761C98.9912 48.2389 99.0435 48.2703 99.1063 48.2703C99.0435 48.3331 99.0122 48.3749 99.0122 48.4063C99.0122 48.4377 98.9807 48.4796 98.918 48.5424C98.918 48.4796 98.9075 48.4482 98.8761 48.4482C98.8447 48.4482 98.8342 48.4168 98.8342 48.354L98.9284 48.1761ZM102.183 62.2632L102.089 62.169C102.089 62.1062 102.1 62.0748 102.131 62.0748C102.162 62.0748 102.173 62.0434 102.173 61.9806C102.236 62.0434 102.267 62.1062 102.267 62.1586L102.173 62.2527L102.183 62.2632ZM103.533 52.8753C103.408 53.2311 103.261 53.5974 103.083 53.9533C102.968 54.194 102.822 54.4033 102.675 54.5812C102.529 54.7591 102.393 54.9685 102.267 55.2092C102.141 55.4499 102.026 55.6801 101.901 55.8895C101.786 56.0988 101.597 56.2976 101.357 56.4756C101.231 56.7163 101.147 56.9256 101.084 57.1035C100.959 57.407 100.802 57.6896 100.593 57.9617C100.383 58.2338 100.216 58.5164 100.101 58.8199C100.038 58.9455 99.9646 59.0816 99.8704 59.2281C99.7762 59.3746 99.6715 59.5107 99.5564 59.6363C99.0749 60.2433 98.6354 60.8398 98.2481 61.4364C97.8504 62.0434 97.4527 62.64 97.0236 63.2365C96.898 63.3621 96.7934 63.4982 96.7097 63.6447C96.6155 63.7912 96.5108 63.9273 96.3957 64.0529C96.0922 64.4715 95.7886 64.9006 95.4956 65.3193C95.1921 65.7379 94.899 66.167 94.5955 66.5856L94.4176 66.7636C94.1769 67.0043 94.0304 67.1822 93.9676 67.3078C93.8525 67.4334 93.7687 67.5171 93.7373 67.5799C93.7059 67.6427 93.6327 67.7055 93.5071 67.7578C92.9629 68.3021 92.3977 68.7835 91.7907 69.2021C91.6755 69.3277 91.372 69.5056 90.8906 69.7464C91.0162 69.4428 90.9848 69.1707 90.7964 68.93C90.6185 68.6893 90.6499 68.4172 90.8906 68.1137C90.7964 67.8834 90.7441 67.6636 90.7545 67.4543C90.9115 67.1822 91.058 66.9205 91.2046 66.6694C91.4139 66.3135 91.6127 65.9158 91.7907 65.4972C91.9686 65.1937 92.157 64.8797 92.3349 64.5448C92.5128 64.2203 92.6593 63.8959 92.7849 63.5924C92.9629 63.2889 93.1408 62.9958 93.3292 62.6923C93.5071 62.3888 93.685 62.0958 93.8734 61.7922C93.9885 61.5515 94.0827 61.3317 94.1455 61.112C94.2083 60.9026 94.3234 60.7352 94.5014 60.6201C94.6165 60.5049 94.7002 60.3793 94.7316 60.2642C94.763 60.1491 94.8048 60.0235 94.8676 59.8979C94.9828 59.7828 95.0455 59.6677 95.0455 59.5839C95.0455 59.5002 95.1084 59.3851 95.2235 59.27C95.4014 59.2072 95.4956 58.9664 95.4956 58.5478C95.6107 58.3699 95.7363 58.0978 95.8619 57.7315C95.977 57.4907 96.0398 57.2814 96.0398 57.1035C96.3957 56.8628 96.6364 56.6535 96.762 56.4756C96.8771 56.2348 96.9922 55.9941 97.0759 55.7534C97.1701 55.5127 97.2748 55.272 97.3899 55.0313C97.4527 54.8847 97.5155 54.7382 97.5888 54.5917C97.6097 54.5603 97.6306 54.5184 97.662 54.487C97.8399 54.3719 98.1121 54.1312 98.4784 53.7649C98.5935 53.6498 98.6877 53.5346 98.7505 53.4509C98.8133 53.3567 98.9284 53.252 99.1168 53.1369C99.2319 53.0741 99.347 52.9904 99.4308 52.8648C99.525 52.7497 99.6296 52.6241 99.7447 52.4985C99.9855 52.3206 100.226 52.1531 100.467 52.0066C100.708 51.8601 100.98 51.6612 101.283 51.4205L102.1 50.8763C102.34 50.7612 102.518 50.6984 102.644 50.6984C103.062 50.6984 103.324 50.7402 103.408 50.8344C103.502 50.9286 103.575 51.1798 103.638 51.5984C103.701 52.0799 103.669 52.4985 103.544 52.8648L103.533 52.8753Z" fill="white"/>
</svg>
