<svg width="139" height="82" viewBox="0 0 139 82" fill="none" xmlns="http://www.w3.org/2000/svg">
<path d="M45.5299 34.7381C45.6399 34.6281 45.7599 34.5081 45.8799 34.3881C45.9899 34.2781 46.0198 34.0981 45.9698 33.8681C45.9098 33.6381 45.9098 33.4381 45.9698 33.2681C46.0298 33.0981 46.0799 32.8981 46.1399 32.6681C46.1399 32.4381 46.1099 32.2381 46.0499 32.0681C46.2199 31.8981 46.3099 31.8381 46.3099 31.8981C46.1899 31.7281 46.2199 31.5681 46.3999 31.4281C46.5699 31.2881 46.6299 31.0981 46.5699 30.8681C46.5699 30.5781 46.6299 30.2081 46.7399 29.7481C46.6799 29.6881 46.6799 29.6581 46.7399 29.6581C46.9699 29.4881 47.0699 29.2881 47.0399 29.0581C47.0099 28.8281 47.0299 28.5981 47.0799 28.3681C47.1399 28.2581 47.1699 27.9981 47.1699 27.5881L47.6899 27.2381C47.5199 26.9481 47.5199 26.7181 47.6899 26.5481C47.7999 26.4381 47.8499 26.3081 47.8199 26.1581C47.7899 26.0181 47.7799 25.8581 47.7799 25.6881C47.8899 25.2881 48.0399 25.0281 48.2099 24.9081C48.1499 24.7981 48.0699 24.6781 47.9499 24.5581L48.2999 24.2081C48.1799 23.7481 48.2099 23.2981 48.3899 22.8681C48.5599 22.4381 48.6799 21.9881 48.7399 21.5281C48.8499 21.4681 48.9599 21.4181 49.0399 21.3581C49.1299 21.2981 49.2299 21.2181 49.3399 21.0981C49.2199 21.0381 49.1199 20.9881 49.0399 20.9281C48.9499 20.8681 48.8499 20.8181 48.7399 20.7581C48.8499 20.6481 48.9699 20.5681 49.0899 20.5381C49.1999 20.5081 49.1999 20.4081 49.0899 20.2381C49.0899 20.1781 49.1199 20.1281 49.1799 20.0681C49.2399 20.0081 49.2699 19.9281 49.2699 19.8081C49.2699 19.7481 49.2799 19.6781 49.3099 19.5881C49.3399 19.4981 49.3499 19.4281 49.3499 19.3681C49.2299 19.0781 49.2299 18.8681 49.3499 18.7181C49.4599 18.5781 49.5799 18.4481 49.6999 18.3281C49.6999 18.2181 49.7099 18.1081 49.7399 18.0281C49.7699 17.9381 49.7799 17.8381 49.7799 17.7281C49.7799 17.4381 49.8199 17.2081 49.9099 17.0381C49.9999 16.8681 50.0399 16.6381 50.0399 16.3481C50.0399 16.2381 50.0799 16.1081 50.1699 15.9581C50.2599 15.8181 50.2399 15.6581 50.1299 15.4881C50.1299 15.4281 50.1899 15.1981 50.2999 14.7981L50.4698 14.6281C50.5798 14.5181 50.6699 14.3981 50.7299 14.2881C50.7899 14.1781 50.7899 13.9981 50.7299 13.7681C50.6699 13.4781 50.7599 13.1081 50.9899 12.6481C50.9899 12.5381 50.9999 12.4581 51.0299 12.4281C51.0599 12.3981 51.0699 12.3581 51.0699 12.2981C51.0099 11.8981 51.0599 11.5381 51.1999 11.2181C51.3399 10.8981 51.3899 10.5381 51.3299 10.1381C51.3899 10.0781 51.4199 10.0281 51.4199 9.96813C51.5899 9.73813 51.6799 9.44812 51.6799 9.10812C51.6799 8.99812 51.7199 8.84813 51.8099 8.67813C51.8999 8.50813 51.9399 8.33812 51.9399 8.15812V7.81813C51.8799 7.75813 51.8199 7.72813 51.7699 7.72813C51.7699 7.84813 51.7099 7.95813 51.5999 8.06813C51.4799 8.46813 51.3099 8.72813 51.0799 8.84813C50.9099 9.01813 50.7899 9.16812 50.7299 9.27812C50.6699 9.50812 50.5699 9.70813 50.4299 9.87813C50.2899 10.0481 50.1599 10.2281 50.0399 10.3981C49.8699 10.6281 49.6699 11.0281 49.4399 11.6081C49.3199 11.7781 49.2399 11.9681 49.1799 12.1681C49.1199 12.3681 49.0399 12.5581 48.9199 12.7281C48.7499 13.0181 48.5599 13.3081 48.3599 13.5881C48.1599 13.8781 47.9699 14.1681 47.7999 14.4481C47.6799 14.5681 47.6299 14.6781 47.6299 14.7981C47.5099 15.0281 47.4299 15.2681 47.3699 15.5281C47.3099 15.7881 47.2299 15.9981 47.1099 16.1781C46.8199 16.5281 46.6099 16.8981 46.4599 17.2981C46.3199 17.6981 46.1299 18.0781 45.8999 18.4181C45.7299 18.7081 45.5798 18.9781 45.4698 19.2381C45.3498 19.4981 45.2399 19.7981 45.1199 20.1481C45.0599 20.3181 44.9799 20.4881 44.8599 20.6681C44.7399 20.8381 44.6299 21.0681 44.5099 21.3581C44.4499 21.4781 44.4199 21.6281 44.4199 21.8281C44.4199 22.0281 44.3599 22.1881 44.2499 22.2981C44.0799 22.4681 43.9599 22.6581 43.8999 22.8581C43.8399 23.0581 43.7599 23.2781 43.6399 23.5081C43.5199 23.8581 43.3799 24.1881 43.2099 24.4981C43.0399 24.8181 42.8899 25.1181 42.7799 25.4081L42.2599 26.9581C42.1999 27.0181 42.1699 27.1581 42.1699 27.3881C42.0499 27.5081 41.9399 27.5581 41.8199 27.5581L41.7299 27.6481V27.8181C41.5599 28.2181 41.4399 28.6381 41.3799 29.0681C41.3199 29.4981 41.1499 29.9181 40.8599 30.3181L40.7699 30.4081C40.8799 30.6981 40.8599 30.8381 40.6799 30.8381H40.2499C40.4799 31.2381 40.4799 31.5581 40.2499 31.7881C40.1899 31.9081 40.1599 32.0481 40.1599 32.2181C40.0399 32.9681 39.8399 33.5681 39.5599 34.0281C39.4999 34.0281 39.4698 34.1481 39.4698 34.3681C39.4098 34.4881 39.3499 34.5881 39.2999 34.6681C39.2399 34.7581 39.1799 34.8581 39.1299 34.9681C39.0099 35.1981 38.9399 35.3981 38.9099 35.5681C38.8799 35.7381 38.8099 35.9381 38.6899 36.1681C38.6299 36.2881 38.5999 36.3881 38.5999 36.4681C38.5999 36.5481 38.5699 36.6581 38.5099 36.7681V36.8581C38.2799 37.1481 38.1599 37.4781 38.1599 37.8481C38.1599 38.2181 38.0199 38.5481 37.7299 38.8381C37.6099 38.9581 37.5599 39.0881 37.5599 39.2281C37.5599 39.3681 37.5298 39.4981 37.4698 39.6181C37.3498 39.9081 37.2699 40.1781 37.2099 40.4381C37.1499 40.6981 37.0699 40.9681 36.9499 41.2581C36.9499 41.3181 36.9399 41.3781 36.9099 41.4281C36.8799 41.4881 36.8699 41.5481 36.8699 41.5981C36.8099 41.7681 36.7799 41.9381 36.7799 42.1181C36.7799 42.2981 36.7199 42.4381 36.6099 42.5481C36.4899 42.7781 36.4199 43.0181 36.3899 43.2781C36.3599 43.5381 36.2899 43.7781 36.1699 44.0081C36.0499 44.2381 35.9699 44.3781 35.9099 44.4381C35.8499 44.7281 35.7899 44.9881 35.7399 45.2181C35.6799 45.4481 35.6199 45.7081 35.5699 45.9981C35.5699 46.1181 35.5399 46.1681 35.4799 46.1681C35.1899 46.6281 34.9899 47.2081 34.8799 47.8981C34.8199 48.0181 34.7599 48.1281 34.7099 48.2481C34.6499 48.3681 34.5899 48.4781 34.5399 48.5881C34.4799 48.8781 34.4199 49.1381 34.3699 49.3681C34.3099 49.5981 34.2499 49.8281 34.1999 50.0581L33.4199 52.6481C33.2999 53.1081 33.1299 53.5281 32.8999 53.8981C32.6699 54.2681 32.4999 54.6881 32.3799 55.1481L31.8599 56.6981C31.6899 56.9881 31.5399 57.2581 31.4299 57.5181C31.3099 57.7781 31.1399 58.0481 30.9099 58.3381C30.7899 58.4581 30.6899 58.5681 30.6099 58.6781C30.5199 58.7981 30.4799 58.9681 30.4799 59.1981C30.3599 59.4881 30.1899 59.7481 29.9599 59.9781C29.7299 60.2681 29.5099 60.5281 29.3099 60.7581C29.1099 60.9881 28.8599 61.2181 28.5799 61.4481C28.4099 61.5681 28.2199 61.6781 28.0199 61.7981C27.8199 61.9181 27.5699 62.0281 27.2899 62.1381C27.2899 62.0281 27.2299 61.8481 27.1199 61.6181H27.0299C26.9099 61.8481 26.6299 61.9681 26.1699 61.9681C25.9399 61.9081 25.7399 61.8981 25.5699 61.9281C25.3999 61.9581 25.1999 61.9381 24.9699 61.8881C24.9699 61.5981 24.8499 61.3981 24.6199 61.2881C24.2699 61.1781 23.9699 61.0181 23.7099 60.8181C23.4499 60.6181 23.2099 60.3781 22.9799 60.0881C22.9199 60.0281 22.8799 59.9781 22.8499 59.9181C22.8199 59.8581 22.7799 59.8081 22.7199 59.7481C22.6599 59.6381 22.6499 59.5181 22.6799 59.3981C22.7099 59.2881 22.6399 59.1981 22.4599 59.1381V58.9681C22.5699 58.6181 22.5199 58.2881 22.2899 57.9781C22.0599 57.6581 21.9199 57.3581 21.8599 57.0681L21.7699 56.9781C21.8799 56.7481 21.9099 56.5381 21.8599 56.3281C21.7999 56.1281 21.7699 55.9081 21.7699 55.6781V54.5581C21.7699 54.4981 21.7399 54.4681 21.6799 54.4681C21.5599 54.4681 21.5099 54.4381 21.5099 54.3781C21.5699 54.2681 21.6399 54.1581 21.7299 54.0781C21.8199 53.9881 21.7699 53.8881 21.5999 53.7781V53.6081C21.7099 53.3181 21.7699 53.0081 21.7699 52.6581C21.7699 52.3081 21.7999 51.9981 21.8599 51.7081C21.9699 51.4181 22.0199 51.0881 21.9899 50.7181C21.9599 50.3481 21.9499 49.9881 21.9499 49.6381C21.9499 49.5281 22.0399 49.4681 22.2099 49.4681C22.0399 49.2981 21.9499 49.1781 21.9499 49.1181C22.0599 48.8281 22.1099 48.5581 22.0799 48.2981C22.0499 48.0381 22.0899 47.7981 22.2099 47.5681C22.3199 47.4581 22.3199 47.3381 22.2099 47.2181C22.0899 47.1081 22.0899 46.9881 22.2099 46.8681C22.3199 46.7581 22.3699 46.6381 22.3399 46.5281C22.3099 46.4181 22.2999 46.2981 22.2999 46.1781C22.2999 46.0581 22.3099 45.9781 22.3399 45.9181C22.3699 45.8581 22.3799 45.8081 22.3799 45.7481C22.3799 45.6881 22.4099 45.6481 22.4699 45.6181C22.5299 45.5881 22.5299 45.5481 22.4699 45.4881C22.2999 45.3181 22.2699 45.1581 22.3799 45.0181C22.4899 44.8781 22.5499 44.7181 22.5499 44.5481C22.5499 44.3781 22.5799 44.1981 22.6399 44.0281C22.6999 43.8581 22.7499 43.6781 22.8099 43.5081C22.8099 43.3381 22.8399 43.2181 22.8999 43.1581V42.5981C22.8999 42.3981 22.9599 42.2081 23.0699 42.0381L23.1599 41.9481C23.0399 41.7781 23.0299 41.6181 23.1199 41.4781C23.2099 41.3381 23.2199 41.2081 23.1599 41.0881C23.0999 40.7981 23.1299 40.5281 23.2499 40.2681C23.3599 40.0081 23.4799 39.7381 23.5999 39.4481V39.0181C23.5999 38.9081 23.6099 38.8181 23.6399 38.7581C23.6699 38.6981 23.6799 38.6181 23.6799 38.4981C23.7399 38.3881 23.7699 38.2581 23.7699 38.1081C23.7699 37.9581 23.7999 37.8381 23.8599 37.7181C23.9199 37.6081 23.9599 37.4781 23.9899 37.3281C24.0199 37.1881 23.9799 37.0281 23.8599 36.8581L23.9499 36.7681C24.0099 36.5981 24.0599 36.4181 24.1199 36.2481C24.1799 36.0781 24.2099 35.8981 24.2099 35.7281C24.2699 35.4381 24.3199 35.1681 24.3799 34.9081C24.4399 34.6481 24.4899 34.3781 24.5499 34.0881C24.6599 33.6881 24.7699 33.2981 24.8499 32.9281C24.9399 32.5581 25.0099 32.1681 25.0699 31.7681C25.1799 31.1981 25.3599 30.6481 25.5899 30.1281C25.7599 30.1281 25.7899 30.0681 25.6799 29.9581C25.5599 29.6681 25.5599 29.3681 25.6799 29.0481C25.7899 28.7281 25.8799 28.4281 25.9399 28.1381C25.9399 27.9681 25.9799 27.8081 26.0699 27.6681C26.1599 27.5281 26.1699 27.3681 26.1099 27.1981L26.3699 26.9381C26.3099 26.5381 26.3699 26.1081 26.5399 25.6481C26.6499 25.1881 26.7099 24.8181 26.7099 24.5281C26.8199 24.2381 26.9099 24.0981 26.9699 24.0981C27.1399 23.9881 27.1099 23.7581 26.8799 23.4081C27.1099 23.2981 27.2299 23.1481 27.2299 22.9781C27.2299 22.8081 27.2599 22.6381 27.3199 22.4581C27.3199 22.3481 27.3099 22.2681 27.2799 22.2381C27.2499 22.2081 27.2699 22.1381 27.3199 22.0181C27.3799 21.9581 27.4099 21.9081 27.4099 21.8481C27.4099 21.7881 27.4399 21.7081 27.4999 21.5881V21.3281C27.5599 21.3281 27.5899 21.2381 27.5899 21.0681C27.6999 20.7281 27.7899 20.3881 27.8499 20.0781C27.9099 19.7581 27.9899 19.4581 28.1099 19.1681C28.2199 18.8781 28.3099 18.6181 28.3699 18.3881C28.4299 18.1581 28.5099 17.9281 28.6299 17.6981C28.5099 17.4681 28.5099 17.2581 28.6299 17.0481C28.7399 16.8481 28.7699 16.6281 28.7199 16.3981H28.3699C28.2499 16.5681 28.0999 16.7181 27.8999 16.8281C27.6999 16.9481 27.5399 17.1481 27.4299 17.4281C27.2599 17.8281 27.0799 18.2181 26.9099 18.5881C26.7399 18.9581 26.5099 19.3181 26.2199 19.6681C26.0999 19.7881 25.9999 19.9381 25.9199 20.1381C25.8299 20.3381 25.7299 20.5281 25.6199 20.6981C25.4999 21.0381 25.3599 21.3781 25.1899 21.6881C25.0199 22.0081 24.8399 22.3081 24.6699 22.5981C24.5499 22.8881 24.4499 23.1481 24.3699 23.3781C24.2799 23.6081 24.1199 23.8381 23.8999 24.0681C23.7799 24.1881 23.7099 24.3581 23.6799 24.5881C23.6499 24.8181 23.5799 25.0481 23.4599 25.2781L23.1999 25.7981C23.0799 26.0881 22.9699 26.3481 22.8499 26.5781C22.7299 26.8081 22.6499 27.0681 22.5899 27.3581C22.5899 27.5881 22.4699 27.7581 22.2399 27.8781C22.0099 28.0481 21.8899 28.2181 21.8899 28.3981C21.8899 28.6281 21.8599 28.8181 21.7999 28.9581C21.7399 29.0981 21.6799 29.2581 21.6299 29.4281C21.5099 29.6581 21.4299 29.8881 21.3699 30.1181C21.3099 30.3481 21.2299 30.5781 21.1099 30.8081C20.9899 31.0981 20.9099 31.3581 20.8499 31.5881C20.7899 31.8181 20.6799 32.0481 20.4999 32.2781C20.2099 32.7981 20.0399 33.3181 19.9799 33.8281C19.8599 34.3481 19.6599 34.7181 19.3799 34.9481L19.2899 35.0381C19.3999 35.3781 19.3799 35.6681 19.1999 35.8981C19.0299 36.1281 18.8799 36.3881 18.7699 36.6781C18.7099 36.7381 18.6799 36.8181 18.6799 36.9381C18.6799 37.3381 18.5399 37.7681 18.2499 38.2281C18.1899 38.2881 18.1599 38.3481 18.1599 38.3981C18.2699 38.6881 18.2599 38.9281 18.1199 39.1281C17.9799 39.3281 17.8699 39.5481 17.8199 39.7781C17.8199 39.8981 17.7899 39.9981 17.7299 40.0781C17.6699 40.1681 17.6399 40.2681 17.6399 40.3781C17.5199 40.7181 17.3499 40.9281 17.1199 40.9781C17.2299 41.2081 17.2299 41.5581 17.1199 42.0081C16.9499 42.4081 16.7999 42.8181 16.6899 43.2181C16.5699 43.6181 16.4599 44.0281 16.3399 44.4281C16.3399 44.5981 16.3099 44.6881 16.2499 44.6881C16.1299 45.0881 16.0199 45.5781 15.8999 46.1581C15.8999 46.2781 15.8699 46.4081 15.8099 46.5481C15.7499 46.6881 15.6899 46.8481 15.6399 47.0181C15.5199 47.1881 15.4699 47.3581 15.4699 47.5381V47.9681C15.3499 48.1981 15.2699 48.3881 15.2099 48.5281C15.1499 48.6681 15.0899 48.7981 15.0399 48.9181C14.9799 49.0381 14.9499 49.1181 14.9499 49.1781C14.9499 49.2381 14.9199 49.3181 14.8599 49.4381C14.7999 49.6081 14.7399 49.7781 14.6899 49.9581C14.6299 50.1281 14.5999 50.3281 14.5999 50.5581C14.5399 50.6781 14.5399 50.8081 14.5999 50.9481C14.6599 51.0881 14.5399 51.1981 14.2499 51.2481C14.3099 51.3681 14.3099 51.4781 14.2499 51.5881C14.1899 51.7081 14.1299 51.8181 14.0799 51.9381C13.9599 52.2281 13.9099 52.4981 13.9099 52.7581C13.9099 53.0181 13.8499 53.2881 13.7399 53.5781C13.6799 53.8081 13.6399 54.0081 13.6099 54.1781C13.5799 54.3481 13.5399 54.5481 13.4799 54.7781C13.4199 55.1181 13.3399 55.4581 13.2199 55.7681C13.0999 56.0881 13.0199 56.4181 12.9599 56.7581C12.8399 57.3381 12.7299 57.7681 12.6099 58.0481C12.4899 58.2781 12.4099 58.4981 12.3499 58.6981C12.2899 58.8981 12.2299 59.1481 12.1799 59.4281C12.1199 59.9481 11.9799 60.5781 11.7499 61.3281L11.2299 63.6581C11.1099 63.9481 11.0099 64.2481 10.9299 64.5681C10.8399 64.8881 10.7399 65.1881 10.6299 65.4781C10.5099 65.7081 10.4299 65.9281 10.3699 66.1281C10.3099 66.3281 10.2299 66.5481 10.1099 66.7781C10.0499 66.8981 9.98988 66.9781 9.93988 67.0381C9.87988 67.0981 9.8199 67.1781 9.7699 67.2981C9.8799 67.5281 9.90987 67.7481 9.85987 67.9481C9.79987 68.1481 9.73988 68.3681 9.68988 68.5981C9.56988 69.0581 9.42989 69.5181 9.25989 69.9781C9.08989 70.4381 8.90987 70.8981 8.73987 71.3581V71.5281C8.50987 71.5881 8.38989 71.6981 8.38989 71.8681C8.38989 72.0381 8.32985 72.1881 8.21985 72.2981C8.09985 72.3581 8.07988 72.4581 8.12988 72.5981C8.18988 72.7381 8.15986 72.8681 8.03986 72.9881C7.91986 73.1081 7.84989 73.2481 7.81989 73.4181C7.78989 73.5881 7.71985 73.7381 7.59985 73.8481C7.53985 73.9681 7.49985 74.0681 7.46985 74.1481C7.43985 74.2381 7.39991 74.3381 7.33991 74.4481C7.04991 75.0781 6.70987 75.5981 6.29987 75.9981C6.23987 75.9981 6.2099 76.0281 6.2099 76.0881C6.0899 76.1981 5.98985 76.3281 5.90985 76.4781C5.81985 76.6181 5.71986 76.6981 5.60986 76.6981C5.20986 76.8081 4.97986 76.9581 4.91986 77.1281C4.74986 77.1281 4.5699 77.0981 4.3999 77.0381C4.2299 76.9781 4.07985 77.0381 3.96985 77.2081C3.84985 77.1481 3.7699 77.1681 3.7099 77.2481C3.6499 77.3381 3.56989 77.3481 3.44989 77.2881C3.32989 77.1681 3.21986 77.1481 3.09986 77.1981C2.97986 77.2581 2.86988 77.2581 2.74988 77.1981C2.62988 77.1381 2.54987 77.0781 2.48987 77.0281C2.42987 76.9681 2.34986 76.9081 2.22986 76.8581C2.10986 76.7381 1.99988 76.6581 1.87988 76.5981C1.75988 76.5381 1.64991 76.4781 1.52991 76.4281C1.23991 76.1381 1.23991 75.8481 1.52991 75.5681C1.40991 75.5081 1.29987 75.4781 1.17987 75.4781C1.05987 75.4781 0.949897 75.4481 0.829897 75.3881C0.479897 74.1281 0.339904 72.8881 0.399904 71.6781C0.399904 71.5081 0.389865 71.3181 0.359865 71.1181C0.329865 70.9181 0.319887 70.7281 0.319887 70.5581C0.259887 70.2681 0.219882 70.0081 0.189882 69.7781C0.159882 69.5481 0.17986 69.2881 0.22986 68.9981C0.28986 68.7081 0.319887 68.2781 0.319887 67.7081C0.319887 66.4981 0.409897 65.2881 0.579897 64.0881C0.639897 63.6881 0.669862 63.3081 0.669862 62.9681C0.669862 62.6281 0.699889 62.2481 0.759889 61.8481C0.759889 61.7881 0.819872 61.6481 0.929872 61.4181C0.989872 61.3581 1.0199 61.3081 1.0199 61.2481C0.899899 60.7881 0.88986 60.3181 0.97986 59.8281C1.06986 59.3381 1.10986 58.8681 1.10986 58.4081C1.04986 58.0581 1.10991 57.6881 1.27991 57.2881C1.44991 56.9981 1.53986 56.6881 1.53986 56.3381V53.4881C1.64986 53.3781 1.72989 53.1881 1.75989 52.9281C1.78989 52.6681 1.79987 52.4581 1.79987 52.2781V51.9281C1.79987 51.8181 1.82989 51.6981 1.88989 51.5781C1.99989 51.1181 2.05988 50.6581 2.05988 50.1981C2.05988 49.7381 2.11986 49.2781 2.22986 48.8181C2.33986 48.3581 2.41989 47.9081 2.44989 47.4781C2.47989 47.0481 2.54986 46.6281 2.66986 46.2281C2.72986 46.2281 2.76987 46.2181 2.79987 46.1881C2.82987 46.1581 2.8999 46.1481 3.0199 46.1481C2.6699 45.9781 2.61986 45.6581 2.84986 45.1981C2.95986 45.0881 2.98988 44.9381 2.93988 44.7681C2.87988 44.5981 2.87988 44.4481 2.93988 44.3381C2.99988 43.9981 3.02991 43.6481 3.02991 43.3081C3.02991 42.9681 3.05987 42.6181 3.11987 42.2681C3.17987 41.9781 3.22986 41.7381 3.28986 41.5381C3.34986 41.3381 3.3999 41.0981 3.4599 40.8081C3.5199 40.6381 3.54987 40.4481 3.54987 40.2481C3.54987 40.0481 3.57989 39.8581 3.63989 39.6881C3.69989 39.3481 3.7399 38.9881 3.7699 38.6081C3.7999 38.2381 3.8399 37.8781 3.8999 37.5281C3.9599 37.3581 3.96988 37.1781 3.93988 37.0081C3.90988 36.8381 3.8999 36.6881 3.8999 36.5781V36.4081C4.1299 36.2981 4.19987 36.1481 4.11987 35.9781C4.02987 35.8081 4.04985 35.6581 4.15985 35.5481C4.26985 35.3781 4.31986 35.1981 4.28986 35.0281C4.25986 34.8581 4.2799 34.6781 4.3299 34.5081C4.3299 34.0481 4.35986 33.7281 4.41986 33.5581C4.52986 33.2681 4.60989 32.9981 4.63989 32.7381C4.66989 32.4781 4.73986 32.2081 4.85986 31.9181C4.91986 31.8581 4.91986 31.8081 4.85986 31.7481C4.73986 31.4581 4.72989 31.1981 4.81989 30.9681C4.90989 30.7381 4.97986 30.5081 5.03986 30.2781C5.09986 29.9281 5.1499 29.5881 5.2099 29.2381C5.2699 28.8881 5.29987 28.5481 5.29987 28.1981C5.29987 28.0281 5.32989 27.8581 5.38989 27.6781C5.44989 27.5081 5.49988 27.3381 5.55988 27.1581L5.81989 25.3481C5.81989 25.0581 5.87987 24.7481 5.98987 24.3981C5.98987 24.1681 6.0199 23.9681 6.0799 23.7981C6.1399 23.6281 6.1399 23.4281 6.0799 23.1981C6.0799 23.0881 6.10986 22.9581 6.16986 22.8081C6.22986 22.6681 6.27991 22.5381 6.33991 22.4181C6.44991 22.1881 6.47987 21.9581 6.42987 21.7281C6.36987 21.4981 6.42985 21.2981 6.59985 21.1281C6.59985 20.9581 6.53987 20.8681 6.42987 20.8681C6.65987 20.2981 6.79986 19.8581 6.85986 19.5781C6.91986 19.4081 6.9899 19.2281 7.0799 19.0581C7.1699 18.8881 7.14986 18.6581 7.03986 18.3681C6.97986 18.2581 6.9999 18.1281 7.0799 17.9781C7.1699 17.8381 7.23987 17.6781 7.29987 17.5081C7.35987 17.1081 7.4299 16.7181 7.5199 16.3481C7.6099 15.9781 7.70989 15.5881 7.81989 15.1881C7.87989 15.0781 7.90985 14.9681 7.90985 14.8881C7.90985 14.8081 7.93988 14.6981 7.99988 14.5881C8.05988 14.3581 8.09988 14.1281 8.12988 13.8981C8.15988 13.6681 8.22986 13.4681 8.34986 13.2981C8.45986 13.0081 8.58987 12.7781 8.73987 12.6081C8.87987 12.4381 9.0399 12.2581 9.2099 12.0881C9.3199 12.1481 9.43988 12.2181 9.55988 12.3081C9.66988 12.3981 9.78985 12.3181 9.90985 12.0881C9.96985 12.0881 10.0099 12.0981 10.0399 12.1281C10.0699 12.1581 10.1399 12.1681 10.2599 12.1681C11.0599 12.3381 11.5499 12.8881 11.7299 13.8081C11.7899 13.8681 11.8199 13.9481 11.8199 14.0681C11.6999 14.4181 11.6999 14.7481 11.8199 15.0581C11.9299 15.3781 11.9899 15.6781 11.9899 15.9681C11.9899 16.0281 12.0499 16.1081 12.1599 16.2281C11.9299 16.5781 11.7299 16.8281 11.5599 17.0081C11.4399 17.1781 11.4699 17.3281 11.6499 17.4381C11.8199 17.5581 11.8499 17.7281 11.7399 17.9581H11.4799C11.1299 17.9581 10.9599 18.0981 10.9599 18.3881C10.8999 18.6181 10.8699 18.8381 10.8699 19.0381C10.8699 19.2381 10.8399 19.4281 10.7799 19.5981C10.7799 19.8281 10.7499 20.0281 10.6899 20.1981C10.6299 20.3681 10.5699 20.5381 10.5199 20.7181C10.4599 21.0081 10.4299 21.2981 10.4299 21.5781C10.4299 21.8581 10.3999 22.1581 10.3399 22.4381C10.3399 22.5581 10.3299 22.6281 10.2999 22.6581C10.2699 22.6881 10.2599 22.7581 10.2599 22.8781C10.0899 23.2281 9.99988 23.5781 9.99988 23.9581V25.2981C9.99988 25.3581 10.0299 25.3881 10.0899 25.3881C9.91991 25.5081 9.8299 25.6581 9.8299 25.8581C9.8299 26.0581 9.79987 26.2181 9.73987 26.3281C9.61987 26.6781 9.53986 27.0181 9.47986 27.3681C9.41986 27.7081 9.41986 28.0581 9.47986 28.4081C9.47986 28.6981 9.44989 28.9281 9.38989 29.0981C9.32989 29.2681 9.26985 29.4381 9.21985 29.6181C9.21985 30.1981 9.18988 30.5981 9.12988 30.8281C9.00988 31.1181 8.9599 31.3781 8.9599 31.6081V32.3881C9.0199 32.5081 9.0199 32.6181 8.9599 32.7381C8.8999 32.8581 8.83986 32.9681 8.78986 33.0781C8.72986 33.2481 8.69989 33.4281 8.69989 33.5981C8.69989 33.7681 8.66987 33.9481 8.60987 34.1181V34.2881C8.48987 34.6881 8.44986 35.1081 8.47986 35.5381C8.50986 35.9681 8.46986 36.3881 8.34986 36.7881C8.28986 37.0781 8.24985 37.3181 8.21985 37.5181C8.18985 37.7181 8.14991 37.9381 8.08991 38.1681C8.02991 38.4581 7.99988 38.7481 7.99988 39.0281C7.99988 39.3081 7.96985 39.6081 7.90985 39.8881C7.84985 40.1181 7.81989 40.3381 7.81989 40.5381C7.81989 40.7381 7.78986 40.9581 7.72986 41.1881C7.72986 41.6481 7.68985 42.1281 7.59985 42.6081C7.50985 43.0981 7.43988 43.5681 7.37988 44.0281C7.37988 44.0881 7.38986 44.1481 7.41986 44.1981C7.44986 44.2581 7.4599 44.3381 7.4599 44.4581C7.2299 44.5781 7.09989 44.7481 7.06989 44.9781C7.03989 45.2081 7.02991 45.4381 7.02991 45.6681V46.5281C7.02991 46.8181 6.96986 47.1081 6.85986 47.3881C6.79986 47.5081 6.78989 47.6381 6.81989 47.7781C6.84989 47.9181 6.85986 48.0481 6.85986 48.1681C6.73986 48.5081 6.69986 48.8581 6.72986 49.1981C6.75986 49.5481 6.73988 49.8881 6.68988 50.2381C6.68988 50.5281 6.65985 50.8281 6.59985 51.1481C6.53985 51.4681 6.47987 51.7681 6.42987 52.0581C6.36987 52.3481 6.30989 52.6181 6.25989 52.8781C6.19989 53.1381 6.19989 53.4081 6.25989 53.6981C6.25989 53.8681 6.22986 54.0481 6.16986 54.2181C6.10986 54.3881 6.04988 54.5581 5.99988 54.7381C5.93988 55.1381 5.89987 55.5481 5.86987 55.9481C5.83987 56.3481 5.8299 56.7781 5.8299 57.2381C5.8299 57.2981 5.81986 57.3281 5.78986 57.3281C5.75986 57.3281 5.74988 57.3581 5.74988 57.4181C5.62988 57.7081 5.58987 58.0081 5.61987 58.3281C5.64987 58.6481 5.60987 58.9481 5.48987 59.2381C5.42987 59.2981 5.48985 59.3781 5.65985 59.4981C5.59985 59.5581 5.56989 59.5981 5.56989 59.6281C5.56989 59.6581 5.53986 59.6981 5.47986 59.7581C5.35986 59.8781 5.30988 60.0781 5.30988 60.3581C5.30988 60.4781 5.3399 60.5881 5.3999 60.7081C5.4599 60.8281 5.48987 60.9081 5.48987 60.9681C5.25987 61.1381 5.2299 61.3381 5.3999 61.5681C5.3999 61.6281 5.36988 61.6881 5.30988 61.7381C5.24988 61.9081 5.21985 62.1381 5.21985 62.4281C5.21985 62.7181 5.20987 62.9781 5.17987 63.2081C5.14987 63.4381 5.13989 63.6681 5.13989 63.8981C5.01989 64.2481 4.99987 64.4981 5.04987 64.6781C5.10987 64.7981 5.10987 64.9381 5.04987 65.1081C4.98987 65.2781 4.9599 65.4281 4.9599 65.5381C4.8999 65.8281 4.86987 66.0981 4.86987 66.3581V67.1781C4.92987 67.4081 4.92987 67.6081 4.86987 67.7781C4.80987 67.9481 4.8399 68.1481 4.9599 68.3781C4.7299 68.4981 4.63989 68.6281 4.69989 68.7681C4.75989 68.9081 4.78986 69.0381 4.78986 69.1581C4.78986 69.2181 4.87987 69.4181 5.04987 69.7581C5.21987 69.2381 5.36986 68.9281 5.47986 68.8081C5.70986 68.2881 5.84985 67.8281 5.90985 67.4281C5.96985 67.1381 6.04986 66.8681 6.16986 66.6081C6.27986 66.3481 6.3999 66.0781 6.5199 65.7881C6.6299 65.6181 6.68988 65.4281 6.68988 65.2281C6.68988 65.0281 6.79986 64.8681 7.03986 64.7581C6.97986 64.4681 6.96988 64.1281 6.99988 63.7281C7.02988 63.3281 7.09985 63.0381 7.21985 62.8681C7.44985 62.6981 7.5499 62.4781 7.5199 62.2181C7.4899 61.9581 7.55987 61.7181 7.73987 61.4881C7.90987 61.1981 8.00986 60.8681 8.03986 60.4981C8.06986 60.1281 8.16991 59.7981 8.33991 59.5081C8.44991 59.3381 8.50989 59.0481 8.50989 58.6481C8.50989 58.4181 8.5999 58.2181 8.7699 58.0481C8.8799 57.9381 8.89988 57.8481 8.80988 57.7881C8.71988 57.7281 8.7099 57.6781 8.7699 57.6181C8.8799 57.5081 8.93988 57.3881 8.93988 57.2781C8.99988 56.9881 9.07989 56.6181 9.19989 56.1581C9.30989 55.9881 9.33986 55.8081 9.28986 55.6381C9.22986 55.4681 9.2899 55.3181 9.4599 55.2081C9.3399 55.0981 9.31987 55.0081 9.36987 54.9481C9.42987 54.8881 9.47986 54.8081 9.53986 54.6881C9.59986 54.5181 9.63986 54.3581 9.66986 54.2181C9.69986 54.0781 9.73987 53.9181 9.79987 53.7481C9.90987 53.3481 9.99988 52.9681 10.0599 52.6281C10.1199 52.2781 10.1999 51.9381 10.3199 51.5881C10.4299 51.2981 10.5399 50.9981 10.6199 50.6781C10.7099 50.3581 10.8099 50.0581 10.9199 49.7681L11.1799 48.4781C11.1799 48.3081 11.2699 48.0781 11.4399 47.7881C11.4999 47.6781 11.5499 47.5481 11.6099 47.3981C11.6699 47.2581 11.6999 47.0981 11.6999 46.9281C11.6999 46.6381 11.7399 46.3581 11.8299 46.0681C11.9199 45.7781 12.0199 45.4981 12.1299 45.2081C12.2399 44.7481 12.3699 44.3281 12.5199 43.9581C12.6599 43.5881 12.7899 43.1681 12.9099 42.7081C12.9699 42.5381 13.0199 42.3681 13.0799 42.1881C13.1399 42.0181 13.1899 41.8381 13.2499 41.6681C13.3099 41.5581 13.3499 41.4081 13.3799 41.2381C13.4099 41.0681 13.4499 40.9181 13.5099 40.8081C13.6199 40.5181 13.7099 40.2381 13.7699 39.9481C13.8299 39.6581 13.8799 39.3781 13.9399 39.0881C13.9999 38.7981 14.0999 38.5581 14.2399 38.3581C14.3799 38.1581 14.5099 37.9181 14.6299 37.6281C14.6299 37.5181 14.6899 37.3381 14.7999 37.1081C14.8599 36.9381 14.8899 36.7481 14.8899 36.5481C14.8899 36.3481 14.9499 36.1581 15.0599 35.9881C15.1699 35.6481 15.2899 35.2981 15.4099 34.9481C15.5199 34.6081 15.6399 34.2281 15.7599 33.8281C15.8699 33.5381 15.9899 33.1681 16.1099 32.7081C16.2799 32.1381 16.4799 31.5881 16.7099 31.0681C16.9399 30.5481 17.1099 30.0081 17.2299 29.4281V29.3381C17.5199 29.0481 17.6999 28.7381 17.7899 28.3881C17.8799 28.0481 17.9799 27.6981 18.0899 27.3581C18.3199 26.8981 18.5499 26.4281 18.7799 25.9381C19.0099 25.4481 19.2099 24.9481 19.3799 24.4281C19.4899 24.1981 19.6099 23.8581 19.7299 23.3881L19.8199 23.2181C20.0499 23.1581 20.1699 22.9881 20.1699 22.6981V22.6081C20.4599 22.3781 20.6099 22.1381 20.6399 21.8781C20.6699 21.6181 20.7399 21.3481 20.8599 21.0581C20.9199 20.9481 20.9699 20.8581 21.0299 20.7981C21.0899 20.7381 21.1699 20.6581 21.2899 20.5381C21.3999 20.2481 21.5299 19.9681 21.6799 19.6781C21.8199 19.3881 21.9799 19.1081 22.1499 18.8181C22.2599 18.5881 22.3799 18.3781 22.4999 18.1681C22.6099 17.9681 22.7299 17.7281 22.8499 17.4381C22.9599 17.3281 23.0499 17.2681 23.1099 17.2681C23.2199 17.1581 23.3399 16.9481 23.4599 16.6681C23.5699 16.3181 23.7199 16.0681 23.8899 15.8881C24.0599 15.5981 24.2099 15.3281 24.3199 15.0681C24.4299 14.8081 24.6099 14.5681 24.8399 14.3381C25.0099 14.2781 25.0999 14.1681 25.0999 13.9881C25.2699 13.6981 25.4599 13.3981 25.6599 13.0781C25.8599 12.7581 26.1299 12.4881 26.4799 12.2581L26.5699 12.1681C26.4499 11.9381 26.4799 11.7481 26.6599 11.6081C26.8299 11.4681 26.9799 11.3381 27.0899 11.2181C27.1999 10.9881 27.4399 10.6981 27.7799 10.3581C28.0699 10.0681 28.3299 9.78813 28.5599 9.49813C28.7899 9.20813 29.0499 8.92813 29.3399 8.63813L29.4299 8.54813C29.7199 8.48813 29.9799 8.38813 30.2099 8.24813C30.4399 8.10813 30.6699 7.97813 30.8999 7.85813C31.0099 7.85813 31.1299 7.92812 31.2499 8.07812C31.3599 8.21813 31.5099 8.20813 31.6799 8.03813C31.8499 8.26813 32.0399 8.33813 32.2399 8.25813C32.4399 8.16813 32.6299 8.12813 32.7999 8.12813C32.9699 8.12813 33.0599 8.21812 33.0599 8.38812C33.1199 8.61812 33.2599 8.75812 33.4899 8.81812C33.8399 8.93812 34.0099 9.16813 34.0099 9.50813V9.76813C34.2999 10.1181 34.4299 10.4681 34.3999 10.8481C34.3699 11.2181 34.3899 11.6081 34.4399 12.0081C34.4999 12.1781 34.4799 12.3681 34.3999 12.5681C34.3099 12.7681 34.2699 12.9581 34.2699 13.1281C34.3299 13.3581 34.3399 13.5581 34.3099 13.7281C34.2799 13.8981 34.2699 14.0981 34.2699 14.3281C34.2699 14.3881 34.2999 14.4481 34.3599 14.4981C34.3599 14.5581 34.3299 14.5881 34.2699 14.5881C33.9799 14.5881 33.8999 14.6781 34.0099 14.8481C34.0099 15.3081 33.9499 15.6581 33.8399 15.8781C33.7199 16.2281 33.6499 16.5681 33.6199 16.9181C33.5899 17.2681 33.5499 17.6381 33.4899 18.0381C33.4299 18.2081 33.3899 18.4081 33.3599 18.6381C33.3299 18.8681 33.2599 19.0681 33.1399 19.2381C33.0799 19.4081 33.0799 19.5681 33.1399 19.7081C33.1999 19.8481 33.1699 20.0081 33.0499 20.1781C32.8799 20.3481 32.8499 20.6081 32.9599 20.9581C32.9599 21.0181 32.8399 21.1581 32.6099 21.3881C32.7199 21.6181 32.7499 21.8781 32.6999 22.1681C32.5799 22.3381 32.4999 22.5381 32.4399 22.7681C32.3799 22.9981 32.3499 23.1981 32.3499 23.3681C32.2899 23.6581 32.2199 23.9281 32.1299 24.1881C32.0399 24.4481 31.9999 24.7181 31.9999 25.0081C31.8799 25.2381 31.8599 25.4081 31.9099 25.5281C31.9699 25.5881 31.9099 25.6981 31.7399 25.8681C31.6199 25.9881 31.5699 26.1281 31.5699 26.2981C31.5699 26.7581 31.4799 27.0781 31.3099 27.2481C31.3099 27.3081 31.3199 27.3881 31.3499 27.5081C31.3799 27.6281 31.3899 27.7381 31.3899 27.8581C31.3299 27.8581 31.2999 27.8881 31.2999 27.9481C31.2399 28.0081 31.2099 28.0881 31.2099 28.2081C31.1499 28.3781 31.1199 28.5581 31.1199 28.7281C31.1199 28.8981 31.0899 29.0781 31.0299 29.2481C31.0299 29.5881 30.9399 29.8481 30.7699 30.0281C30.7099 30.1481 30.7399 30.3781 30.8599 30.7181L30.3399 31.4981C30.3999 31.4981 30.2499 31.4381 29.9099 31.3281C29.9699 31.6181 30.0199 31.7581 30.0799 31.7581C30.1899 31.8781 30.2499 32.0181 30.2499 32.1881C30.1899 32.4781 30.1799 32.7381 30.2099 32.9681C30.2399 33.1981 30.1999 33.4281 30.0799 33.6581C29.9599 33.8881 29.9199 34.1081 29.9499 34.3081C29.9799 34.5081 29.9099 34.7281 29.7299 34.9581C29.7299 35.0181 29.7399 35.0881 29.7699 35.1781C29.7999 35.2681 29.8099 35.3681 29.8099 35.4781C29.5799 35.5981 29.4899 35.7981 29.5499 36.0781C29.5499 36.4781 29.4899 36.7681 29.3799 36.9381C29.2599 37.1081 29.2099 37.3281 29.2099 37.5881C29.2099 37.8481 29.1199 38.0581 28.9499 38.2381C29.0099 38.5781 28.8899 38.8681 28.5999 39.0981V39.3581C28.7099 39.5281 28.7299 39.6981 28.6399 39.8781C28.5499 40.0481 28.5699 40.2181 28.6799 40.3981C28.6799 40.4581 28.6499 40.4981 28.5899 40.5281C28.5299 40.5581 28.4699 40.6281 28.4199 40.7481C28.4799 40.8081 28.5099 40.8681 28.5099 40.9181C28.5099 40.9681 28.5399 41.0381 28.5999 41.0881L28.3399 41.6081C28.3999 41.7281 28.4399 41.7981 28.4699 41.8281C28.4999 41.8581 28.5399 41.9281 28.5999 42.0481C28.4799 42.1681 28.3699 42.2781 28.2499 42.3981C28.1299 42.5181 28.1899 42.6581 28.4199 42.8281C28.3599 42.8881 28.2999 42.9181 28.2499 42.9181H28.1599C28.0999 43.2081 28.0199 43.4381 27.8999 43.6081C27.7799 43.7781 27.8099 44.0081 27.9899 44.2981V44.3881C27.8199 44.7381 27.7299 45.0881 27.7299 45.4681C27.7299 45.8481 27.6999 46.1981 27.6399 46.5481C27.5799 46.7181 27.5199 46.8781 27.4699 47.0181C27.4099 47.1581 27.3799 47.3181 27.3799 47.4881C27.3799 47.6081 27.3499 47.7381 27.2899 47.8781C27.2299 48.0181 27.1699 48.1481 27.1199 48.2681V48.3581C27.3499 48.6481 27.3499 48.9081 27.1199 49.1381C27.0599 49.3081 27.0299 49.5681 27.0299 49.9181C27.0899 50.2081 27.0599 50.5481 26.9399 50.9581C26.8199 51.2481 26.7799 51.5181 26.8099 51.7781C26.8399 52.0381 26.8499 52.3081 26.8499 52.5981C26.7899 52.8881 26.7899 53.1781 26.8499 53.4581C26.9099 53.7481 26.8799 54.0381 26.7599 54.3181C26.6999 54.5481 26.6999 54.7781 26.7599 55.0081C26.8199 55.2381 26.6999 55.4081 26.4099 55.5281L26.6699 55.7881C26.6099 55.9581 26.6399 56.0581 26.7599 56.0881C26.8699 56.1181 26.9599 56.1581 27.0199 56.2181C27.1299 56.1581 27.2399 56.1081 27.3199 56.0481C27.4099 55.9881 27.5099 55.9081 27.6199 55.7881C27.4999 55.5581 27.6199 55.3881 27.9699 55.2681C27.9699 54.9781 27.9799 54.7381 28.0099 54.5381C28.0399 54.3381 28.1699 54.1181 28.3999 53.8881C28.5099 53.7781 28.5899 53.6281 28.6199 53.4581C28.6499 53.2881 28.6599 53.1381 28.6599 53.0281C28.7699 52.5681 28.8999 52.1381 29.0499 51.7381C29.1899 51.3381 29.3499 50.9081 29.5199 50.4481C29.5799 50.3381 29.6099 50.2181 29.6099 50.1081C29.6099 49.9981 29.7199 49.9081 29.9599 49.8481C30.0199 49.7881 30.0199 49.7381 29.9599 49.6781C29.8999 49.5081 30.0199 49.3581 30.3099 49.2481C30.1399 48.7281 30.2499 48.1881 30.6599 47.6081C30.8299 47.3781 30.9299 47.1481 30.9599 46.9181C30.9899 46.6881 31.0299 46.4581 31.0899 46.2281C31.1999 46.0581 31.2599 45.8881 31.2599 45.7081C31.2599 45.5281 31.3499 45.3681 31.5199 45.1881C31.6299 45.1281 31.6899 45.0181 31.6899 44.8481C31.6899 44.6781 31.7199 44.5281 31.7799 44.4181C31.8399 44.1881 31.8899 43.9781 31.9499 43.7681C32.0099 43.5681 32.0399 43.3481 32.0399 43.1181C32.0399 42.9481 32.1299 42.8181 32.2999 42.7281C32.4699 42.6381 32.4999 42.4881 32.3899 42.2581C32.5599 41.9081 32.6599 41.5581 32.6899 41.1781C32.7199 40.8081 32.8199 40.4481 32.9899 40.0981C33.0499 39.9881 33.0799 39.8981 33.0799 39.8381C33.0799 39.7781 33.1099 39.7281 33.1699 39.6681C33.3399 39.4381 33.4599 39.1981 33.5199 38.9381C33.5799 38.6781 33.6599 38.4081 33.7799 38.1181L34.2999 36.5681C34.3599 36.5081 34.3899 36.4581 34.3899 36.3981C34.3899 36.3381 34.4199 36.2881 34.4799 36.2281C34.4799 35.8881 34.6499 35.7681 34.9999 35.8881C34.7099 35.6581 34.6099 35.4581 34.6999 35.2881C34.7899 35.1181 34.8599 34.9381 34.9199 34.7681C35.0299 34.2481 35.2699 33.8781 35.6099 33.6481C35.6099 33.5381 35.5999 33.4481 35.5699 33.3881C35.5399 33.3281 35.5299 33.2781 35.5299 33.2181C35.6999 32.7581 35.8599 32.3281 35.9999 31.9281C36.1399 31.5281 36.2699 31.0981 36.3899 30.6381H36.4799C36.5899 30.5281 36.6999 30.4081 36.7799 30.2881C36.8699 30.1781 36.8799 29.9981 36.8199 29.7681C36.8199 29.6581 36.9299 29.3681 37.1699 28.9081C37.2299 28.7381 37.2799 28.5481 37.3399 28.3481C37.3999 28.1481 37.5099 27.9581 37.6899 27.7881C37.7499 27.7881 37.7599 27.7581 37.7299 27.6981C37.6999 27.6381 37.7199 27.5881 37.7699 27.5281C37.8299 27.2981 37.8799 27.0881 37.9399 26.8781C37.9999 26.6781 38.0799 26.4581 38.1999 26.2281C38.4899 25.6581 38.7699 24.9381 39.0599 24.0681C39.0599 23.9581 39.1499 23.8381 39.3199 23.7181C39.3799 23.6581 39.4599 23.4581 39.5799 23.1181C39.4599 22.8281 39.5799 22.4881 39.9299 22.0881C40.0399 21.6281 40.1599 21.2881 40.2799 21.0481L41.3199 18.9781C41.3799 18.8681 41.4099 18.7781 41.4099 18.7181C41.4099 18.6581 41.4399 18.6081 41.4999 18.5481C41.6099 18.0881 41.7299 17.7481 41.8499 17.5081C41.9099 17.4481 41.9599 17.4181 42.0199 17.4181C42.0799 17.4181 42.1599 17.3881 42.2799 17.3281C42.1599 17.0981 42.1599 16.8981 42.2799 16.7281C42.5099 16.3781 42.6299 16.0381 42.6299 15.6881C42.6299 15.6281 42.6598 15.5781 42.7198 15.5181C43.1198 15.1181 43.4099 14.6281 43.5799 14.0481C43.5799 13.9881 43.5899 13.9581 43.6199 13.9581C43.6499 13.9581 43.6599 13.9281 43.6599 13.8681C44.0599 13.4081 44.3499 12.8281 44.5199 12.1381C44.6299 11.8481 44.7799 11.5781 44.9499 11.3181C45.1199 11.0581 45.2699 10.7881 45.3799 10.4981C45.4899 10.3281 45.5999 10.2381 45.6799 10.2381C45.7599 10.2381 45.8699 10.1781 45.9799 10.0681L45.8099 9.72812L45.8999 9.63813H46.2899C46.3799 9.63813 46.3599 9.52813 46.2499 9.28813C46.3599 9.17813 46.4199 9.01812 46.4199 8.81812C46.4199 8.61812 46.4499 8.45812 46.5099 8.34812C46.6199 8.17812 46.7399 8.02813 46.8599 7.91813C46.9699 7.80813 47.0899 7.68813 47.2099 7.56813C47.3199 7.45813 47.3499 7.27813 47.2999 7.04813C47.5899 6.98813 47.7899 6.75813 47.8999 6.35813C48.0099 6.18813 48.0999 6.01813 48.1599 5.83813C48.2199 5.66813 48.2999 5.51812 48.4199 5.40812C48.8799 4.83812 49.2799 4.25813 49.6299 3.67813C49.7999 3.27813 50.1499 3.12813 50.6699 3.24813V2.64813C50.7799 2.41813 50.8699 2.21812 50.9299 2.04812C51.0399 2.10812 51.1599 2.18812 51.2799 2.30812L51.3699 2.21812C51.2499 1.92812 51.3099 1.78812 51.5399 1.78812C51.8299 1.72812 52.0599 1.62813 52.2299 1.48813C52.3999 1.34813 52.5799 1.18812 52.7499 1.01812C52.9799 0.908125 53.1899 0.828125 53.3999 0.798125C53.5999 0.768125 53.8199 0.698125 54.0499 0.578125C54.2199 0.808125 54.4099 0.918125 54.6099 0.918125C54.8099 0.918125 55.0299 0.948125 55.2599 1.00813C55.6099 1.12813 55.8599 1.29812 56.0399 1.52812C56.1499 1.58812 56.2699 1.72812 56.3899 1.95812C56.2699 2.07812 56.1299 2.18812 55.9599 2.29812C56.3599 2.23812 56.6199 2.29812 56.7399 2.46812C56.8499 2.63812 56.9699 2.86813 57.0899 3.15813C57.1999 3.44813 57.2899 3.71813 57.3499 3.97813C57.4099 4.23813 57.4099 4.50813 57.3499 4.79813C57.2299 4.85813 57.0899 4.96812 56.9199 5.13812C57.0299 5.30812 57.2099 5.33813 57.4399 5.22813V6.00813C57.5499 6.46813 57.5299 6.89813 57.3499 7.29813C57.2899 7.52813 57.2599 7.74812 57.2599 7.94812C57.2599 8.14812 57.2299 8.36813 57.1699 8.59813C57.1699 8.65813 57.1999 8.69812 57.2599 8.72812C57.3199 8.75812 57.3499 8.79812 57.3499 8.85812C57.2899 9.14812 57.1899 9.37813 57.0499 9.54813C56.9099 9.71813 56.8899 9.94812 57.0099 10.2381V10.3281C56.8899 10.6181 56.8399 10.9181 56.8399 11.2381C56.8399 11.5581 56.7499 11.8581 56.5799 12.1481C56.5199 12.2681 56.5099 12.3781 56.5399 12.4981C56.5699 12.6181 56.5799 12.7281 56.5799 12.8381C56.5799 12.9481 56.5199 13.0681 56.4099 13.1881C56.2899 13.3081 56.3199 13.4481 56.4999 13.6181C56.4399 13.7381 56.3799 13.8481 56.3299 13.9681C56.2699 14.0881 56.2099 14.2281 56.1599 14.3981C56.2199 14.4581 56.2599 14.4881 56.2899 14.4881C56.3199 14.4881 56.3599 14.5481 56.4199 14.6581C56.0699 15.1181 55.8399 15.7481 55.7299 16.5581C55.7299 16.7281 55.6899 16.8881 55.5999 17.0281C55.5099 17.1681 55.5299 17.3581 55.6399 17.5881C55.4699 17.7081 55.4098 17.8381 55.4698 17.9781C55.5298 18.1181 55.4999 18.2481 55.3799 18.3681C55.3199 18.4281 55.2099 18.4581 55.0299 18.4581V18.6281C55.0299 18.6881 55.0399 18.7181 55.0699 18.7181C55.0999 18.7181 55.1099 18.7481 55.1099 18.8081C55.1099 18.8681 55.1399 18.8981 55.1999 18.8981C55.0799 19.1881 55.0399 19.4481 55.0699 19.6781C55.0999 19.9081 55.0599 20.1681 54.9399 20.4581C54.8199 20.7481 54.6899 21.0781 54.5499 21.4481C54.4099 21.8181 54.3899 22.2081 54.5099 22.6081C54.3399 22.7281 54.2499 22.8981 54.2499 23.1281C54.2499 23.3581 54.1099 23.5281 53.8199 23.6481C53.9899 24.1081 53.9599 24.5381 53.7299 24.9381C53.6699 24.9981 53.6399 25.0781 53.6399 25.1981C53.5799 25.4881 53.5499 25.7581 53.5499 26.0181C53.5499 26.2781 53.5199 26.5481 53.4599 26.8381C53.3999 26.9581 53.2599 27.1281 53.0299 27.3581L53.2899 27.6181L53.0299 28.3981C53.0299 28.4581 52.9599 28.6281 52.8099 28.9181C52.6699 29.2081 52.5899 29.3781 52.5899 29.4381C52.5899 29.5581 52.5799 29.6281 52.5499 29.6581C52.5199 29.6881 52.5099 29.7581 52.5099 29.8781C52.5099 30.2181 52.4699 30.5581 52.3799 30.8681C52.2899 31.1881 52.2199 31.5181 52.1599 31.8581C52.0999 32.0881 52.0699 32.3181 52.0699 32.5481C52.0699 32.7781 52.0399 33.0381 51.9799 33.3281C51.9199 33.4481 51.8499 33.5781 51.7599 33.7181C51.6699 33.8581 51.5999 34.0181 51.5399 34.1881C51.4799 34.3081 51.4199 34.4381 51.3699 34.5781C51.3099 34.7181 51.3399 34.8781 51.4599 35.0481C51.3999 35.1081 51.3699 35.1681 51.3699 35.2181C51.3699 35.3381 51.3599 35.4181 51.3299 35.4781C51.2999 35.5381 51.2899 35.6181 51.2899 35.7381C51.2299 35.7981 51.1999 35.8581 51.1999 35.9081C51.1999 35.9581 51.1699 36.0281 51.1099 36.0781C50.9399 36.2481 50.9099 36.5081 51.0199 36.8581C50.8999 37.2081 50.8499 37.4881 50.8499 37.7181C50.7899 37.8881 50.7199 38.0481 50.6299 38.1881C50.5399 38.3281 50.5299 38.4881 50.5899 38.6581C50.4199 38.7781 50.3399 38.9081 50.3699 39.0481C50.3999 39.1881 50.3799 39.3181 50.3299 39.4381C50.2699 39.6081 50.2699 39.7981 50.3299 39.9981C50.3899 40.1981 50.3299 40.3581 50.1599 40.4681C50.0999 40.4681 50.0699 40.4981 50.0699 40.5581C50.1799 40.8481 50.1699 41.0781 50.0299 41.2481C49.8899 41.4181 49.8099 41.6481 49.8099 41.9381C49.8099 42.1081 49.7499 42.3681 49.6399 42.7181C49.5799 42.9481 49.5198 43.1681 49.4698 43.3681C49.4098 43.5681 49.4098 43.8181 49.4698 44.0981C49.4698 44.2681 49.4099 44.5281 49.2999 44.8781C49.1799 45.1681 49.1099 45.4781 49.0799 45.8281C49.0499 46.1781 48.9499 46.4881 48.7799 46.7781L48.9499 47.2981C48.7199 47.2981 48.5999 47.4681 48.5999 47.8181V48.5981C48.5999 48.8281 48.5099 49.0581 48.3399 49.2881C48.3999 49.2881 48.4299 49.4081 48.4299 49.6381C48.3699 49.6981 48.3099 49.7381 48.2599 49.7681C48.1999 49.7981 48.1399 49.8381 48.0899 49.8981C48.1999 50.1281 48.2299 50.2681 48.1799 50.3281C48.0599 50.6181 48.0199 50.8781 48.0499 51.1081C48.0799 51.3381 48.0599 51.5681 48.0099 51.7981C47.9499 51.9681 47.9398 52.1281 47.9698 52.2681C47.9998 52.4081 47.9799 52.5381 47.9299 52.6581C47.8699 52.9981 47.8099 53.3481 47.7599 53.6981C47.6999 54.0381 47.6199 54.3881 47.4999 54.7281C47.4999 54.7881 47.4899 54.8281 47.4599 54.8581C47.4299 54.8881 47.4199 54.9581 47.4199 55.0781C47.4799 55.2481 47.4799 55.4281 47.4199 55.5981C47.3599 55.7681 47.3299 55.9181 47.3299 56.0281C47.2699 56.3181 47.1999 56.5581 47.1099 56.7581C47.0199 56.9581 47.0399 57.2081 47.1499 57.4881C47.2099 57.6081 47.2199 57.7381 47.1899 57.8781C47.1599 58.0181 47.1799 58.1781 47.2299 58.3481C46.9999 58.5781 46.8799 58.9481 46.8799 59.4681C46.8799 59.8181 46.8199 60.2181 46.7099 60.6781C46.6499 60.9681 46.6499 61.2081 46.7099 61.4081C46.7699 61.6081 46.7399 61.8281 46.6199 62.0581L46.7899 62.4881C46.7299 62.5481 46.6699 62.5881 46.6199 62.6181C46.5599 62.6481 46.4999 62.7181 46.4499 62.8381C46.5599 63.1281 46.5599 63.4381 46.4499 63.7881C46.3899 64.0781 46.3799 64.3481 46.4099 64.6081C46.4399 64.8681 46.4499 65.1381 46.4499 65.4281C46.4499 65.5981 46.4099 65.7781 46.3199 65.9481C46.2299 66.1181 46.2799 66.2681 46.4499 66.3781C46.3899 66.7281 46.3499 67.0581 46.3199 67.3681C46.2899 67.6881 46.2799 67.9881 46.2799 68.2781C46.2199 68.3981 46.2099 68.5281 46.2399 68.6681C46.2699 68.8081 46.2499 68.9381 46.1999 69.0581C46.1999 69.1781 46.2099 69.2481 46.2399 69.2781C46.2699 69.3081 46.2799 69.3781 46.2799 69.4981C46.3399 69.9581 46.3799 70.3881 46.4099 70.7881C46.4399 71.1881 46.5099 71.5981 46.6299 71.9981C46.6899 72.2281 46.6999 72.4681 46.6699 72.7281C46.6399 72.9881 46.7099 73.1981 46.8899 73.3781C46.7699 73.6681 46.7899 73.9381 46.9299 74.1981C47.0699 74.4581 47.1999 74.7281 47.3199 75.0181C47.4299 75.4181 47.5599 75.8081 47.7099 76.1781C47.8499 76.5481 48.0099 76.9381 48.1799 77.3381C48.2399 77.5081 48.3099 77.6581 48.3999 77.7681C48.4899 77.8781 48.5899 78.0281 48.6999 78.1981L49.2198 78.9781V79.2381C48.9298 79.4681 48.8699 79.6781 49.0499 79.8881C49.2199 80.0881 49.2499 80.3281 49.1399 80.6181L48.2799 81.4781L48.3699 81.5681C48.2499 81.5081 48.0499 81.4781 47.7699 81.4781C47.5399 81.4181 47.3699 81.4181 47.2499 81.4781C47.1299 81.5381 46.9299 81.6181 46.6499 81.7381C46.2999 81.8481 46.0499 81.7981 45.8699 81.5681C45.9799 81.3381 46.0399 81.1681 46.0399 81.0481C45.8699 81.0481 45.7499 81.0781 45.6899 81.1381C45.3999 81.2481 45.1999 81.1381 45.0899 80.7881C44.9199 80.3281 44.6599 79.9281 44.3099 79.5781C44.1899 79.2881 44.0499 79.0481 43.8799 78.8481C43.7099 78.6481 43.5599 78.3981 43.4499 78.1181C43.3899 78.0581 43.3499 77.9981 43.3199 77.9481C43.2899 77.8881 43.2199 77.8081 43.0999 77.6881C43.0999 77.5681 43.1399 77.4581 43.2299 77.3381C43.3199 77.2181 43.2399 77.1081 43.0099 76.9981C42.8899 76.9981 42.8399 76.8581 42.8399 76.5681L42.5799 76.0481C42.5199 75.8781 42.4799 75.7181 42.4499 75.5781C42.4199 75.4381 42.3799 75.2781 42.3199 75.1081C42.2599 74.9381 42.2299 74.7781 42.2299 74.6381C42.2299 74.4981 42.1699 74.3681 42.0599 74.2481C41.9999 74.1881 41.9698 74.1081 41.9698 73.9881C41.9098 73.6981 41.8799 73.4381 41.8799 73.2081C41.8799 72.9781 41.8199 72.7181 41.7099 72.4281C41.5399 72.1381 41.5399 71.8581 41.7099 71.5681C41.4199 71.4581 41.3099 71.3081 41.3599 71.1381C41.4199 70.9681 41.4499 70.7881 41.4499 70.6181C41.3899 70.3881 41.3799 70.1581 41.4099 69.9281C41.4399 69.6981 41.4499 69.4681 41.4499 69.2381C41.3899 68.9481 41.3599 68.5181 41.3599 67.9481C41.3599 67.7181 41.3899 67.5481 41.4499 67.4281C41.5099 67.1381 41.4799 66.8581 41.3599 66.5681C41.2399 66.2781 41.2199 65.9981 41.2699 65.7081C41.3299 65.4181 41.3399 65.1581 41.3099 64.9281C41.2799 64.6981 41.3199 64.4681 41.4399 64.2381C41.5499 63.9481 41.5799 63.6881 41.5299 63.4581C41.4699 63.2281 41.4099 62.9681 41.3599 62.6781C41.3599 62.3281 41.4699 62.1081 41.7099 61.9881C41.6499 61.9881 41.5699 61.9281 41.4499 61.8181C41.5599 61.6481 41.6199 61.4581 41.6199 61.2581V60.6981C41.6199 60.4081 41.6499 60.1481 41.7099 59.9181C41.7699 59.6881 41.7699 59.4281 41.7099 59.1381C41.7099 58.8481 41.7499 58.5881 41.8399 58.3581C41.9299 58.1281 41.9399 57.8681 41.8799 57.5781C41.8799 57.4081 41.9098 57.2381 41.9698 57.0581C42.0298 56.8881 41.9999 56.7181 41.8799 56.5381C41.9399 56.5381 41.9698 56.4481 41.9698 56.2781C42.0298 56.1081 42.0699 55.9481 42.0999 55.8081C42.1299 55.6681 42.1699 55.5081 42.2299 55.3381C42.2299 54.9981 42.2599 54.7081 42.3199 54.4781C42.2599 54.4781 42.1199 54.3881 41.8899 54.2181C42.4099 53.9881 42.5499 53.6981 42.3199 53.3581C42.3199 53.2981 42.3299 53.2581 42.3599 53.2281C42.3899 53.1981 42.3999 53.1581 42.3999 53.0981L42.6599 52.8381C42.7199 52.7281 42.6899 52.5981 42.5699 52.4481C42.4499 52.3081 42.4499 52.1781 42.5699 52.0581C42.6299 51.9481 42.6599 51.6881 42.6599 51.2781C42.6599 51.1081 42.7199 50.8481 42.8299 50.4981C42.8899 50.2081 42.9399 49.9081 42.9999 49.5881C43.0599 49.2681 43.1099 48.9381 43.1699 48.5981C43.1699 48.3081 43.2099 48.0681 43.2999 47.8681C43.3899 47.6681 43.4299 47.4281 43.4299 47.1381C43.4899 46.9081 43.5199 46.7081 43.5199 46.5381C43.5199 46.3681 43.5499 46.1681 43.6099 45.9381V45.8481C43.7199 45.6181 43.7799 45.2981 43.7799 44.8981C43.7799 44.4381 43.8699 44.0381 44.0399 43.6881C44.2099 43.3381 44.2999 42.9981 44.2999 42.6481C44.2399 42.2481 44.2899 41.8681 44.4299 41.5281C44.5699 41.1881 44.6999 40.8081 44.8199 40.4081C44.8199 40.3481 44.8299 40.3081 44.8599 40.2781C44.8899 40.2481 44.8999 40.2081 44.8999 40.1481C44.7799 39.8581 44.7399 39.5981 44.7699 39.3681C44.7999 39.1381 44.8399 38.8781 44.8999 38.5881C44.8999 38.4781 44.9299 38.3281 44.9899 38.1581C45.0499 37.9881 45.0999 37.8081 45.1599 37.6381C45.2199 37.2881 45.3599 36.9181 45.5899 36.5181V35.5681C45.7599 35.3381 45.8499 35.2081 45.8499 35.1781C45.8499 35.1481 45.7599 35.0481 45.5899 34.8781L45.5299 34.7381ZM28.4499 16.1981C28.5099 16.1981 28.5599 16.2081 28.6199 16.2381C28.6799 16.2681 28.7299 16.2781 28.7899 16.2781C28.8999 15.9381 28.9899 15.7081 29.0499 15.5881C28.9899 15.5881 28.9599 15.5581 28.9599 15.4981C28.8399 15.6181 28.7599 15.7281 28.6999 15.8381C28.6399 15.9581 28.5599 16.0681 28.4399 16.1881L28.4499 16.1981ZM44.4899 79.2481H44.5799C44.6399 79.2481 44.6699 79.1581 44.6699 78.9881H44.4999V79.2481H44.4899Z" fill="white"/>
<path d="M71.1505 30.5986C70.9805 30.1386 70.6905 29.8786 70.2905 29.8186C70.2305 29.8186 70.1205 29.7286 69.9405 29.5586C69.8205 29.6686 69.7705 29.7586 69.7705 29.8186C69.6605 29.6486 69.4305 29.5886 69.0805 29.6486C68.5605 29.9886 67.9605 30.2486 67.2705 30.4286C66.8705 30.4886 66.5105 30.6186 66.1905 30.8186C65.8705 31.0186 65.5705 31.2686 65.2805 31.5486C64.9905 31.7786 64.7605 32.0086 64.5905 32.2386C64.4205 32.4686 64.2205 32.7286 63.9905 33.0186C63.8205 33.3086 63.7605 33.5986 63.8205 33.8786C63.9305 33.9986 63.9305 34.1086 63.8205 34.2286C63.7605 34.2886 63.7305 34.4286 63.7305 34.6586C63.7905 34.8286 63.8205 34.9986 63.8205 35.1786C64.0505 35.3486 64.3405 35.6086 64.6805 35.9586C64.7405 35.9586 64.7905 35.9486 64.8505 35.9186C64.9105 35.8886 64.9605 35.8786 65.0205 35.8786C65.4205 35.9386 65.7705 35.7886 66.0605 35.4486C66.2305 35.0986 66.4305 34.8186 66.6605 34.5886C66.9505 34.1886 67.2805 33.8686 67.6505 33.6386C68.0205 33.4086 68.4405 33.1786 68.9005 32.9486C69.3005 32.7786 69.7105 32.6186 70.1105 32.4786C70.5105 32.3386 70.8605 32.0886 71.1405 31.7486V31.3186C71.2505 31.1486 71.2505 30.9186 71.1405 30.6286L71.1505 30.5986Z" fill="white"/>
<path d="M92.11 47.9414C92.08 48.0414 92.05 48.1414 92 48.2314C92.06 48.1714 92.13 48.1214 92.19 48.0714C92.24 48.0314 92.3 47.9914 92.35 47.9414H92.1H92.11Z" fill="white"/>
<path d="M138.851 49.6697C138.961 49.4997 139.011 49.3397 138.981 49.1997C138.951 49.0597 138.851 48.8797 138.681 48.6797C138.511 48.4797 138.311 48.1497 138.081 47.6897C137.851 47.2897 137.591 47.1697 137.301 47.3497C137.071 47.4597 136.871 47.5397 136.701 47.5697C136.531 47.5997 136.321 47.6097 136.101 47.6097C135.931 47.6097 135.811 47.6397 135.751 47.6997C135.631 47.8197 135.531 47.9497 135.451 48.0897C135.361 48.2297 135.261 48.3597 135.151 48.4797C135.031 48.6497 134.921 48.8397 134.811 49.0397C134.691 49.2397 134.581 49.4297 134.461 49.5997C134.231 49.7697 134.071 49.9697 133.991 50.1997C133.901 50.4297 133.801 50.6597 133.691 50.8897C133.291 51.6997 132.421 52.6097 131.101 53.6497C130.811 53.8797 130.551 54.0497 130.321 54.1697C130.091 54.2897 129.831 54.4597 129.541 54.6897C128.731 55.3197 128.001 55.9597 127.341 56.5897C126.681 57.2197 126.171 57.7997 125.831 58.3097C125.711 58.6497 125.491 58.7697 125.141 58.6497C125.141 58.5397 125.151 58.4197 125.181 58.3097C125.211 58.1997 125.221 58.0797 125.221 57.9697C125.281 57.7997 125.311 57.5397 125.311 57.1897C125.651 57.1897 125.941 57.0797 126.171 56.8497C126.111 56.7397 126.031 56.6197 125.911 56.4997C125.971 56.3897 126.021 56.2797 126.081 56.1997C126.141 56.1097 126.171 56.0397 126.171 55.9797C126.061 55.6897 126.081 55.4197 126.261 55.1597C126.431 54.8997 126.491 54.6297 126.431 54.3397C126.431 54.1097 126.521 53.9097 126.691 53.7397C127.031 53.3897 127.151 53.0497 127.031 52.7097C127.031 52.6497 127.041 52.6097 127.071 52.5797C127.101 52.5497 127.111 52.5097 127.111 52.4497C127.221 52.1597 127.281 51.8997 127.281 51.6697C127.281 51.4397 127.391 51.2097 127.621 50.9797V50.8097C127.561 50.5197 127.651 50.2097 127.881 49.8597C127.761 49.7497 127.681 49.6297 127.621 49.5197C127.561 49.4097 127.591 49.2597 127.711 49.0897C127.821 48.9797 127.931 48.8497 128.011 48.6997C128.101 48.5597 128.201 48.4297 128.311 48.3097C128.081 48.0197 128.141 47.7597 128.481 47.5297V47.0997C128.591 46.8097 128.641 46.5497 128.611 46.3197C128.581 46.0897 128.541 45.8297 128.481 45.5397C128.481 45.4297 128.451 45.3397 128.391 45.2797C128.331 45.2197 128.271 45.1397 128.221 45.0197C128.161 44.9097 128.101 44.8197 128.051 44.7597C127.991 44.6997 127.961 44.6497 127.961 44.5897C128.131 44.1297 128.101 43.7897 127.871 43.5597C127.981 43.4497 127.961 43.2997 127.781 43.1297C127.661 43.0197 127.561 42.9597 127.481 42.9597C127.401 42.9597 127.321 42.9297 127.261 42.8697C127.091 42.6997 126.881 42.4397 126.661 42.0897C126.541 42.2097 126.461 42.2597 126.401 42.2597C126.231 41.9697 126.061 41.8097 125.881 41.7897C125.711 41.7597 125.391 41.8597 124.931 42.0897C124.871 42.0897 124.841 42.0297 124.841 41.9197C124.721 41.8597 124.671 41.8897 124.671 42.0097C124.671 42.1297 124.611 42.1497 124.501 42.0997C124.381 41.9897 124.241 41.9597 124.071 42.0097C123.901 42.0697 123.751 42.0997 123.641 42.0997L122.601 42.6197C122.491 42.6797 122.381 42.7197 122.301 42.7497C122.211 42.7797 122.111 42.8497 122.001 42.9697C121.771 43.1397 121.581 43.3097 121.441 43.4897C121.301 43.6597 121.111 43.8397 120.881 44.0097C120.591 44.1797 120.351 44.3997 120.151 44.6597C119.951 44.9197 119.731 45.1897 119.501 45.4797C119.331 45.7697 119.071 45.9697 118.721 46.0797C118.661 46.0797 118.601 46.1097 118.551 46.1697C118.611 46.2297 118.641 46.2697 118.641 46.2997C118.641 46.3297 118.671 46.3697 118.731 46.4297C118.611 46.4897 118.511 46.5197 118.431 46.5197C118.351 46.5197 118.271 46.5797 118.211 46.6897C118.091 46.8597 117.991 47.0297 117.911 47.2097C117.831 47.3897 117.691 47.5497 117.521 47.7297C117.461 47.8497 117.391 47.9497 117.301 48.0297C117.211 48.1197 117.141 48.2197 117.081 48.3297C117.021 48.3897 116.941 48.4197 116.821 48.4197C116.881 48.2497 116.931 48.0897 116.991 47.9497C117.051 47.8097 117.101 47.6797 117.161 47.5597C117.221 47.3897 117.241 47.2297 117.241 47.0897C117.241 46.9497 117.301 46.8197 117.411 46.6997C117.471 46.5297 117.541 46.3797 117.631 46.2697C117.721 46.1597 117.701 45.9797 117.591 45.7497L117.681 45.5797C117.741 45.4697 117.771 45.3197 117.771 45.1497C117.771 44.8097 117.741 44.5497 117.681 44.3697C117.791 44.3097 117.911 44.2697 118.021 44.2397C118.131 44.2097 118.251 44.1697 118.371 44.1097L118.021 43.5897C118.131 43.4797 118.241 43.3997 118.321 43.3697C118.411 43.3397 118.451 43.2697 118.451 43.1497C118.561 42.9197 118.641 42.6897 118.671 42.4597C118.701 42.2297 118.741 41.9997 118.801 41.7697C118.911 41.4797 118.971 41.2397 118.971 41.0397C118.971 40.8397 119.031 40.5897 119.141 40.3097C119.201 40.1997 119.181 40.1397 119.101 40.1397C119.021 40.1397 118.971 40.0797 118.971 39.9697C119.031 39.9097 119.101 39.8797 119.191 39.8797C119.281 39.8797 119.321 39.8497 119.321 39.7897C119.431 39.3297 119.521 38.8697 119.581 38.4097C119.641 37.9497 119.691 37.4897 119.751 37.0297C119.751 36.7997 119.741 36.5697 119.711 36.3397C119.681 36.1097 119.551 35.9097 119.321 35.7397C119.201 35.6297 119.181 35.5197 119.231 35.4397C119.291 35.3497 119.291 35.2497 119.231 35.1397L118.451 34.8797V34.5297C118.221 34.2997 118.021 34.2197 117.851 34.2697C117.741 34.3297 117.561 34.3597 117.331 34.3597C117.221 34.2997 117.011 34.3597 116.731 34.5297C116.621 34.6497 116.511 34.7497 116.431 34.8297C116.341 34.9197 116.241 34.9897 116.131 35.0497C115.841 35.1697 115.671 35.3397 115.611 35.5697C115.551 35.7997 115.471 36.0297 115.351 36.2597C115.231 36.5497 115.151 36.8497 115.091 37.1697C115.031 37.4897 114.971 37.7897 114.921 38.0797C114.811 38.3697 114.731 38.6297 114.701 38.8597C114.671 39.0897 114.601 39.3497 114.481 39.6397C114.421 39.9297 114.281 40.3597 114.051 40.9297C113.931 41.1597 113.831 41.3597 113.751 41.5297C113.661 41.6997 113.591 41.8997 113.531 42.1297C113.411 42.5297 113.281 42.9097 113.141 43.2497C113.001 43.5897 112.891 43.9997 112.841 44.4597C112.841 44.7497 112.781 44.9497 112.671 45.0597C112.611 45.1197 112.581 45.1897 112.581 45.2797C112.581 45.3697 112.551 45.4697 112.491 45.5797C112.491 45.7497 112.461 45.8997 112.401 46.0097C112.341 46.1297 112.281 46.2297 112.231 46.3097C112.171 46.3997 112.141 46.4997 112.141 46.6097C112.081 46.8397 111.981 47.0397 111.841 47.2097C111.701 47.3797 111.711 47.6097 111.881 47.8997C111.591 47.8397 111.421 47.8897 111.361 48.0297C111.301 48.1697 111.251 48.3297 111.191 48.4997V48.9697C111.191 49.0497 111.191 49.1197 111.161 49.1897C111.081 49.3097 111.011 49.4397 110.931 49.5697C110.811 49.7697 110.701 49.9597 110.581 50.1297C110.121 50.6497 109.771 51.2097 109.551 51.8097C109.321 52.4097 108.971 52.9697 108.521 53.4897C108.121 53.8897 107.921 54.3197 107.921 54.7797C107.861 55.0697 107.731 55.2797 107.531 55.4297C107.331 55.5697 107.171 55.7597 107.061 55.9897C106.891 56.2797 106.731 56.5497 106.591 56.8097C106.451 57.0697 106.321 57.3397 106.201 57.6297C106.031 57.9797 105.851 58.3197 105.681 58.6597C105.511 59.0097 105.311 59.3197 105.081 59.6097C104.961 59.7797 104.861 59.9497 104.781 60.1297C104.691 60.2997 104.591 60.4997 104.481 60.7297C104.251 61.0197 104.051 61.3297 103.881 61.6797C103.711 62.0297 103.501 62.3997 103.281 62.7997C103.221 62.9197 103.191 62.9997 103.191 63.0597C103.191 63.1197 103.161 63.1997 103.101 63.3197C103.101 63.5497 103.011 63.6897 102.841 63.7497C102.671 63.7497 102.551 63.8397 102.501 64.0097C102.441 64.1297 102.381 64.2097 102.331 64.2697C102.271 64.3297 102.211 64.4097 102.161 64.5297C101.931 64.8197 101.711 65.0897 101.511 65.3497C101.311 65.6097 101.061 65.9097 100.781 66.2597C100.721 66.1497 100.661 66.0697 100.611 66.0397C100.551 66.0097 100.521 65.9697 100.521 65.9097C100.401 65.6197 100.291 65.1897 100.181 64.6197C100.181 64.4497 100.161 64.2897 100.141 64.1497C100.111 64.0097 100.131 63.8497 100.181 63.6797C100.241 63.5097 100.281 63.3197 100.311 63.1197C100.341 62.9197 100.381 62.7297 100.441 62.5597C100.501 62.2097 100.551 61.8697 100.611 61.5297C100.671 61.1797 100.781 60.8397 100.961 60.4897C101.071 60.1497 101.191 59.7697 101.301 59.3697C101.411 58.9697 101.561 58.5697 101.731 58.1597C101.961 57.4697 102.301 56.6697 102.761 55.7397C103.051 55.1097 103.341 54.4597 103.621 53.7997C103.911 53.1397 104.191 52.4897 104.481 51.8597C104.591 51.4597 104.771 51.2297 105.001 51.1697C105.061 51.1097 105.171 50.9397 105.341 50.6497C105.451 50.3097 105.571 49.9797 105.681 49.6597C105.791 49.3497 106.001 49.0397 106.281 48.7497C106.571 48.4597 106.771 48.1197 106.881 47.7197C106.991 47.3197 107.171 46.9397 107.401 46.5997C107.461 46.4897 107.511 46.3797 107.571 46.2997C107.631 46.2097 107.681 46.1097 107.741 45.9997C108.311 45.1897 108.291 44.3897 107.651 43.5797C107.591 43.5197 107.451 43.4897 107.221 43.4897C107.101 43.6097 107.031 43.6497 107.001 43.6197C106.971 43.5897 106.901 43.5497 106.781 43.4897C106.321 43.2597 105.891 43.3497 105.491 43.7497L105.321 43.9197C105.261 43.9197 105.121 43.9797 104.891 44.0897C104.721 44.2097 104.571 44.3397 104.461 44.4797C104.341 44.6197 104.201 44.7497 104.031 44.8697C103.691 45.1597 103.401 45.4597 103.171 45.7797C102.941 46.0997 102.681 46.3997 102.391 46.6897C102.271 46.8097 102.141 46.9097 102.001 46.9897C101.861 47.0797 101.701 47.1497 101.531 47.2097C101.471 47.0997 101.431 47.0197 101.401 46.9897C101.371 46.9597 101.331 46.8897 101.271 46.7697C101.211 46.4197 100.981 46.1697 100.581 45.9897C100.461 45.8797 100.351 45.7897 100.241 45.7297C100.121 45.6697 100.011 45.6197 99.8907 45.5597C99.5507 45.4497 99.2108 45.3297 98.9008 45.2097C98.5808 45.0997 98.2507 45.0997 97.9107 45.2097C97.7907 45.2097 97.6507 45.2397 97.4807 45.2997C97.3107 45.3597 97.1607 45.3597 97.0507 45.2997C96.8807 45.2397 96.7307 45.2397 96.6207 45.2997C96.5007 45.3597 96.3908 45.4197 96.2708 45.4697C96.1008 45.5297 95.9407 45.5997 95.8007 45.6897C95.6607 45.7797 95.5007 45.8497 95.3307 45.9097C94.9307 46.0297 94.5807 46.2097 94.3007 46.4697C94.0107 46.7297 93.7007 46.9397 93.3507 47.1197C93.2407 47.2397 93.1307 47.3397 93.0507 47.4197C92.9707 47.5097 92.8307 47.5797 92.6607 47.6397L92.4907 47.8097C92.4307 47.8697 92.3707 47.9297 92.3007 47.9797C92.2507 48.0297 92.1907 48.0697 92.1407 48.1097C92.0807 48.1597 92.0107 48.2097 91.9507 48.2697C91.9007 48.3197 91.8507 48.3597 91.8007 48.4097C91.6807 48.5297 91.5807 48.6397 91.5007 48.7497C91.4107 48.8697 91.2807 48.9197 91.1107 48.9197C90.9907 49.2597 90.8107 49.5197 90.5507 49.6997C90.2907 49.8697 90.0507 50.0997 89.8207 50.3897C89.5307 50.6797 89.2707 50.9697 89.0407 51.2497C88.8107 51.5397 88.5807 51.8497 88.3507 52.1997C88.2407 52.3197 88.1607 52.4597 88.1307 52.6297C88.1007 52.7997 88.0307 52.9197 87.9107 52.9697C87.6807 53.0297 87.5508 53.1297 87.5208 53.2697C87.4908 53.4097 87.4207 53.5397 87.3007 53.6597C87.0707 53.7797 86.9307 53.8897 86.8707 53.9997C86.7607 54.2297 86.5807 54.6297 86.3507 55.2097C86.1807 55.1497 86.0107 55.2397 85.8307 55.4697C85.7207 55.7597 85.6407 56.0497 85.6107 56.3297C85.5807 56.6197 85.3907 56.8197 85.0507 56.9297V57.0997C84.9407 57.3297 84.8307 57.5497 84.7507 57.7497C84.6607 57.9497 84.5607 58.1697 84.4507 58.3997C84.3407 58.5697 84.2607 58.7697 84.2307 58.9997C84.2007 59.2297 84.1007 59.4297 83.9307 59.5997L84.0208 59.7697L83.9307 59.9397C83.7007 60.0597 83.5707 60.2097 83.5407 60.4097C83.5107 60.6097 83.4707 60.8297 83.4107 61.0597C83.4107 61.1797 83.4307 61.2497 83.4507 61.2797C83.4807 61.3097 83.4607 61.3797 83.4107 61.4997C83.3007 61.7297 83.1907 61.9597 83.1107 62.1897C83.0207 62.4197 82.9207 62.6797 82.8107 62.9697C82.7107 63.1797 82.6907 63.3997 82.7507 63.6297L82.3807 64.1797C82.2607 64.2997 82.1907 64.4097 82.1607 64.5297C82.1307 64.6397 82.0607 64.7597 81.9407 64.8697C81.5407 65.2697 81.2507 65.7297 81.0807 66.2497C80.9607 66.3597 80.9407 66.4197 80.9907 66.4197C80.5907 66.7097 80.2408 67.1697 79.9608 67.7997C79.8408 68.0897 79.7008 68.3297 79.5308 68.5297C79.3608 68.7297 79.1607 68.9497 78.9307 69.1797C78.7007 69.4097 78.5007 69.6097 78.3307 69.7797C78.1607 69.9497 78.0108 70.1797 77.9008 70.4697C77.7308 70.6397 77.5807 70.7597 77.4707 70.8197C77.3007 70.9397 77.1107 71.0697 76.9107 71.2097C76.7107 71.3497 76.5507 71.5097 76.4407 71.6797C76.3207 71.8497 76.1907 71.9797 76.0507 72.0697C75.9107 72.1597 75.7807 72.2597 75.6607 72.3697C75.4907 72.4897 75.2607 72.4597 74.9707 72.2797C74.6807 72.0497 74.5707 71.8797 74.6307 71.7597C74.7407 71.5897 74.7207 71.4897 74.5407 71.4597C74.3707 71.4297 74.3107 71.3597 74.3707 71.2397C74.4307 71.0097 74.3707 70.7897 74.2007 70.5897C74.0307 70.3897 74.0007 70.1397 74.1107 69.8597C74.1707 69.7997 74.1707 69.7497 74.1107 69.6897C74.0507 69.6297 74.0208 69.5797 74.0208 69.5197C73.9608 69.3497 73.9007 69.1597 73.8507 68.9597C73.7907 68.7597 73.8508 68.5697 74.0208 68.3997V68.1397C73.9608 67.7997 73.9507 67.4397 73.9807 67.0597C74.0107 66.6897 73.9707 66.2997 73.8507 65.8897L73.9407 65.7197C74.1707 65.2597 74.2008 64.7397 74.0308 64.1697C74.3708 63.7097 74.6007 63.3697 74.7207 63.1397L74.4608 62.8797C74.5708 62.7097 74.6507 62.5397 74.6807 62.3597C74.7107 62.1897 74.7808 62.0197 74.9008 61.8397C74.6708 61.6697 74.6308 61.4797 74.7708 61.2797C74.9108 61.0797 74.9307 60.8897 74.8107 60.7197C74.9207 60.6597 75.0707 60.5497 75.2407 60.3797L74.8907 60.0297C75.1207 59.7997 75.2607 59.6297 75.3207 59.5097C75.3807 59.4497 75.4107 59.3797 75.4107 59.2897C75.4107 59.1997 75.4407 59.0997 75.4907 58.9897C75.5507 58.6997 75.6007 58.4297 75.6607 58.1697C75.7207 57.9097 75.8007 57.6697 75.9207 57.4397C76.1507 57.1497 76.1807 56.8897 76.0107 56.6597C76.2407 56.5497 76.3807 56.4597 76.4407 56.3997C76.2707 56.1097 76.3008 55.8797 76.5308 55.7097L76.7007 55.5397C76.6407 55.2497 76.6607 54.9797 76.7407 54.7197C76.8307 54.4597 76.9307 54.1897 77.0407 53.8997C77.1507 53.6697 77.2407 53.4297 77.3007 53.1697C77.3607 52.9097 77.5307 52.7197 77.8207 52.6097C77.6507 52.3197 77.6607 52.0497 77.8607 51.7897C78.0607 51.5297 78.1007 51.2597 77.9907 50.9697C78.1007 50.6797 78.2507 50.4197 78.4207 50.1897C78.5907 49.9597 78.7407 49.6997 78.8507 49.4097L78.7607 49.2397L78.9307 48.6397C78.8107 48.4697 78.8107 48.3297 78.9307 48.2097C79.0407 48.0997 79.1307 47.9797 79.1907 47.8697C79.1307 47.7597 79.0708 47.6697 79.0208 47.6097C78.9608 47.5497 78.9107 47.4697 78.8507 47.3497C78.9607 47.2397 79.0807 47.1197 79.1907 46.9997C79.3007 46.8897 79.4208 46.7697 79.5308 46.6597C79.7608 46.3097 79.9607 46.0597 80.1307 45.8797V45.7097C80.1907 45.4797 80.2307 45.2497 80.2607 45.0197C80.2907 44.7897 80.3607 44.5897 80.4807 44.4197C80.5907 44.2497 80.6807 44.0597 80.7407 43.8597C80.8007 43.6597 80.8507 43.4697 80.9107 43.2997C80.9707 43.0697 81.0207 42.8597 81.0807 42.6497C81.1407 42.4497 81.2807 42.2897 81.5107 42.1797C81.6807 42.0097 81.7407 41.8697 81.6807 41.7497C81.6207 41.5797 81.6407 41.4197 81.7207 41.2797C81.8107 41.1397 81.9108 40.9797 82.0208 40.8097C82.0808 40.6997 82.1507 40.5797 82.2407 40.4597C82.3307 40.3497 82.3707 40.2297 82.3707 40.1197C82.2507 39.8297 82.3308 39.5997 82.5908 39.4297C82.8508 39.2597 82.9207 39.0297 82.8107 38.7397C83.1507 38.2197 83.3307 37.7097 83.3307 37.1897C83.3307 37.0197 83.3607 36.8597 83.4207 36.7197C83.4807 36.5797 83.5308 36.4197 83.5908 36.2497C83.8208 36.2497 83.9608 36.1897 84.0208 36.0797C84.1308 35.9697 84.1907 35.8497 84.1907 35.7297C84.1907 35.6097 84.2208 35.4997 84.2808 35.3897C84.3408 35.2197 84.3907 35.0397 84.4507 34.8697C84.5107 34.6997 84.5607 34.4997 84.6207 34.2697C84.7307 33.9797 84.8607 33.7097 85.0107 33.4497C85.1507 33.1897 85.2507 32.9197 85.3107 32.6297C85.3707 32.5197 85.4207 32.3697 85.4807 32.1997C85.5407 32.0297 85.6207 31.8897 85.7407 31.7697C85.9107 31.5997 86.0107 31.4097 86.0407 31.2097C86.0707 31.0097 86.1407 30.8497 86.2607 30.7397C86.3707 30.5697 86.4507 30.3797 86.4807 30.1797C86.5107 29.9797 86.5507 29.7897 86.6107 29.6197L86.7007 29.5297V29.4397C87.0507 28.9797 87.1907 28.5497 87.1307 28.1497C87.1307 28.0897 87.1907 28.0097 87.3007 27.8897L87.4707 27.7197C87.3507 27.4897 87.4407 27.3197 87.7307 27.1997L87.9907 26.9397C87.9907 26.6497 88.0507 26.4197 88.1607 26.2497C88.2707 26.0797 88.3607 25.8797 88.4207 25.6497C88.5307 25.2497 88.6508 24.8597 88.7708 24.4897C88.8808 24.1197 89.0607 23.7297 89.2907 23.3197C89.3507 23.2097 89.4008 23.0797 89.4608 22.9297C89.5208 22.7897 89.5208 22.6597 89.4608 22.5397C89.4008 22.3697 89.4408 22.2497 89.5908 22.1897C89.7308 22.1297 89.8107 22.0497 89.8107 21.9297C89.8707 21.7597 89.9507 21.5997 90.0707 21.4597C90.1807 21.3197 90.2407 21.1597 90.2407 20.9897C90.2407 20.7597 90.3307 20.4997 90.5007 20.2097C90.5007 20.0997 90.5607 19.9897 90.6707 19.9097C90.7807 19.8197 90.7807 19.7197 90.6707 19.6097C90.7807 19.1497 90.9107 18.7297 91.0607 18.3597C91.2007 17.9897 91.3307 17.5997 91.4507 17.1997C91.5607 16.8497 91.6407 16.4997 91.6707 16.1197C91.7007 15.7497 91.5708 15.4197 91.2808 15.1297C91.2208 15.0697 91.1907 15.0197 91.1907 14.9597C91.1907 14.8997 91.1607 14.8197 91.1007 14.6997C90.9807 14.6997 90.8508 14.7097 90.7108 14.7397C90.5708 14.7697 90.4407 14.6697 90.3207 14.4397C90.1507 14.2697 89.9507 14.1797 89.7207 14.1797C89.6607 14.1797 89.6007 14.2097 89.5507 14.2697C89.4907 14.3297 89.4107 14.3797 89.2907 14.4397C89.1707 14.4997 89.0607 14.5597 88.9507 14.6097C88.8307 14.6697 88.7207 14.6997 88.6007 14.6997C88.3707 14.6997 88.2007 14.8197 88.0807 15.0397C88.0207 15.2697 87.9107 15.4997 87.7407 15.7297C87.6207 15.8997 87.5207 16.0797 87.4407 16.2497C87.3507 16.4197 87.2507 16.6297 87.1407 16.8497C87.0207 17.0797 86.9507 17.2997 86.9207 17.4997C86.8907 17.6997 86.7907 17.8597 86.6207 17.9697C86.5607 17.9697 86.5308 17.9997 86.5308 18.0597C86.5908 18.2297 86.5908 18.3797 86.5308 18.4897C86.4708 18.5997 86.3908 18.7197 86.2708 18.8297C86.1508 19.2297 85.9807 19.4897 85.7507 19.6097C85.7507 19.8997 85.6907 20.1897 85.5807 20.4697C85.4707 20.7597 85.4707 21.0497 85.5807 21.3297C85.1807 21.3297 84.8907 21.5597 84.7207 22.0197C84.7207 22.5397 84.5507 22.9097 84.2007 23.1397C84.1407 23.1997 84.1107 23.3397 84.1107 23.5697C84.0507 23.7997 83.9907 24.0197 83.9407 24.2197C83.8807 24.4197 83.7707 24.6397 83.6007 24.8697C83.4807 24.9897 83.3807 25.0997 83.3007 25.2097C83.2107 25.3297 83.2007 25.4997 83.2607 25.7297C83.2607 25.8497 83.2307 25.9497 83.1707 26.0297C83.1107 26.1197 83.0607 26.2197 83.0007 26.3297L82.4807 27.2797C82.5407 27.5697 82.3907 27.7697 82.0507 27.8797C82.0507 27.9397 82.0807 27.9797 82.1407 28.0097C82.2007 28.0397 82.2007 28.0797 82.1407 28.1397C82.0807 28.3697 82.0207 28.5697 81.9707 28.7397C81.9107 28.9097 81.8308 29.1197 81.7108 29.3397C81.5408 29.6897 81.3407 30.0197 81.1107 30.3297C80.8807 30.6497 80.7407 31.0297 80.6807 31.4997L80.5908 31.6697C80.4708 31.8997 80.3607 32.0997 80.2407 32.2697C80.1207 32.4397 80.0108 32.6497 79.9008 32.8697C79.8408 32.9897 79.8008 33.1197 79.7708 33.2597C79.7408 33.3997 79.7007 33.5297 79.6407 33.6497C79.5307 34.1097 79.4107 34.3997 79.3007 34.5097C79.1307 34.6297 79.0507 34.7397 79.0807 34.8597C79.1107 34.9797 79.0607 35.0897 78.9507 35.1997C78.7207 35.4297 78.6007 35.6897 78.6007 35.9797C78.5407 36.2697 78.4407 36.5297 78.3007 36.7597C78.1607 36.9897 78.0307 37.2497 77.9107 37.5397C77.6807 37.9997 77.5407 38.3697 77.4807 38.6597L76.9608 39.9497L76.6607 40.2497C76.5707 40.3397 76.5907 40.4697 76.7007 40.6397L76.6107 40.8097C76.5007 40.9297 76.4207 41.0097 76.3907 41.0697C76.3607 41.1297 76.3207 41.2097 76.2607 41.3297C76.2007 41.4997 76.1607 41.6597 76.1307 41.7997C76.1007 41.9397 76.0607 42.0997 76.0007 42.2697C76.0007 42.4397 75.9407 42.5897 75.8307 42.6997C75.7107 42.8197 75.6307 42.9597 75.5707 43.1297C75.4507 43.3597 75.3407 43.7097 75.2307 44.1597C75.0007 44.6197 74.8308 44.9397 74.7108 45.1097C74.8208 45.3997 74.8007 45.6097 74.6207 45.7597C74.4507 45.8997 74.3308 46.0897 74.2708 46.3197C74.2108 46.6097 74.1307 46.8497 74.0107 47.0497C73.8907 47.2497 73.7807 47.4997 73.6607 47.7797C73.6007 47.9497 73.5608 48.1097 73.5308 48.2497C73.5008 48.3897 73.4608 48.5497 73.4008 48.7197C73.2408 49.0297 73.1107 49.3497 72.9907 49.6897C72.8907 49.8197 72.7908 49.9397 72.7108 50.0597C72.5408 50.3197 72.2807 50.5297 71.9307 50.7097C71.7607 50.8297 71.6008 50.9697 71.4608 51.1397C71.3208 51.3097 71.1907 51.4597 71.0707 51.5697C70.5507 52.0297 70.0808 52.5297 69.6508 53.0797C69.2208 53.6297 68.7707 54.1297 68.3107 54.5897C68.1407 54.7097 67.9907 54.8497 67.8807 55.0197C67.7607 55.1897 67.6508 55.3397 67.5308 55.4497C67.2408 55.7897 66.9807 56.1297 66.7507 56.4397C66.5207 56.7597 66.2607 57.0597 65.9707 57.3497C65.7407 57.6397 65.5407 57.8797 65.3707 58.0797C65.2007 58.2797 64.9908 58.4997 64.7708 58.7297C64.6508 58.8497 64.6007 58.9497 64.6007 59.0297C64.6007 59.1097 64.5407 59.1897 64.4307 59.2497C64.2007 59.3097 64.0607 59.4097 64.0007 59.5497C63.9407 59.6897 63.8607 59.8197 63.7407 59.9397C63.6207 60.0597 63.5207 60.1897 63.4407 60.3297C63.3507 60.4697 63.2508 60.5997 63.1408 60.7197C62.7908 61.0597 62.4507 61.3997 62.1007 61.7097C61.7607 62.0297 61.4408 62.3897 61.1508 62.7897C60.9208 63.1397 60.7207 63.3697 60.5507 63.4797C60.2607 63.5997 60.0307 63.7697 59.8607 63.9997C59.6907 64.2297 59.4907 64.4297 59.2607 64.5997C59.2007 64.6597 59.1607 64.7197 59.1307 64.7697C59.1007 64.8297 59.0307 64.8897 58.9107 64.9397C58.5607 65.1697 58.3907 65.0797 58.3907 64.6797C58.4507 64.4497 58.4607 64.2097 58.4307 63.9497C58.4007 63.6897 58.5007 63.4797 58.7307 63.2997C58.6107 63.0697 58.5607 62.9297 58.5607 62.8697L58.8207 62.0897C58.8807 61.7997 58.9207 61.5597 58.9507 61.3597C58.9807 61.1597 59.0207 60.9397 59.0807 60.7097C59.1407 60.4797 59.1907 60.2597 59.2507 60.0597C59.3107 59.8597 59.3607 59.6397 59.4207 59.4097C59.5307 59.1197 59.6207 58.8197 59.6807 58.4997C59.7407 58.1897 59.8207 57.8497 59.9407 57.5097C60.0507 57.0497 60.1708 56.7297 60.2808 56.5597C60.3908 56.2697 60.4207 56.0097 60.3707 55.7797C60.6007 55.5497 60.7207 55.3497 60.7207 55.1797C60.6007 55.0697 60.6307 54.9797 60.8107 54.9197C61.0407 54.7497 61.1807 54.5497 61.2407 54.3197C61.3007 54.0897 61.3507 53.8297 61.4107 53.5397C61.4707 53.3697 61.5107 53.1797 61.5407 52.9797C61.5707 52.7797 61.6708 52.6197 61.8408 52.5097C61.9508 52.3997 62.0007 52.2697 61.9707 52.1197C61.9407 51.9797 62.0107 51.8497 62.1907 51.7297C62.2507 51.7297 62.2308 51.6697 62.1508 51.5597C62.0608 51.4497 62.0807 51.3597 62.1907 51.2997C62.4807 51.1897 62.6207 50.9997 62.6207 50.7397C62.6207 50.4797 62.7107 50.2997 62.8807 50.1797C62.9407 49.7197 63.0407 49.2997 63.1807 48.9297C63.3207 48.5597 63.5107 48.1697 63.7407 47.7697C63.8007 47.6597 63.8708 47.5397 63.9608 47.4197C64.0508 47.3097 64.1207 47.1597 64.1807 46.9897C64.1807 46.6997 64.2207 46.4597 64.3107 46.2597C64.4007 46.0597 64.5007 45.8097 64.6107 45.5297C64.6107 45.2397 64.7007 45.0997 64.8707 45.0997C65.0407 44.9897 65.1807 44.7297 65.3007 44.3197C65.4107 43.9697 65.5007 43.6297 65.5607 43.2797C65.6207 42.9397 65.5907 42.5897 65.4807 42.2497C65.3607 42.0797 65.2807 41.9197 65.2207 41.7797C65.1607 41.6397 65.1007 41.5097 65.0507 41.3897L65.1407 41.2997C64.6807 41.1897 64.3607 41.0997 64.1907 41.0397C64.3007 40.9297 64.3907 40.8097 64.4507 40.6997C64.1607 40.5897 63.9507 40.5997 63.8007 40.7397C63.6607 40.8797 63.5008 40.9597 63.3308 40.9597C63.0408 40.9597 62.6708 41.0797 62.2108 41.3097C62.2108 41.4297 62.2508 41.5397 62.3408 41.6497C62.4308 41.7697 62.4107 41.8797 62.3007 41.9997L62.0407 41.7397C61.9307 41.9097 61.8408 42.0797 61.7808 42.2597C61.7208 42.4297 61.6408 42.5797 61.5208 42.6897C61.2308 42.9797 61.0307 43.2797 60.9207 43.5997C60.8107 43.9197 60.6607 44.2197 60.4907 44.5097C60.2607 44.8597 60.1508 45.1097 60.1508 45.2897C60.0908 45.6297 59.9607 45.9397 59.7607 46.1997C59.5607 46.4597 59.4007 46.7297 59.2907 47.0197C59.0607 47.4197 58.8707 47.8297 58.7307 48.2297C58.5907 48.6297 58.4307 49.0397 58.2607 49.4397C58.1507 49.7297 58.0607 49.9897 58.0007 50.2197C57.9407 50.4497 57.8307 50.6797 57.6607 50.9097C57.5507 51.0197 57.4907 51.1097 57.4907 51.1697C57.4907 51.2297 57.4608 51.3097 57.4008 51.4297C57.2908 51.7197 57.2007 51.9897 57.1407 52.2497C57.0807 52.5097 57.0007 52.7497 56.8807 52.9797C56.7707 53.2697 56.6407 53.5597 56.4907 53.8397C56.3507 54.1297 56.2708 54.4397 56.2708 54.7897C55.9808 55.3097 55.7407 55.8197 55.5407 56.3397C55.3407 56.8597 55.1807 57.4097 55.0707 57.9797C54.9607 58.3197 54.9008 58.6097 54.9008 58.8397C54.7908 59.1897 54.7007 59.4197 54.6407 59.5297C54.5807 59.6997 54.5407 59.8597 54.5107 59.9997C54.4807 60.1397 54.4707 60.2997 54.4707 60.4697V60.9897C54.4707 61.1597 54.4107 61.3097 54.3007 61.4197C54.1307 61.6497 54.0407 61.9997 54.0407 62.4497C53.9807 62.7397 53.9507 62.9997 53.9507 63.2297C53.9507 63.4597 53.9207 63.7197 53.8607 64.0097C53.8607 64.2997 53.8507 64.5697 53.8207 64.8297C53.7907 65.0897 53.8107 65.3597 53.8607 65.6497C53.8607 65.9397 53.8907 66.1797 53.9507 66.3797C54.0107 66.5797 54.0707 66.7997 54.1207 67.0297C54.2407 67.2597 54.3207 67.4897 54.3807 67.7197C54.4407 67.9497 54.5507 68.1797 54.7307 68.4097C54.8507 68.5797 54.9607 68.7397 55.0707 68.8797C55.1907 69.0197 55.3907 69.0397 55.6707 68.9197C55.7907 69.1497 55.8408 69.3197 55.8408 69.4397C56.1808 69.5597 56.4208 69.6697 56.5308 69.7897C56.7008 69.8997 56.9307 69.8997 57.2207 69.7897C57.3307 69.7897 57.4507 69.7597 57.5607 69.6997C57.6807 69.6397 57.7908 69.6697 57.9008 69.7897C57.9008 69.8497 57.9408 69.8797 58.0308 69.8797C58.1208 69.8797 58.1907 69.8497 58.2507 69.7897C58.4207 69.6197 58.5908 69.5897 58.7708 69.6997C58.8308 69.7597 58.9007 69.7697 58.9907 69.7397C59.0807 69.7097 59.1508 69.6997 59.2108 69.6997C59.5008 69.5897 59.7407 69.4697 59.9407 69.3497C60.1407 69.2397 60.3608 69.0897 60.5908 68.9197C60.8208 68.7497 61.0607 68.5897 61.3207 68.4497C61.5807 68.3097 61.8207 68.1497 62.0507 67.9797C62.4007 67.6297 62.7307 67.2897 63.0407 66.9397C63.3607 66.5997 63.6908 66.2197 64.0308 65.8197C64.2008 65.5897 64.3908 65.3597 64.5908 65.1297C64.7908 64.8997 64.9808 64.6697 65.1508 64.4397C65.3808 64.1497 65.5708 63.8897 65.7108 63.6597C65.8508 63.4297 66.0408 63.1997 66.2708 62.9697C66.6208 62.7397 66.8207 62.5097 66.8707 62.2797C67.0407 61.7597 67.3607 61.3897 67.8207 61.1597C67.9907 61.0497 68.1208 60.8997 68.2108 60.7297C68.3008 60.5597 68.4007 60.3897 68.5107 60.2097C68.6207 60.0397 68.7707 59.8897 68.9407 59.7797C69.1107 59.6697 69.2507 59.4897 69.3707 59.2597C69.6007 59.1997 69.7407 59.0897 69.8007 58.9197C69.8607 58.7497 69.9407 58.5797 70.0607 58.3997C70.0707 58.3597 70.1007 58.3097 70.1207 58.2597C70.0807 58.4497 70.0607 58.6597 70.0607 58.8797C70.0607 59.3097 69.9207 59.6697 69.6307 59.9597V60.1297C69.5207 60.5897 69.4608 60.9597 69.4608 61.2497C69.4008 61.3097 69.4307 61.4497 69.5507 61.6797C69.1507 61.9097 69.0607 62.1697 69.2907 62.4597C69.1807 62.6297 69.1207 62.7997 69.1207 62.9797V63.4997C69.1207 63.7897 69.0807 64.0597 68.9907 64.3197C68.9007 64.5797 68.8308 64.8497 68.7708 65.1397C68.7708 65.1997 68.7407 65.2297 68.6807 65.2297C68.6207 65.2297 68.5707 65.2597 68.5107 65.3197L68.4207 65.4897L68.6807 65.7497C68.5107 65.9197 68.4507 66.0397 68.5107 66.0897C68.6307 66.3197 68.6507 66.5497 68.6007 66.7797C68.5407 67.0097 68.5407 67.2697 68.6007 67.5597C68.6007 67.6797 68.6107 67.7597 68.6407 67.8197C68.6707 67.8797 68.6807 67.9597 68.6807 68.0797C68.5707 68.5997 68.5908 69.0897 68.7708 69.5497C68.8908 69.6697 68.8908 69.8397 68.7708 70.0697C68.7108 70.4697 68.7807 70.8197 68.9907 71.0997C69.1907 71.3897 69.3807 71.6797 69.5507 71.9597C69.4407 72.1897 69.4108 72.3297 69.4608 72.3897C69.5708 72.5597 69.6208 72.7397 69.5908 72.9097C69.5608 73.0797 69.6007 73.2597 69.7207 73.4297C69.8407 73.7697 69.9808 74.0297 70.1508 74.2097C70.3808 74.3797 70.6108 74.6997 70.8408 75.1597C71.1908 75.8497 71.7307 76.2197 72.4807 76.2797C72.5407 76.3897 72.5807 76.5197 72.6107 76.6697C72.6407 76.8097 72.7407 76.8897 72.9107 76.8897C73.1407 76.7697 73.3107 76.7597 73.4307 76.8497C73.5407 76.9397 73.6307 77.0097 73.6907 77.0697H74.5507C74.6607 77.1797 74.8107 77.2397 74.9807 77.2397C75.1507 77.2397 75.3007 77.2697 75.4107 77.3297C75.6407 77.3897 75.8007 77.3397 75.8807 77.1997C75.9707 77.0597 76.0707 76.9297 76.1807 76.8097C76.6407 76.9797 77.0107 76.9197 77.3007 76.6397L77.4707 76.5497C77.9307 76.4897 78.4207 76.2097 78.9407 75.6897C79.0007 75.6297 79.0407 75.5597 79.0707 75.4697C79.1007 75.3797 79.1707 75.3097 79.2907 75.2497C79.5807 75.1397 79.8107 74.9597 79.9807 74.7297C80.1507 74.4997 80.3207 74.2697 80.5007 74.0397C80.7307 73.8697 80.8907 73.6697 80.9707 73.4397C81.0507 73.2097 81.2408 73.0097 81.5308 72.8397C81.6408 72.8397 81.7007 72.7997 81.7007 72.7097C81.7007 72.6197 81.7307 72.5197 81.7907 72.4097C82.4207 71.8897 82.8807 71.2897 83.1707 70.5997C83.2307 70.4297 83.3007 70.2697 83.3907 70.1297C83.4807 69.9897 83.5807 69.8597 83.6907 69.7397C83.8107 69.5797 83.9407 69.4197 84.0607 69.2697C84.1407 69.6597 84.3307 69.9597 84.6407 70.1697C84.8707 70.3397 85.2707 70.5397 85.8507 70.7697C86.1407 70.9397 86.4807 70.9697 86.8807 70.8597C86.9407 70.8597 87.0007 70.8497 87.0507 70.8197C87.1107 70.7897 87.1707 70.7797 87.2207 70.7797C88.0307 70.7797 88.6907 70.5497 89.2007 70.0897C89.3207 69.9797 89.4307 69.8897 89.5507 69.8297C90.0107 69.5997 90.4707 69.2597 90.9307 68.7897C90.9907 68.7297 91.0307 68.6597 91.0607 68.5697C91.0907 68.4797 91.1307 68.4397 91.1907 68.4397C91.4207 68.3797 91.5807 68.2997 91.6607 68.1797C91.7507 68.0697 91.8508 67.9497 91.9608 67.8397C92.2508 67.5497 92.5107 67.2497 92.7407 66.9297C92.9707 66.6197 93.2308 66.2797 93.5208 65.9397C93.6908 65.6497 93.8407 65.3697 93.9507 65.0797C94.0607 64.7897 94.3007 64.5897 94.6407 64.4797C94.7007 64.1897 94.8107 63.9597 94.9907 63.7897C95.1607 63.6197 95.2507 63.3897 95.2507 63.0997L95.4207 62.9297C95.7107 62.7597 95.9407 62.5397 96.1107 62.2797C96.2807 62.0197 96.4507 61.7497 96.6307 61.4597C96.6907 61.2897 96.8307 61.0897 97.0607 60.8597H97.1508C97.1508 61.0297 97.1407 61.1997 97.1107 61.3797C97.0807 61.5497 97.0707 61.7197 97.0707 61.8997C97.0707 62.0797 97.0608 62.2397 97.0308 62.4197C97.0008 62.5897 97.0107 62.7397 97.0707 62.8497C97.1307 63.0797 97.1007 63.3097 96.9807 63.5397C96.8607 63.7697 96.8107 63.9197 96.8107 63.9697C96.7507 64.4897 96.7808 64.9997 96.9008 65.5197C97.0108 66.0397 97.1607 66.5297 97.3307 66.9897C97.4407 67.2197 97.5607 67.4397 97.6707 67.6397C97.7807 67.8397 97.9007 68.0597 98.0107 68.2897C98.0707 68.4097 98.1508 68.4897 98.2708 68.5497C98.3808 68.6097 98.5007 68.6897 98.6107 68.8097V68.8997C98.6107 68.9597 98.6407 68.9897 98.7007 68.9897C98.8107 69.1097 98.9307 69.1797 99.0507 69.2097C99.1607 69.2397 99.2807 69.2797 99.3907 69.3397C99.5007 69.3997 99.6107 69.4297 99.6907 69.4297C99.7707 69.4297 99.8807 69.4597 99.9907 69.5197C100.101 69.5197 100.221 69.5497 100.341 69.6097C100.451 69.6697 100.571 69.6697 100.681 69.6097C101.311 69.4997 101.831 69.3197 102.231 69.0897C102.861 68.6297 103.471 68.0597 104.041 67.3697C104.171 67.2397 104.291 67.1097 104.401 66.9597C104.421 66.9797 104.451 66.9997 104.471 67.0197V67.1097C104.181 67.6897 104.161 68.2597 104.381 68.8297C104.441 68.9497 104.451 69.0497 104.421 69.1297C104.391 69.2197 104.381 69.3197 104.381 69.4297L104.551 69.5197V69.6097C104.491 70.2997 104.811 70.6397 105.501 70.6397L105.851 70.8097C105.791 70.9297 105.761 71.0697 105.761 71.2397C106.161 71.5297 106.451 71.4697 106.621 71.0697C106.791 71.1297 106.971 71.1797 107.141 71.2397C107.311 71.2997 107.461 71.1797 107.571 70.8997C107.631 70.8997 107.661 70.8897 107.661 70.8597C107.661 70.8297 107.691 70.8197 107.751 70.8197C107.921 70.9397 108.081 70.9397 108.221 70.8197C108.361 70.7097 108.521 70.6197 108.691 70.5597C109.151 70.3897 109.351 70.0697 109.291 69.6097L109.461 69.6997H109.551C109.611 69.5897 109.671 69.4997 109.721 69.4397C109.781 69.3797 109.841 69.2997 109.891 69.1797C109.951 69.0097 110.011 68.8497 110.061 68.7097C110.121 68.5697 110.201 68.4097 110.321 68.2397C110.381 68.1297 110.491 68.0397 110.671 67.9797C110.841 67.9197 110.901 67.7797 110.841 67.5497C111.131 67.4397 111.301 67.2797 111.361 67.0797C111.421 66.8797 111.501 66.6297 111.621 66.3497C111.681 66.1197 111.821 65.9997 112.051 65.9997V65.5697C112.161 65.3997 112.251 65.2297 112.311 65.0497C112.371 64.8797 112.451 64.6997 112.571 64.5297C112.571 64.3597 112.601 64.2697 112.661 64.2697C112.951 64.1597 113.061 63.9797 113.011 63.7497C113.121 63.4597 113.271 63.1997 113.441 62.9697C113.611 62.7397 113.751 62.4797 113.871 62.1897C113.981 61.9597 114.141 61.7997 114.341 61.7197C114.541 61.6297 114.671 61.4497 114.731 61.1597C114.791 61.0497 114.841 60.9197 114.901 60.7697C114.961 60.6197 115.011 60.4997 115.071 60.3797C115.301 60.0297 115.421 59.7797 115.421 59.5997C115.481 59.4297 115.561 59.3097 115.681 59.2597C115.791 59.1997 115.881 59.0897 115.941 58.9097C115.941 58.5697 116.111 58.2197 116.461 57.8797C116.801 57.5397 116.951 57.2197 116.891 56.9297C116.891 56.6397 117.061 56.3797 117.411 56.1497C117.641 55.9797 117.811 55.7797 117.931 55.5497C118.051 55.3197 118.161 55.0897 118.281 54.8597C118.391 54.5697 118.541 54.2997 118.711 54.0397C118.881 53.7797 119.141 53.5897 119.491 53.4797C119.371 53.2497 119.401 53.0497 119.581 52.8797C119.871 52.5397 120.141 52.1797 120.401 51.7997C120.661 51.4297 120.931 51.0697 121.221 50.7197C121.561 50.2597 121.821 49.9397 122.001 49.7697C122.061 49.7097 122.171 49.6797 122.351 49.6797C122.291 49.9697 122.261 50.2297 122.261 50.4597C122.261 50.6897 122.201 50.9197 122.091 51.1497C121.981 51.4397 121.861 51.7297 121.751 52.0097C121.631 52.2997 121.551 52.6097 121.491 52.9597C121.431 53.1897 121.401 53.4097 121.401 53.6097C121.401 53.8097 121.371 54.0297 121.311 54.2597C121.191 54.3197 121.111 54.3797 121.051 54.4297C120.991 54.4897 120.911 54.5497 120.791 54.5997C120.851 54.7697 120.881 54.9797 120.881 55.1997C120.771 55.3197 120.681 55.3897 120.621 55.4197C120.561 55.4497 120.501 55.4897 120.451 55.5497C120.451 55.6697 120.461 55.7497 120.491 55.8097C120.521 55.8697 120.531 55.9297 120.531 55.9797C120.301 56.3797 120.191 56.8997 120.191 57.5297C120.191 57.8197 120.051 58.1097 119.761 58.3897C119.871 58.5597 119.901 58.6797 119.851 58.7297C119.851 59.0797 119.821 59.3297 119.761 59.5097C119.701 59.7397 119.691 59.9597 119.721 60.1597C119.751 60.3597 119.701 60.5497 119.591 60.7197C119.531 61.0097 119.501 61.3797 119.501 61.8397C119.501 61.9597 119.531 62.0697 119.591 62.1897C119.651 62.2997 119.651 62.4197 119.591 62.5297C119.531 62.6497 119.561 62.7497 119.681 62.8297C119.791 62.9197 119.791 63.0497 119.681 63.2197C119.791 63.3897 119.881 63.5897 119.941 63.8197C120.001 64.0497 120.201 64.1897 120.541 64.2497C120.311 64.6497 120.371 65.0297 120.711 65.3697C120.821 65.4297 120.941 65.5697 121.051 65.7997C121.221 66.1397 121.501 66.4297 121.871 66.6597C122.241 66.8897 122.631 66.9797 123.041 66.9197C123.211 66.8597 123.401 66.8497 123.601 66.8797C123.801 66.9097 123.961 66.8397 124.071 66.6597H124.591C125.161 66.4897 125.941 66.0597 126.921 65.3697C127.091 65.2597 127.281 65.1097 127.481 64.9397C127.681 64.7697 127.901 64.5997 128.131 64.4197C128.241 64.3097 128.371 64.1897 128.521 64.0697C128.661 63.9597 128.791 63.8397 128.911 63.7297C129.081 63.6197 129.241 63.4697 129.381 63.2997C129.521 63.1297 129.681 62.9797 129.851 62.8697C130.141 62.5797 130.411 62.2997 130.671 62.0097C130.931 61.7197 131.201 61.4397 131.491 61.1497C131.601 61.0397 131.711 60.9197 131.791 60.8097C131.881 60.6997 131.981 60.5797 132.091 60.4697L132.781 59.7797C133.011 59.5497 133.211 59.3197 133.381 59.0897C133.671 58.6897 133.951 58.3097 134.241 57.9697C134.531 57.6197 134.791 57.2797 135.021 56.9397C135.311 56.4797 135.551 56.1297 135.751 55.8997C135.951 55.6697 136.111 55.4097 136.221 55.1197C136.281 55.0097 136.391 54.9197 136.571 54.8597C136.741 54.7997 136.861 54.7197 136.911 54.5997C137.081 54.3697 137.151 54.0997 137.131 53.7797C137.101 53.4697 137.141 53.1597 137.261 52.8697C137.321 52.7597 137.431 52.6097 137.601 52.4397C137.771 52.2697 137.891 52.1297 137.941 52.0097C138.051 51.8397 138.071 51.6197 137.981 51.3597C137.891 51.0997 137.911 50.8597 138.021 50.6297C138.421 50.2297 138.681 49.9397 138.801 49.7697L138.851 49.6697ZM94.6907 46.2997C94.7507 46.3597 94.8007 46.3897 94.8607 46.3897C94.8007 46.4497 94.7708 46.4897 94.7708 46.5197C94.7708 46.5497 94.7407 46.5897 94.6807 46.6497C94.6807 46.5897 94.6707 46.5597 94.6407 46.5597C94.6107 46.5597 94.6007 46.5297 94.6007 46.4697L94.6907 46.2997ZM97.8007 59.7597L97.7108 59.6697C97.7108 59.6097 97.7207 59.5797 97.7507 59.5797C97.7807 59.5797 97.7907 59.5497 97.7907 59.4897C97.8507 59.5497 97.8807 59.6097 97.8807 59.6597L97.7907 59.7497L97.8007 59.7597ZM99.0908 50.7897C98.9708 51.1297 98.8307 51.4797 98.6607 51.8197C98.5507 52.0497 98.4108 52.2497 98.2708 52.4197C98.1308 52.5897 98.0007 52.7897 97.8807 53.0197C97.7607 53.2497 97.6508 53.4697 97.5308 53.6697C97.4208 53.8697 97.2407 54.0597 97.0107 54.2297C96.8907 54.4597 96.8107 54.6597 96.7507 54.8297C96.6307 55.1197 96.4808 55.3897 96.2808 55.6497C96.0808 55.9097 95.9207 56.1797 95.8107 56.4697C95.7507 56.5897 95.6808 56.7197 95.5908 56.8597C95.5008 56.9997 95.4007 57.1297 95.2907 57.2497C94.8307 57.8297 94.4107 58.3997 94.0407 58.9697C93.6607 59.5497 93.2807 60.1197 92.8707 60.6897C92.7507 60.8097 92.6507 60.9397 92.5707 61.0797C92.4807 61.2197 92.3808 61.3497 92.2708 61.4697C91.9808 61.8697 91.6907 62.2797 91.4107 62.6797C91.1207 63.0797 90.8407 63.4897 90.5507 63.8897L90.3807 64.0597C90.1507 64.2897 90.0107 64.4597 89.9507 64.5797C89.8407 64.6997 89.7607 64.7797 89.7307 64.8397C89.7007 64.8997 89.6307 64.9597 89.5107 65.0097C88.9907 65.5297 88.4507 65.9897 87.8707 66.3897C87.7607 66.5097 87.4707 66.6797 87.0107 66.9097C87.1307 66.6197 87.1007 66.3597 86.9207 66.1297C86.7507 65.8997 86.7807 65.6397 87.0107 65.3497C86.9207 65.1297 86.8707 64.9197 86.8807 64.7197C87.0307 64.4597 87.1707 64.2097 87.3107 63.9697C87.5107 63.6297 87.7007 63.2497 87.8707 62.8497C88.0407 62.5597 88.2207 62.2597 88.3907 61.9397C88.5607 61.6297 88.7007 61.3197 88.8207 61.0297C88.9907 60.7397 89.1608 60.4597 89.3408 60.1697C89.5108 59.8797 89.6807 59.5997 89.8607 59.3097C89.9707 59.0797 90.0607 58.8697 90.1207 58.6597C90.1807 58.4597 90.2908 58.2997 90.4608 58.1897C90.5708 58.0797 90.6507 57.9597 90.6807 57.8497C90.7107 57.7397 90.7507 57.6197 90.8107 57.4997C90.9207 57.3897 90.9807 57.2797 90.9807 57.1997C90.9807 57.1197 91.0408 57.0097 91.1508 56.8997C91.3208 56.8397 91.4107 56.6097 91.4107 56.2097C91.5207 56.0397 91.6407 55.7797 91.7607 55.4297C91.8707 55.1997 91.9307 54.9997 91.9307 54.8297C92.2707 54.5997 92.5007 54.3997 92.6207 54.2297C92.7307 53.9997 92.8407 53.7697 92.9207 53.5397C93.0107 53.3097 93.1107 53.0797 93.2207 52.8497C93.2807 52.7097 93.3407 52.5697 93.4107 52.4297C93.4307 52.3997 93.4507 52.3597 93.4807 52.3297C93.6507 52.2197 93.9107 51.9897 94.2607 51.6397C94.3707 51.5297 94.4608 51.4197 94.5208 51.3397C94.5808 51.2497 94.6907 51.1497 94.8707 51.0397C94.9807 50.9797 95.0907 50.8997 95.1707 50.7797C95.2607 50.6697 95.3607 50.5497 95.4707 50.4297C95.7007 50.2597 95.9307 50.0997 96.1607 49.9597C96.3907 49.8197 96.6507 49.6297 96.9407 49.3997L97.7207 48.8797C97.9507 48.7697 98.1207 48.7097 98.2407 48.7097C98.6407 48.7097 98.8907 48.7497 98.9707 48.8397C99.0607 48.9297 99.1307 49.1697 99.1907 49.5697C99.2507 50.0297 99.2207 50.4297 99.1007 50.7797L99.0908 50.7897Z" fill="white"/>
</svg>
