<svg width="231" height="451" viewBox="0 0 231 451" fill="none" xmlns="http://www.w3.org/2000/svg">
<path fill-rule="evenodd" clip-rule="evenodd" d="M20.4344 58.1492L0.113281 127.056L42.8175 181.002L45.5834 262.919L37.1774 416.295V448.215H40.8138V426.396L54.9555 448.215L101.825 450.639L75.9661 438.518L69.5013 421.547H75.9661L101.825 221.111L174.565 216.483V288.986L168.394 306.727H161.452V334.494H168.394V316.754L187.677 334.494H230.1L203.875 326.781L196.933 292.843L223.158 292.072L208.503 211.084L196.933 188.715L118.259 175.846L100.519 139.594L111.852 82.5165L161.452 70.7042L153.739 25.1966H137.542L123.658 13.6265L122.135 6.66131L123.658 0.976562H118.259L116.867 4.86619L116.409 8.99859H90.4915L96.6621 25.1966H108.232L123.658 29.8241L112.088 33.6807L118.259 40.6225L123.658 51.4209L85.371 45.0391H77.0465H65.8524H54.2326H46.2594L34.1776 46.8443L20.4344 58.1492ZM33.9596 95.6924L21.9479 124.397L46.2594 144.75L33.9596 95.6924Z" fill="#BC0123"/>
<rect x="109.426" y="29.5664" width="32.9434" height="5.41697" transform="rotate(-32.0481 109.426 29.5664)" fill="white"/>
</svg>
