<svg width="231" height="450" viewBox="0 0 231 450" fill="none" xmlns="http://www.w3.org/2000/svg">
<path fill-rule="evenodd" clip-rule="evenodd" d="M20.8543 57.4852L0.533203 126.392L43.2374 180.338L46.0033 262.255L37.5973 415.631V447.551H41.2338V425.732L55.3755 447.551L102.245 449.975L76.386 437.853L69.9212 420.883H76.386L102.245 220.447L174.985 215.819V288.322L168.814 306.063H161.872V333.83H168.814V316.09L188.097 333.83H230.519L204.295 326.117L197.353 292.179L223.578 291.408L208.923 210.419L197.353 188.051L118.679 175.182L100.939 138.93L112.272 81.8524L161.872 70.0401L154.159 24.5326H137.962L124.078 12.9624L122.555 5.99725L124.078 0.3125H118.679L117.287 4.20213L116.829 8.33453H90.9115L97.082 24.5326H108.652L124.078 29.16L112.508 33.0166L118.679 39.9585L124.078 50.7569L85.791 44.3751H77.4665H66.2723H54.6525H46.6794L34.5975 46.1803L20.8543 57.4852ZM34.3796 95.0283L22.3678 123.732L46.6794 144.086L34.3796 95.0283Z" fill="white"/>
<rect x="109.846" y="28.9023" width="32.9434" height="5.41697" transform="rotate(-32.0481 109.846 28.9023)" fill="#BC0123"/>
</svg>
