<svg width="908" height="2166" viewBox="0 0 908 2166" fill="none" xmlns="http://www.w3.org/2000/svg">
<path fill-rule="evenodd" clip-rule="evenodd" d="M412.941 41.5039C452.636 52.3631 537.521 59.4245 559.506 0.796875L629.734 18.0975L729.48 9.95499C747.648 10.1512 791.608 51.9527 822.101 217.588C823.39 220.575 822.095 229.12 806.599 239.411L907.801 539.632L878.517 770.928L874.039 817.646L867.616 841.178L871.618 955.64L808.94 1033.58C770.165 1033.58 768.526 1033.58 768.526 1033.58L789.199 950.211L768.526 982.277L762.977 980.244L792.228 846.932L806.456 797.296L824.126 551.884L719.302 296.77L666.091 539.632H658.736V590.478H666.091L776.304 1315.66L742.776 1694.04L656.563 2010.16L723.038 2070.7L710.458 2093.34L723.038 2110.96V2147.06L694.104 2165.05H656.563L603.529 2110.96H551.952L528.05 2082.02L506.664 2039.25L500.374 1953.71L568.305 1605.24L584.659 1388.87L490.31 1051.73L448.797 971.259L436.217 1406.48L478.988 1878.23L500.374 2082.02L409.799 2110.96L345.643 2165.05L286.743 2157.6L271.421 2132.08V2103.41L292.806 2082.02L277.712 2016.61L345.643 1928.55L277.712 1630.4L227.392 1381.32L197.201 816.485L301.614 539.632H325.515L344.385 509.536L126.427 490.417L109.133 530.635L72.9555 550.208L0.59375 509.536L32.029 462.426L27.2854 439.089L72.9555 420.315L114.214 431.758L147.674 435.526L171.855 447.578L281.484 357.319L267.656 305.692L256.332 311.869L237.802 239.411V187.307L247.067 117.305L375.747 70.9803L412.941 41.5039ZM344.268 480.557L345.29 469.549C332.63 471.697 319.832 472.931 306.995 473.242L134.736 477.408L344.268 480.557ZM162.641 473.043L209.995 464.575L208.152 458.858C201.981 464.242 190.647 466.652 178.979 469.133C173.436 470.311 167.817 471.506 162.641 473.043ZM169.502 485.412C180.963 485.331 203.753 485.172 212.443 482.726L214.857 488.895C208.077 487.747 200.265 487.58 192.358 487.41C183.465 487.22 174.451 487.026 166.65 485.433C167.489 485.426 168.443 485.419 169.492 485.412H169.502Z" fill="#BC0123"/>
<path d="M770.165 826.635L768.526 844.791L885.783 855.381L887.421 837.225L770.165 826.635Z" fill="white"/>
</svg>
