<svg width="231" height="450" viewBox="0 0 231 450" fill="none" xmlns="http://www.w3.org/2000/svg">
<path fill-rule="evenodd" clip-rule="evenodd" d="M25.4484 50.4444L0.890625 126.079L43.5948 180.026L46.3607 261.942L37.9547 415.318V447.238H41.5912V425.419L55.7329 447.238L102.603 449.662L76.7434 437.541L70.2787 420.571H76.7434L102.603 220.134L175.342 215.506V288.01L169.172 305.75H162.23V333.517H169.172V315.777L188.455 333.517H230.877L204.652 325.804L197.71 291.866L223.935 291.095L209.28 210.107L197.71 187.739L119.036 174.869L101.296 138.617L112.63 81.5399L162.23 69.7276L154.517 24.2201H138.319L124.435 12.6499L122.912 5.68475L124.435 0H119.036L117.645 3.88963L117.187 8.02203H91.2689L97.4394 24.2201H109.009L124.435 28.8475L112.866 32.7041L119.036 39.646L124.435 50.4444L106.68 44.0626L91.0847 43.337L79.7392 39.646L74.3919 52.9537L69.7491 83.1769L62.3677 52.9537L55.8902 39.646L45.0059 45.267L25.4484 50.4444ZM34.737 94.7158L22.7252 123.42L47.0368 143.774L34.737 94.7158Z" fill="white"/>
<rect x="108.48" y="28.5898" width="32.9434" height="5.41697" transform="rotate(-32.0481 108.48 28.5898)" fill="#BC0123"/>
</svg>
