<svg width="230" height="450" viewBox="0 0 230 450" fill="none" xmlns="http://www.w3.org/2000/svg">
<path fill-rule="evenodd" clip-rule="evenodd" d="M24.5715 50.624L0.0136719 126.259L42.7179 180.205L45.4838 262.122L37.0778 415.498V447.418H40.7142V425.599L54.8559 447.418L101.726 449.842L75.8665 437.721L69.4017 420.751H75.8665L101.726 220.314L174.465 215.686V288.19L168.295 305.93H161.353V333.697H168.295V315.957L187.578 333.697H230L203.775 325.984L196.833 292.046L223.058 291.275L208.403 210.287L196.833 187.919L118.159 175.049L100.419 138.797L111.753 81.7196L161.353 69.9073L153.64 24.3997H137.442L123.558 12.8296L122.035 5.86444L123.558 0.179688H118.159L116.768 4.06931L116.31 8.20172H90.3919L96.5625 24.3997H108.132L123.558 29.0272L111.989 32.8838L118.159 39.8256L123.558 50.624L105.803 44.2423L90.2077 43.5167L78.8623 39.8256L73.5149 53.1334L68.8722 83.3566L61.4907 53.1334L55.0132 39.8256L44.1289 45.4467L24.5715 50.624ZM33.86 94.8955L21.8483 123.6L46.1598 143.954L33.86 94.8955Z" fill="#BC0123"/>
<rect x="107.604" y="28.7695" width="32.9434" height="5.41697" transform="rotate(-32.0481 107.604 28.7695)" fill="white"/>
</svg>
