<svg width="261" height="452" viewBox="0 0 261 452" fill="none" xmlns="http://www.w3.org/2000/svg">
<path d="M41.4753 51.6357C40.7016 52.4312 39.9328 53.2267 39.1616 54.0114C34.0829 59.1659 28.9563 64.2693 23.938 69.4856C20.8858 72.654 19.1341 76.5185 18.8871 81.1409C18.8845 81.2161 18.8795 81.2887 18.8745 81.3639L17.836 90.8263C17.6016 95.1746 17.1958 99.5147 16.8934 103.855C16.717 106.287 17.1328 106.964 19.2979 107.687C21.41 108.394 23.4768 109.281 25.662 109.762C26.1208 109.864 26.7836 110.052 26.7105 110.716C26.6929 110.885 26.6475 111.001 26.577 111.081L2.83433 108.381C2.7814 108.281 2.76124 108.163 2.77636 107.988C2.83937 107.33 3.52241 107.295 3.9887 107.3C6.22181 107.319 8.41712 106.919 10.6225 106.706C12.8808 106.489 13.4278 105.922 13.7328 103.5C14.2948 99.1922 14.7611 94.8709 15.3887 90.5737L16.4271 81.114C16.4372 81.0334 16.4523 80.9474 16.4624 80.8668C17.1404 76.2928 16.1927 72.1192 13.8361 68.3353C9.9672 62.1059 5.96725 55.9625 2.02779 49.7787C1.42288 48.8408 0.833096 47.8868 0.230709 46.9381C0.192902 46.8683 0.245832 46.7661 0.288679 46.7285C0.326486 46.6936 0.46007 46.6855 0.490315 46.7285C1.14311 47.6261 1.79591 48.521 2.44114 49.4159C6.66541 55.2664 10.8594 61.1465 15.1366 66.954C16.2734 68.4939 17.5159 69.3619 18.8241 69.5608C20.1397 69.6575 21.526 69.0878 22.9425 67.8409C28.2732 63.1298 33.5359 58.3274 38.8238 53.5626C39.6329 52.8316 40.447 52.106 41.2636 51.3751C41.3014 51.3428 41.43 51.3778 41.4602 51.4181C41.4955 51.4664 41.5257 51.5793 41.4728 51.6357H41.4753Z" fill="#BC0123"/>
<path d="M38.4553 52.9011L32.9456 57.975C32.9456 57.975 32.9355 57.983 32.928 57.9884L32.4541 58.4076H32.4516C32.134 58.6844 31.8215 58.9451 31.5191 59.2139C31.2897 59.4235 31.0603 59.6331 30.831 59.84C28.124 62.3044 25.3969 64.7419 22.6446 67.1525C21.3616 68.2731 20.1291 68.8106 18.9546 68.7703C18.9546 68.7703 17.2231 68.6548 15.5596 66.3463C13.208 63.0811 10.7934 59.8642 8.45947 56.5856C8.01839 55.9728 6.43555 53.6912 6.43555 53.6912L38.4528 52.8984L38.4553 52.9011Z" fill="#BC0123"/>
<path d="M235.627 13.2892L195.156 0.699219C184.915 4.82712 167.107 9.42751 167.107 9.42751H143.01L110.649 28.0344L87.0031 97.4226L35.8342 81.9169V84.6304L24.9801 79.9787H4.04785L10.2494 97.4226L31.9575 104.01L29.6313 112.153L98.8813 127.623L117.746 104.01V118.851L90.6282 168.856L97.1128 175.635L92.102 183.888L97.1128 306.945L95.639 315.643L105.071 396.7L92.7178 421.699L86.2178 426.145L88.5656 435.902L111.851 432.365L123.64 402.051L120.103 386.089L123.64 336.276L121.714 310.418L125.963 293.892L136.519 202.783L139.058 203.347L141.837 204.114L145.026 204.674L148.936 205.393L163.443 313.919L193.92 415.366V429.199L182.218 439.699L177.718 449.699L184.718 451.699H197.718L218.307 426.145L210.362 402.051L190.073 306.945L195.914 193.413H200.699C199.104 174.008 195.515 134.082 193.92 129.617C192.325 125.151 195.914 126.427 197.908 127.623L200.699 118.851H218.307V191.442H229.927L228.194 199.752L233.617 210.175L237.7 219.099H241.783L237.7 207.349L252.688 223.52L260.887 218.084L250.879 200.59L243.07 189.569H245.521L235.627 13.2892Z" fill="white"/>
<rect x="217.622" y="196.188" width="30.3878" height="4.57045" transform="rotate(-9.22543 217.622 196.188)" fill="#BC0123"/>
</svg>
