<svg width="261" height="451" viewBox="0 0 261 451" fill="none" xmlns="http://www.w3.org/2000/svg">
<path d="M41.2576 50.9365C40.4838 51.732 39.715 52.5275 38.9438 53.3122C33.8651 58.4667 28.7385 63.5701 23.7203 68.7863C20.668 71.9548 18.9163 75.8193 18.6693 80.4417C18.6668 80.5169 18.6617 80.5895 18.6567 80.6647L17.6183 90.1271C17.3839 94.4753 16.9781 98.8155 16.6756 103.156C16.4992 105.588 16.9151 106.265 19.0801 106.988C21.1923 107.695 23.259 108.582 25.4443 109.063C25.903 109.165 26.5659 109.353 26.4928 110.017C26.4751 110.186 26.4298 110.302 26.3592 110.382L2.61656 107.681C2.56363 107.582 2.54347 107.464 2.55859 107.289C2.6216 106.631 3.30464 106.596 3.77092 106.601C6.00404 106.62 8.19935 106.219 10.4047 106.007C12.6631 105.789 13.21 105.222 13.515 102.801C14.077 98.493 14.5433 94.1717 15.1709 89.8745L16.2093 80.4148C16.2194 80.3342 16.2345 80.2482 16.2446 80.1675C16.9226 75.5936 15.9749 71.42 13.6183 67.6361C9.74943 61.4067 5.74948 55.2633 1.81002 49.0795C1.20511 48.1416 0.615323 47.1876 0.0129354 46.2389C-0.0248713 46.169 0.0280581 46.0669 0.0709057 46.0293C0.108712 45.9944 0.242296 45.9863 0.272542 46.0293C0.925338 46.9269 1.57813 47.8218 2.22337 48.7167C6.44764 54.5672 10.6417 60.4473 14.9189 66.2548C16.0556 67.7947 17.2982 68.6627 18.6063 68.8616C19.922 68.9583 21.3082 68.3886 22.7247 67.1416C28.0554 62.4306 33.3181 57.6282 38.606 52.8634C39.4151 52.1324 40.2292 51.4068 41.0458 50.6758C41.0836 50.6436 41.2122 50.6785 41.2424 50.7188C41.2777 50.7672 41.308 50.8801 41.255 50.9365H41.2576Z" fill="white"/>
<path d="M38.2376 52.2019L32.7279 57.2757C32.7279 57.2757 32.7178 57.2838 32.7102 57.2892L32.2364 57.7084H32.2338C31.9163 57.9852 31.6037 58.2459 31.3013 58.5146C31.0719 58.7243 30.8426 58.9339 30.6132 59.1408C27.9062 61.6052 25.1791 64.0427 22.4268 66.4533C21.1439 67.5739 19.9114 68.1114 18.7368 68.0711C18.7368 68.0711 17.0053 67.9555 15.3418 65.647C12.9902 62.3818 10.5756 59.165 8.24169 55.8864C7.80062 55.2736 6.21777 52.992 6.21777 52.992L38.235 52.1992L38.2376 52.2019Z" fill="white"/>
<path d="M235.409 12.59L194.938 0C184.698 4.12791 166.889 8.72829 166.889 8.72829H142.792L110.432 27.3352L86.7854 96.7234L35.6164 81.2177V83.9312L24.7624 79.2795H3.83008L10.0316 96.7234L31.7397 103.311L29.4136 111.454L98.6635 126.924L117.528 103.311V118.152L90.4104 168.156L96.895 174.936L91.8842 183.189L96.895 306.246L95.4212 314.944L104.853 396.001L92.5 421L86 425.446L88.3479 435.203L111.633 431.666L123.422 401.352L119.885 385.39L123.422 335.576L121.496 309.718L125.745 293.193L136.301 202.083L138.84 202.648L141.672 203.406L144.73 204.031L148.718 204.694L163.225 313.22L193.703 414.667V428.5L182 439L177.5 449L184.5 451H197.5L218.089 425.446L210.145 401.352L189.855 306.246L195.696 192.714H200.481C198.886 173.309 195.297 133.383 193.703 128.917C192.108 124.452 195.696 125.728 197.69 126.924L200.481 118.152H218.089V190.743H229.709L227.977 199.053L233.399 209.476L237.482 218.4H241.565L237.482 206.649L252.471 222.821L260.669 217.385L250.661 199.891L242.852 188.87H245.303L235.409 12.59Z" fill="#BC0123"/>
<rect x="217.404" y="195.488" width="30.3878" height="4.57045" transform="rotate(-9.22543 217.404 195.488)" fill="white"/>
</svg>
