<svg width="251" height="454" viewBox="0 0 251 454" fill="none" xmlns="http://www.w3.org/2000/svg">
<path d="M231.729 12.8283L191.258 0.238281C181.018 4.36619 163.21 8.96657 163.21 8.96657H139.112L106.752 27.5735L83.1057 96.9617L31.9367 81.456V84.1695L21.0827 79.5177H0.150391L6.35194 96.9617L28.06 103.549L25.7339 111.692L94.9838 127.162L113.848 103.549V118.39L86.7307 168.395L93.2153 175.174L88.2045 183.427L93.2153 306.484L91.7415 315.182L101.174 396.239L87.0255 421.588L82.8995 425.684L84.6682 435.441L107.953 431.904L119.743 401.59L116.206 385.628L119.743 335.815L117.816 309.957L122.065 293.431L132.621 202.322L135.161 202.886H138.217L140.876 204.932H145.039L159.546 313.458L190.023 414.905L186.175 441.535L181.737 453.582H196.801L214.41 425.684L206.465 401.59L186.175 306.484L192.017 192.952H196.801C195.206 173.547 191.618 133.621 190.023 129.156C188.428 124.69 192.017 125.966 194.01 127.162L196.801 118.39H214.41V190.981H226.03L224.297 199.291L231.834 215.622V225.443H235.917V212.796L245.547 230.697L250.426 220.002L245.547 207.652L239.172 189.108H241.623L231.729 12.8283Z" fill="#BC0123"/>
<rect x="217.643" y="195.715" width="30.3878" height="4.57045" transform="rotate(-9.22543 217.643 195.715)" fill="white"/>
<path d="M14.0332 75.8945L1.45508 58.1836H25.8421L14.0332 75.8945V100.795L22.2482 113.373H4.79239L14.0332 100.795V75.8945Z" fill="#BC0123"/>
<path d="M14.0332 75.8945L1.45508 58.1836H25.8421L14.0332 75.8945ZM14.0332 75.8945V100.795M14.0332 100.795L22.2482 113.373H4.79239L14.0332 100.795Z" stroke="#BC0123"/>
</svg>
