<svg width="262" height="457" viewBox="0 0 262 457" fill="none" xmlns="http://www.w3.org/2000/svg">
<path d="M41.9431 51.6865C41.1693 52.482 40.4006 53.2775 39.6293 54.0622C34.5506 59.2167 29.424 64.3201 24.4058 69.5363C21.3536 72.7048 19.6018 76.5693 19.3548 81.1917C19.3523 81.2669 19.3473 81.3395 19.3422 81.4147L18.3038 90.8771C18.0694 95.2253 17.6636 99.5655 17.3612 103.906C17.1847 106.338 17.6006 107.015 19.7657 107.738C21.8778 108.445 23.9446 109.332 26.1298 109.813C26.5885 109.915 27.2514 110.103 27.1783 110.767C27.1607 110.936 27.1153 111.052 27.0447 111.132L3.30211 108.431C3.24918 108.332 3.22901 108.214 3.24414 108.039C3.30715 107.381 3.99019 107.346 4.45647 107.351C6.68959 107.37 8.8849 106.969 11.0903 106.757C13.3486 106.539 13.8956 105.972 14.2005 103.551C14.7626 99.243 15.2289 94.9217 15.8565 90.6245L16.8949 81.1648C16.905 81.0842 16.9201 80.9982 16.9302 80.9175C17.6082 76.3436 16.6605 72.17 14.3039 68.3861C10.435 62.1567 6.43502 56.0133 2.49556 49.8295C1.89065 48.8916 1.30087 47.9376 0.698482 46.9889C0.660676 46.919 0.713605 46.8169 0.756453 46.7793C0.794259 46.7444 0.927843 46.7363 0.958088 46.7793C1.61088 47.6769 2.26368 48.5718 2.90892 49.4667C7.13319 55.3172 11.3272 61.1973 15.6044 67.0048C16.7411 68.5447 17.9837 69.4127 19.2918 69.6116C20.6075 69.7083 21.9938 69.1386 23.4102 67.8916C28.741 63.1806 34.0037 58.3782 39.2916 53.6134C40.1007 52.8824 40.9148 52.1568 41.7314 51.4258C41.7692 51.3936 41.8977 51.4285 41.928 51.4688C41.9633 51.5172 41.9935 51.6301 41.9406 51.6865H41.9431Z" fill="white"/>
<path d="M38.9231 52.9519L33.4134 58.0257C33.4134 58.0257 33.4033 58.0338 33.3958 58.0392L32.9219 58.4584H32.9194C32.6018 58.7352 32.2893 58.9959 31.9868 59.2646C31.7575 59.4743 31.5281 59.6839 31.2987 59.8908C28.5918 62.3552 25.8647 64.7927 23.1123 67.2033C21.8294 68.3239 20.5969 68.8614 19.4224 68.8211C19.4224 68.8211 17.6908 68.7055 16.0273 66.397C13.6758 63.1318 11.2612 59.915 8.92724 56.6364C8.48616 56.0236 6.90332 53.742 6.90332 53.742L38.9206 52.9492L38.9231 52.9519Z" fill="white"/>
<path d="M236.095 13.34L195.624 0.75C185.383 4.87791 167.575 9.47829 167.575 9.47829H143.477L111.117 28.0852L87.4709 97.4734L36.3019 81.9677V84.6812L25.4479 80.0295H4.51562L10.7172 97.4734L32.4252 104.061L30.0991 112.204L99.3491 127.674L118.213 104.061V118.902L91.096 168.906L97.5805 175.686L92.5697 183.939L97.5805 306.996L96.1068 315.694L105.539 396.751L93.1855 421.75L86.6855 426.196L89.0334 435.953L112.319 432.416L120.571 409.619L121.95 426.196H124.108V402.102L120.571 386.14L124.108 336.326L122.182 310.468L126.431 293.943L136.986 202.833L139.526 203.398L142.304 204.165L145.494 204.725L149.404 205.444L163.911 313.97L194.388 415.417L192.884 427.723L186.902 441.928L184.349 443.979L177.24 456.822H186.902L199.533 455.483L208.469 441.928L215.762 433.186V449.773H218.989V430.915L218.062 425.018L210.83 402.102L203.064 354.383L190.54 306.996L196.382 193.464H201.167C199.572 174.059 195.983 134.133 194.388 129.667C192.793 125.202 196.382 126.478 198.375 127.674L201.167 118.902H218.775V191.493H230.395L228.662 199.803L234.085 210.226L238.168 219.15H242.25L238.168 207.399L253.156 223.571L261.355 218.135L251.346 200.641L243.537 189.62H245.989L236.095 13.34Z" fill="#BC0123"/>
<rect x="218.09" y="196.238" width="30.3878" height="4.57045" transform="rotate(-9.22543 218.09 196.238)" fill="white"/>
</svg>
