<svg width="251" height="454" viewBox="0 0 251 454" fill="none" xmlns="http://www.w3.org/2000/svg">
<path d="M232.149 13.1642L191.678 0.574219C181.438 4.70212 163.63 9.30251 163.63 9.30251H139.532L107.172 27.9094L83.5256 97.2976L32.3566 81.7919V84.5054L21.5026 79.8537H0.570312L6.77186 97.2976L28.4799 103.885L26.1538 112.028L95.4038 127.498L114.268 103.885V118.726L87.1507 168.731L93.6352 175.51L88.6244 183.763L93.6352 306.82L92.1615 315.518L101.594 396.575L87.4454 421.924L83.3194 426.02L85.0881 435.777L108.373 432.24L120.163 401.926L116.625 385.964L120.163 336.151L118.236 310.293L122.485 293.767L133.041 202.658L135.581 203.222H138.637L141.296 205.268H145.459L159.966 313.794L190.443 415.241L186.595 441.871L182.157 453.918H197.221L214.83 426.02L206.885 401.926L186.595 306.82L192.437 193.288H197.221C195.626 173.883 192.038 133.957 190.443 129.492C188.848 125.026 192.436 126.302 194.43 127.498L197.221 118.726H214.83V191.317H226.45L224.717 199.627L232.254 215.958V225.779H236.337V213.132L245.967 231.033L250.846 220.338L245.967 207.988L239.592 189.444H242.043L232.149 13.1642Z" fill="white"/>
<rect x="218.062" y="196.051" width="30.3878" height="4.57045" transform="rotate(-9.22543 218.062 196.051)" fill="#BC0123"/>
<path d="M14.4531 76.2305L1.875 58.5195H26.262L14.4531 76.2305V101.131L22.6681 113.709H5.21231L14.4531 101.131V76.2305Z" fill="white"/>
<path d="M14.4531 76.2305L1.875 58.5195H26.262L14.4531 76.2305ZM14.4531 76.2305V101.131M14.4531 101.131L22.6681 113.709H5.21231L14.4531 101.131Z" stroke="white"/>
</svg>
