<svg width="261" height="457" viewBox="0 0 261 457" fill="none" xmlns="http://www.w3.org/2000/svg">
<path d="M41.2742 51.6865C40.5004 52.482 39.7316 53.2775 38.9604 54.0622C33.8817 59.2167 28.7551 64.3201 23.7369 69.5363C20.6846 72.7048 18.9329 76.5693 18.6859 81.1917C18.6834 81.2669 18.6783 81.3395 18.6733 81.4147L17.6349 90.8771C17.4005 95.2253 16.9947 99.5655 16.6922 103.906C16.5158 106.338 16.9317 107.015 19.0967 107.738C21.2089 108.445 23.2756 109.332 25.4609 109.813C25.9196 109.915 26.5825 110.103 26.5094 110.767C26.4917 110.936 26.4464 111.052 26.3758 111.132L2.63316 108.431C2.58023 108.332 2.56007 108.214 2.57519 108.039C2.6382 107.381 3.32124 107.346 3.78753 107.351C6.02064 107.37 8.21595 106.969 10.4213 106.757C12.6797 106.539 13.2266 105.972 13.5316 103.551C14.0936 99.243 14.5599 94.9217 15.1875 90.6245L16.2259 81.1648C16.236 81.0842 16.2511 80.9982 16.2612 80.9175C16.9392 76.3436 15.9915 72.17 13.6349 68.3861C9.76603 62.1567 5.76608 56.0133 1.82662 49.8295C1.22171 48.8916 0.631924 47.9376 0.0295369 46.9889C-0.00826978 46.919 0.0446596 46.8169 0.0875073 46.7793C0.125314 46.7444 0.258898 46.7363 0.289143 46.7793C0.941939 47.6769 1.59474 48.5718 2.23997 49.4667C6.46424 55.3172 10.6583 61.1973 14.9355 67.0048C16.0722 68.5447 17.3148 69.4127 18.6229 69.6116C19.9386 69.7083 21.3248 69.1386 22.7413 67.8916C28.072 63.1806 33.3347 58.3782 38.6226 53.6134C39.4317 52.8824 40.2458 52.1568 41.0624 51.4258C41.1002 51.3936 41.2288 51.4285 41.259 51.4688C41.2943 51.5172 41.3246 51.6301 41.2716 51.6865H41.2742Z" fill="#BC0123"/>
<path d="M38.2542 52.9519L32.7445 58.0257C32.7445 58.0257 32.7344 58.0338 32.7268 58.0392L32.253 58.4584H32.2504C31.9329 58.7352 31.6203 58.9959 31.3179 59.2646C31.0885 59.4743 30.8592 59.6839 30.6298 59.8908C27.9228 62.3552 25.1957 64.7927 22.4434 67.2033C21.1605 68.3239 19.928 68.8614 18.7534 68.8211C18.7534 68.8211 17.0219 68.7055 15.3584 66.397C13.0068 63.1318 10.5922 59.915 8.2583 56.6364C7.81722 56.0236 6.23438 53.742 6.23438 53.742L38.2516 52.9492L38.2542 52.9519Z" fill="#BC0123"/>
<path d="M235.426 13.34L194.955 0.75C184.714 4.87791 166.906 9.47829 166.906 9.47829H142.808L110.448 28.0852L86.802 97.4734L35.633 81.9677V84.6812L24.779 80.0295H3.84668L10.0482 97.4734L31.7563 104.061L29.4302 112.204L98.6801 127.674L117.544 104.061V118.902L90.427 168.906L96.9116 175.686L91.9008 183.939L96.9116 306.996L95.4378 315.694L104.87 396.751L92.5166 421.75L86.0166 426.196L88.3645 435.953L111.65 432.416L119.902 409.619L121.281 426.196H123.439V402.102L119.902 386.14L123.439 336.326L121.513 310.468L125.762 293.943L136.318 202.833L138.857 203.398L141.636 204.165L144.825 204.725L148.735 205.444L163.242 313.97L193.719 415.417L192.215 427.723L186.233 441.928L183.681 443.979L176.571 456.822H186.233L198.864 455.483L207.8 441.928L215.093 433.186V449.773H218.32V430.915L217.393 425.018L210.161 402.102L202.395 354.383L189.871 306.996L195.713 193.464H200.498C198.903 174.059 195.314 134.133 193.719 129.667C192.124 125.202 195.713 126.478 197.706 127.674L200.498 118.902H218.106V191.493H229.726L227.993 199.803L233.416 210.226L237.499 219.15H241.581L237.499 207.399L252.487 223.571L260.686 218.135L250.677 200.641L242.868 189.62H245.32L235.426 13.34Z" fill="white"/>
<rect x="217.421" y="196.238" width="30.3878" height="4.57045" transform="rotate(-9.22543 217.421 196.238)" fill="#BC0123"/>
</svg>
