<svg width="138" height="86" viewBox="0 0 138 86" fill="none" xmlns="http://www.w3.org/2000/svg">
<path d="M13.5413 84.5481C13.4816 84.5481 13.3422 84.4884 13.1134 84.379C12.8846 84.6078 12.7553 84.7471 12.7254 84.8068C12.6956 84.8665 12.7154 85.0357 12.7652 85.3242H12.5961C12.5364 85.0357 12.3672 84.9561 12.0787 85.0655C11.8498 85.175 11.6508 85.2347 11.4817 85.2347C11.3623 85.1153 11.2528 84.9859 11.1334 84.8466C11.014 84.7073 10.9046 84.578 10.7852 84.4586C10.6658 84.3989 10.4967 84.3691 10.2678 84.3691C10.1484 84.2497 10.0688 84.1004 10.0091 83.9014C9.94941 83.7024 9.86987 83.5134 9.75047 83.3442C9.69077 83.2845 9.6609 83.2248 9.6609 83.1751C9.77034 82.8866 9.76042 82.6478 9.62112 82.4488C9.48182 82.2498 9.4022 82.0309 9.4022 81.802C9.46189 81.5732 9.43208 81.3742 9.31268 81.2051C9.19329 81.0359 9.19329 80.8369 9.31268 80.6081V80.2698C9.19329 79.6927 9.14349 79.2649 9.14349 78.9863C9.0838 78.9266 9.11367 78.847 9.23307 78.7276V78.5584C9.23307 78.4988 9.26288 78.4689 9.32258 78.4689C9.20319 78.3495 9.16344 78.2202 9.19329 78.0809C9.22314 77.9416 9.23307 77.7824 9.23307 77.6132C9.23307 77.3844 9.22314 77.1555 9.19329 76.9267C9.16344 76.6979 9.18332 76.4392 9.23307 76.1506C9.29277 75.9218 9.29277 75.7029 9.23307 75.5039C9.17337 75.3049 9.23305 75.086 9.4022 74.8572C9.17335 74.4592 9.11367 73.9418 9.23307 73.315C9.29277 73.0861 9.32258 72.7677 9.32258 72.3698C9.20319 71.7429 9.26293 71.2554 9.49177 70.9072C9.60122 70.7878 9.63103 70.7082 9.58128 70.6485C9.46189 70.3599 9.46189 70.0515 9.58128 69.7032C9.69073 69.355 9.7206 69.0466 9.67086 68.758C9.67086 68.4695 9.71066 68.2008 9.80021 67.9422C9.88975 67.6835 9.95937 67.4148 10.0191 67.1263V66.4398C10.0191 66.3801 10.1086 66.3005 10.2778 66.1811L10.1883 66.0915C10.1883 65.9224 10.1783 65.7632 10.1484 65.6239C10.1186 65.4846 10.1385 65.3254 10.1883 65.1562C10.2977 64.6389 10.4171 64.1414 10.5365 63.6538C10.6459 63.1663 10.7653 62.6688 10.8847 62.1514C10.9444 61.8629 10.9743 61.6042 10.9743 61.3754C10.9743 61.1465 11.0041 60.8878 11.0638 60.5993C11.1235 60.4799 11.2031 60.2511 11.3225 59.9128C11.3822 59.7436 11.412 59.5745 11.412 59.3954C11.412 59.2163 11.4419 59.077 11.5016 58.9676C11.5613 58.7387 11.5911 58.5397 11.5911 58.3706C11.5911 58.2014 11.621 58.0223 11.6807 57.8532C11.7404 57.5646 11.7702 57.3259 11.7702 57.1269C11.7702 56.9279 11.8001 56.6891 11.8598 56.4005C11.8598 56.2314 11.8498 56.0722 11.82 55.9329C11.7901 55.7936 11.6906 55.6344 11.5215 55.4653C11.7503 55.4653 11.9493 55.4354 12.1184 55.3757C12.1184 55.2066 12.1782 55.0275 12.2876 54.8583C12.3971 54.6892 12.3971 54.5101 12.2876 54.341C12.3971 54.2315 12.4766 54.0823 12.5065 53.9131C12.5363 53.744 12.5761 53.5947 12.6358 53.4853C12.6358 53.3758 12.6657 53.2962 12.7254 53.2664C12.7851 53.2365 12.7552 53.1669 12.6358 53.0475V52.7888C12.9244 52.56 13.0537 52.3212 13.0239 52.0625C12.994 51.8038 13.0139 51.5352 13.0637 51.2466V51.1571C13.2925 51.0476 13.4119 50.8984 13.4119 50.7292C13.4119 50.5601 13.4418 50.381 13.5015 50.2118C13.5612 50.1024 13.601 49.9731 13.6308 49.8238C13.6607 49.6845 13.7601 49.5552 13.9293 49.4358C14.0387 49.3263 14.0387 49.1771 13.9293 49.0079C13.8099 48.7791 13.7701 48.5801 13.7999 48.411C13.8298 48.2418 13.8995 48.0627 14.0189 47.8936C14.0786 47.6647 14.0487 47.4657 13.9293 47.2966C14.0387 47.1871 14.1482 47.0677 14.2278 46.9583C14.3174 46.8489 14.387 46.7295 14.4467 46.6101C14.5064 46.3215 14.5363 46.0429 14.5363 45.7544C14.5363 45.4659 14.5661 45.1574 14.6258 44.8092C14.8546 44.6997 14.974 44.5107 14.974 44.252C14.974 43.9933 15.0337 43.7247 15.1432 43.4361C15.2029 43.2073 15.2427 42.9983 15.2725 42.7894C15.3024 42.5904 15.4019 42.3715 15.571 42.1427C15.6307 42.0332 15.6406 41.9238 15.6108 41.8442C15.5809 41.7546 15.6009 41.6551 15.6506 41.5457C15.7601 41.2571 15.8794 40.9487 15.9988 40.6005C16.1083 40.2522 16.1978 39.9438 16.2575 39.6552C16.2575 39.3667 16.3271 39.1578 16.4764 39.0085C16.6157 38.8692 16.6654 38.6802 16.6057 38.4513C16.546 38.1628 16.546 37.924 16.6057 37.725C16.6654 37.526 16.7152 37.3071 16.7749 37.0783V36.9091C16.8844 36.6206 17.0038 36.3619 17.1231 36.1331C17.2326 35.9042 17.352 35.6455 17.4714 35.357C17.5808 34.959 17.7002 34.561 17.8196 34.1531C17.9291 33.7551 17.9589 33.3273 17.9091 32.8696C18.0783 32.7601 18.2275 32.5014 18.337 32.0935C18.3967 31.9244 18.4266 31.7353 18.4266 31.5363C18.4266 31.3373 18.5658 31.1781 18.8544 31.0687C18.9141 31.0687 18.944 30.9791 18.944 30.81C18.8843 30.2429 19.0335 29.5563 19.3718 28.7504C19.6006 28.2927 19.7698 27.9246 19.8892 27.6361C19.9986 27.5266 20.0483 27.3774 20.0185 27.2082C19.9886 27.0391 20.0086 26.8699 20.0583 26.6908C20.1678 26.2331 20.2871 25.7854 20.4065 25.3576C20.516 24.9297 20.725 24.5119 21.0035 24.1139C21.0632 24.0044 21.0931 23.8253 21.0931 23.5965C21.0931 23.1985 21.2025 22.8801 21.4413 22.6513C21.3816 22.5916 21.3418 22.5418 21.312 22.4821C21.2821 22.4224 21.2423 22.3727 21.1826 22.313C21.2921 22.2035 21.4015 22.1239 21.4811 22.0941C21.5707 22.0642 21.6701 22.0244 21.7796 21.9647V21.5369C21.889 21.0792 22.0184 20.6215 22.1676 20.1639C22.3069 19.7062 22.4363 19.2485 22.5557 18.7908C22.6651 18.5023 22.7845 18.2038 22.9039 17.8854C23.0133 17.567 23.1327 17.2685 23.2521 16.98C23.3616 16.7511 23.481 16.4626 23.6004 16.1243C23.6004 15.8954 23.6302 15.6865 23.6899 15.4776C23.7496 15.2786 23.7994 15.0597 23.8591 14.8308V14.7413C24.0879 14.5721 24.2172 14.3731 24.2471 14.1443C24.2769 13.9155 24.3466 13.7165 24.466 13.5473C24.6351 13.2588 24.7048 12.9802 24.6849 12.6917C24.655 12.4031 24.7844 12.1245 25.0729 11.836C24.9038 11.6071 24.9038 11.4479 25.0729 11.3683C25.2421 11.2888 25.3316 11.1296 25.3316 10.9007C25.1028 10.7316 24.9635 10.5326 24.9038 10.3037C24.8441 10.0749 24.7645 9.8162 24.6451 9.52766C24.3566 9.52766 24.0183 9.66696 23.6103 9.9555C23.3815 10.3037 23.0631 10.5027 22.6651 10.5525C22.5457 10.5525 22.4164 10.5923 22.2771 10.6818C22.1378 10.7714 22.0084 10.841 21.889 10.9007C21.7199 11.0201 21.5408 11.1495 21.3717 11.2888C21.2025 11.428 21.0234 11.5574 20.8543 11.6768C20.2274 12.2539 19.5111 12.7911 18.7052 13.3085C18.5858 13.4279 18.4464 13.5274 18.2773 13.607C18.1081 13.6966 17.9589 13.7961 17.8495 13.9055L16.0486 15.4477C15.8197 15.6169 15.5909 15.7959 15.362 15.9651C15.1332 16.1342 14.9043 16.3133 14.6755 16.4825L13.8995 17.2586C13.4418 17.7162 12.9841 18.1441 12.5264 18.5421C12.0687 18.94 11.6409 19.3977 11.2429 19.9151C11.1235 19.9151 11.0737 19.9748 11.0737 20.0843C10.7255 20.2534 10.4568 20.5021 10.2579 20.8106C10.0589 21.129 9.81014 21.4275 9.53155 21.716C9.3027 21.8851 9.10374 22.0841 8.93459 22.313C8.76545 22.5418 8.58633 22.7408 8.41719 22.91C8.29779 22.9697 8.1585 22.9995 7.98936 22.9995C7.98936 23.288 7.8998 23.5268 7.73066 23.7258C7.56152 23.9248 7.3824 24.1437 7.21326 24.3726C7.04411 24.6014 6.86506 24.8004 6.69592 24.9695C6.52677 25.1387 6.37753 25.3377 6.26809 25.5665C6.14869 25.7357 6.01933 25.9247 5.88004 26.1237C5.74074 26.3227 5.61138 26.5117 5.49198 26.6809C5.37259 26.9097 5.2333 27.1386 5.06416 27.3674C4.89501 27.5963 4.74577 27.8251 4.63633 28.0539C4.63633 28.1136 4.60645 28.1733 4.54675 28.2231C4.14877 28.5713 3.90004 28.9793 3.82045 29.4668C3.7309 29.9543 3.60154 30.422 3.4324 30.8796C3.3727 31.1085 3.46225 31.3373 3.6911 31.5662C3.86024 31.795 4.08909 31.9343 4.37763 31.994C4.72586 32.1631 4.89503 32.4218 4.89503 32.7701C5.00448 32.7104 5.18353 32.6805 5.41237 32.6805C5.70091 33.0188 5.81039 33.3671 5.76064 33.7053C5.70095 34.0536 5.67107 34.3919 5.67107 34.7401C5.38253 34.8595 5.09401 34.959 4.81541 35.0386C4.52687 35.1282 4.18861 35.2276 3.78067 35.3371C3.55183 35.3371 3.33291 35.2674 3.13392 35.1182C2.93492 34.9789 2.71601 34.8197 2.48717 34.6506C1.68124 34.0237 1.05445 33.3372 0.596766 32.591C0.308225 32.0239 0.228618 31.3572 0.338064 30.621C0.397762 29.9344 0.537051 29.2777 0.765893 28.6509C0.994735 28.0241 1.25346 27.3973 1.542 26.7605C1.77084 26.3028 2.05936 25.8451 2.39765 25.3874C2.74589 24.9297 3.08416 24.4721 3.4324 24.0144C3.54184 23.8452 3.69108 23.6462 3.86022 23.4174C4.02937 23.1886 4.25821 23.0194 4.54675 22.9C4.6562 22.9 4.71594 22.8105 4.71594 22.6413C4.65624 22.3528 4.72586 22.1438 4.93481 21.9946C5.1338 21.8553 5.32284 21.6961 5.49198 21.527L5.66111 21.4374C5.54172 21.1489 5.57159 20.9399 5.75069 20.7907C5.91983 20.6514 6.06907 20.4922 6.17851 20.323C6.28796 20.1539 6.4372 19.9748 6.60634 19.8057C6.77549 19.6365 6.9546 19.4873 7.12374 19.3778L7.38245 19.1191C7.67099 18.7212 7.96945 18.3431 8.28784 18.0048C8.60623 17.6565 8.98435 17.3481 9.44203 17.0596C9.38234 16.771 9.45195 16.6218 9.6609 16.5919C9.85989 16.5621 10.0191 16.4626 10.1285 16.2934C10.2379 16.1243 10.3673 15.9651 10.5166 15.8258C10.6558 15.6865 10.7852 15.5273 10.9046 15.3582L12.1881 14.0747C12.4169 14.1344 12.5463 14.1045 12.5761 13.9851C12.606 13.8757 12.6757 13.7563 12.7951 13.6369C13.0836 13.3483 13.4517 13.0399 13.9094 12.6917C14.198 12.4628 14.4666 12.224 14.7253 11.9653C14.984 11.7066 15.2526 11.4678 15.5411 11.239C15.8297 11.0699 16.0884 10.8709 16.3172 10.642C16.5461 10.4132 16.8346 10.2142 17.1729 10.045C17.4614 9.9356 17.7201 9.7565 17.949 9.52766C18.1778 9.29882 18.4365 9.06997 18.725 8.84113C18.8345 8.73169 18.9638 8.60234 19.1131 8.4531C19.2524 8.3138 19.3817 8.2342 19.5011 8.2342C19.7897 8.17451 19.9886 8.07501 20.0981 7.93571C20.2075 7.79642 20.3866 7.66707 20.6155 7.54768L21.6502 6.7716H21.7398C22.2572 6.60246 22.7149 6.34377 23.1129 5.99553C23.5109 5.65724 23.9685 5.39855 24.4859 5.21945C24.5954 5.21945 24.6849 5.18961 24.7446 5.12991C24.8043 5.07021 24.8839 5.02046 25.0033 4.96076C25.4013 4.67222 25.7993 4.43343 26.2072 4.23444C26.6052 4.03544 27.033 3.79665 27.4907 3.50811C27.7792 3.39867 27.9185 3.24942 27.9185 3.08028C28.1474 2.56289 28.5454 2.22461 29.1224 2.04551C29.3513 1.87637 29.5801 1.75697 29.809 1.69727C30.0378 1.69727 30.1572 1.72712 30.1572 1.78682C30.386 2.07536 30.6149 2.20471 30.8437 2.17486C31.0726 2.14501 31.3014 2.07536 31.5302 1.95596C31.9879 1.72712 32.4755 1.53808 32.9929 1.39878C33.5103 1.25949 34.0276 1.13014 34.5351 1.01075C34.7042 0.951048 34.8932 0.911249 35.0922 0.8814C35.2912 0.851551 35.53 0.89135 35.8185 1.01075C35.9877 1.13014 36.1668 1.11024 36.3359 0.970947C36.5051 0.831652 36.6543 0.702306 36.7638 0.58291C36.8732 0.523212 37.0523 0.493363 37.2812 0.493363C37.3906 0.433665 37.51 0.423716 37.6294 0.453565C37.7388 0.483414 37.8583 0.493363 37.9777 0.493363C38.4354 0.383917 38.903 0.334168 39.3905 0.364017C39.878 0.393866 40.3457 0.373967 40.8033 0.324219C40.9128 0.324219 41.0222 0.354068 41.1018 0.413766C41.1914 0.473464 41.2909 0.503313 41.4004 0.503313C41.5695 0.503313 41.7287 0.543111 41.868 0.632658C42.0073 0.722205 42.1665 0.702306 42.3356 0.59286C42.4451 0.533162 42.5943 0.553061 42.7635 0.632658C42.9326 0.722205 43.1117 0.791853 43.2808 0.851551C43.7982 0.970947 44.2659 1.10029 44.6937 1.23959C45.1215 1.37888 45.5692 1.56793 46.0269 1.79677C46.3752 2.02561 46.6537 2.19476 46.8826 2.31415H47.4V2.91113C47.8577 2.85143 48.1959 2.94098 48.4347 3.16982C48.6636 3.39867 48.8924 3.62751 49.1212 3.85635C49.4695 4.14489 49.768 4.47323 50.0267 4.84137C50.2854 5.20951 50.5242 5.59754 50.753 5.99553C50.8625 6.16467 50.9918 6.32387 51.1411 6.46316C51.2804 6.60246 51.3599 6.82135 51.3599 7.10989C51.4196 7.10989 51.4694 7.11984 51.5291 7.14969C51.5888 7.17954 51.6385 7.18949 51.6982 7.18949V7.78647C51.8674 8.01531 51.9868 8.2541 52.0465 8.51279C52.1061 8.77148 52.1858 9.04013 52.3052 9.32867C52.3052 9.49781 52.335 9.61721 52.3947 9.6769C52.5042 9.7963 52.5539 9.8759 52.5241 9.9356C52.4942 9.99529 52.4544 10.0749 52.3947 10.1943C52.4544 10.3137 52.5042 10.3833 52.5639 10.4132C52.6236 10.443 52.6534 10.4828 52.6534 10.5425C52.7629 10.8311 52.8524 11.1196 52.9121 11.3982C52.9718 11.6867 53.0016 11.9753 53.0016 12.2539C52.9419 12.5424 52.9121 13.0001 52.9121 13.6269C52.9121 13.7463 52.9419 13.8757 53.0016 14.015C53.0613 14.1543 53.0912 14.2836 53.0912 14.403C53.0912 14.8607 53.1011 15.2885 53.131 15.6865C53.1608 16.0845 53.141 16.5123 53.0912 16.97C53.0315 17.3182 52.9718 17.6466 52.922 17.955C52.8623 18.2734 52.8325 18.5719 52.8325 18.8604C52.8325 18.9798 52.7131 19.149 52.4842 19.3778L52.6534 19.547C52.534 19.8952 52.4544 20.1241 52.3947 20.2335C52.2753 20.4026 52.2256 20.6016 52.2256 20.8305C52.2256 21.0593 52.136 21.2583 51.9669 21.4275C51.8475 21.5966 51.7977 21.7956 51.7977 22.0244C51.7977 22.2533 51.7679 22.4821 51.7082 22.711C51.6485 22.8304 51.6385 22.9299 51.6684 23.0095C51.6982 23.099 51.6783 23.1985 51.6286 23.3079C51.5689 23.4273 51.5092 23.5069 51.4595 23.5666C51.3998 23.6263 51.3401 23.7059 51.2903 23.8253C51.0615 24.2233 50.8724 24.6114 50.7331 24.9795C50.5939 25.3476 50.4048 25.7357 50.1759 26.1337C50.1162 26.3028 50.0466 26.462 49.957 26.6013C49.8675 26.7406 49.768 26.8699 49.6586 26.9893C49.6586 27.1087 49.6884 27.1883 49.7481 27.248C49.7481 27.3077 49.7183 27.3376 49.6586 27.3376C49.5392 27.457 49.4098 27.5565 49.2705 27.6361C49.1312 27.7256 49.0815 27.8848 49.1412 28.1037C49.1412 28.1634 49.0815 28.243 48.972 28.3624C48.7432 28.5315 48.6138 28.7206 48.584 28.9196C48.5541 29.1186 48.4845 29.3076 48.3651 29.4767C48.3054 29.4767 48.2755 29.5663 48.2755 29.7354C48.3352 29.9046 48.2159 30.0538 47.9273 30.1633C47.8079 30.1633 47.6985 30.2827 47.5791 30.5115C47.4597 30.7403 47.3204 30.9393 47.1512 31.1085C46.9821 31.2776 46.8329 31.4766 46.7234 31.7055C46.604 31.994 46.4946 32.1632 46.3752 32.2229C46.0866 32.5114 45.8578 32.8099 45.6887 33.1283C45.5195 33.4467 45.3404 33.775 45.1713 34.1133C45.1116 34.2327 45.0021 34.3421 44.823 34.4615C44.6539 34.5809 44.5046 34.6904 44.3952 34.7998C44.2758 34.9192 44.1663 34.9988 44.0469 35.0585C43.9275 35.1182 43.9076 35.2276 43.9574 35.3968C43.9574 35.4565 43.9176 35.4963 43.8281 35.5261C43.7385 35.556 43.6689 35.6256 43.6092 35.745C43.5495 35.745 43.5196 35.8644 43.5196 36.0833C43.4002 36.143 43.2908 36.2027 43.1714 36.2525C43.052 36.3122 43.052 36.4515 43.1714 36.6803C42.7137 36.7997 42.455 36.939 42.3953 37.1081C42.3356 37.337 42.1366 37.6255 41.7983 37.9638C41.7386 38.1329 41.6292 38.2523 41.4501 38.3021L41.281 38.3916C41.1118 38.6802 40.9327 38.919 40.7636 39.118C40.5944 39.317 40.4153 39.5359 40.2462 39.7647C40.1865 39.8244 40.1566 39.8841 40.1566 39.9338C40.1566 39.9836 40.1268 40.0234 40.0671 40.0234C39.8382 40.1428 39.6791 40.292 39.5995 40.491C39.5099 40.69 39.3507 40.8492 39.1318 40.9587C39.0721 41.0184 39.0423 41.0582 39.0423 41.088C39.0423 41.1179 39.0124 41.1576 38.9527 41.2173C38.7239 41.3865 38.505 41.5656 38.306 41.7347C38.107 41.9039 37.8881 42.1029 37.6593 42.3317C37.5399 42.4511 37.4603 42.5606 37.4006 42.67C37.3409 42.7894 37.2613 42.869 37.1419 42.9287C36.913 43.0481 36.7439 43.2172 36.6245 43.4461C36.5648 43.5655 36.3658 43.7346 36.0275 43.9635C35.9081 44.0829 35.8086 44.2122 35.729 44.3515C35.6395 44.4908 35.5101 44.6002 35.341 44.65C35.2813 44.7097 35.2714 44.7694 35.3012 44.8191C35.3311 44.8788 35.3111 44.9584 35.2614 45.0778H34.9629C34.8733 45.0778 34.7739 45.1375 34.6644 45.247C34.4953 45.6449 34.1769 45.9335 33.7192 46.1026C33.6595 46.1623 33.5998 46.1922 33.5501 46.1922C33.2615 46.5902 32.9332 46.9086 32.565 47.1374C32.1969 47.3662 31.8686 47.6548 31.58 47.9931C31.4109 48.1622 31.2318 48.3513 31.0626 48.5503C30.8935 48.7492 30.6945 48.9084 30.4656 49.0179C30.2368 49.1373 30.0477 49.2467 29.9084 49.3661C29.7691 49.4855 29.5801 49.595 29.3513 49.7044C29.2319 49.8238 29.1224 49.9034 29.0031 49.9631C28.8837 50.0228 28.7742 50.1024 28.6548 50.2218C28.5354 50.3909 28.3663 50.4805 28.1374 50.4805L27.9683 50.6496C27.9086 50.7093 27.8787 50.7491 27.8787 50.779C27.8787 50.8088 27.8489 50.8486 27.7892 50.9083C27.6698 50.968 27.5703 50.978 27.4907 50.9481C27.4011 50.9183 27.3315 51.0178 27.2718 51.2466C27.2718 51.3063 27.2121 51.3461 27.1027 51.376C26.9833 51.4058 26.8738 51.4755 26.7544 51.5948C26.5256 51.8237 26.3564 51.963 26.237 52.0227C26.0082 52.1918 25.8092 52.3709 25.6401 52.5401C25.4709 52.7092 25.2719 52.8585 25.0431 52.9679C24.8143 53.137 24.4959 53.2863 24.0979 53.3957C23.869 53.5649 23.6402 53.6843 23.4113 53.734C23.0631 54.0823 22.7547 54.2514 22.4661 54.2514C22.3467 54.2514 22.2472 54.2912 22.1676 54.3808C22.088 54.4703 21.9786 54.5399 21.8692 54.5996C21.4712 54.9976 20.9537 55.316 20.3269 55.5449C20.2075 55.6046 20.128 55.6742 20.0683 55.7638C20.0086 55.8533 19.9488 55.923 19.8991 55.9827C19.6105 56.102 19.3718 56.2015 19.1728 56.2811C18.9738 56.3707 18.7549 56.4403 18.526 56.5C18.3569 56.6194 18.1778 56.6692 18.0087 56.6692C17.8395 56.6692 17.6405 56.699 17.4117 56.7587C17.4714 56.7587 17.4814 56.7886 17.4515 56.8483C17.4217 56.908 17.3819 56.9378 17.3222 56.9378C16.9739 57.107 16.8048 57.3358 16.8048 57.6243C16.6854 57.9626 16.5759 58.281 16.4565 58.5696C16.3371 58.8581 16.2873 59.1665 16.2873 59.5148C16.2873 60.0819 16.168 60.5197 15.9391 60.7983C15.8794 60.9077 15.8198 61.0271 15.77 61.1465C15.7103 61.256 15.77 61.3754 15.9391 61.4848C15.8197 61.5445 15.7501 61.5943 15.7203 61.654C15.6904 61.7137 15.6506 61.7634 15.5909 61.8231V62.0818C15.4715 62.4798 15.4317 62.8778 15.4616 63.2857C15.4914 63.6837 15.3919 64.0618 15.1631 64.4001C15.2725 64.5692 15.2625 64.7284 15.1233 64.8677C14.984 65.007 14.9939 65.1662 15.1631 65.3353L15.0735 65.4249C14.8447 65.6537 14.7253 65.8627 14.7253 66.0716V66.7979C14.785 66.9074 14.7651 67.0168 14.6855 67.0964C14.5959 67.186 14.5263 67.2855 14.4666 67.3949C14.576 67.5641 14.576 67.9422 14.4666 68.5093C14.3472 68.6784 14.3074 68.8675 14.3373 69.0665C14.3671 69.2655 14.377 69.4844 14.377 69.7132C14.377 69.7729 14.3671 69.8226 14.3373 69.8823C14.3074 69.942 14.2974 69.9918 14.2974 70.0515C13.9492 70.4495 13.8994 70.9072 14.1283 71.4245V71.6832C14.0089 71.7927 13.9691 71.9021 13.9989 71.9817C14.0288 72.0713 14.0686 72.1708 14.1283 72.2802C13.9591 72.3897 13.8995 72.5091 13.9592 72.6284C14.0189 72.7379 14.0189 72.8573 13.9592 72.9767C13.9592 73.0861 13.9492 73.1956 13.9194 73.2752C13.8895 73.3647 13.8795 73.4642 13.8795 73.5737C13.8795 74.2005 13.8696 74.8472 13.8398 75.5039C13.8099 76.1606 13.7701 76.8073 13.7104 77.4341C13.7104 77.5436 13.7502 77.663 13.8398 77.7824C13.9293 77.8918 13.9094 78.0411 13.7999 78.2102C13.7402 78.3197 13.7303 78.449 13.7602 78.5982C13.79 78.7375 13.7999 78.8669 13.7999 78.9863C13.7402 79.0957 13.7303 79.245 13.7602 79.4141C13.79 79.5833 13.7701 79.7325 13.7204 79.842C13.6607 79.9514 13.6905 80.0409 13.8099 80.1006C13.9193 80.1603 13.9193 80.2399 13.8099 80.3593C13.7502 80.419 13.7801 80.618 13.8995 80.9563C13.8995 81.0658 13.9094 81.1752 13.9392 81.2548C13.9691 81.3444 13.9791 81.4439 13.9791 81.5533C14.0388 81.613 14.0686 81.7523 14.0686 81.9811C14.0686 82.21 14.0388 82.3791 13.9791 82.4985C13.9791 82.5582 13.989 82.598 14.0189 82.6279C14.0487 82.6577 14.0586 82.6975 14.0586 82.7572V83.1054C13.7701 83.2746 13.6308 83.4736 13.6308 83.7024C13.6308 83.9313 13.6607 84.1601 13.7204 84.389C13.7204 84.4487 13.6905 84.4785 13.6308 84.4785L13.5413 84.5481ZM40.0671 32.3721L40.3258 31.8547C40.3855 31.795 40.4551 31.7552 40.5446 31.7254C40.6342 31.6955 40.6143 31.6259 40.5049 31.5065L40.5944 31.3373C40.7636 31.3373 40.9128 31.2279 41.0223 30.999C41.0223 30.8299 41.0521 30.7403 41.1118 30.7403C41.4003 30.5712 41.5993 30.3722 41.7088 30.1434C41.8182 29.9145 41.9973 29.7155 42.2261 29.5464C42.3356 29.4369 42.3953 29.3175 42.3953 29.2081C42.3953 29.0987 42.455 28.9793 42.5645 28.8599C42.7933 28.631 42.9127 28.4022 42.9127 28.1733C42.9127 28.0042 42.9823 27.9047 43.1316 27.8748C43.2709 27.845 43.3704 27.7753 43.4301 27.656C43.4898 27.656 43.5196 27.5963 43.5196 27.4868C43.6888 26.9694 43.9474 26.6013 44.2957 26.3724C44.5842 26.0839 44.6936 25.7158 44.6439 25.2581C44.9324 25.1486 45.1016 24.9994 45.1613 24.8302C45.2707 24.492 45.3902 24.2333 45.5096 24.0542C45.619 23.8253 45.7483 23.5965 45.8976 23.3676C46.0369 23.1388 46.1165 22.8801 46.1165 22.5916C46.1165 22.5319 46.1463 22.4921 46.206 22.4622C46.2657 22.4324 46.3155 22.3627 46.3752 22.2433C46.4349 22.1836 46.4747 22.1538 46.5045 22.1538C46.5344 22.1538 46.5741 22.1239 46.6338 22.0642C46.6935 21.8354 46.7433 21.6364 46.803 21.4673C46.8627 21.2981 46.9124 21.0991 46.9721 20.8703C47.0816 20.3031 47.201 19.8952 47.3204 19.6664C47.4298 19.3778 47.5094 19.0793 47.5393 18.7609C47.5691 18.4426 47.7283 18.1441 48.0069 17.8555V17.5968C47.9472 17.368 47.9671 17.1392 48.0467 16.9103C48.1363 16.6815 48.1163 16.4526 48.0069 16.2238C48.2357 16.1143 48.3253 15.9651 48.2656 15.7959C48.2059 15.6268 48.2358 15.4776 48.3552 15.3681C48.584 15.199 48.6138 15.0497 48.4447 14.9403C48.2755 14.8308 48.2159 14.6816 48.2755 14.5124C48.3352 14.4527 48.3651 14.403 48.3651 14.3433C48.4248 14.2836 48.4248 14.2538 48.3651 14.2538C48.196 14.1443 48.1362 13.9951 48.1959 13.8259C48.2556 13.6568 48.2855 13.5075 48.2855 13.3981C48.1661 13.0498 48.1164 12.8508 48.1164 12.8011C48.2258 12.632 48.2457 12.4529 48.1562 12.2837C48.0666 12.1146 47.9969 11.9454 47.9372 11.7663C48.0467 11.6569 48.1064 11.5375 48.1064 11.428C48.0467 11.3683 47.9671 11.3385 47.8477 11.3385C47.8477 11.2291 47.8775 11.1097 47.9372 10.9903C47.9969 10.8808 47.9969 10.7913 47.9372 10.7316C47.8178 10.6221 47.7681 10.4729 47.7681 10.3037C47.7681 10.1346 47.7383 9.98535 47.6786 9.8759C47.5592 9.70675 47.4895 9.55751 47.4597 9.44806C47.4298 9.33862 47.3303 9.21922 47.1612 9.10977C47.2209 8.82123 47.1711 8.61229 47.0318 8.46305C46.8925 8.32375 46.7632 8.16456 46.6438 7.99541C46.5244 7.82627 46.3254 7.59742 46.0468 7.30888C45.9274 7.24919 45.828 7.14969 45.7484 7.01039C45.6588 6.8711 45.5593 6.74175 45.4498 6.62236C44.7633 5.93583 44.0171 5.47815 43.2211 5.2493C42.8729 5.13986 42.5346 5.02046 42.1864 4.91102C41.8381 4.80157 41.47 4.71202 41.072 4.65232C40.7835 4.59263 40.475 4.56278 40.1268 4.56278H39.1815C39.0124 4.56278 38.8532 4.59263 38.7139 4.65232C38.5746 4.71202 38.4154 4.71202 38.2463 4.65232C37.898 4.54288 37.5598 4.55283 37.2115 4.69212C36.8633 4.83142 36.525 4.88117 36.1768 4.82147H35.2316C34.8833 5.16971 34.5152 5.309 34.1172 5.2493C34.0575 5.2493 34.0177 5.25925 33.9878 5.2891C33.958 5.31895 33.9182 5.3289 33.8585 5.3289C33.4008 5.55774 32.774 5.75674 31.968 5.92588C31.3412 6.04528 31.0228 6.38357 31.0228 6.96065C30.9631 7.12979 30.9532 7.28898 30.983 7.42828C31.0129 7.56758 30.993 7.69692 30.9432 7.81632C30.8239 8.04516 30.7741 8.26405 30.7741 8.46305C30.7741 8.66204 30.7144 8.85108 30.6049 9.02023C30.3164 9.47791 30.1771 9.9356 30.1771 10.3933C30.1771 10.851 30.0378 11.3087 29.7493 11.7663C29.6299 11.8857 29.5901 11.9952 29.6199 12.1146C29.6498 12.234 29.6299 12.3434 29.5801 12.4529C29.4608 12.6817 29.4408 12.8508 29.4906 12.9702C29.4906 13.0299 29.4806 13.0697 29.4508 13.0996C29.4209 13.1294 29.411 13.1692 29.411 13.2289C29.2916 13.4578 29.2418 13.6269 29.2418 13.7463C29.2418 13.8657 29.1822 13.9951 29.0727 14.1344C28.9533 14.2737 28.9533 14.403 29.0727 14.5224C28.7245 14.7512 28.615 15.0995 28.7244 15.5572C28.7244 15.6169 28.6946 15.6567 28.6349 15.6865C28.5752 15.7164 28.5453 15.7562 28.5453 15.8158C28.4259 15.9352 28.3762 16.0148 28.3762 16.0745C28.2568 16.4725 28.1573 16.8606 28.0777 17.2287C27.9882 17.5968 27.8887 17.9849 27.7793 18.3829C27.6599 18.8405 27.5803 19.2087 27.5206 19.4972C27.3514 19.6664 27.1723 19.7858 27.0032 19.8455C27.0629 19.9649 27.1325 20.0644 27.2221 20.144C27.3116 20.2335 27.2619 20.333 27.0927 20.4424L27.0032 20.6116C27.0629 20.731 27.0629 20.8404 27.0032 20.9598C26.9435 21.0792 26.9136 21.1887 26.9136 21.2981C26.8539 21.5867 26.7743 21.8453 26.6549 22.0742C26.5355 22.303 26.4858 22.5617 26.4858 22.8503C26.3664 23.4771 26.1973 23.9945 25.9684 24.3925C25.7396 24.7904 25.6003 25.1984 25.5406 25.5964C25.4809 25.9944 25.3416 26.4023 25.1128 26.8003C25.0531 26.9197 25.0133 27.059 24.9834 27.2281C24.9536 27.3973 24.9138 27.5465 24.8541 27.656C24.8541 28.0042 24.8242 28.2529 24.7645 28.432C24.6451 28.7803 24.5357 29.0091 24.4163 29.1186V29.2877C24.2969 29.7454 24.1675 30.2031 24.0282 30.6607C23.8889 31.1184 23.7596 31.5761 23.6402 32.0338C23.5208 32.6109 23.2721 33.0089 22.8641 33.2377C22.8641 33.3571 22.8741 33.4268 22.9039 33.4566C22.9337 33.4865 22.9139 33.5561 22.8641 33.6755C22.8641 33.7949 22.8342 33.9043 22.7745 34.0237C22.7149 34.1431 22.6552 34.2526 22.6054 34.362C22.5457 34.4814 22.5457 34.6207 22.6054 34.7899C22.6651 34.959 22.6651 35.1083 22.6054 35.2177C22.6054 35.3371 22.5656 35.4465 22.4761 35.556C22.3865 35.6754 22.3467 35.8147 22.3467 35.9838C22.1776 36.0435 22.098 36.143 22.1279 36.2823C22.1577 36.4216 22.1378 36.551 22.088 36.6703C22.088 36.73 22.0283 36.8096 21.9189 36.929C21.9189 36.9887 21.889 37.0285 21.8293 37.0584C21.7696 37.0882 21.7696 37.128 21.8293 37.1877C21.9388 37.4166 21.9388 37.5857 21.8293 37.7051C21.7099 37.8245 21.6005 37.934 21.4811 38.0534C21.4811 38.1727 21.491 38.3021 21.5209 38.4414C21.5507 38.5807 21.5309 38.71 21.4811 38.8294C21.3617 39.2274 21.2622 39.6155 21.1826 39.9836C21.0931 40.3517 20.9936 40.7696 20.8841 41.2273C20.8245 41.3467 20.7448 41.476 20.6254 41.6153C20.5061 41.7546 20.4563 41.884 20.4563 42.0034C20.3966 42.1725 20.3966 42.3616 20.4563 42.5606C20.516 42.7595 20.516 42.9187 20.4563 43.0282C20.3369 43.257 20.2871 43.4759 20.2871 43.6749C20.2871 43.8739 20.2275 44.063 20.118 44.2321C19.9489 44.3515 19.8692 44.5306 19.8991 44.7893C19.9289 45.048 19.8593 45.2569 19.6802 45.436V45.6947C19.5111 45.8141 19.4314 45.9136 19.4613 45.9932C19.4911 46.0827 19.5309 46.1822 19.5906 46.2917C19.4712 46.5802 19.3419 46.819 19.2027 47.018C19.0634 47.217 18.9837 47.406 18.9837 47.5752C18.9837 47.8637 18.9738 48.1025 18.944 48.3015C18.9141 48.5005 18.8743 48.7492 18.8146 49.0278C18.8146 49.1472 18.7549 49.3164 18.6455 49.5452C18.4763 49.7144 18.347 49.993 18.2574 50.3611C18.1679 50.7292 18.1281 51.0576 18.1281 51.3461C18.1281 51.4058 18.138 51.4456 18.1678 51.4755C18.1977 51.5053 18.2077 51.575 18.2077 51.6943L18.5559 51.3461C18.9539 51.0576 19.3519 50.8287 19.7598 50.6596C19.9887 50.5501 20.1777 50.4307 20.317 50.3113C20.4563 50.2019 20.6453 50.0825 20.8742 49.9731C21.103 49.8636 21.3319 49.7343 21.5607 49.585C21.7896 49.4457 21.9885 49.2268 22.1577 48.9383C22.2174 48.8786 22.2671 48.8487 22.3268 48.8487C22.4362 48.9084 22.5159 48.9084 22.5457 48.8487C22.5756 48.789 22.6452 48.7393 22.7646 48.6796L23.5407 48.1622C23.9984 47.9334 24.3168 47.7344 24.4859 47.5652C24.4859 47.5055 24.5754 47.3961 24.7446 47.217C24.9734 47.0479 25.1824 46.8688 25.3913 46.6996C25.5903 46.5305 25.8092 46.3812 26.0381 46.2718C26.2072 46.1623 26.3365 46.0031 26.4261 45.8041C26.5156 45.6051 26.6947 45.5653 26.9832 45.6748C27.0927 45.3863 27.1822 45.247 27.2419 45.247C27.4111 45.1873 27.5703 45.1077 27.7096 44.9883C27.8489 44.8788 27.9783 44.7594 28.0977 44.65C28.2071 44.5405 28.3265 44.4311 28.4459 44.3515C28.5553 44.2619 28.6747 44.1624 28.7941 44.053C28.9035 43.8839 29.023 43.7645 29.1424 43.7048C29.2518 43.6451 29.3712 43.5655 29.4906 43.4461C29.6 43.3864 29.7095 43.3366 29.7891 43.2769C29.8786 43.2172 29.9781 43.1675 30.0876 43.1078C30.3761 42.9386 30.4856 42.7396 30.4358 42.5108H30.784C30.8935 42.1626 31.0726 41.9238 31.3014 41.7845C31.5303 41.6452 31.7292 41.4263 31.8984 41.1378C32.1272 41.1974 32.1969 41.1676 32.1173 41.0482C32.0278 40.9388 32.0476 40.8194 32.1571 40.7C32.3262 40.6403 32.5053 40.5706 32.6745 40.4811C32.8436 40.3915 32.9929 40.292 33.1023 40.1826C33.3908 39.894 33.5301 39.7249 33.5301 39.6652C33.6396 39.3767 33.7988 39.1677 33.9978 39.0185C34.1968 38.8792 34.3858 38.72 34.555 38.5508C34.7241 38.4414 34.9231 38.322 35.1519 38.2125C35.3808 38.1031 35.5201 37.8942 35.5798 37.6156C35.5798 37.5559 35.6096 37.526 35.6693 37.526C35.7788 37.4166 35.8683 37.327 35.928 37.2673C35.9877 37.2076 36.0673 37.0982 36.1867 36.929C36.2961 36.6405 36.4752 36.4017 36.7041 36.2027C36.9329 36.0037 37.132 35.7848 37.3011 35.556C37.5299 35.3271 37.7388 35.0983 37.9478 34.8695C38.1468 34.6406 38.3856 34.3819 38.6741 34.0934C38.7338 34.0337 38.7637 33.9839 38.7637 33.9242C38.7637 33.8645 38.8234 33.8148 38.9328 33.7551C39.0422 33.6954 39.1219 33.6258 39.1517 33.5362C39.1816 33.4467 39.2512 33.3472 39.3706 33.2377C39.48 33.1283 39.5696 32.9492 39.6293 32.7203C39.689 32.4915 39.8581 32.3721 40.1467 32.3721H40.0671Z" fill="white"/>
<path d="M108.113 14.0953C107.944 13.6377 107.655 13.379 107.257 13.3193C107.197 13.3193 107.088 13.2297 106.909 13.0606C106.799 13.18 106.74 13.2596 106.74 13.3193C106.62 13.1501 106.392 13.0904 106.053 13.1501C105.536 13.4884 104.939 13.7471 104.252 13.9262C103.854 13.9859 103.496 14.1152 103.178 14.3142C102.859 14.5132 102.561 14.762 102.272 15.0406C101.984 15.2694 101.755 15.4982 101.586 15.7271C101.417 15.9559 101.218 16.2146 100.989 16.5032C100.82 16.7917 100.76 17.0802 100.82 17.3588C100.929 17.4683 100.929 17.5877 100.82 17.6971C100.76 17.7568 100.73 17.8961 100.73 18.1249C100.79 18.2941 100.82 18.4732 100.82 18.6423C101.049 18.8115 101.337 19.0702 101.675 19.4184C101.735 19.4184 101.785 19.4085 101.845 19.3786C101.904 19.3488 101.954 19.3388 102.014 19.3388C102.412 19.3985 102.76 19.2493 103.038 18.911C103.208 18.5727 103.407 18.2841 103.635 18.0553C103.924 17.6573 104.252 17.3389 104.62 17.1101C104.989 16.8812 105.406 16.6524 105.864 16.4236C106.262 16.2544 106.67 16.0952 107.068 15.9559C107.466 15.8166 107.814 15.5679 108.093 15.2296V14.8018C108.202 14.6326 108.202 14.4038 108.093 14.1152L108.113 14.0953Z" fill="white"/>
<path d="M137.127 32.0341C137.067 31.9246 137.037 31.7953 137.037 31.6461C137.037 31.4968 137.007 31.3774 136.948 31.258H136.689C136.579 31.1983 136.44 31.1486 136.301 31.0889C136.162 31.0292 136.002 31.059 135.833 31.1784C135.714 31.2978 135.604 31.3675 135.485 31.3973C135.376 31.4272 135.256 31.4968 135.147 31.6162C134.978 31.7356 134.828 31.8749 134.719 32.044C134.599 32.2132 134.46 32.3624 134.291 32.4719C133.893 32.7604 133.545 33.0689 133.266 33.4171C132.978 33.7653 132.669 34.1036 132.321 34.4419C132.032 34.7305 131.744 35.0289 131.465 35.3473C131.177 35.6657 130.839 35.9642 130.441 36.2528L130.271 36.4219C129.983 36.8796 129.495 37.3671 128.809 37.8845C128.411 38.173 128.082 38.4815 127.824 38.8297C127.565 39.178 127.207 39.4864 126.749 39.7749L126.232 40.2923C126.003 40.5212 125.784 40.75 125.585 40.9788C125.386 41.2077 125.137 41.4067 124.859 41.5758C124.63 41.6952 124.431 41.8345 124.262 42.0037C124.093 42.1728 123.914 42.322 123.744 42.4315C123.406 42.7698 123.048 43.1081 122.67 43.4165C122.292 43.7349 121.944 44.0632 121.595 44.4015L121.078 44.5707C120.958 44.2821 120.829 44.0035 120.69 43.715C120.551 43.4265 120.421 43.118 120.302 42.7698C120.192 42.4812 120.083 42.2225 120.003 41.9937C119.914 41.7649 119.784 41.5062 119.615 41.2176C119.506 40.9291 119.367 40.6605 119.227 40.4018C119.088 40.1431 118.959 39.8744 118.839 39.5859C118.72 39.357 118.61 39.1382 118.491 38.9392C118.382 38.7402 118.262 38.5213 118.153 38.2924C118.093 38.2327 118.063 38.183 118.063 38.1233C118.123 37.8347 118.073 37.596 117.934 37.397C117.794 37.198 117.665 37.0089 117.546 36.8398C117.257 36.5512 117.058 36.2428 116.949 35.8946C116.829 35.5563 116.66 35.2379 116.431 34.9493C116.372 34.8399 116.292 34.6011 116.173 34.2628C116.063 34.0937 115.954 33.9146 115.874 33.7454L115.576 33.1485C115.516 33.039 115.506 32.9495 115.536 32.8898C115.566 32.8301 115.496 32.7803 115.317 32.7206C115.257 32.6609 115.227 32.5913 115.227 32.5017C115.227 32.4122 115.198 32.3127 115.138 32.2032C115.019 32.0938 114.949 31.9744 114.919 31.8649C114.889 31.7555 114.849 31.6361 114.79 31.5267C114.67 31.2381 114.571 30.9794 114.491 30.7506C114.402 30.5217 114.272 30.2929 114.103 30.0641C113.934 29.7755 113.835 29.5168 113.805 29.288C113.775 29.0591 113.765 28.8004 113.765 28.5119V28.3428C113.765 28.1139 113.755 27.895 113.725 27.696C113.695 27.497 113.685 27.2782 113.685 27.0493C113.745 26.7608 113.795 26.5319 113.854 26.3628C113.914 26.1936 113.964 25.9648 114.024 25.6763C114.133 25.2186 114.312 24.8206 114.541 24.4723C114.65 24.3032 114.77 24.144 114.879 24.0047C114.989 23.8654 115.108 23.7062 115.227 23.5371C115.108 23.4276 115.198 23.2485 115.486 23.0197C115.546 22.96 115.596 22.9301 115.655 22.9301C115.715 22.9301 115.765 22.9003 115.824 22.8406C115.934 22.6715 116.093 22.4824 116.292 22.2834C116.491 22.0844 116.65 21.9252 116.76 21.8158L117.108 21.4775C117.217 21.1293 117.416 20.9104 117.705 20.791C117.994 20.6815 118.222 20.5024 118.392 20.2736C118.561 20.2736 118.63 20.2139 118.61 20.1044C118.581 19.995 118.59 19.9054 118.65 19.8457C118.76 19.7861 118.869 19.7761 118.949 19.806C119.038 19.8358 119.108 19.8159 119.168 19.7662C119.456 19.6567 119.715 19.5174 119.944 19.3781C120.172 19.2388 120.401 19.1095 120.63 18.9901C120.799 18.8806 120.958 18.7911 121.098 18.7314C121.237 18.6717 121.396 18.7015 121.565 18.8209C121.675 18.8209 121.764 18.7911 121.824 18.7314C122.113 18.6219 122.351 18.602 122.55 18.6916C122.749 18.7811 122.938 18.8806 123.108 18.9901C123.277 19.1095 123.376 19.2488 123.406 19.4179C123.436 19.5871 123.476 19.7662 123.535 19.9353C123.764 20.4527 123.844 20.98 123.794 21.5272C123.734 22.0745 123.655 22.6018 123.535 23.1192C123.476 23.6366 123.406 24.1639 123.317 24.7111C123.227 25.2584 123.048 25.7559 122.759 26.2135C122.64 26.5021 122.531 26.7707 122.421 27.0294C122.302 27.2881 122.192 27.5567 122.073 27.8453C121.784 28.303 121.735 28.8203 121.904 29.3875L122.162 29.9049C122.272 30.0243 122.381 30.0939 122.461 30.1238C122.55 30.1536 122.65 30.1934 122.759 30.2531C122.869 30.1934 122.958 30.1437 123.018 30.084C123.078 30.0243 123.157 29.9745 123.277 29.9148C123.625 29.9148 123.894 29.8153 124.093 29.6163C124.292 29.4173 124.451 29.1785 124.56 28.89C124.729 28.492 124.958 28.1139 125.247 27.7756C125.535 27.318 125.774 26.8304 125.973 26.313C126.172 25.7956 126.421 25.2882 126.699 24.7708C126.809 24.6017 126.869 24.3131 126.869 23.9152C126.869 23.3381 126.958 22.8008 127.127 22.2834C127.296 21.8854 127.386 21.4874 127.386 21.0795C127.326 20.9104 127.316 20.7412 127.346 20.5621C127.376 20.393 127.326 20.2238 127.217 20.0447C127.326 19.8756 127.376 19.6866 127.346 19.4876C127.316 19.2886 127.277 19.0995 127.217 18.9304C127.217 18.5324 127.187 18.2439 127.127 18.0747C127.127 17.8459 127.038 17.6767 126.869 17.5573C126.699 17.4479 126.53 17.3285 126.351 17.219C126.461 16.9305 126.49 16.7017 126.441 16.5325C126.441 16.4231 126.321 16.244 126.093 16.0151C125.983 15.9057 125.844 15.7962 125.704 15.7166C125.565 15.6271 125.456 15.5276 125.406 15.4181C125.287 15.1893 125.147 15.0799 124.978 15.0799C124.809 15.0799 124.66 15.0202 124.55 14.9107C124.262 15.0301 124.063 15.0102 123.953 14.8709C123.834 14.7316 123.695 14.6023 123.526 14.4829C123.237 14.3137 122.968 14.2242 122.71 14.2242C122.451 14.2242 122.182 14.2839 121.894 14.3933L121.725 14.5625C121.605 14.453 121.536 14.3635 121.506 14.3038C121.476 14.2441 121.406 14.2441 121.287 14.3038C120.829 14.4729 120.401 14.5625 120.003 14.5625C119.834 14.5625 119.675 14.5923 119.536 14.652C119.396 14.7117 119.237 14.7416 119.068 14.7416C118.959 14.7416 118.819 14.8112 118.68 14.9605C118.541 15.0998 118.411 15.2291 118.292 15.3485C118.173 15.4082 118.033 15.438 117.864 15.438C117.695 15.438 117.546 15.4679 117.436 15.5276L117.267 15.438C117.158 15.6669 117.008 15.7962 116.839 15.8261C116.67 15.8559 116.521 15.9256 116.411 16.045C116.183 16.2738 116.014 16.4131 115.894 16.4728C115.267 16.7017 114.78 17.1593 114.431 17.8459C114.203 17.7364 114.063 17.7862 114.004 18.015C113.944 18.2439 113.805 18.3036 113.576 18.1842C113.347 18.4727 113.108 18.7314 112.85 18.9602C112.591 19.1891 112.402 19.4776 112.292 19.8159C111.944 19.8159 111.775 19.9253 111.775 20.1542C111.656 20.4925 111.546 20.7313 111.427 20.8407C111.367 20.9601 111.327 21.0596 111.297 21.1392C111.268 21.2288 111.168 21.2387 110.999 21.179C110.83 21.179 110.74 21.2984 110.74 21.5272C110.681 21.6367 110.611 21.7561 110.521 21.8655C110.442 21.9849 110.362 22.1242 110.302 22.2934C110.193 22.5819 110.014 22.8406 109.785 23.0694C109.785 23.1291 109.805 23.1888 109.825 23.2386C109.855 23.2983 109.865 23.348 109.865 23.4077C109.805 23.5271 109.755 23.6067 109.695 23.6664C109.636 23.7261 109.606 23.7858 109.606 23.8356C109.546 24.4126 109.417 24.9201 109.218 25.3778C109.019 25.8354 108.89 26.3528 108.83 26.92V28.293C108.83 28.4622 108.87 28.6512 108.959 28.8502C109.049 29.0492 109.089 29.2382 109.089 29.4074C109.148 30.2631 109.437 31.1784 109.944 32.1535C110.004 32.2629 110.064 32.3724 110.113 32.452C110.173 32.5415 110.223 32.641 110.282 32.7505C110.034 33.0092 109.835 33.248 109.686 33.4768C109.516 33.7355 109.258 33.9444 108.909 34.1235C108.74 34.2429 108.581 34.3822 108.442 34.5514C108.303 34.7205 108.173 34.8697 108.054 34.9792C107.536 35.4369 107.069 35.9344 106.641 36.4816C106.213 37.0288 105.765 37.5263 105.308 37.984C105.139 38.0934 104.989 38.2427 104.88 38.4118C104.76 38.581 104.651 38.7302 104.532 38.8397C104.243 39.178 103.984 39.5162 103.756 39.8247C103.527 40.1431 103.268 40.4416 102.979 40.7301C102.751 41.0186 102.552 41.2574 102.382 41.4564C102.213 41.6554 102.014 41.8743 101.786 42.1032C101.666 42.2126 101.616 42.322 101.616 42.4016C101.616 42.4812 101.557 42.5608 101.447 42.6205C101.218 42.6802 101.069 42.7797 101.019 42.919C100.96 43.0583 100.88 43.1877 100.761 43.3071C100.641 43.4265 100.542 43.5558 100.462 43.6951C100.373 43.8344 100.273 43.9637 100.164 44.0831C99.8155 44.4314 99.4771 44.7597 99.1389 45.0682C98.7906 45.3865 98.4822 45.7447 98.1936 46.1427C97.9648 46.481 97.7658 46.7198 97.5967 46.8292C97.3081 46.9486 97.0793 47.1178 96.9101 47.3466C96.741 47.5755 96.542 47.7745 96.3132 47.9436C96.2535 48.0033 96.2137 48.0531 96.1838 48.1127C96.154 48.1724 96.0843 48.2321 95.9649 48.2819C95.6266 48.5107 95.4475 48.4212 95.4475 48.0232C95.5072 47.7944 95.5172 47.5556 95.4874 47.2969C95.4575 47.0382 95.557 46.8292 95.7858 46.6502C95.6664 46.4213 95.6167 46.282 95.6167 46.2223L95.8754 45.4462C95.9351 45.1577 95.9749 44.9189 96.0048 44.7199C96.0346 44.5209 96.0743 44.302 96.134 44.0732C96.1937 43.8443 96.2435 43.6255 96.3032 43.4265C96.3629 43.2275 96.4127 43.0086 96.4724 42.7797C96.5818 42.4912 96.6714 42.1927 96.7311 41.8743C96.7908 41.5659 96.8704 41.2276 96.9898 40.8893C97.0992 40.4316 97.2186 40.1132 97.338 39.9441C97.4474 39.6555 97.4773 39.3968 97.4275 39.168C97.6564 38.9392 97.7758 38.7402 97.7758 38.571C97.6564 38.4616 97.6862 38.372 97.8653 38.3123C98.0942 38.1432 98.2335 37.9442 98.2932 37.7153C98.3529 37.4865 98.4026 37.2278 98.4623 36.9393C98.522 36.7701 98.5618 36.5811 98.5916 36.3821C98.6215 36.1831 98.721 36.0239 98.8901 35.9145C98.9996 35.805 99.0493 35.6757 99.0195 35.5264C98.9896 35.3871 99.0593 35.2578 99.2384 35.1384C99.2981 35.1384 99.2782 35.0787 99.1986 34.9692C99.109 34.8598 99.1289 34.7702 99.2384 34.7106C99.5269 34.6011 99.6662 34.4121 99.6662 34.1534C99.6662 33.8947 99.7557 33.7156 99.9249 33.5962C99.9846 33.1385 100.084 32.7206 100.223 32.3525C100.363 31.9843 100.552 31.5963 100.781 31.1884C100.84 31.0789 100.91 30.9595 100.999 30.8501C101.089 30.7406 101.159 30.5914 101.218 30.4222C101.218 30.1337 101.258 29.8949 101.348 29.6959C101.437 29.4969 101.537 29.2482 101.646 28.9696C101.646 28.6811 101.736 28.5418 101.905 28.5418C102.074 28.4323 102.213 28.1736 102.333 27.7657C102.442 27.4274 102.532 27.0792 102.591 26.7409C102.651 26.3926 102.621 26.0543 102.502 25.7061C102.382 25.537 102.303 25.3778 102.243 25.2385C102.183 25.0992 102.134 24.9698 102.074 24.8504L102.154 24.7609C101.696 24.6514 101.378 24.5619 101.208 24.5022C101.318 24.3927 101.407 24.2734 101.467 24.1639C101.179 24.0545 100.97 24.0644 100.82 24.2037C100.681 24.343 100.522 24.4226 100.353 24.4226C100.064 24.4226 99.6961 24.532 99.2384 24.7609C99.2384 24.8803 99.2781 24.9897 99.3677 25.0992C99.4572 25.2186 99.4374 25.328 99.3279 25.4474L99.0692 25.1887C98.9498 25.3579 98.8702 25.537 98.8105 25.7061C98.7508 25.8752 98.6713 26.0245 98.5519 26.1339C98.2633 26.4225 98.0643 26.721 97.9548 27.0394C97.8355 27.3577 97.6962 27.6562 97.527 27.9448C97.2982 28.2831 97.1887 28.5418 97.1887 28.7209C97.129 29.0691 96.9997 29.3676 96.8007 29.6263C96.6017 29.885 96.4425 30.1536 96.333 30.4421C96.1042 30.8401 95.9152 31.2481 95.7759 31.6461C95.6366 32.044 95.4774 32.452 95.3083 32.85C95.2386 32.9196 95.1888 33.0092 95.1391 33.0987C94.8505 33.437 94.6118 33.7852 94.4128 34.1235C94.2138 34.4618 93.9949 34.8101 93.7661 35.1483C93.4278 35.606 93.1193 36.1035 92.8606 36.6507C92.6019 37.198 92.3333 37.6955 92.0447 38.1531L91.02 39.954C90.9006 40.1232 90.821 40.3122 90.7613 40.5112C90.7016 40.7102 90.622 40.9291 90.5026 41.1579C90.4429 41.2176 90.3633 41.2574 90.2439 41.2873C90.1245 41.3171 90.0747 41.3569 90.0747 41.4166C89.9653 41.7052 89.816 41.9639 89.6469 42.1927C89.4778 42.4215 89.3285 42.6802 89.2191 42.9688C88.9305 43.4265 88.6718 43.8841 88.443 44.3418C88.2141 44.7995 87.9256 45.2572 87.5873 45.7149C87.5276 45.7149 87.4977 45.7746 87.4977 45.884L86.5526 47.5158L85.4382 49.2271C85.3188 49.3963 85.2392 49.5853 85.1795 49.7843C85.1198 49.9833 84.9805 50.1425 84.7516 50.2519C84.6919 50.2519 84.6621 50.2818 84.6621 50.3415L82.6025 53.2567C82.6025 53.3164 82.5726 53.3562 82.5129 53.3861C82.4532 53.4159 82.4234 53.4557 82.4234 53.5154C82.314 53.5751 82.1946 53.7144 82.0851 53.9433C81.916 54.1124 81.717 54.4308 81.4882 54.8885C81.319 54.779 81.1499 54.7591 80.9708 54.8487C80.8016 54.9382 80.6226 55.0377 80.4534 55.1472C80.3937 54.978 80.3638 54.779 80.3638 54.5502C80.3041 54.1522 80.2643 53.7741 80.2345 53.4358C80.2046 53.0975 80.1947 52.7493 80.1947 52.411C80.135 52.1225 80.0952 51.824 80.0654 51.5056C80.0355 51.1971 80.0753 50.8887 80.1947 50.6002C80.2544 50.4907 80.2842 50.2619 80.2842 49.9136C80.3439 49.6251 80.3738 49.3167 80.3738 48.9684C80.3738 48.6202 80.4335 48.3117 80.5429 48.0232C80.6524 47.7347 80.732 47.476 80.7619 47.2471C80.7917 47.0183 80.8315 46.7596 80.8912 46.4711C80.9509 46.2422 80.9608 46.0134 80.931 45.7845C80.9011 45.5557 80.9409 45.3567 81.0603 45.1875C81.1698 45.0184 81.1698 44.9488 81.0603 44.9687C80.9409 44.9985 80.921 44.9587 80.9708 44.8393H81.3091L81.5678 44.1528C81.6772 43.6951 81.8065 43.2673 81.9558 42.8693C82.0951 42.4713 82.2244 42.0435 82.3438 41.5858L83.289 39.1779C83.3985 39.0685 83.4781 38.9193 83.5079 38.7501C83.5378 38.581 83.6074 38.4118 83.7268 38.2327C83.896 37.775 84.095 37.3572 84.3238 36.989C84.5526 36.6209 84.7218 36.203 84.8412 35.7453L85.0999 35.2279C85.4382 34.7702 85.7168 34.2827 85.9158 33.7653C86.1148 33.248 86.3635 32.7306 86.6421 32.2231C86.8112 31.8848 86.9903 31.5366 87.1595 31.1983C87.3286 30.86 87.5276 30.5118 87.7564 30.1735L88.5325 28.7109L88.7912 28.3726L89.3882 27.4274C89.5573 27.2582 89.7563 26.9399 89.9852 26.4822C90.214 26.0842 90.4428 25.7061 90.6717 25.3678C90.9005 25.0295 91.0398 24.5917 91.0995 24.0843C91.0995 23.9749 91.1294 23.8953 91.1891 23.8654C91.2488 23.8356 91.2985 23.7659 91.3582 23.6465C91.5871 23.358 91.5871 23.0495 91.3582 22.7013L90.7613 22.0148C90.6419 21.7859 90.5026 21.6466 90.3334 21.5869C90.1643 21.5272 89.9653 21.4476 89.7364 21.3282C89.2787 21.2188 88.8012 21.1591 88.3236 21.1591C87.846 21.1591 87.3684 21.2188 86.9107 21.3282C86.4531 21.3879 86.0252 21.3979 85.6272 21.368C85.2292 21.3382 84.8014 21.2984 84.3437 21.2387L85.1198 19.8656C85.1795 19.7562 85.2292 19.6368 85.2889 19.5274C85.3486 19.4179 85.3785 19.2985 85.3785 19.1891C85.4382 18.9005 85.5377 18.612 85.677 18.3334C85.8163 18.0449 85.8362 17.7663 85.7168 17.4777C85.7168 17.418 85.7267 17.3384 85.7565 17.219C85.7864 17.1096 85.8859 17.0499 86.0551 17.0499L86.1446 16.8807C86.2043 16.5922 86.274 16.3136 86.3635 16.0251C86.4531 15.7365 86.463 15.4579 86.4033 15.1694C86.4033 15.06 86.4132 14.9406 86.4431 14.8311C86.4729 14.7217 86.453 14.6023 86.4033 14.4928C86.3436 14.2043 86.2043 13.7765 85.9755 13.2093H85.8063L85.4581 12.3537C85.2292 11.9557 84.9308 11.7069 84.5527 11.6273C84.1845 11.5378 83.8263 11.4383 83.4781 11.3288C83.2493 11.2691 83.0204 11.2592 82.7916 11.289C82.5627 11.3189 82.3339 11.3288 82.105 11.3288C81.528 11.3288 81.0802 11.5278 80.732 11.9258L80.3937 12.095C79.7072 12.3238 79.1898 12.5526 78.8515 12.7815L78.2545 13.2989C78.0257 13.5277 77.8267 13.7466 77.6576 13.9456C77.4884 14.1446 77.369 14.3933 77.3093 14.6719C77.0804 14.6719 76.9213 14.7615 76.8417 14.9306C76.7521 15.0998 76.6526 15.249 76.5431 15.3584C76.3143 15.647 76.2049 15.9554 76.2049 16.3037C76.2049 16.6519 76.0855 16.9603 75.8666 17.2489C75.976 17.5374 76.0059 17.8459 75.9462 18.1941C75.8865 18.5423 75.9164 18.8508 76.0358 19.1393C76.2049 19.7662 76.4338 20.3233 76.7223 20.8109C77.0108 21.2984 77.379 21.7461 77.8367 22.1441C78.0655 22.373 78.4038 22.6615 78.8714 22.9998C79.1599 23.1689 79.3291 23.3182 79.3888 23.4276C79.4485 23.547 79.3888 23.7759 79.2196 24.1142C79.1002 24.343 78.9709 24.5619 78.8316 24.7609C78.6923 24.9599 78.563 25.2086 78.4436 25.4872C78.2147 26.0643 77.9461 26.5916 77.6277 27.0792C77.3093 27.5667 77.0108 28.094 76.7223 28.6612C76.6626 28.7806 76.5929 28.89 76.5034 29.0094C76.4138 29.1288 76.3442 29.2382 76.2845 29.3477C75.9363 29.9745 75.588 30.5814 75.2099 31.1486C75.0706 31.3675 74.9313 31.5864 74.7821 31.8052C74.613 31.8649 74.5035 31.9445 74.4338 32.044C74.3443 32.1833 74.2448 32.3127 74.1353 32.4321C74.0159 32.6012 73.9065 32.7903 73.7971 32.9893C73.6777 33.1882 73.5682 33.3773 73.4488 33.5464C72.9911 34.0638 72.6429 34.621 72.424 35.218C72.1952 35.815 71.8469 36.3721 71.3992 36.8895C71.0012 37.2875 70.8022 37.7154 70.8022 38.173C70.7425 38.4616 70.6132 38.6705 70.4142 38.8198C70.2152 38.9591 70.056 39.1481 69.9466 39.3769C69.7774 39.6655 69.6182 39.9341 69.4789 40.1928C69.3396 40.4515 69.2103 40.7202 69.0909 41.0087C68.9217 41.3569 68.7427 41.6952 68.5735 42.0435C68.4044 42.3817 68.2053 42.7001 67.9765 42.9887C67.8571 43.1578 67.7576 43.327 67.678 43.5061C67.5885 43.6752 67.489 43.8742 67.3795 44.103C67.1507 44.3916 66.9517 44.7 66.7825 45.0483C66.6134 45.3865 66.4045 45.7646 66.1856 46.1626C66.1259 46.2721 66.096 46.3616 66.096 46.4213C66.096 46.481 66.0662 46.5606 66.0065 46.68C66.0065 46.9088 65.9169 47.0481 65.7478 47.1078C65.5786 47.1078 65.4593 47.1974 65.4095 47.3665C65.3498 47.476 65.2901 47.5655 65.2403 47.6252C65.1906 47.6849 65.121 47.7645 65.0712 47.8839C64.8424 48.1724 64.6235 48.4411 64.4245 48.6998C64.2255 48.9585 63.9767 49.257 63.6982 49.6052C63.6385 49.4958 63.5788 49.4162 63.529 49.3863C63.4693 49.3565 63.4395 49.3167 63.4395 49.257C63.3201 48.9684 63.2106 48.5406 63.1012 47.9735C63.1012 47.8043 63.0813 47.6451 63.0614 47.5058C63.0315 47.3665 63.0515 47.2073 63.1012 47.0382C63.1609 46.869 63.2007 46.68 63.2305 46.481C63.2604 46.282 63.3001 46.093 63.3598 45.9238C63.4195 45.5855 63.4693 45.2373 63.529 44.899C63.5887 44.5508 63.6981 44.2125 63.8772 43.8742C63.9867 43.526 64.1061 43.1578 64.2156 42.7598C64.325 42.3618 64.4742 41.9639 64.6434 41.5559C64.8722 40.8694 65.2105 40.0635 65.6682 39.1481C65.9567 38.5213 66.2453 37.8745 66.5239 37.2179C66.8124 36.5612 67.091 35.9145 67.3795 35.2876C67.489 34.8896 67.6681 34.6608 67.8969 34.6011C67.9566 34.5414 68.0661 34.3723 68.2352 34.0837C68.3446 33.7454 68.4641 33.4171 68.5735 33.0987C68.683 32.7903 68.8919 32.4818 69.1705 32.2032C69.459 31.9147 69.658 31.5764 69.7674 31.1685C69.8769 30.7705 70.056 30.3924 70.2848 30.0541C70.3445 29.9447 70.3943 29.8352 70.454 29.7556C70.5137 29.6661 70.5634 29.5666 70.6231 29.4571C71.1903 28.6512 71.1703 27.8552 70.5336 27.0493C70.4739 26.9896 70.3346 26.9598 70.1057 26.9598C69.9863 27.0792 69.9167 27.119 69.8869 27.0891C69.857 27.0593 69.7874 27.0195 69.668 26.9598C69.2103 26.7309 68.7825 26.8205 68.3845 27.2185L68.2153 27.3876C68.1556 27.3876 68.0163 27.4473 67.7875 27.5567C67.6183 27.6761 67.4691 27.8055 67.3596 27.9448C67.2402 28.0841 67.1009 28.2134 66.9318 28.3328C66.5935 28.6214 66.305 28.9198 66.0761 29.2382C65.8473 29.5566 65.5886 29.8551 65.3 30.1437C65.1806 30.2631 65.0513 30.3625 64.912 30.4421C64.7728 30.5317 64.6135 30.6013 64.4444 30.661C64.3847 30.5516 64.3449 30.472 64.315 30.4421C64.2852 30.4123 64.2454 30.3426 64.1857 30.2233C64.126 29.875 63.8971 29.6263 63.4991 29.4472C63.3798 29.3377 63.2703 29.2482 63.1609 29.1885C63.0415 29.1288 62.932 29.079 62.8126 29.0193C62.4743 28.9099 62.1361 28.7905 61.8276 28.6711C61.5092 28.5617 61.1809 28.5617 60.8426 28.6711C60.7232 28.6711 60.5839 28.701 60.4148 28.7606C60.2456 28.8203 60.0964 28.8203 59.9869 28.7606C59.8178 28.701 59.6686 28.701 59.5591 28.7606C59.4397 28.8203 59.3302 28.88 59.2108 28.9298C59.0417 28.9895 58.8825 29.0591 58.7432 29.1487C58.6039 29.2382 58.4447 29.3079 58.2756 29.3676C57.8776 29.487 57.5294 29.6661 57.2508 29.9248C56.9622 30.1835 56.6538 30.3924 56.3056 30.5715C56.1961 30.6909 56.0867 30.7904 56.0071 30.87C55.9275 30.9595 55.7882 31.0292 55.619 31.0889L55.4499 31.258C55.3305 31.3774 55.221 31.4769 55.1016 31.5565C54.9822 31.6361 54.8728 31.7455 54.7634 31.855C54.644 31.9744 54.5445 32.0838 54.4649 32.2032C54.3753 32.3127 54.246 32.3724 54.0768 32.3724C53.9574 32.7206 53.7784 32.9694 53.5197 33.1485C53.261 33.3176 53.0221 33.5464 52.7933 33.835C52.5048 34.1235 52.2461 34.4121 52.0173 34.6907C51.7884 34.9792 51.5596 35.2876 51.3307 35.6359C51.2213 35.7453 51.1417 35.8946 51.1118 36.0637C51.082 36.2329 51.0123 36.3522 50.8929 36.402C50.6641 36.4617 50.5347 36.5612 50.5049 36.7005C50.475 36.8398 50.4054 36.9691 50.286 37.0885C50.0572 37.2079 49.9179 37.3174 49.8582 37.4368C49.7487 37.6656 49.5696 38.0636 49.3408 38.6407C49.1716 38.581 49.0025 38.6705 48.8234 38.8994C48.7139 39.1879 48.6344 39.4764 48.6045 39.755C48.5747 40.0436 48.3856 40.2426 48.0473 40.352V40.5212C47.9379 40.75 47.8285 40.9689 47.7489 41.1679C47.6593 41.3669 47.5598 41.5858 47.4503 41.8146C47.3409 41.9838 47.2613 42.1827 47.2315 42.4116C47.2016 42.6404 47.1021 42.8394 46.933 43.0086L47.0225 43.1777L46.933 43.3469C46.7041 43.4663 46.5748 43.6155 46.5449 43.8145C46.5151 44.0135 46.4753 44.2324 46.4156 44.4612C46.4156 44.5707 46.4355 44.6503 46.4554 44.6801C46.4753 44.71 46.4653 44.7796 46.4156 44.899C46.3061 45.1278 46.1967 45.3567 46.1171 45.5855C46.0276 45.8144 45.9281 46.0731 45.8186 46.3616C45.7092 46.5905 45.6892 46.8292 45.7788 47.0879C45.8683 47.3466 45.8186 47.6153 45.6494 47.9038L45.739 47.9934C45.7987 48.1028 45.8285 48.2222 45.8285 48.3316C45.7191 48.6202 45.6893 48.8888 45.739 49.1475C45.7987 49.4062 45.7987 49.6748 45.739 49.9634C45.739 50.0828 45.7987 50.3116 45.9081 50.6499C46.0275 50.9385 46.127 51.1772 46.2066 51.3762C46.2962 51.5752 46.3957 51.824 46.5052 52.1026C46.5649 52.3314 46.734 52.4409 47.0225 52.4409C47.0822 52.8985 47.2812 53.2468 47.6195 53.4657C47.8484 53.6348 48.2463 53.8438 48.8234 54.0626C49.1119 54.2318 49.4502 54.2616 49.8482 54.1522C49.9079 54.1522 49.9676 54.1422 50.0174 54.1124C50.0771 54.0826 50.1367 54.0726 50.1865 54.0726C50.9924 54.0726 51.6491 53.8438 52.1566 53.3861C52.276 53.2766 52.3854 53.1871 52.5048 53.1274C52.9625 52.8985 53.4202 52.5603 53.8778 52.1026C53.9375 52.0429 53.9773 51.9732 54.0072 51.8837C54.037 51.7941 54.0768 51.7543 54.1365 51.7543C54.3654 51.6946 54.5245 51.615 54.6041 51.4956C54.6937 51.3862 54.7932 51.2668 54.9026 51.1474C55.1912 50.8589 55.4499 50.5604 55.6787 50.242C55.9076 49.9335 56.1663 49.5953 56.4548 49.257C56.624 48.9684 56.7732 48.6898 56.8827 48.4013C56.9921 48.1128 57.2309 47.9138 57.5692 47.8043C57.6289 47.5158 57.7383 47.2869 57.9174 47.1178C58.0865 46.9486 58.1761 46.7198 58.1761 46.4313L58.3452 46.2621C58.6338 46.093 58.8626 45.8741 59.0318 45.6154C59.2009 45.3567 59.3701 45.0881 59.5492 44.7995C59.6089 44.6304 59.7481 44.4314 59.977 44.2025H60.0665C60.0665 44.3717 60.0466 44.5408 60.0267 44.7199C59.9969 44.8891 59.9869 45.0682 59.9869 45.2373C59.9869 45.4064 59.977 45.5855 59.9471 45.7547C59.9173 45.9238 59.9273 46.0731 59.9869 46.1825C60.0466 46.4114 60.0168 46.6402 59.8974 46.869C59.778 47.0979 59.7282 47.2471 59.7282 47.2969C59.6685 47.8143 59.6984 48.3217 59.8178 48.8391C59.9272 49.3565 60.0765 49.844 60.2456 50.3017C60.3551 50.5305 60.4745 50.7494 60.5839 50.9484C60.6934 51.1474 60.8128 51.3663 60.9222 51.5951C60.9819 51.7145 61.0615 51.7941 61.1809 51.8538C61.2904 51.9135 61.4097 51.9931 61.5192 52.1125V52.2021C61.5192 52.2618 61.5491 52.2916 61.6087 52.2916C61.7182 52.411 61.8376 52.4807 61.957 52.5105C62.0664 52.5404 62.1858 52.5801 62.2953 52.6398C62.4047 52.6995 62.5142 52.7294 62.5938 52.7294C62.6734 52.7294 62.7828 52.7592 62.8922 52.8189C63.0017 52.8189 63.1211 52.8488 63.2404 52.9085C63.3499 52.9682 63.4693 52.9682 63.5788 52.9085C64.2056 52.799 64.723 52.6199 65.1209 52.3911C65.7478 51.9334 66.3547 51.3663 66.9218 50.6798C67.2104 50.3912 67.4691 50.0629 67.6979 49.6947C67.9268 49.3266 68.1854 48.9684 68.474 48.6202C68.7028 48.3316 68.8421 48.0232 68.9018 47.675C68.9615 47.6153 69.0013 47.5655 69.0312 47.5058C69.061 47.4461 69.1008 47.3964 69.1605 47.3367C69.5087 46.9884 69.648 46.5905 69.5883 46.1328L69.6779 46.0432H69.9366C69.9366 45.7049 69.9664 45.4761 70.0261 45.3567C70.1953 45.1875 70.3246 44.9985 70.4142 44.7995C70.5037 44.6005 70.6032 44.4115 70.7127 44.2423C71.0012 43.8443 71.2798 43.3867 71.5683 42.8693C71.7375 42.5807 71.9166 42.322 72.0857 42.0932C72.2549 41.8644 72.3941 41.6057 72.5135 41.3171C72.5732 40.9788 72.7424 40.5709 73.0309 40.1132C73.1404 40.0038 73.22 39.8844 73.2498 39.7749C73.2797 39.6655 73.3493 39.5461 73.4687 39.4267C73.5284 39.3172 73.5981 39.2078 73.6876 39.1282C73.7771 39.0387 73.8169 38.9392 73.8169 38.8297C73.9264 38.372 74.1055 38.0039 74.3344 37.7153C74.5632 37.4268 74.7622 37.1184 74.9313 36.7701C75.0408 36.3721 75.2 36.014 75.399 35.6956C75.5283 35.4866 75.6676 35.2777 75.8168 35.0488H75.8765L76.6526 34.5315L76.8218 34.1036C76.8815 34.1036 76.9113 34.0738 76.9113 34.0141C77.5382 33.3872 78.0555 32.7604 78.4535 32.1236C78.8515 31.4968 79.2594 30.8401 79.6574 30.1536C79.7668 29.9845 79.8763 29.7954 79.9559 29.5964C80.0455 29.3974 80.145 29.2084 80.2544 29.0392C80.4833 28.8701 80.6424 28.6413 80.722 28.3527C80.8116 28.0642 80.9907 27.8055 81.2792 27.5766C81.3886 27.4672 81.4782 27.2881 81.5379 27.0593C81.5976 26.8304 81.6772 26.6016 81.7966 26.3727C82.1946 25.8056 82.513 25.2285 82.7418 24.6614C83.4284 24.7808 84.1149 24.8206 84.8014 24.7907C85.4879 24.7609 86.1745 24.8007 86.861 24.9201L86.3436 26.2036L85.7466 27.0593C85.5774 27.2881 85.3685 27.6363 85.1496 28.094C85.0302 28.3826 84.8909 28.6114 84.7218 28.7805C84.5527 28.9497 84.4034 29.1785 84.294 29.4671L83.9557 30.4123L83.6074 30.9297C83.2692 31.3874 83.0304 31.7356 82.9209 31.9545C82.8015 32.1236 82.702 32.3226 82.6224 32.5515C82.5329 32.7803 82.4334 32.9793 82.324 33.1485C82.0951 33.437 81.9757 33.8051 81.9757 34.2628C81.6871 34.432 81.518 34.5812 81.4583 34.6907C81.3986 34.8101 81.319 35.009 81.1996 35.2876L80.9409 35.8846C80.8215 36.1732 80.6723 36.4716 80.4733 36.79C80.2743 37.1084 80.1151 37.4368 80.0057 37.7751L79.5778 39.1481C79.349 39.4864 79.2097 39.7451 79.15 39.9242L78.2943 42.1529L78.0356 43.3568C77.9759 43.6454 77.9063 43.8841 77.8167 44.0831C77.7272 44.2821 77.6277 44.501 77.5183 44.7299C77.3989 44.9587 77.3491 45.098 77.3491 45.1577C77.2894 45.6154 77.2297 46.0432 77.1799 46.4412C77.1202 46.8392 77.0108 47.2471 76.8417 47.6451C76.782 47.7048 76.7521 47.8143 76.7521 47.9934C76.7521 48.1028 76.762 48.2421 76.7919 48.3814C76.8217 48.5207 76.8019 48.65 76.7521 48.7694C76.6924 49.1674 76.8118 49.5157 77.1004 49.8042C76.8118 49.9136 76.6725 50.0629 76.6725 50.232V50.7494C76.6725 50.8091 76.7024 50.8688 76.7621 50.9186C76.5332 51.2071 76.4635 51.5056 76.5431 51.824C76.6327 52.1424 76.6427 52.4409 76.583 52.7294C76.5233 52.8388 76.5432 52.9582 76.6228 53.0677C76.7123 53.1871 76.7223 53.3264 76.6626 53.4955C76.6626 53.6149 76.7023 53.7144 76.7919 53.794C76.8814 53.8836 76.9511 53.9831 77.0108 54.0925C76.8417 54.381 76.782 54.5502 76.8417 54.6099C76.9511 54.9581 77.0307 55.2964 77.0605 55.6446C77.0904 55.9829 77.2198 56.3013 77.4486 56.5899C77.7869 57.1669 78.165 57.6644 78.563 58.0923C78.9609 58.5201 79.5579 58.7091 80.3638 58.6494C80.6524 58.6494 80.9111 58.6196 81.1399 58.5599C81.3688 58.5002 81.6275 58.4505 81.916 58.3908C82.0254 58.3311 82.1051 58.2614 82.1349 58.1719C82.1648 58.0823 82.2045 58.0425 82.2642 58.0425C82.5527 58.1022 82.7518 58.0425 82.8612 57.8734C82.9707 57.7042 83.1199 57.555 83.289 57.4455C83.5776 57.157 83.8761 56.8585 84.1944 56.5401C84.5128 56.2217 84.7815 55.8635 85.0103 55.4656L85.5277 54.779C85.6969 54.6099 85.8958 54.3512 86.1247 54.003C86.2341 53.8935 86.3536 53.7642 86.473 53.6149C86.5824 53.4756 86.6421 53.3463 86.6421 53.2269C86.6421 52.998 86.7018 52.8388 86.8112 52.7592C86.9207 52.6697 87.0401 52.5702 87.1495 52.4608V52.3712C87.0898 52.2021 87.1196 52.0827 87.239 52.0329C87.3485 51.9732 87.4679 51.8936 87.5873 51.7742L87.9256 51.3464C88.035 50.9982 88.1942 50.6897 88.3932 50.4012C88.5922 50.1126 88.7813 49.834 88.9504 49.5455C89.4678 48.6898 90.0051 47.7148 90.5822 46.6303L91.0995 45.8542L91.1891 45.6751C91.1891 45.7348 91.1891 45.7945 91.1891 45.8542C91.1294 46.1427 91.0995 46.4014 91.0995 46.6303C91.0995 46.8591 91.0697 47.1178 91.01 47.4063C91.01 47.6949 91 47.9635 90.9702 48.2222C90.9403 48.4809 90.9603 48.7495 91.01 49.0381C91.01 49.3266 91.0398 49.5654 91.0995 49.7644C91.1592 49.9634 91.219 50.1823 91.2687 50.4111C91.3881 50.64 91.4677 50.8688 91.5274 51.0976C91.5871 51.3265 91.6965 51.5553 91.8657 51.7842C91.9851 51.9533 92.0945 52.1125 92.2139 52.2518C92.3233 52.3911 92.5323 52.411 92.8109 52.2916C92.9303 52.5205 92.98 52.6896 92.98 52.809C93.3283 52.9284 93.5571 53.0378 93.6665 53.1572C93.8357 53.2766 94.0645 53.2766 94.3531 53.1572C94.4725 53.1572 94.5819 53.1274 94.6914 53.0677C94.8108 53.008 94.9202 53.0378 95.0396 53.1572C95.0396 53.2169 95.0794 53.2468 95.169 53.2468C95.2585 53.2468 95.3281 53.2169 95.3878 53.1572C95.557 52.9881 95.7361 52.9582 95.9052 53.0677C95.9649 53.1274 96.0346 53.1373 96.1241 53.1075C96.2137 53.0776 96.2833 53.0677 96.343 53.0677C96.6315 52.9582 96.8703 52.8388 97.0693 52.7294C97.2683 52.6199 97.4872 52.4707 97.7161 52.3016C97.9449 52.1324 98.1837 51.9732 98.4424 51.8339C98.7011 51.6946 98.9399 51.5354 99.1687 51.3663C99.507 51.0181 99.8354 50.6798 100.154 50.3415C100.472 49.9932 100.8 49.6251 101.139 49.2271C101.308 48.9983 101.497 48.7694 101.696 48.5406C101.895 48.3117 102.084 48.0829 102.253 47.8541C102.482 47.5655 102.671 47.3068 102.81 47.078C102.95 46.8491 103.139 46.6203 103.367 46.3915C103.706 46.1626 103.915 45.9338 103.964 45.7049C104.134 45.1875 104.452 44.8194 104.91 44.5906C105.079 44.4811 105.208 44.3319 105.298 44.1627C105.387 43.9936 105.487 43.8244 105.596 43.6454C105.706 43.4762 105.855 43.3369 106.024 43.2175C106.193 43.1081 106.342 42.929 106.452 42.7001C106.681 42.6404 106.82 42.531 106.88 42.3519C106.939 42.1828 107.019 42.0136 107.138 41.8345C107.198 41.6654 107.367 41.4365 107.656 41.148C107.944 40.8594 108.223 40.4913 108.511 40.0336C108.681 39.8645 108.85 39.7252 109.029 39.6058C109.138 39.5461 109.317 39.3471 109.546 39.0088C109.606 38.9491 109.686 38.8098 109.805 38.581C109.914 38.4715 110.034 38.3521 110.143 38.2327C110.253 38.1233 110.372 38.0039 110.482 37.8944C110.77 37.6656 111.029 37.4268 111.258 37.1681C111.486 36.9094 111.656 36.6109 111.775 36.2627L111.944 36.0936C112.004 36.1732 112.054 36.2527 112.123 36.3423C112.183 36.4617 112.233 36.5711 112.292 36.6905C112.352 36.8099 112.402 36.9194 112.461 37.0288C112.521 37.198 112.591 37.3771 112.68 37.5462C112.77 37.7153 112.869 37.8944 112.979 38.0636C113.088 38.2327 113.198 38.4218 113.277 38.6208C113.367 38.8198 113.466 39.0088 113.576 39.1779C113.685 39.2874 113.805 39.4068 113.914 39.5162C114.024 39.6356 114.113 39.7451 114.173 39.8545C114.342 40.4814 114.571 40.9689 114.859 41.3171C115.028 41.6057 115.168 41.9141 115.287 42.2623C115.397 42.6106 115.596 42.8892 115.884 43.118C115.944 43.1777 115.974 43.2474 115.974 43.3369C115.974 43.4265 116.004 43.4961 116.063 43.5558C116.173 43.8443 116.252 44.0831 116.282 44.2821C116.312 44.4811 116.382 44.7 116.501 44.9289C116.561 45.098 116.64 45.2572 116.76 45.3965C116.869 45.5358 116.929 45.695 116.929 45.8641C116.929 46.0333 116.969 46.1825 117.058 46.292C117.148 46.4114 117.247 46.5507 117.357 46.7198V46.9785C117.247 47.0979 117.227 47.1974 117.317 47.277C117.406 47.3665 117.446 47.4362 117.446 47.4959C117.158 47.9536 116.819 48.3018 116.421 48.5306C116.023 48.7595 115.675 49.048 115.397 49.3863C114.999 49.7843 114.591 50.1425 114.193 50.4609C113.795 50.7793 113.367 51.1076 112.909 51.4459C112.621 51.7344 112.362 51.9732 112.133 52.1722C111.904 52.3712 111.675 52.5901 111.447 52.8189C111.277 52.9881 111.019 53.3065 110.671 53.7642H110.84C110.72 53.8836 110.591 53.9234 110.452 53.8935C110.312 53.8637 110.213 53.9134 110.153 54.0229C110.044 54.192 109.894 54.3512 109.725 54.4905C109.556 54.6298 109.417 54.789 109.297 54.9581C108.959 55.2964 108.631 55.6546 108.312 56.0327C108.004 56.4108 107.696 56.7889 107.407 57.1968L106.382 58.739C106.094 59.137 105.835 59.5648 105.606 60.0225C105.377 60.4802 105.148 60.9379 104.92 61.3956C104.81 61.5647 104.731 61.7338 104.701 61.9129C104.671 62.0821 104.601 62.2214 104.482 62.3408C104.193 62.6293 104.044 62.9278 104.014 63.2462C103.984 63.5646 103.915 63.8631 103.795 64.1516C103.686 64.4998 103.606 64.8481 103.576 65.2262C103.547 65.5943 103.646 65.9824 103.875 66.3803V66.4699C103.815 67.037 104.014 67.5246 104.472 67.9325C104.472 67.9922 104.492 68.032 104.512 68.0618C104.542 68.0917 104.551 68.1315 104.551 68.1912C104.442 68.3006 104.422 68.3902 104.512 68.4499C104.601 68.5096 104.671 68.5892 104.731 68.7086C104.85 68.818 104.979 68.9374 105.119 69.0568C105.258 69.1662 105.417 69.2856 105.586 69.3951C106.442 70.0816 107.536 70.5692 108.85 70.8577C109.367 70.9671 109.894 71.0766 110.442 71.1562C110.989 71.2457 111.516 71.1363 112.024 70.8577H112.282C112.511 70.8577 112.73 70.8676 112.929 70.8975C113.128 70.9273 113.317 70.8875 113.486 70.7681C114.461 70.3702 115.287 69.9125 115.974 69.3951C116.143 69.2757 116.302 69.1463 116.441 69.0071C116.581 68.8678 116.74 68.7384 116.909 68.619C117.884 67.9325 118.6 67.1863 119.058 66.3903C119.168 66.2808 119.277 66.1415 119.357 66.0022C119.446 65.863 119.546 65.7336 119.655 65.6142C119.765 65.4451 119.914 65.266 120.083 65.0968C120.252 64.9277 120.391 64.7187 120.511 64.4998C120.68 64.2113 120.829 63.9228 120.939 63.6442C121.048 63.3556 121.167 63.0671 121.287 62.7885C121.854 61.7637 122.282 60.6394 122.57 59.4454C122.63 59.1569 122.66 58.8683 122.66 58.5898C122.66 58.3112 122.769 58.0425 123.008 57.8137V57.6445C122.889 57.356 122.879 57.0774 122.968 56.7889C123.058 56.5003 123.068 56.2217 123.008 55.9332V55.5054C123.068 55.3959 123.098 55.2168 123.098 54.988C123.038 54.6994 123.008 54.4606 123.008 54.2616V53.5353C123.008 53.4259 123.018 53.3164 123.048 53.2368C123.078 53.1473 123.058 53.0478 123.008 52.9383C122.839 52.3712 122.749 51.7941 122.749 51.227C122.809 50.9385 122.779 50.6599 122.66 50.3713C122.55 50.0828 122.461 49.8042 122.401 49.5157C122.172 49.4062 122.083 49.2868 122.142 49.1774C122.202 49.0679 122.232 48.9485 122.232 48.8291C122.232 48.7097 122.192 48.6003 122.103 48.4908C122.013 48.3814 122.003 48.262 122.063 48.1426C122.292 47.8043 122.461 47.5954 122.58 47.5456C122.978 47.3168 123.386 46.9984 123.784 46.6004C123.953 46.491 124.103 46.3417 124.212 46.1726C124.321 46.0034 124.471 45.8542 124.64 45.7447C124.978 45.4562 125.336 45.1577 125.714 44.8393C126.083 44.5209 126.441 44.2224 126.789 43.9339C127.078 43.705 127.336 43.4862 127.565 43.2872C127.794 43.0882 128.023 42.8394 128.252 42.5608C128.54 42.2723 128.819 41.9937 129.107 41.7052C129.396 41.4166 129.734 41.138 130.142 40.8495L130.311 40.6804C130.48 40.5112 130.659 40.3421 130.829 40.163C130.998 39.9938 131.177 39.7948 131.346 39.566C131.455 39.4565 131.585 39.3272 131.734 39.1779C131.873 39.0387 131.983 38.9093 132.032 38.7899C132.142 38.5611 132.321 38.4218 132.55 38.3621C132.659 38.2526 132.779 38.1332 132.888 38.0238C132.998 37.9143 133.117 37.795 133.226 37.6756C133.515 37.387 133.794 37.0885 134.082 36.7701C134.371 36.4617 134.649 36.1234 134.938 35.7851C135.107 35.5563 135.326 35.3573 135.584 35.1881C135.843 35.019 135.973 34.7603 135.973 34.4121C136.261 34.4718 136.46 34.4121 136.57 34.2429C136.679 34.0738 136.798 33.9046 136.908 33.7255C137.306 33.3275 137.395 32.8102 137.167 32.1833L137.127 32.0341ZM57.5692 29.7158C57.6289 29.7755 57.6786 29.8054 57.7383 29.8054C57.6786 29.8651 57.6487 29.9049 57.6487 29.9347C57.6487 29.9646 57.6189 30.0044 57.5592 30.0641C57.5592 30.0044 57.5492 29.9745 57.5194 29.9745C57.4895 29.9745 57.4796 29.9447 57.4796 29.885L57.5692 29.7158ZM60.6635 43.0981L60.5739 43.0086C60.5739 42.9489 60.5839 42.919 60.6138 42.919C60.6436 42.919 60.6536 42.8892 60.6536 42.8295C60.7133 42.8892 60.7431 42.9489 60.7431 42.9986L60.6536 43.0882L60.6635 43.0981ZM61.947 34.1733C61.8276 34.5116 61.6883 34.8598 61.5192 35.1981C61.4097 35.4269 61.2704 35.6259 61.1311 35.7951C60.9918 35.9642 60.8625 36.1732 60.7431 36.392C60.6237 36.6209 60.5143 36.8398 60.3949 37.0388C60.2854 37.2378 60.1063 37.4268 59.8775 37.596C59.7581 37.8248 59.6785 38.0238 59.6188 38.1929C59.4994 38.4815 59.3501 38.7501 59.1511 39.0088C58.9522 39.2675 58.793 39.5361 58.6835 39.8247C58.6238 39.9441 58.5542 40.0734 58.4646 40.2127C58.3751 40.352 58.2756 40.4814 58.1661 40.6008C57.7085 41.1778 57.2906 41.745 56.9224 42.3121C56.5443 42.8892 56.1663 43.4563 55.7583 44.0234C55.6389 44.1428 55.5395 44.2722 55.4599 44.4115C55.3703 44.5508 55.2708 44.6801 55.1613 44.7995C54.8728 45.1975 54.5843 45.6054 54.3057 46.0034C54.0171 46.4014 53.7386 46.8093 53.45 47.2073L53.2809 47.3765C53.052 47.6053 52.9127 47.7745 52.853 47.8939C52.7435 48.0033 52.664 48.0929 52.6341 48.1525C52.6043 48.2122 52.5346 48.2719 52.4152 48.3217C51.8978 48.8391 51.3606 49.2968 50.7835 49.6947C50.6741 49.8042 50.3855 49.9833 49.9278 50.2121C50.0472 49.9236 50.0174 49.6649 49.8383 49.4361C49.6691 49.2072 49.6989 48.9485 49.9278 48.66C49.7586 48.262 49.7586 47.8839 49.9278 47.5456C50.0472 47.0879 50.1567 46.6302 50.2761 46.1726C50.3855 45.7149 50.5049 45.2572 50.6143 44.7995C50.7337 44.511 50.8631 44.2324 51.0024 43.9438C51.1417 43.6553 51.3009 43.3767 51.47 43.0882C51.7586 42.6902 51.9973 42.2822 52.1963 41.8843C52.3953 41.4863 52.5844 41.0783 52.7535 40.6804C52.9227 40.2824 53.1316 39.954 53.3505 39.6953C53.5793 39.4366 53.8082 39.168 54.037 38.8795C54.1465 38.77 54.236 38.6108 54.2957 38.4118C54.3554 38.2128 54.435 38.0238 54.5544 37.8546C54.6141 37.795 54.644 37.6855 54.644 37.5064C54.7534 37.397 54.9027 37.3472 55.0718 37.3771C55.241 37.4069 55.2708 37.3074 55.1613 37.0786C55.2708 37.0189 55.3902 36.9691 55.5096 36.9094C55.619 36.8497 55.7384 36.8 55.8479 36.7403C55.8479 36.5114 55.9076 36.3224 56.017 36.1831C56.1265 36.0438 56.2458 35.8846 56.3553 35.7155C56.5244 35.606 56.7832 35.3772 57.1314 35.0289C57.2408 34.9195 57.3303 34.81 57.39 34.7304C57.4497 34.6409 57.5592 34.5414 57.7383 34.432C57.8478 34.3723 57.9572 34.2927 58.0368 34.1733C58.1263 34.0638 58.2258 33.9444 58.3353 33.835C58.5641 33.6658 58.793 33.5066 59.0218 33.3673C59.2506 33.2281 59.5094 33.039 59.7979 32.8102L60.5739 32.2928C60.8028 32.1833 60.972 32.1236 61.0913 32.1236C61.4893 32.1236 61.7381 32.1634 61.8177 32.253C61.9072 32.3425 61.9769 32.5813 62.0366 32.9793C62.0963 33.437 62.0664 33.835 61.947 34.1832V34.1733ZM82.5826 15.9853C82.5528 16.1544 82.5428 16.3534 82.5428 16.5823C82.5428 16.7017 82.5129 16.7813 82.4533 16.841C82.2841 17.0101 82.1647 17.219 82.115 17.4379C82.0553 17.6668 81.9757 17.8956 81.8563 18.1245C81.8563 18.413 81.8264 18.612 81.7667 18.7214C81.6473 18.9503 81.5379 19.1791 81.4185 19.408C81.2991 19.6368 81.2195 19.8955 81.1598 20.184C80.931 19.8955 80.7021 19.6866 80.4733 19.5373C80.2444 19.398 80.0753 19.209 79.9559 18.9801C79.7271 18.5224 79.6375 18.1543 79.6972 17.8658C79.6972 17.5772 79.7669 17.3484 79.9161 17.1792C80.0554 17.0101 80.1848 16.7813 80.3041 16.4927L80.4733 16.3236L82.5329 14.9505C82.5926 15.1197 82.6224 15.2888 82.6224 15.4679C82.6224 15.647 82.6125 15.8062 82.5826 15.9853ZM119.018 56.9182C118.959 57.0874 118.949 57.2664 118.978 57.4356C119.008 57.6047 118.988 57.754 118.939 57.8634C118.939 58.0923 118.879 58.4405 118.77 58.8882C118.65 59.1171 118.571 59.3161 118.511 59.4852C118.451 59.6544 118.401 59.8534 118.342 60.0822V60.2513C118.342 60.311 118.372 60.3409 118.431 60.3409C118.312 60.51 118.232 60.6593 118.173 60.7687C118.113 60.8782 118.053 60.9976 118.003 61.107L117.834 61.4553C117.715 61.6841 117.605 61.8831 117.486 62.0522C117.367 62.2214 117.257 62.3905 117.148 62.5696C117.028 62.8582 116.859 63.2263 116.63 63.684C116.63 63.7934 116.601 63.8531 116.541 63.8531C116.252 63.9128 116.083 64.072 116.023 64.3208C115.964 64.5794 115.824 64.7685 115.596 64.8779C115.426 65.0471 115.267 65.2162 115.128 65.3953C114.989 65.5645 114.83 65.7336 114.66 65.9127C114.541 66.0222 114.441 66.1316 114.362 66.2112C114.272 66.3007 114.292 66.4798 114.402 66.7684C114.233 66.7087 114.083 66.6291 113.974 66.5097C113.745 66.6191 113.576 66.7385 113.456 66.848C113.228 67.1365 112.969 67.3156 112.68 67.4052C112.392 67.4947 112.083 67.5942 111.735 67.7036C111.447 67.7633 111.178 67.8131 110.919 67.8728C110.661 67.9325 110.392 67.9325 110.103 67.8728C109.875 67.8728 109.676 67.8429 109.506 67.7832C109.337 67.7235 109.138 67.6439 108.909 67.5245C108.8 67.4648 108.561 67.3853 108.223 67.2659C108.054 67.2659 107.895 67.1763 107.755 67.0072C107.616 66.838 107.427 66.7485 107.198 66.7485C107.198 66.5196 107.128 66.3505 106.979 66.2311C106.83 66.1117 106.76 65.9425 106.76 65.7137C106.701 65.4849 106.681 65.2859 106.681 65.1167C106.681 64.9476 106.76 64.7486 106.939 64.5198V64.2611C106.999 63.9128 107.099 63.5845 107.238 63.276C107.377 62.9577 107.507 62.6592 107.626 62.3706C107.745 62.0821 107.855 61.7935 107.964 61.5149C108.084 61.2264 108.253 60.9677 108.482 60.7389C108.651 60.4503 108.83 60.1916 108.999 59.9628C109.168 59.734 109.337 59.5051 109.516 59.2763C109.685 59.0474 109.855 58.8484 110.034 58.6793C110.203 58.5101 110.352 58.3112 110.462 58.0823C110.571 57.9729 110.661 57.8634 110.72 57.7838C110.78 57.6943 110.86 57.5948 110.979 57.4853C111.039 57.3759 111.078 57.2963 111.108 57.2664C111.138 57.2366 111.178 57.1669 111.238 57.0475C111.297 56.9879 111.327 56.9083 111.327 56.7889C111.665 56.6794 111.944 56.4904 112.143 56.2317C112.342 55.973 112.561 55.7342 112.79 55.5054C113.078 55.2168 113.357 54.9581 113.645 54.7293C113.934 54.5004 114.213 54.2716 114.501 54.0427C114.849 53.7542 115.158 53.4756 115.446 53.1871C115.735 52.8985 116.043 52.61 116.392 52.3314C116.62 52.1623 116.849 51.9931 117.078 51.814C117.307 51.6449 117.536 51.4658 117.765 51.2966C117.874 51.1872 117.984 51.0778 118.063 50.9982L118.362 50.6997C118.531 50.8191 118.62 51.038 118.62 51.3862C118.68 51.615 118.71 51.9633 118.71 52.411C118.77 52.5304 118.819 52.6398 118.879 52.7493C118.939 52.8687 118.969 52.9781 118.969 53.0975C118.969 53.4955 118.979 53.8836 119.008 54.2517C119.038 54.6298 119.078 55.0079 119.138 55.4158C119.138 55.7043 119.148 55.963 119.178 56.1919C119.207 56.4207 119.158 56.6496 119.048 56.8784L119.018 56.9182Z" fill="white"/>
</svg>
