<svg width="1044" height="1811" viewBox="0 0 1044 1811" fill="none" xmlns="http://www.w3.org/2000/svg">
<path d="M977.98 256.017L971.96 238.577L1037.77 212.801L1043.12 229.594L977.98 256.017Z" fill="#BC0123"/>
<path d="M977.98 256.017L971.96 238.577L1037.77 212.801L1033.02 227.164L1043.12 229.594L977.98 256.017Z" fill="white"/>
<path fill-rule="evenodd" clip-rule="evenodd" d="M378.841 886.257L327.01 532.947L298.855 434.394L23.8364 358.513L0.727164 330.269L158.171 130.957L157.921 131.737L157.861 131.907L303.82 0.957031H365.2L438.86 18.687L471.6 7.77702L567.09 40.517L568.06 42.427L582.68 119.557L613.02 131.897L612.75 132.097L662.58 152.367L772.001 391.262L772.281 390.652L851.121 220.752L912.501 205.742L912.911 205.912L979.351 234.392L997.081 263.042L960.661 291.362L960.251 291.682L922.051 271.222L883.511 256.602L882.491 256.212L817.021 493.572H772.001L624.79 267.357L624.38 266.947L605.85 285.217L611.19 291.397L594.07 312.437L567.09 400.637V440.187L651.66 532.947L711.69 665.267L696.68 838.507V1105.88L621.65 1124.98L631.2 1264.77L559.77 1560.01L557.83 1604.68L563.1 1648.56C561.59 1650 559.46 1658.51 557.1 1670.56V1744.8H553.5L553.16 1692.87L543.12 1760.15L435.97 1810.4H426.25V1800.98L447.9 1724.8H450.88L483.34 1575.61L511.23 1485.67L522.55 1269.45L522.8 1264.77L438.94 1604.68L433.22 1722.84H438.94L417.98 1800.98L390.99 1806.7L352.46 1765.97L352.22 1765.72V1665.67L390.99 1575.61V1264.77L448.23 1161.73L449.09 1160.19H440.57L378.841 886.257ZM303.305 131.352V171.855L277.477 266.949L298.855 388.479L207.27 345.471L99.6133 309.254L207.27 205.742L303.305 131.352Z" fill="#BC0123"/>
<path d="M811.123 244.217L899.325 284.246L891.172 302.212L802.97 262.184L811.123 244.217Z" fill="white"/>
</svg>
