<svg width="319" height="474" viewBox="0 0 319 474" fill="none" xmlns="http://www.w3.org/2000/svg">
<path fill-rule="evenodd" clip-rule="evenodd" d="M155.283 41.7938L166.41 54.7085L206.237 76.4268L202.723 82.2967L237.865 111.646L274.763 54.7085V29.4676L288.82 4.22656H296.434L305.219 24.1847L288.82 54.7085L248.407 136.3L188.081 102.841V107.537L171.096 111.646L166.41 132.778L176.953 140.996L192.181 162.714L206.237 233.74L212.68 293.613L171.096 300.657V328.245L147.083 402.206L143.569 430.968L154.697 459.731L151.768 466.775L138.298 470.297L118.384 430.968L134.783 342.333V308.288H97.8849L82.657 342.333L63.3292 416.294L55.3246 455.622V462.666L27.0164 470.297L16.4289 474.001H0.615234V459.731L12.9598 455.622L33.459 439.186L52.2011 324.136L63.3292 300.657L41.073 297.135L82.657 233.74L97.8849 207.325V180.85L35.3805 127.495L45.806 102.841L53.7324 86.4055L67.429 54.7085V48.8374L82.657 41.7938H106.67L119.555 37.6846L155.283 41.7938ZM82.9677 83.6797L89.1239 86.4492L86.1254 112.864L96.1149 158.602L58.9635 123.689L82.9677 83.6797Z" fill="white"/>
<rect x="265.021" y="53.1016" width="30.9303" height="5.41697" transform="rotate(26.3684 265.021 53.1016)" fill="#BC0123"/>
<rect x="289.712" y="11.2188" width="28.2821" height="5.41697" transform="rotate(-23.1487 289.712 11.2188)" fill="white"/>
<path d="M300.115 12.6016L318.115 5.10156L315.115 3.10156L315.615 0.101562L298.115 7.60156L300.115 12.6016Z" fill="#BC0123"/>
</svg>
