<svg width="318" height="474" viewBox="0 0 318 474" fill="none" xmlns="http://www.w3.org/2000/svg">
<path fill-rule="evenodd" clip-rule="evenodd" d="M154.667 41.6923L165.795 54.607L205.622 76.3252L202.108 82.1951L237.249 111.545L274.148 54.607V29.3661L288.205 4.125H295.819L304.604 24.0831L288.205 54.607L247.792 136.198L187.466 102.74V107.436L170.481 111.545L165.795 132.676L176.338 140.894L191.566 162.613L205.622 233.638L212.065 293.511L170.481 300.555V328.144L146.468 402.104L142.954 430.867L154.082 459.629L151.153 466.673L137.682 470.195L117.769 430.867L134.168 342.231V308.186H97.2697L82.0417 342.231L62.714 416.192L54.7093 455.52V462.564L26.4012 470.195L15.8136 473.899H0V459.629L12.3446 455.52L32.8438 439.085L51.5858 324.035L62.714 300.555L40.4577 297.033L82.0417 233.638L97.2697 207.224V180.748L34.7653 127.393L45.1908 102.74L53.1172 86.304L66.8138 54.607V48.7358L82.0417 41.6923H106.055L118.94 37.583L154.667 41.6923ZM82.3525 83.5781L88.5087 86.3477L85.5102 112.762L95.4997 158.5L58.3483 123.587L82.3525 83.5781Z" fill="#BC0123"/>
<rect x="264.406" y="53" width="30.9303" height="5.41697" transform="rotate(26.3684 264.406 53)" fill="white"/>
<rect x="289.097" y="11.1172" width="28.2821" height="5.41697" transform="rotate(-23.1487 289.097 11.1172)" fill="#BC0123"/>
<path d="M299.5 12.5L317.5 5L314.5 3L315 0L297.5 7.5L299.5 12.5Z" fill="white"/>
</svg>
