<svg width="1043" height="1811" viewBox="0 0 1043 1811" fill="none" xmlns="http://www.w3.org/2000/svg">
<path d="M977.763 256.017L971.744 238.577L1037.55 212.801L1042.9 229.594L977.763 256.017Z" fill="white"/>
<path d="M977.763 256.017L971.744 238.577L1037.55 212.801L1032.8 227.164L1042.9 229.594L977.763 256.017Z" fill="#BC0123"/>
<path fill-rule="evenodd" clip-rule="evenodd" d="M378.624 886.257L326.794 532.947L298.638 434.394L23.6196 358.513L0.510367 330.269L157.954 130.957L157.704 131.737L157.644 131.907L303.604 0.957031H364.984L438.644 18.687L471.384 7.77702L566.874 40.517L567.844 42.427L582.464 119.557L612.804 131.897L612.534 132.097L662.364 152.367L771.784 391.262L772.064 390.652L850.904 220.752L912.284 205.742L912.694 205.912L979.134 234.392L996.864 263.042L960.444 291.362L960.034 291.682L921.834 271.222L883.294 256.602L882.274 256.212L816.804 493.572H771.784L624.574 267.357L624.164 266.947L605.634 285.217L610.974 291.397L593.854 312.437L566.874 400.637V440.187L651.444 532.947L711.473 665.267L696.463 838.507V1105.88L621.434 1124.98L630.984 1264.77L559.554 1560.01L557.614 1604.68L562.884 1648.56C561.374 1650 559.244 1658.51 556.884 1670.56V1744.8H553.284L552.944 1692.87L542.904 1760.15L435.754 1810.4H426.034V1800.98L447.684 1724.8H450.664L483.124 1575.61L511.014 1485.67L522.334 1269.45L522.584 1264.77L438.724 1604.68L433.004 1722.84H438.724L417.764 1800.98L390.774 1806.7L352.244 1765.97L352.004 1765.72V1665.67L390.774 1575.61V1264.77L448.014 1161.73L448.874 1160.19H440.354L378.624 886.257ZM303.088 131.352V171.855L277.26 266.949L298.638 388.479L207.053 345.471L99.3965 309.254L207.053 205.742L303.088 131.352Z" fill="white"/>
<path d="M810.907 244.217L899.109 284.246L890.955 302.212L802.753 262.184L810.907 244.217Z" fill="#BC0123"/>
</svg>
