<svg width="319" height="475" viewBox="0 0 319 475" fill="none" xmlns="http://www.w3.org/2000/svg">
<path d="M166.714 54.8609L155.587 41.9462L119.859 37.8369L106.974 41.9462H82.961L67.7331 48.9897V54.8609L54.0364 86.5579L46.1101 102.994L35.6846 127.647L81.392 159.863L79.4115 177.121L91.8599 178.818L94.8504 162.867L91.8599 156.751L60.1737 118.02L66.4455 109.694L82.961 83.934L88.2322 86.5579V111.799L98.189 162.867V207.478L82.961 233.892L41.377 297.287L63.6332 300.809L52.5051 324.289L33.763 439.339L13.2639 455.774L0.919281 459.883V474.153H16.7329L27.3204 470.449L55.6286 462.818V455.774L63.6332 416.446L82.961 342.485L98.189 308.44H135.087V342.485L118.688 431.121L138.602 470.449L152.072 466.927L155.001 459.883L143.873 431.121L147.387 402.358L171.4 328.398V300.809L212.984 293.765L206.541 233.892L192.485 162.867L177.257 141.148L166.714 132.93L171.4 111.799L188.385 107.69V102.994L248.711 136.452L289.124 54.8609L305.523 24.337L296.738 4.37891H289.124L275.067 29.62V54.8609L238.169 111.799L203.027 82.449L206.541 76.5791L166.714 54.8609Z" fill="#BC0123"/>
<rect x="257.076" y="50.3008" width="47.3492" height="5.41697" transform="rotate(26.3684 257.076 50.3008)" fill="white"/>
<rect x="290.016" y="11.3711" width="28.2821" height="5.41697" transform="rotate(-23.1487 290.016 11.3711)" fill="#BC0123"/>
</svg>
