<svg width="138" height="86" viewBox="0 0 138 86" fill="none" xmlns="http://www.w3.org/2000/svg">
<path d="M13.3993 85.1695C13.3393 85.1695 13.1993 85.1095 12.9693 84.9995C12.7393 85.2295 12.6093 85.3695 12.5793 85.4295C12.5493 85.4895 12.5693 85.6595 12.6193 85.9495H12.4493C12.3893 85.6595 12.2193 85.5795 11.9293 85.6895C11.6993 85.7995 11.4993 85.8595 11.3293 85.8595C11.2093 85.7395 11.0993 85.6095 10.9793 85.4695C10.8593 85.3295 10.7493 85.1995 10.6293 85.0795C10.5093 85.0195 10.3393 84.9895 10.1093 84.9895C9.9893 84.8695 9.90929 84.7195 9.84929 84.5195C9.78929 84.3195 9.70934 84.1295 9.58934 83.9595C9.52934 83.8995 9.49931 83.8395 9.49931 83.7895C9.60931 83.4995 9.59934 83.2595 9.45934 83.0595C9.31934 82.8595 9.2393 82.6395 9.2393 82.4095C9.2993 82.1795 9.26934 81.9795 9.14934 81.8095C9.02934 81.6395 9.02934 81.4395 9.14934 81.2095V80.8695C9.02934 80.2895 8.97929 79.8595 8.97929 79.5795C8.91929 79.5195 8.94932 79.4395 9.06932 79.3195V79.1495C9.06932 79.0895 9.09929 79.0595 9.15929 79.0595C9.03929 78.9395 8.99934 78.8095 9.02934 78.6695C9.05934 78.5295 9.06932 78.3695 9.06932 78.1995C9.06932 77.9695 9.05934 77.7395 9.02934 77.5095C8.99934 77.2795 9.01932 77.0195 9.06932 76.7295C9.12932 76.4995 9.12932 76.2795 9.06932 76.0795C9.00932 75.8795 9.0693 75.6595 9.2393 75.4295C9.0093 75.0295 8.94932 74.5095 9.06932 73.8795C9.12932 73.6495 9.15929 73.3295 9.15929 72.9295C9.03929 72.2995 9.09933 71.8095 9.32933 71.4595C9.43933 71.3395 9.4693 71.2595 9.4193 71.1995C9.2993 70.9095 9.2993 70.5995 9.4193 70.2495C9.5293 69.8995 9.55932 69.5895 9.50932 69.2995C9.50932 69.0095 9.54933 68.7395 9.63933 68.4795C9.72933 68.2195 9.7993 67.9495 9.8593 67.6595V66.9695C9.8593 66.9095 9.94931 66.8295 10.1193 66.7095L10.0293 66.6195C10.0293 66.4495 10.0193 66.2895 9.9893 66.1495C9.9593 66.0095 9.97934 65.8495 10.0293 65.6795C10.1393 65.1595 10.2593 64.6595 10.3793 64.1695C10.4893 63.6795 10.6093 63.1795 10.7293 62.6595C10.7893 62.3695 10.8193 62.1095 10.8193 61.8795C10.8193 61.6495 10.8493 61.3895 10.9093 61.0995C10.9693 60.9795 11.0493 60.7495 11.1693 60.4095C11.2293 60.2395 11.2593 60.0695 11.2593 59.8895C11.2593 59.7095 11.2893 59.5695 11.3493 59.4595C11.4093 59.2295 11.4393 59.0295 11.4393 58.8595C11.4393 58.6895 11.4693 58.5095 11.5293 58.3395C11.5893 58.0495 11.6193 57.8095 11.6193 57.6095C11.6193 57.4095 11.6493 57.1695 11.7093 56.8795C11.7093 56.7095 11.6993 56.5495 11.6693 56.4095C11.6393 56.2695 11.5393 56.1095 11.3693 55.9395C11.5993 55.9395 11.7993 55.9095 11.9693 55.8495C11.9693 55.6795 12.0293 55.4995 12.1393 55.3295C12.2493 55.1595 12.2493 54.9795 12.1393 54.8095C12.2493 54.6995 12.3293 54.5495 12.3593 54.3795C12.3893 54.2095 12.4293 54.0595 12.4893 53.9495C12.4893 53.8395 12.5193 53.7595 12.5793 53.7295C12.6393 53.6995 12.6093 53.6295 12.4893 53.5095V53.2495C12.7793 53.0195 12.9093 52.7795 12.8793 52.5195C12.8493 52.2595 12.8693 51.9895 12.9193 51.6995V51.6095C13.1493 51.4995 13.2693 51.3495 13.2693 51.1795C13.2693 51.0095 13.2993 50.8295 13.3593 50.6595C13.4193 50.5495 13.4593 50.4195 13.4893 50.2695C13.5193 50.1295 13.6193 49.9995 13.7893 49.8795C13.8993 49.7695 13.8993 49.6195 13.7893 49.4495C13.6693 49.2195 13.6293 49.0195 13.6593 48.8495C13.6893 48.6795 13.7593 48.4995 13.8793 48.3295C13.9393 48.0995 13.9093 47.8995 13.7893 47.7295C13.8993 47.6195 14.0093 47.4995 14.0893 47.3895C14.1793 47.2795 14.2493 47.1595 14.3093 47.0395C14.3693 46.7495 14.3993 46.4695 14.3993 46.1795C14.3993 45.8895 14.4293 45.5795 14.4893 45.2295C14.7193 45.1195 14.8393 44.9295 14.8393 44.6695C14.8393 44.4095 14.8993 44.1395 15.0093 43.8495C15.0693 43.6195 15.1093 43.4095 15.1393 43.1995C15.1693 42.9995 15.2693 42.7795 15.4393 42.5495C15.4993 42.4395 15.5093 42.3295 15.4793 42.2495C15.4493 42.1595 15.4693 42.0595 15.5193 41.9495C15.6293 41.6595 15.7493 41.3495 15.8693 40.9995C15.9793 40.6495 16.0693 40.3395 16.1293 40.0495C16.1293 39.7595 16.1993 39.5495 16.3493 39.3995C16.4893 39.2595 16.5393 39.0695 16.4793 38.8395C16.4193 38.5495 16.4193 38.3095 16.4793 38.1095C16.5393 37.9095 16.5893 37.6895 16.6493 37.4595V37.2895C16.7593 36.9995 16.8793 36.7395 16.9993 36.5095C17.1093 36.2795 17.2293 36.0195 17.3493 35.7295C17.4593 35.3295 17.5793 34.9295 17.6993 34.5195C17.8093 34.1195 17.8393 33.6895 17.7893 33.2295C17.9593 33.1195 18.1093 32.8595 18.2193 32.4495C18.2793 32.2795 18.3093 32.0895 18.3093 31.8895C18.3093 31.6895 18.4493 31.5295 18.7393 31.4195C18.7993 31.4195 18.8293 31.3295 18.8293 31.1595C18.7693 30.5895 18.9193 29.8995 19.2593 29.0895C19.4893 28.6295 19.6593 28.2595 19.7793 27.9695C19.8893 27.8595 19.9393 27.7095 19.9093 27.5395C19.8793 27.3695 19.8993 27.1995 19.9493 27.0195C20.0593 26.5595 20.1793 26.1095 20.2993 25.6795C20.4093 25.2495 20.6193 24.8295 20.8993 24.4295C20.9593 24.3195 20.9893 24.1395 20.9893 23.9095C20.9893 23.5095 21.0993 23.1895 21.3393 22.9595C21.2793 22.8995 21.2393 22.8495 21.2093 22.7895C21.1793 22.7295 21.1393 22.6795 21.0793 22.6195C21.1893 22.5095 21.2993 22.4295 21.3793 22.3995C21.4693 22.3695 21.5693 22.3295 21.6793 22.2695V21.8395C21.7893 21.3795 21.9193 20.9195 22.0693 20.4595C22.2093 19.9995 22.3393 19.5395 22.4593 19.0795C22.5693 18.7895 22.6893 18.4895 22.8093 18.1695C22.9193 17.8495 23.0393 17.5495 23.1593 17.2595C23.2693 17.0295 23.3893 16.7395 23.5093 16.3995C23.5093 16.1695 23.5393 15.9595 23.5993 15.7495C23.6593 15.5495 23.7093 15.3295 23.7693 15.0995V15.0095C23.9993 14.8395 24.1293 14.6395 24.1593 14.4095C24.1893 14.1795 24.2593 13.9795 24.3793 13.8095C24.5493 13.5195 24.6193 13.2395 24.5993 12.9495C24.5693 12.6595 24.6993 12.3795 24.9893 12.0895C24.8193 11.8595 24.8193 11.6995 24.9893 11.6195C25.1593 11.5395 25.2493 11.3795 25.2493 11.1495C25.0193 10.9795 24.8793 10.7795 24.8193 10.5495C24.7593 10.3195 24.6793 10.0595 24.5593 9.76953C24.2693 9.76953 23.9293 9.90953 23.5193 10.1995C23.2893 10.5495 22.9693 10.7495 22.5693 10.7995C22.4493 10.7995 22.3193 10.8395 22.1793 10.9295C22.0393 11.0195 21.9093 11.0895 21.7893 11.1495C21.6193 11.2695 21.4393 11.3995 21.2693 11.5395C21.0993 11.6795 20.9193 11.8095 20.7493 11.9295C20.1193 12.5095 19.3993 13.0495 18.5893 13.5695C18.4693 13.6895 18.3293 13.7895 18.1593 13.8695C17.9893 13.9595 17.8393 14.0595 17.7293 14.1695L15.9193 15.7195C15.6893 15.8895 15.4593 16.0695 15.2293 16.2395C14.9993 16.4095 14.7693 16.5895 14.5393 16.7595L13.7593 17.5395C13.2993 17.9995 12.8393 18.4295 12.3793 18.8295C11.9193 19.2295 11.4893 19.6895 11.0893 20.2095C10.9693 20.2095 10.9193 20.2695 10.9193 20.3795C10.5693 20.5495 10.2993 20.7995 10.0993 21.1095C9.89929 21.4295 9.64931 21.7295 9.36931 22.0195C9.13931 22.1895 8.93933 22.3895 8.76933 22.6195C8.59933 22.8495 8.41931 23.0495 8.24931 23.2195C8.12931 23.2795 7.98932 23.3095 7.81932 23.3095C7.81932 23.5995 7.72931 23.8395 7.55931 24.0395C7.38931 24.2395 7.20929 24.4595 7.03929 24.6895C6.86929 24.9195 6.68933 25.1195 6.51933 25.2895C6.34933 25.4595 6.19934 25.6595 6.08934 25.8895C5.96934 26.0595 5.83933 26.2495 5.69933 26.4495C5.55933 26.6495 5.42931 26.8395 5.30931 27.0095C5.18931 27.2395 5.04932 27.4695 4.87932 27.6995C4.70932 27.9295 4.55933 28.1595 4.44933 28.3895C4.44933 28.4495 4.4193 28.5095 4.3593 28.5595C3.9593 28.9095 3.70932 29.3195 3.62932 29.8095C3.53932 30.2995 3.4093 30.7695 3.2393 31.2295C3.1793 31.4595 3.26931 31.6895 3.49931 31.9195C3.66931 32.1495 3.89932 32.2895 4.18932 32.3495C4.53932 32.5195 4.70934 32.7795 4.70934 33.1295C4.81934 33.0695 4.99929 33.0395 5.22929 33.0395C5.51929 33.3795 5.62933 33.7295 5.57933 34.0695C5.51933 34.4195 5.4893 34.7595 5.4893 35.1095C5.1993 35.2295 4.90932 35.3295 4.62932 35.4095C4.33932 35.4995 3.99934 35.5995 3.58934 35.7095C3.35934 35.7095 3.13932 35.6395 2.93932 35.4895C2.73932 35.3495 2.51929 35.1895 2.28929 35.0195C1.47929 34.3895 0.849328 33.6995 0.389328 32.9495C0.0993279 32.3795 0.0193181 31.7095 0.129318 30.9695C0.189318 30.2795 0.329311 29.6195 0.559311 28.9895C0.789311 28.3595 1.04934 27.7295 1.33934 27.0895C1.56934 26.6295 1.85933 26.1695 2.19933 25.7095C2.54933 25.2495 2.8893 24.7895 3.2393 24.3295C3.3493 24.1595 3.4993 23.9595 3.6693 23.7295C3.8393 23.4995 4.0693 23.3295 4.3593 23.2095C4.4693 23.2095 4.52934 23.1195 4.52934 22.9495C4.46934 22.6595 4.53931 22.4495 4.74931 22.2995C4.94931 22.1595 5.13931 21.9995 5.30931 21.8295L5.47929 21.7395C5.35929 21.4495 5.38932 21.2395 5.56932 21.0895C5.73932 20.9495 5.88931 20.7895 5.99931 20.6195C6.10931 20.4495 6.25931 20.2695 6.42931 20.0995C6.59931 19.9295 6.77933 19.7795 6.94933 19.6695L7.20934 19.4095C7.49934 19.0095 7.79931 18.6295 8.11931 18.2895C8.43931 17.9395 8.81934 17.6295 9.27934 17.3395C9.21934 17.0495 9.28931 16.8995 9.49931 16.8695C9.69931 16.8395 9.85928 16.7395 9.96928 16.5695C10.0793 16.3995 10.2093 16.2395 10.3593 16.0995C10.4993 15.9595 10.6293 15.7995 10.7493 15.6295L12.0393 14.3395C12.2693 14.3995 12.3993 14.3695 12.4293 14.2495C12.4593 14.1395 12.5293 14.0195 12.6493 13.8995C12.9393 13.6095 13.3093 13.2995 13.7693 12.9495C14.0593 12.7195 14.3293 12.4795 14.5893 12.2195C14.8493 11.9595 15.1193 11.7195 15.4093 11.4895C15.6993 11.3195 15.9593 11.1195 16.1893 10.8895C16.4193 10.6595 16.7093 10.4595 17.0493 10.2895C17.3393 10.1795 17.5993 9.99953 17.8293 9.76953C18.0593 9.53953 18.3193 9.30953 18.6093 9.07953C18.7193 8.96953 18.8493 8.83953 18.9993 8.68953C19.1393 8.54953 19.2693 8.46953 19.3893 8.46953C19.6793 8.40953 19.8793 8.30953 19.9893 8.16953C20.0993 8.02953 20.2793 7.89953 20.5093 7.77953L21.5493 6.99953H21.6393C22.1593 6.82953 22.6193 6.56953 23.0193 6.21953C23.4193 5.87953 23.8793 5.61953 24.3993 5.43953C24.5093 5.43953 24.5993 5.40953 24.6593 5.34953C24.7193 5.28953 24.7993 5.23953 24.9193 5.17953C25.3193 4.88953 25.7193 4.64953 26.1293 4.44953C26.5293 4.24953 26.9593 4.00953 27.4193 3.71953C27.7093 3.60953 27.8493 3.45953 27.8493 3.28953C28.0793 2.76953 28.4793 2.42953 29.0593 2.24953C29.2893 2.07953 29.5193 1.95953 29.7493 1.89953C29.9793 1.89953 30.0993 1.92953 30.0993 1.98953C30.3293 2.27953 30.5593 2.40953 30.7893 2.37953C31.0193 2.34953 31.2493 2.27953 31.4793 2.15953C31.9393 1.92953 32.4293 1.73953 32.9493 1.59953C33.4693 1.45953 33.9893 1.32953 34.4993 1.20953C34.6693 1.14953 34.8593 1.10953 35.0593 1.07953C35.2593 1.04953 35.4993 1.08953 35.7893 1.20953C35.9593 1.32953 36.1393 1.30953 36.3093 1.16953C36.4793 1.02953 36.6293 0.899531 36.7393 0.779531C36.8493 0.719531 37.0293 0.689531 37.2593 0.689531C37.3693 0.629531 37.4893 0.619531 37.6093 0.649531C37.7193 0.679531 37.8393 0.689531 37.9593 0.689531C38.4193 0.579531 38.8893 0.529531 39.3793 0.559531C39.8693 0.589531 40.3393 0.569531 40.7993 0.519531C40.9093 0.519531 41.0193 0.549531 41.0993 0.609531C41.1893 0.669531 41.2893 0.699531 41.3993 0.699531C41.5693 0.699531 41.7293 0.739531 41.8693 0.829531C42.0093 0.919531 42.1693 0.899531 42.3393 0.789531C42.4493 0.729531 42.5993 0.749531 42.7693 0.829531C42.9393 0.919531 43.1193 0.989531 43.2893 1.04953C43.8093 1.16953 44.2793 1.29953 44.7093 1.43953C45.1393 1.57953 45.5893 1.76953 46.0493 1.99953C46.3993 2.22953 46.6793 2.39953 46.9093 2.51953H47.4293V3.11953C47.8893 3.05953 48.2293 3.14953 48.4693 3.37953C48.6993 3.60953 48.9293 3.83953 49.1593 4.06953C49.5093 4.35953 49.8093 4.68953 50.0693 5.05953C50.3293 5.42953 50.5693 5.81953 50.7993 6.21953C50.9093 6.38953 51.0393 6.54953 51.1893 6.68953C51.3293 6.82953 51.4093 7.04953 51.4093 7.33953C51.4693 7.33953 51.5193 7.34953 51.5793 7.37953C51.6393 7.40953 51.6893 7.41953 51.7493 7.41953V8.01953C51.9193 8.24953 52.0393 8.48953 52.0993 8.74953C52.1593 9.00953 52.2393 9.27953 52.3593 9.56953C52.3593 9.73953 52.3893 9.85953 52.4493 9.91953C52.5593 10.0395 52.6093 10.1195 52.5793 10.1795C52.5493 10.2395 52.5093 10.3195 52.4493 10.4395C52.5093 10.5595 52.5593 10.6295 52.6193 10.6595C52.6793 10.6895 52.7093 10.7295 52.7093 10.7895C52.8193 11.0795 52.9093 11.3695 52.9693 11.6495C53.0293 11.9395 53.0593 12.2295 53.0593 12.5095C52.9993 12.7995 52.9693 13.2595 52.9693 13.8895C52.9693 14.0095 52.9993 14.1395 53.0593 14.2795C53.1193 14.4195 53.1493 14.5495 53.1493 14.6695C53.1493 15.1295 53.1593 15.5595 53.1893 15.9595C53.2193 16.3595 53.1993 16.7895 53.1493 17.2495C53.0893 17.5995 53.0293 17.9295 52.9793 18.2395C52.9193 18.5595 52.8893 18.8595 52.8893 19.1495C52.8893 19.2695 52.7693 19.4395 52.5393 19.6695L52.7093 19.8395C52.5893 20.1895 52.5093 20.4195 52.4493 20.5295C52.3293 20.6995 52.2793 20.8995 52.2793 21.1295C52.2793 21.3595 52.1893 21.5595 52.0193 21.7295C51.8993 21.8995 51.8493 22.0995 51.8493 22.3295C51.8493 22.5595 51.8193 22.7895 51.7593 23.0195C51.6993 23.1395 51.6893 23.2395 51.7193 23.3195C51.7493 23.4095 51.7293 23.5095 51.6793 23.6195C51.6193 23.7395 51.5593 23.8195 51.5093 23.8795C51.4493 23.9395 51.3893 24.0195 51.3393 24.1395C51.1093 24.5395 50.9193 24.9295 50.7793 25.2995C50.6393 25.6695 50.4493 26.0595 50.2193 26.4595C50.1593 26.6295 50.0893 26.7895 49.9993 26.9295C49.9093 27.0695 49.8093 27.1995 49.6993 27.3195C49.6993 27.4395 49.7293 27.5195 49.7893 27.5795C49.7893 27.6395 49.7593 27.6695 49.6993 27.6695C49.5793 27.7895 49.4493 27.8895 49.3093 27.9695C49.1693 28.0595 49.1193 28.2195 49.1793 28.4395C49.1793 28.4995 49.1193 28.5795 49.0093 28.6995C48.7793 28.8695 48.6493 29.0595 48.6193 29.2595C48.5893 29.4595 48.5193 29.6495 48.3993 29.8195C48.3393 29.8195 48.3093 29.9095 48.3093 30.0795C48.3693 30.2495 48.2493 30.3995 47.9593 30.5095C47.8393 30.5095 47.7293 30.6295 47.6093 30.8595C47.4893 31.0895 47.3493 31.2895 47.1793 31.4595C47.0093 31.6295 46.8593 31.8295 46.7493 32.0595C46.6293 32.3495 46.5193 32.5195 46.3993 32.5795C46.1093 32.8695 45.8793 33.1695 45.7093 33.4895C45.5393 33.8095 45.3593 34.1395 45.1893 34.4795C45.1293 34.5995 45.0193 34.7095 44.8393 34.8295C44.6693 34.9495 44.5193 35.0595 44.4093 35.1695C44.2893 35.2895 44.1793 35.3695 44.0593 35.4295C43.9393 35.4895 43.9193 35.5995 43.9693 35.7695C43.9693 35.8295 43.9293 35.8695 43.8393 35.8995C43.7493 35.9295 43.6793 35.9995 43.6193 36.1195C43.5593 36.1195 43.5293 36.2395 43.5293 36.4595C43.4093 36.5195 43.2993 36.5795 43.1793 36.6295C43.0593 36.6895 43.0593 36.8295 43.1793 37.0595C42.7193 37.1795 42.4593 37.3195 42.3993 37.4895C42.3393 37.7195 42.1393 38.0095 41.7993 38.3495C41.7393 38.5195 41.6293 38.6395 41.4493 38.6895L41.2793 38.7795C41.1093 39.0695 40.9293 39.3095 40.7593 39.5095C40.5893 39.7095 40.4093 39.9295 40.2393 40.1595C40.1793 40.2195 40.1493 40.2795 40.1493 40.3295C40.1493 40.3795 40.1193 40.4195 40.0593 40.4195C39.8293 40.5395 39.6693 40.6895 39.5893 40.8895C39.4993 41.0895 39.3393 41.2495 39.1193 41.3595C39.0593 41.4195 39.0293 41.4595 39.0293 41.4895C39.0293 41.5195 38.9993 41.5595 38.9393 41.6195C38.7093 41.7895 38.4893 41.9695 38.2893 42.1395C38.0893 42.3095 37.8693 42.5095 37.6393 42.7395C37.5193 42.8595 37.4393 42.9695 37.3793 43.0795C37.3193 43.1995 37.2393 43.2795 37.1193 43.3395C36.8893 43.4595 36.7193 43.6295 36.5993 43.8595C36.5393 43.9795 36.3393 44.1495 35.9993 44.3795C35.8793 44.4995 35.7793 44.6295 35.6993 44.7695C35.6093 44.9095 35.4793 45.0195 35.3093 45.0695C35.2493 45.1295 35.2393 45.1895 35.2693 45.2395C35.2993 45.2995 35.2793 45.3795 35.2293 45.4995H34.9293C34.8393 45.4995 34.7393 45.5595 34.6293 45.6695C34.4593 46.0695 34.1393 46.3595 33.6793 46.5295C33.6193 46.5895 33.5593 46.6195 33.5093 46.6195C33.2193 47.0195 32.8893 47.3395 32.5193 47.5695C32.1493 47.7995 31.8193 48.0895 31.5293 48.4295C31.3593 48.5995 31.1793 48.7895 31.0093 48.9895C30.8393 49.1895 30.6393 49.3495 30.4093 49.4595C30.1793 49.5795 29.9893 49.6895 29.8493 49.8095C29.7093 49.9295 29.5193 50.0395 29.2893 50.1495C29.1693 50.2695 29.0593 50.3495 28.9393 50.4095C28.8193 50.4695 28.7093 50.5495 28.5893 50.6695C28.4693 50.8395 28.2993 50.9295 28.0693 50.9295L27.8993 51.0995C27.8393 51.1595 27.8093 51.1995 27.8093 51.2295C27.8093 51.2595 27.7793 51.2995 27.7193 51.3595C27.5993 51.4195 27.4993 51.4295 27.4193 51.3995C27.3293 51.3695 27.2593 51.4695 27.1993 51.6995C27.1993 51.7595 27.1393 51.7995 27.0293 51.8295C26.9093 51.8595 26.7993 51.9295 26.6793 52.0495C26.4493 52.2795 26.2793 52.4195 26.1593 52.4795C25.9293 52.6495 25.7293 52.8295 25.5593 52.9995C25.3893 53.1695 25.1893 53.3195 24.9593 53.4295C24.7293 53.5995 24.4093 53.7495 24.0093 53.8595C23.7793 54.0295 23.5493 54.1495 23.3193 54.1995C22.9693 54.5495 22.6593 54.7195 22.3693 54.7195C22.2493 54.7195 22.1493 54.7595 22.0693 54.8495C21.9893 54.9395 21.8793 55.0095 21.7693 55.0695C21.3693 55.4695 20.8493 55.7895 20.2193 56.0195C20.0993 56.0795 20.0193 56.1495 19.9593 56.2395C19.8993 56.3295 19.8393 56.3995 19.7893 56.4595C19.4993 56.5795 19.2593 56.6795 19.0593 56.7595C18.8593 56.8495 18.6393 56.9195 18.4093 56.9795C18.2393 57.0995 18.0593 57.1495 17.8893 57.1495C17.7193 57.1495 17.5193 57.1795 17.2893 57.2395C17.3493 57.2395 17.3593 57.2695 17.3293 57.3295C17.2993 57.3895 17.2593 57.4195 17.1993 57.4195C16.8493 57.5895 16.6793 57.8195 16.6793 58.1095C16.5593 58.4495 16.4493 58.7695 16.3293 59.0595C16.2093 59.3495 16.1593 59.6595 16.1593 60.0095C16.1593 60.5795 16.0393 61.0195 15.8093 61.2995C15.7493 61.4095 15.6893 61.5295 15.6393 61.6495C15.5793 61.7595 15.6393 61.8795 15.8093 61.9895C15.6893 62.0495 15.6193 62.0995 15.5893 62.1595C15.5593 62.2195 15.5193 62.2695 15.4593 62.3295V62.5895C15.3393 62.9895 15.2993 63.3895 15.3293 63.7995C15.3593 64.1995 15.2593 64.5795 15.0293 64.9195C15.1393 65.0895 15.1293 65.2495 14.9893 65.3895C14.8493 65.5295 14.8593 65.6895 15.0293 65.8595L14.9393 65.9495C14.7093 66.1795 14.5893 66.3895 14.5893 66.5995V67.3295C14.6493 67.4395 14.6293 67.5495 14.5493 67.6295C14.4593 67.7195 14.3893 67.8195 14.3293 67.9295C14.4393 68.0995 14.4393 68.4795 14.3293 69.0495C14.2093 69.2195 14.1693 69.4095 14.1993 69.6095C14.2293 69.8095 14.2393 70.0295 14.2393 70.2595C14.2393 70.3195 14.2293 70.3695 14.1993 70.4295C14.1693 70.4895 14.1593 70.5395 14.1593 70.5995C13.8093 70.9995 13.7593 71.4595 13.9893 71.9795V72.2395C13.8693 72.3495 13.8293 72.4595 13.8593 72.5395C13.8893 72.6295 13.9293 72.7295 13.9893 72.8395C13.8193 72.9495 13.7593 73.0695 13.8193 73.1895C13.8793 73.2995 13.8793 73.4195 13.8193 73.5395C13.8193 73.6495 13.8093 73.7595 13.7793 73.8395C13.7493 73.9295 13.7393 74.0295 13.7393 74.1395C13.7393 74.7695 13.7293 75.4195 13.6993 76.0795C13.6693 76.7395 13.6293 77.3895 13.5693 78.0195C13.5693 78.1295 13.6093 78.2495 13.6993 78.3695C13.7893 78.4795 13.7693 78.6295 13.6593 78.7995C13.5993 78.9095 13.5893 79.0395 13.6193 79.1895C13.6493 79.3295 13.6593 79.4595 13.6593 79.5795C13.5993 79.6895 13.5893 79.8395 13.6193 80.0095C13.6493 80.1795 13.6293 80.3295 13.5793 80.4395C13.5193 80.5495 13.5493 80.6395 13.6693 80.6995C13.7793 80.7595 13.7793 80.8395 13.6693 80.9595C13.6093 81.0195 13.6393 81.2195 13.7593 81.5595C13.7593 81.6695 13.7693 81.7795 13.7993 81.8595C13.8293 81.9495 13.8393 82.0495 13.8393 82.1595C13.8993 82.2195 13.9293 82.3595 13.9293 82.5895C13.9293 82.8195 13.8993 82.9895 13.8393 83.1095C13.8393 83.1695 13.8493 83.2095 13.8793 83.2395C13.9093 83.2695 13.9193 83.3095 13.9193 83.3695V83.7195C13.6293 83.8895 13.4893 84.0895 13.4893 84.3195C13.4893 84.5495 13.5193 84.7795 13.5793 85.0095C13.5793 85.0695 13.5493 85.0995 13.4893 85.0995L13.3993 85.1695ZM40.0593 32.7295L40.3193 32.2095C40.3793 32.1495 40.4493 32.1095 40.5393 32.0795C40.6293 32.0495 40.6093 31.9795 40.4993 31.8595L40.5893 31.6895C40.7593 31.6895 40.9093 31.5795 41.0193 31.3495C41.0193 31.1795 41.0493 31.0895 41.1093 31.0895C41.3993 30.9195 41.5993 30.7195 41.7093 30.4895C41.8193 30.2595 41.9993 30.0595 42.2293 29.8895C42.3393 29.7795 42.3993 29.6595 42.3993 29.5495C42.3993 29.4395 42.4593 29.3195 42.5693 29.1995C42.7993 28.9695 42.9193 28.7395 42.9193 28.5095C42.9193 28.3395 42.9893 28.2395 43.1393 28.2095C43.2793 28.1795 43.3793 28.1095 43.4393 27.9895C43.4993 27.9895 43.5293 27.9295 43.5293 27.8195C43.6993 27.2995 43.9593 26.9295 44.3093 26.6995C44.5993 26.4095 44.7093 26.0395 44.6593 25.5795C44.9493 25.4695 45.1193 25.3195 45.1793 25.1495C45.2893 24.8095 45.4093 24.5495 45.5293 24.3695C45.6393 24.1395 45.7693 23.9095 45.9193 23.6795C46.0593 23.4495 46.1393 23.1895 46.1393 22.8995C46.1393 22.8395 46.1693 22.7995 46.2293 22.7695C46.2893 22.7395 46.3393 22.6695 46.3993 22.5495C46.4593 22.4895 46.4993 22.4595 46.5293 22.4595C46.5593 22.4595 46.5993 22.4295 46.6593 22.3695C46.7193 22.1395 46.7693 21.9395 46.8293 21.7695C46.8893 21.5995 46.9393 21.3995 46.9993 21.1695C47.1093 20.5995 47.2293 20.1895 47.3493 19.9595C47.4593 19.6695 47.5393 19.3695 47.5693 19.0495C47.5993 18.7295 47.7593 18.4295 48.0393 18.1395V17.8795C47.9793 17.6495 47.9993 17.4195 48.0793 17.1895C48.1693 16.9595 48.1493 16.7295 48.0393 16.4995C48.2693 16.3895 48.3593 16.2395 48.2993 16.0695C48.2393 15.8995 48.2693 15.7495 48.3893 15.6395C48.6193 15.4695 48.6493 15.3195 48.4793 15.2095C48.3093 15.0995 48.2493 14.9495 48.3093 14.7795C48.3693 14.7195 48.3993 14.6695 48.3993 14.6095C48.4593 14.5495 48.4593 14.5195 48.3993 14.5195C48.2293 14.4095 48.1693 14.2595 48.2293 14.0895C48.2893 13.9195 48.3193 13.7695 48.3193 13.6595C48.1993 13.3095 48.1493 13.1095 48.1493 13.0595C48.2593 12.8895 48.2793 12.7095 48.1893 12.5395C48.0993 12.3695 48.0293 12.1995 47.9693 12.0195C48.0793 11.9095 48.1393 11.7895 48.1393 11.6795C48.0793 11.6195 47.9993 11.5895 47.8793 11.5895C47.8793 11.4795 47.9093 11.3595 47.9693 11.2395C48.0293 11.1295 48.0293 11.0395 47.9693 10.9795C47.8493 10.8695 47.7993 10.7195 47.7993 10.5495C47.7993 10.3795 47.7693 10.2295 47.7093 10.1195C47.5893 9.94953 47.5193 9.79953 47.4893 9.68953C47.4593 9.57953 47.3593 9.45953 47.1893 9.34953C47.2493 9.05953 47.1993 8.84953 47.0593 8.69953C46.9193 8.55953 46.7893 8.39953 46.6693 8.22953C46.5493 8.05953 46.3493 7.82953 46.0693 7.53953C45.9493 7.47953 45.8493 7.37953 45.7693 7.23953C45.6793 7.09953 45.5793 6.96953 45.4693 6.84953C44.7793 6.15953 44.0293 5.69953 43.2293 5.46953C42.8793 5.35953 42.5393 5.23953 42.1893 5.12953C41.8393 5.01953 41.4693 4.92953 41.0693 4.86953C40.7793 4.80953 40.4693 4.77953 40.1193 4.77953H39.1693C38.9993 4.77953 38.8393 4.80953 38.6993 4.86953C38.5593 4.92953 38.3993 4.92953 38.2293 4.86953C37.8793 4.75953 37.5393 4.76953 37.1893 4.90953C36.8393 5.04953 36.4993 5.09953 36.1493 5.03953H35.1993C34.8493 5.38953 34.4793 5.52953 34.0793 5.46953C34.0193 5.46953 33.9793 5.47953 33.9493 5.50953C33.9193 5.53953 33.8793 5.54953 33.8193 5.54953C33.3593 5.77953 32.7293 5.97953 31.9193 6.14953C31.2893 6.26953 30.9693 6.60953 30.9693 7.18953C30.9093 7.35953 30.8993 7.51953 30.9293 7.65953C30.9593 7.79953 30.9393 7.92953 30.8893 8.04953C30.7693 8.27953 30.7193 8.49953 30.7193 8.69953C30.7193 8.89953 30.6593 9.08953 30.5493 9.25953C30.2593 9.71953 30.1193 10.1795 30.1193 10.6395C30.1193 11.0995 29.9793 11.5595 29.6893 12.0195C29.5693 12.1395 29.5293 12.2495 29.5593 12.3695C29.5893 12.4895 29.5693 12.5995 29.5193 12.7095C29.3993 12.9395 29.3793 13.1095 29.4293 13.2295C29.4293 13.2895 29.4193 13.3295 29.3893 13.3595C29.3593 13.3895 29.3493 13.4295 29.3493 13.4895C29.2293 13.7195 29.1793 13.8895 29.1793 14.0095C29.1793 14.1295 29.1193 14.2595 29.0093 14.3995C28.8893 14.5395 28.8893 14.6695 29.0093 14.7895C28.6593 15.0195 28.5493 15.3695 28.6593 15.8295C28.6593 15.8895 28.6293 15.9295 28.5693 15.9595C28.5093 15.9895 28.4793 16.0295 28.4793 16.0895C28.3593 16.2095 28.3093 16.2895 28.3093 16.3495C28.1893 16.7495 28.0893 17.1395 28.0093 17.5095C27.9193 17.8795 27.8193 18.2695 27.7093 18.6695C27.5893 19.1295 27.5093 19.4995 27.4493 19.7895C27.2793 19.9595 27.0993 20.0795 26.9293 20.1395C26.9893 20.2595 27.0593 20.3595 27.1493 20.4395C27.2393 20.5295 27.1893 20.6295 27.0193 20.7395L26.9293 20.9095C26.9893 21.0295 26.9893 21.1395 26.9293 21.2595C26.8693 21.3795 26.8393 21.4895 26.8393 21.5995C26.7793 21.8895 26.6993 22.1495 26.5793 22.3795C26.4593 22.6095 26.4093 22.8695 26.4093 23.1595C26.2893 23.7895 26.1193 24.3095 25.8893 24.7095C25.6593 25.1095 25.5193 25.5195 25.4593 25.9195C25.3993 26.3195 25.2593 26.7295 25.0293 27.1295C24.9693 27.2495 24.9293 27.3895 24.8993 27.5595C24.8693 27.7295 24.8293 27.8795 24.7693 27.9895C24.7693 28.3395 24.7393 28.5895 24.6793 28.7695C24.5593 29.1195 24.4493 29.3495 24.3293 29.4595V29.6295C24.2093 30.0895 24.0793 30.5495 23.9393 31.0095C23.7993 31.4695 23.6693 31.9295 23.5493 32.3895C23.4293 32.9695 23.1793 33.3695 22.7693 33.5995C22.7693 33.7195 22.7793 33.7895 22.8093 33.8195C22.8393 33.8495 22.8193 33.9195 22.7693 34.0395C22.7693 34.1595 22.7393 34.2695 22.6793 34.3895C22.6193 34.5095 22.5593 34.6195 22.5093 34.7295C22.4493 34.8495 22.4493 34.9895 22.5093 35.1595C22.5693 35.3295 22.5693 35.4795 22.5093 35.5895C22.5093 35.7095 22.4693 35.8195 22.3793 35.9295C22.2893 36.0495 22.2493 36.1895 22.2493 36.3595C22.0793 36.4195 21.9993 36.5195 22.0293 36.6595C22.0593 36.7995 22.0393 36.9295 21.9893 37.0495C21.9893 37.1095 21.9293 37.1895 21.8193 37.3095C21.8193 37.3695 21.7893 37.4095 21.7293 37.4395C21.6693 37.4695 21.6693 37.5095 21.7293 37.5695C21.8393 37.7995 21.8393 37.9695 21.7293 38.0895C21.6093 38.2095 21.4993 38.3195 21.3793 38.4395C21.3793 38.5595 21.3893 38.6895 21.4193 38.8295C21.4493 38.9695 21.4293 39.0995 21.3793 39.2195C21.2593 39.6195 21.1593 40.0095 21.0793 40.3795C20.9893 40.7495 20.8893 41.1695 20.7793 41.6295C20.7193 41.7495 20.6393 41.8795 20.5193 42.0195C20.3993 42.1595 20.3493 42.2895 20.3493 42.4095C20.2893 42.5795 20.2893 42.7695 20.3493 42.9695C20.4093 43.1695 20.4093 43.3295 20.3493 43.4395C20.2293 43.6695 20.1793 43.8895 20.1793 44.0895C20.1793 44.2895 20.1193 44.4795 20.0093 44.6495C19.8393 44.7695 19.7593 44.9495 19.7893 45.2095C19.8193 45.4695 19.7493 45.6795 19.5693 45.8595V46.1195C19.3993 46.2395 19.3193 46.3395 19.3493 46.4195C19.3793 46.5095 19.4193 46.6095 19.4793 46.7195C19.3593 47.0095 19.2293 47.2495 19.0893 47.4495C18.9493 47.6495 18.8693 47.8395 18.8693 48.0095C18.8693 48.2995 18.8593 48.5395 18.8293 48.7395C18.7993 48.9395 18.7593 49.1895 18.6993 49.4695C18.6993 49.5895 18.6393 49.7595 18.5293 49.9895C18.3593 50.1595 18.2293 50.4395 18.1393 50.8095C18.0493 51.1795 18.0093 51.5095 18.0093 51.7995C18.0093 51.8595 18.0193 51.8995 18.0493 51.9295C18.0793 51.9595 18.0893 52.0295 18.0893 52.1495L18.4393 51.7995C18.8393 51.5095 19.2393 51.2795 19.6493 51.1095C19.8793 50.9995 20.0693 50.8795 20.2093 50.7595C20.3493 50.6495 20.5393 50.5295 20.7693 50.4195C20.9993 50.3095 21.2293 50.1795 21.4593 50.0295C21.6893 49.8895 21.8893 49.6695 22.0593 49.3795C22.1193 49.3195 22.1693 49.2895 22.2293 49.2895C22.3393 49.3495 22.4193 49.3495 22.4493 49.2895C22.4793 49.2295 22.5493 49.1795 22.6693 49.1195L23.4493 48.5995C23.9093 48.3695 24.2293 48.1695 24.3993 47.9995C24.3993 47.9395 24.4893 47.8295 24.6593 47.6495C24.8893 47.4795 25.0993 47.2995 25.3093 47.1295C25.5093 46.9595 25.7293 46.8095 25.9593 46.6995C26.1293 46.5895 26.2593 46.4295 26.3493 46.2295C26.4393 46.0295 26.6193 45.9895 26.9093 46.0995C27.0193 45.8095 27.1093 45.6695 27.1693 45.6695C27.3393 45.6095 27.4993 45.5295 27.6393 45.4095C27.7793 45.2995 27.9093 45.1795 28.0293 45.0695C28.1393 44.9595 28.2593 44.8495 28.3793 44.7695C28.4893 44.6795 28.6093 44.5795 28.7293 44.4695C28.8393 44.2995 28.9593 44.1795 29.0793 44.1195C29.1893 44.0595 29.3093 43.9795 29.4293 43.8595C29.5393 43.7995 29.6493 43.7495 29.7293 43.6895C29.8193 43.6295 29.9193 43.5795 30.0293 43.5195C30.3193 43.3495 30.4293 43.1495 30.3793 42.9195H30.7293C30.8393 42.5695 31.0193 42.3295 31.2493 42.1895C31.4793 42.0495 31.6793 41.8295 31.8493 41.5395C32.0793 41.5995 32.1493 41.5695 32.0693 41.4495C31.9793 41.3395 31.9993 41.2195 32.1093 41.0995C32.2793 41.0395 32.4593 40.9695 32.6293 40.8795C32.7993 40.7895 32.9493 40.6895 33.0593 40.5795C33.3493 40.2895 33.4893 40.1195 33.4893 40.0595C33.5993 39.7695 33.7593 39.5595 33.9593 39.4095C34.1593 39.2695 34.3493 39.1095 34.5193 38.9395C34.6893 38.8295 34.8893 38.7095 35.1193 38.5995C35.3493 38.4895 35.4893 38.2795 35.5493 37.9995C35.5493 37.9395 35.5793 37.9095 35.6393 37.9095C35.7493 37.7995 35.8393 37.7095 35.8993 37.6495C35.9593 37.5895 36.0393 37.4795 36.1593 37.3095C36.2693 37.0195 36.4493 36.7795 36.6793 36.5795C36.9093 36.3795 37.1093 36.1595 37.2793 35.9295C37.5093 35.6995 37.7193 35.4695 37.9293 35.2395C38.1293 35.0095 38.3693 34.7495 38.6593 34.4595C38.7193 34.3995 38.7493 34.3495 38.7493 34.2895C38.7493 34.2295 38.8093 34.1795 38.9193 34.1195C39.0293 34.0595 39.1093 33.9895 39.1393 33.8995C39.1693 33.8095 39.2393 33.7095 39.3593 33.5995C39.4693 33.4895 39.5593 33.3095 39.6193 33.0795C39.6793 32.8495 39.8493 32.7295 40.1393 32.7295H40.0593Z" fill="white"/>
<path d="M108.449 14.3603C108.279 13.9003 107.989 13.6403 107.589 13.5803C107.529 13.5803 107.419 13.4903 107.239 13.3203C107.129 13.4403 107.069 13.5203 107.069 13.5803C106.949 13.4103 106.719 13.3503 106.379 13.4103C105.859 13.7503 105.259 14.0103 104.569 14.1903C104.169 14.2503 103.809 14.3803 103.489 14.5803C103.169 14.7803 102.869 15.0303 102.579 15.3103C102.289 15.5403 102.059 15.7703 101.889 16.0003C101.719 16.2303 101.519 16.4903 101.289 16.7803C101.119 17.0703 101.059 17.3603 101.119 17.6403C101.229 17.7503 101.229 17.8703 101.119 17.9803C101.059 18.0403 101.029 18.1803 101.029 18.4103C101.089 18.5803 101.119 18.7603 101.119 18.9303C101.349 19.1003 101.639 19.3603 101.979 19.7103C102.039 19.7103 102.089 19.7003 102.149 19.6703C102.209 19.6403 102.259 19.6303 102.319 19.6303C102.719 19.6903 103.069 19.5403 103.349 19.2003C103.519 18.8603 103.719 18.5703 103.949 18.3403C104.239 17.9403 104.569 17.6203 104.939 17.3903C105.309 17.1603 105.729 16.9303 106.189 16.7003C106.589 16.5303 106.999 16.3703 107.399 16.2303C107.799 16.0903 108.149 15.8403 108.429 15.5003V15.0703C108.539 14.9003 108.539 14.6703 108.429 14.3803L108.449 14.3603Z" fill="white"/>
<path d="M137.61 32.3898C137.55 32.2798 137.52 32.1498 137.52 31.9998C137.52 31.8498 137.49 31.7298 137.43 31.6098H137.17C137.06 31.5498 136.92 31.4998 136.78 31.4398C136.64 31.3798 136.48 31.4098 136.31 31.5298C136.19 31.6498 136.08 31.7198 135.96 31.7498C135.85 31.7798 135.73 31.8498 135.62 31.9698C135.45 32.0898 135.3 32.2298 135.19 32.3998C135.07 32.5698 134.93 32.7198 134.76 32.8298C134.36 33.1198 134.01 33.4298 133.73 33.7798C133.44 34.1298 133.13 34.4698 132.78 34.8098C132.49 35.0998 132.2 35.3998 131.92 35.7198C131.63 36.0398 131.29 36.3398 130.89 36.6298L130.72 36.7998C130.43 37.2598 129.94 37.7498 129.25 38.2698C128.85 38.5598 128.52 38.8698 128.26 39.2198C128 39.5698 127.64 39.8798 127.18 40.1698L126.66 40.6898C126.43 40.9198 126.21 41.1498 126.01 41.3798C125.81 41.6098 125.56 41.8098 125.28 41.9798C125.05 42.0998 124.85 42.2398 124.68 42.4098C124.51 42.5798 124.33 42.7298 124.16 42.8398C123.82 43.1798 123.46 43.5198 123.08 43.8298C122.7 44.1498 122.35 44.4798 122 44.8198L121.48 44.9898C121.36 44.6998 121.23 44.4198 121.09 44.1298C120.95 43.8398 120.82 43.5298 120.7 43.1798C120.59 42.8898 120.48 42.6298 120.4 42.3998C120.31 42.1698 120.18 41.9098 120.01 41.6198C119.9 41.3298 119.76 41.0598 119.62 40.7998C119.48 40.5398 119.35 40.2698 119.23 39.9798C119.11 39.7498 119 39.5298 118.88 39.3298C118.77 39.1298 118.65 38.9098 118.54 38.6798C118.48 38.6198 118.45 38.5698 118.45 38.5098C118.51 38.2198 118.46 37.9798 118.32 37.7798C118.18 37.5798 118.05 37.3898 117.93 37.2198C117.64 36.9298 117.44 36.6198 117.33 36.2698C117.21 35.9298 117.04 35.6098 116.81 35.3198C116.75 35.2098 116.67 34.9698 116.55 34.6298C116.44 34.4598 116.33 34.2798 116.25 34.1098L115.95 33.5098C115.89 33.3998 115.88 33.3098 115.91 33.2498C115.94 33.1898 115.87 33.1398 115.69 33.0798C115.63 33.0198 115.6 32.9498 115.6 32.8598C115.6 32.7698 115.57 32.6698 115.51 32.5598C115.39 32.4498 115.32 32.3298 115.29 32.2198C115.26 32.1098 115.22 31.9898 115.16 31.8798C115.04 31.5898 114.94 31.3298 114.86 31.0998C114.77 30.8698 114.64 30.6398 114.47 30.4098C114.3 30.1198 114.2 29.8598 114.17 29.6298C114.14 29.3998 114.13 29.1398 114.13 28.8498V28.6798C114.13 28.4498 114.12 28.2298 114.09 28.0298C114.06 27.8298 114.05 27.6098 114.05 27.3798C114.11 27.0898 114.16 26.8598 114.22 26.6898C114.28 26.5198 114.33 26.2898 114.39 25.9998C114.5 25.5398 114.68 25.1398 114.91 24.7898C115.02 24.6198 115.14 24.4598 115.25 24.3198C115.36 24.1798 115.48 24.0198 115.6 23.8498C115.48 23.7398 115.57 23.5598 115.86 23.3298C115.92 23.2698 115.97 23.2398 116.03 23.2398C116.09 23.2398 116.14 23.2098 116.2 23.1498C116.31 22.9798 116.47 22.7898 116.67 22.5898C116.87 22.3898 117.03 22.2298 117.14 22.1198L117.49 21.7798C117.6 21.4298 117.8 21.2098 118.09 21.0898C118.38 20.9798 118.61 20.7998 118.78 20.5698C118.95 20.5698 119.02 20.5098 119 20.3998C118.97 20.2898 118.98 20.1998 119.04 20.1398C119.15 20.0798 119.26 20.0698 119.34 20.0998C119.43 20.1298 119.5 20.1098 119.56 20.0598C119.85 19.9498 120.11 19.8098 120.34 19.6698C120.57 19.5298 120.8 19.3998 121.03 19.2798C121.2 19.1698 121.36 19.0798 121.5 19.0198C121.64 18.9598 121.8 18.9898 121.97 19.1098C122.08 19.1098 122.17 19.0798 122.23 19.0198C122.52 18.9098 122.76 18.8898 122.96 18.9798C123.16 19.0698 123.35 19.1698 123.52 19.2798C123.69 19.3998 123.79 19.5398 123.82 19.7098C123.85 19.8798 123.89 20.0598 123.95 20.2298C124.18 20.7498 124.26 21.2798 124.21 21.8298C124.15 22.3798 124.07 22.9098 123.95 23.4298C123.89 23.9498 123.82 24.4798 123.73 25.0298C123.64 25.5798 123.46 26.0798 123.17 26.5398C123.05 26.8298 122.94 27.0998 122.83 27.3598C122.71 27.6198 122.6 27.8898 122.48 28.1798C122.19 28.6398 122.14 29.1598 122.31 29.7298L122.57 30.2498C122.68 30.3698 122.79 30.4398 122.87 30.4698C122.96 30.4998 123.06 30.5398 123.17 30.5998C123.28 30.5398 123.37 30.4898 123.43 30.4298C123.49 30.3698 123.57 30.3198 123.69 30.2598C124.04 30.2598 124.31 30.1598 124.51 29.9598C124.71 29.7598 124.87 29.5198 124.98 29.2298C125.15 28.8298 125.38 28.4498 125.67 28.1098C125.96 27.6498 126.2 27.1598 126.4 26.6398C126.6 26.1198 126.85 25.6098 127.13 25.0898C127.24 24.9198 127.3 24.6298 127.3 24.2298C127.3 23.6498 127.39 23.1098 127.56 22.5898C127.73 22.1898 127.82 21.7898 127.82 21.3798C127.76 21.2098 127.75 21.0398 127.78 20.8598C127.81 20.6898 127.76 20.5198 127.65 20.3398C127.76 20.1698 127.81 19.9798 127.78 19.7798C127.75 19.5798 127.71 19.3898 127.65 19.2198C127.65 18.8198 127.62 18.5298 127.56 18.3598C127.56 18.1298 127.47 17.9598 127.3 17.8398C127.13 17.7298 126.96 17.6098 126.78 17.4998C126.89 17.2098 126.92 16.9798 126.87 16.8098C126.87 16.6998 126.75 16.5198 126.52 16.2898C126.41 16.1798 126.27 16.0698 126.13 15.9898C125.99 15.8998 125.88 15.7998 125.83 15.6898C125.71 15.4598 125.57 15.3498 125.4 15.3498C125.23 15.3498 125.08 15.2898 124.97 15.1798C124.68 15.2998 124.48 15.2798 124.37 15.1398C124.25 14.9998 124.11 14.8698 123.94 14.7498C123.65 14.5798 123.38 14.4898 123.12 14.4898C122.86 14.4898 122.59 14.5498 122.3 14.6598L122.13 14.8298C122.01 14.7198 121.94 14.6298 121.91 14.5698C121.88 14.5098 121.81 14.5098 121.69 14.5698C121.23 14.7398 120.8 14.8298 120.4 14.8298C120.23 14.8298 120.07 14.8598 119.93 14.9198C119.79 14.9798 119.63 15.0098 119.46 15.0098C119.35 15.0098 119.21 15.0798 119.07 15.2298C118.93 15.3698 118.8 15.4998 118.68 15.6198C118.56 15.6798 118.42 15.7098 118.25 15.7098C118.08 15.7098 117.93 15.7398 117.82 15.7998L117.65 15.7098C117.54 15.9398 117.39 16.0698 117.22 16.0998C117.05 16.1298 116.9 16.1998 116.79 16.3198C116.56 16.5498 116.39 16.6898 116.27 16.7498C115.64 16.9798 115.15 17.4398 114.8 18.1298C114.57 18.0198 114.43 18.0698 114.37 18.2998C114.31 18.5298 114.17 18.5898 113.94 18.4698C113.71 18.7598 113.47 19.0198 113.21 19.2498C112.95 19.4798 112.76 19.7698 112.65 20.1098C112.3 20.1098 112.13 20.2198 112.13 20.4498C112.01 20.7898 111.9 21.0298 111.78 21.1398C111.72 21.2598 111.68 21.3598 111.65 21.4398C111.62 21.5298 111.52 21.5398 111.35 21.4798C111.18 21.4798 111.09 21.5998 111.09 21.8298C111.03 21.9398 110.96 22.0598 110.87 22.1698C110.79 22.2898 110.71 22.4298 110.65 22.5998C110.54 22.8898 110.36 23.1498 110.13 23.3798C110.13 23.4398 110.15 23.4998 110.17 23.5498C110.2 23.6098 110.21 23.6598 110.21 23.7198C110.15 23.8398 110.1 23.9198 110.04 23.9798C109.98 24.0398 109.95 24.0998 109.95 24.1498C109.89 24.7298 109.76 25.2398 109.56 25.6998C109.36 26.1598 109.23 26.6798 109.17 27.2498V28.6298C109.17 28.7998 109.21 28.9898 109.3 29.1898C109.39 29.3898 109.43 29.5798 109.43 29.7498C109.49 30.6098 109.78 31.5298 110.29 32.5098C110.35 32.6198 110.41 32.7298 110.46 32.8098C110.52 32.8998 110.57 32.9998 110.63 33.1098C110.38 33.3698 110.18 33.6098 110.03 33.8398C109.86 34.0998 109.6 34.3098 109.25 34.4898C109.08 34.6098 108.92 34.7498 108.78 34.9198C108.64 35.0898 108.51 35.2398 108.39 35.3498C107.87 35.8098 107.4 36.3098 106.97 36.8598C106.54 37.4098 106.09 37.9098 105.63 38.3698C105.46 38.4798 105.31 38.6298 105.2 38.7998C105.08 38.9698 104.97 39.1198 104.85 39.2298C104.56 39.5698 104.3 39.9098 104.07 40.2198C103.84 40.5398 103.58 40.8398 103.29 41.1298C103.06 41.4198 102.86 41.6598 102.69 41.8598C102.52 42.0598 102.32 42.2798 102.09 42.5098C101.97 42.6198 101.92 42.7298 101.92 42.8098C101.92 42.8898 101.86 42.9698 101.75 43.0298C101.52 43.0898 101.37 43.1898 101.32 43.3298C101.26 43.4698 101.18 43.5998 101.06 43.7198C100.94 43.8398 100.84 43.9698 100.76 44.1098C100.67 44.2498 100.57 44.3798 100.46 44.4998C100.11 44.8498 99.7699 45.1798 99.4299 45.4898C99.0799 45.8098 98.7699 46.1698 98.4799 46.5698C98.2499 46.9098 98.0499 47.1498 97.8799 47.2598C97.5899 47.3798 97.3599 47.5498 97.1899 47.7798C97.0199 48.0098 96.82 48.2098 96.59 48.3798C96.53 48.4398 96.49 48.4898 96.46 48.5498C96.43 48.6098 96.3599 48.6698 96.2399 48.7198C95.8999 48.9498 95.7199 48.8598 95.7199 48.4598C95.7799 48.2298 95.7899 47.9898 95.7599 47.7298C95.7299 47.4698 95.8299 47.2598 96.0599 47.0798C95.9399 46.8498 95.89 46.7098 95.89 46.6498L96.15 45.8698C96.21 45.5798 96.25 45.3398 96.28 45.1398C96.31 44.9398 96.3499 44.7198 96.4099 44.4898C96.4699 44.2598 96.52 44.0398 96.58 43.8398C96.64 43.6398 96.6899 43.4198 96.7499 43.1898C96.8599 42.8998 96.9499 42.5998 97.0099 42.2798C97.0699 41.9698 97.15 41.6298 97.27 41.2898C97.38 40.8298 97.4999 40.5098 97.6199 40.3398C97.7299 40.0498 97.76 39.7898 97.71 39.5598C97.94 39.3298 98.0599 39.1298 98.0599 38.9598C97.9399 38.8498 97.97 38.7598 98.15 38.6998C98.38 38.5298 98.52 38.3298 98.58 38.0998C98.64 37.8698 98.6899 37.6098 98.7499 37.3198C98.8099 37.1498 98.8499 36.9598 98.8799 36.7598C98.9099 36.5598 99.0099 36.3998 99.1799 36.2898C99.2899 36.1798 99.3399 36.0498 99.3099 35.8998C99.2799 35.7598 99.35 35.6298 99.53 35.5098C99.59 35.5098 99.5699 35.4498 99.4899 35.3398C99.3999 35.2298 99.42 35.1398 99.53 35.0798C99.82 34.9698 99.96 34.7798 99.96 34.5198C99.96 34.2598 100.05 34.0798 100.22 33.9598C100.28 33.4998 100.38 33.0798 100.52 32.7098C100.66 32.3398 100.85 31.9498 101.08 31.5398C101.14 31.4298 101.21 31.3098 101.3 31.1998C101.39 31.0898 101.46 30.9398 101.52 30.7698C101.52 30.4798 101.56 30.2398 101.65 30.0398C101.74 29.8398 101.84 29.5898 101.95 29.3098C101.95 29.0198 102.04 28.8798 102.21 28.8798C102.38 28.7698 102.52 28.5098 102.64 28.0998C102.75 27.7598 102.84 27.4098 102.9 27.0698C102.96 26.7198 102.93 26.3798 102.81 26.0298C102.69 25.8598 102.61 25.6998 102.55 25.5598C102.49 25.4198 102.44 25.2898 102.38 25.1698L102.46 25.0798C102 24.9698 101.68 24.8798 101.51 24.8198C101.62 24.7098 101.71 24.5898 101.77 24.4798C101.48 24.3698 101.27 24.3798 101.12 24.5198C100.98 24.6598 100.82 24.7398 100.65 24.7398C100.36 24.7398 99.99 24.8498 99.53 25.0798C99.53 25.1998 99.5699 25.3098 99.6599 25.4198C99.7499 25.5398 99.7299 25.6498 99.6199 25.7698L99.3599 25.5098C99.2399 25.6798 99.1599 25.8598 99.0999 26.0298C99.0399 26.1998 98.96 26.3498 98.84 26.4598C98.55 26.7498 98.3499 27.0498 98.2399 27.3698C98.1199 27.6898 97.9799 27.9898 97.8099 28.2798C97.5799 28.6198 97.4699 28.8798 97.4699 29.0598C97.4099 29.4098 97.28 29.7098 97.08 29.9698C96.88 30.2298 96.7199 30.4998 96.6099 30.7898C96.3799 31.1898 96.1899 31.5998 96.0499 31.9998C95.9099 32.3998 95.75 32.8098 95.58 33.2098C95.51 33.2798 95.4599 33.3698 95.4099 33.4598C95.1199 33.7998 94.8799 34.1498 94.6799 34.4898C94.4799 34.8298 94.26 35.1798 94.03 35.5198C93.69 35.9798 93.3799 36.4798 93.1199 37.0298C92.8599 37.5798 92.5899 38.0798 92.2999 38.5398L91.27 40.3498C91.15 40.5198 91.0699 40.7098 91.0099 40.9098C90.9499 41.1098 90.8699 41.3298 90.7499 41.5598C90.6899 41.6198 90.6099 41.6598 90.4899 41.6898C90.3699 41.7198 90.3199 41.7598 90.3199 41.8198C90.2099 42.1098 90.06 42.3698 89.89 42.5998C89.72 42.8298 89.57 43.0898 89.46 43.3798C89.17 43.8398 88.9099 44.2998 88.6799 44.7598C88.4499 45.2198 88.1599 45.6798 87.8199 46.1398C87.7599 46.1398 87.7299 46.1998 87.7299 46.3098L86.78 47.9498L85.6599 49.6698C85.5399 49.8398 85.46 50.0298 85.4 50.2298C85.34 50.4298 85.1999 50.5898 84.9699 50.6998C84.9099 50.6998 84.8799 50.7298 84.8799 50.7898L82.8099 53.7198C82.8099 53.7798 82.7799 53.8198 82.7199 53.8498C82.6599 53.8798 82.6299 53.9198 82.6299 53.9798C82.5199 54.0398 82.3999 54.1798 82.2899 54.4098C82.1199 54.5798 81.9199 54.8998 81.6899 55.3598C81.5199 55.2498 81.3499 55.2298 81.1699 55.3198C80.9999 55.4098 80.82 55.5098 80.65 55.6198C80.59 55.4498 80.5599 55.2498 80.5599 55.0198C80.4999 54.6198 80.4599 54.2398 80.4299 53.8998C80.3999 53.5598 80.39 53.2098 80.39 52.8698C80.33 52.5798 80.2899 52.2798 80.2599 51.9598C80.2299 51.6498 80.27 51.3398 80.39 51.0498C80.45 50.9398 80.4799 50.7098 80.4799 50.3598C80.5399 50.0698 80.5699 49.7598 80.5699 49.4098C80.5699 49.0598 80.6299 48.7498 80.7399 48.4598C80.8499 48.1698 80.93 47.9098 80.96 47.6798C80.99 47.4498 81.03 47.1898 81.09 46.8998C81.15 46.6698 81.1599 46.4398 81.1299 46.2098C81.0999 45.9798 81.1399 45.7798 81.2599 45.6098C81.3699 45.4398 81.3699 45.3698 81.2599 45.3898C81.1399 45.4198 81.1199 45.3798 81.1699 45.2598H81.5099L81.77 44.5698C81.88 44.1098 82.0099 43.6798 82.1599 43.2798C82.2999 42.8798 82.4299 42.4498 82.5499 41.9898L83.4999 39.5698C83.6099 39.4598 83.6899 39.3098 83.7199 39.1398C83.7499 38.9698 83.8199 38.7998 83.9399 38.6198C84.1099 38.1598 84.3099 37.7398 84.5399 37.3698C84.7699 36.9998 84.9399 36.5798 85.0599 36.1198L85.3199 35.5998C85.6599 35.1398 85.94 34.6498 86.14 34.1298C86.34 33.6098 86.5899 33.0898 86.8699 32.5798C87.0399 32.2398 87.22 31.8898 87.39 31.5498C87.56 31.2098 87.7599 30.8598 87.9899 30.5198L88.77 29.0498L89.03 28.7098L89.6299 27.7598C89.7999 27.5898 89.9999 27.2698 90.2299 26.8098C90.4599 26.4098 90.6899 26.0298 90.9199 25.6898C91.1499 25.3498 91.2899 24.9098 91.3499 24.3998C91.3499 24.2898 91.3799 24.2098 91.4399 24.1798C91.4999 24.1498 91.5499 24.0798 91.6099 23.9598C91.8399 23.6698 91.8399 23.3598 91.6099 23.0098L91.0099 22.3198C90.8899 22.0898 90.75 21.9498 90.58 21.8898C90.41 21.8298 90.2099 21.7498 89.9799 21.6298C89.5199 21.5198 89.0399 21.4598 88.5599 21.4598C88.0799 21.4598 87.6 21.5198 87.14 21.6298C86.68 21.6898 86.2499 21.6998 85.8499 21.6698C85.4499 21.6398 85.0199 21.5998 84.5599 21.5398L85.34 20.1598C85.4 20.0498 85.4499 19.9298 85.5099 19.8198C85.5699 19.7098 85.5999 19.5898 85.5999 19.4798C85.6599 19.1898 85.76 18.8998 85.9 18.6198C86.04 18.3298 86.0599 18.0498 85.9399 17.7598C85.9399 17.6998 85.9499 17.6198 85.9799 17.4998C86.0099 17.3898 86.11 17.3298 86.28 17.3298L86.3699 17.1598C86.4299 16.8698 86.5 16.5898 86.59 16.2998C86.68 16.0098 86.6899 15.7298 86.6299 15.4398C86.6299 15.3298 86.6399 15.2098 86.6699 15.0998C86.6999 14.9898 86.6799 14.8698 86.6299 14.7598C86.5699 14.4698 86.43 14.0398 86.2 13.4698H86.03L85.6799 12.6098C85.4499 12.2098 85.15 11.9598 84.77 11.8798C84.4 11.7898 84.0399 11.6898 83.6899 11.5798C83.4599 11.5198 83.2299 11.5098 82.9999 11.5398C82.7699 11.5698 82.5399 11.5798 82.3099 11.5798C81.7299 11.5798 81.2799 11.7798 80.9299 12.1798L80.59 12.3498C79.9 12.5798 79.3799 12.8098 79.0399 13.0398L78.4399 13.5598C78.2099 13.7898 78.01 14.0098 77.84 14.2098C77.67 14.4098 77.5499 14.6598 77.4899 14.9398C77.2599 14.9398 77.1 15.0298 77.02 15.1998C76.93 15.3698 76.8299 15.5198 76.7199 15.6298C76.4899 15.9198 76.3799 16.2298 76.3799 16.5798C76.3799 16.9298 76.2599 17.2398 76.0399 17.5298C76.1499 17.8198 76.1799 18.1298 76.1199 18.4798C76.0599 18.8298 76.09 19.1398 76.21 19.4298C76.38 20.0598 76.61 20.6198 76.9 21.1098C77.19 21.5998 77.56 22.0498 78.02 22.4498C78.25 22.6798 78.5899 22.9698 79.0599 23.3098C79.3499 23.4798 79.52 23.6298 79.58 23.7398C79.64 23.8598 79.5799 24.0898 79.4099 24.4298C79.2899 24.6598 79.16 24.8798 79.02 25.0798C78.88 25.2798 78.7499 25.5298 78.6299 25.8098C78.3999 26.3898 78.1299 26.9198 77.8099 27.4098C77.4899 27.8998 77.19 28.4298 76.9 28.9998C76.84 29.1198 76.7699 29.2298 76.6799 29.3498C76.5899 29.4698 76.52 29.5798 76.46 29.6898C76.11 30.3198 75.7599 30.9298 75.3799 31.4998C75.2399 31.7198 75.1 31.9398 74.95 32.1598C74.78 32.2198 74.6699 32.2998 74.5999 32.3998C74.5099 32.5398 74.4099 32.6698 74.2999 32.7898C74.1799 32.9598 74.07 33.1498 73.96 33.3498C73.84 33.5498 73.7299 33.7398 73.6099 33.9098C73.1499 34.4298 72.8 34.9898 72.58 35.5898C72.35 36.1898 71.9999 36.7498 71.5499 37.2698C71.1499 37.6698 70.95 38.0998 70.95 38.5598C70.89 38.8498 70.7599 39.0598 70.5599 39.2098C70.3599 39.3498 70.2 39.5398 70.09 39.7698C69.92 40.0598 69.7599 40.3298 69.6199 40.5898C69.4799 40.8498 69.3499 41.1198 69.2299 41.4098C69.0599 41.7598 68.88 42.0998 68.71 42.4498C68.54 42.7898 68.3399 43.1098 68.1099 43.3998C67.9899 43.5698 67.8899 43.7398 67.8099 43.9198C67.7199 44.0898 67.6199 44.2898 67.5099 44.5198C67.2799 44.8098 67.0799 45.1198 66.9099 45.4698C66.7399 45.8098 66.5299 46.1898 66.3099 46.5898C66.2499 46.6998 66.2199 46.7898 66.2199 46.8498C66.2199 46.9098 66.1899 46.9898 66.1299 47.1098C66.1299 47.3398 66.0399 47.4798 65.8699 47.5398C65.6999 47.5398 65.58 47.6298 65.53 47.7998C65.47 47.9098 65.4099 47.9998 65.3599 48.0598C65.3099 48.1198 65.2399 48.1998 65.1899 48.3198C64.9599 48.6098 64.7399 48.8798 64.5399 49.1398C64.3399 49.3998 64.0899 49.6998 63.8099 50.0498C63.7499 49.9398 63.69 49.8598 63.64 49.8298C63.58 49.7998 63.5499 49.7598 63.5499 49.6998C63.4299 49.4098 63.32 48.9798 63.21 48.4098C63.21 48.2398 63.1899 48.0798 63.1699 47.9398C63.1399 47.7998 63.16 47.6398 63.21 47.4698C63.27 47.2998 63.31 47.1098 63.34 46.9098C63.37 46.7098 63.4099 46.5198 63.4699 46.3498C63.5299 46.0098 63.58 45.6598 63.64 45.3198C63.7 44.9698 63.8099 44.6298 63.9899 44.2898C64.0999 43.9398 64.22 43.5698 64.33 43.1698C64.44 42.7698 64.5899 42.3698 64.7599 41.9598C64.9899 41.2698 65.3299 40.4598 65.7899 39.5398C66.0799 38.9098 66.37 38.2598 66.65 37.5998C66.94 36.9398 67.2199 36.2898 67.5099 35.6598C67.6199 35.2598 67.8 35.0298 68.03 34.9698C68.09 34.9098 68.1999 34.7398 68.3699 34.4498C68.4799 34.1098 68.6 33.7798 68.71 33.4598C68.82 33.1498 69.0299 32.8398 69.3099 32.5598C69.5999 32.2698 69.7999 31.9298 69.9099 31.5198C70.0199 31.1198 70.1999 30.7398 70.4299 30.3998C70.4899 30.2898 70.5399 30.1798 70.5999 30.0998C70.6599 30.0098 70.71 29.9098 70.77 29.7998C71.34 28.9898 71.3199 28.1898 70.6799 27.3798C70.6199 27.3198 70.4799 27.2898 70.2499 27.2898C70.1299 27.4098 70.06 27.4498 70.03 27.4198C70 27.3898 69.9299 27.3498 69.8099 27.2898C69.3499 27.0598 68.92 27.1498 68.52 27.5498L68.3499 27.7198C68.2899 27.7198 68.1499 27.7798 67.9199 27.8898C67.7499 28.0098 67.5999 28.1398 67.4899 28.2798C67.3699 28.4198 67.2299 28.5498 67.0599 28.6698C66.7199 28.9598 66.43 29.2598 66.2 29.5798C65.97 29.8998 65.7099 30.1998 65.4199 30.4898C65.2999 30.6098 65.17 30.7098 65.03 30.7898C64.89 30.8798 64.7299 30.9498 64.5599 31.0098C64.4999 30.8998 64.4599 30.8198 64.4299 30.7898C64.3999 30.7598 64.3599 30.6898 64.2999 30.5698C64.2399 30.2198 64.0099 29.9698 63.6099 29.7898C63.4899 29.6798 63.38 29.5898 63.27 29.5298C63.15 29.4698 63.0399 29.4198 62.9199 29.3598C62.5799 29.2498 62.2399 29.1298 61.9299 29.0098C61.6099 28.8998 61.2799 28.8998 60.9399 29.0098C60.8199 29.0098 60.6799 29.0398 60.5099 29.0998C60.3399 29.1598 60.19 29.1598 60.08 29.0998C59.91 29.0398 59.76 29.0398 59.65 29.0998C59.53 29.1598 59.4199 29.2198 59.2999 29.2698C59.1299 29.3298 58.97 29.3998 58.83 29.4898C58.69 29.5798 58.5299 29.6498 58.3599 29.7098C57.9599 29.8298 57.61 30.0098 57.33 30.2698C57.04 30.5298 56.7299 30.7398 56.3799 30.9198C56.2699 31.0398 56.16 31.1398 56.08 31.2198C56 31.3098 55.8599 31.3798 55.6899 31.4398L55.52 31.6098C55.4 31.7298 55.2899 31.8298 55.1699 31.9098C55.0499 31.9898 54.94 32.0998 54.83 32.2098C54.71 32.3298 54.61 32.4398 54.53 32.5598C54.44 32.6698 54.31 32.7298 54.14 32.7298C54.02 33.0798 53.84 33.3298 53.58 33.5098C53.32 33.6798 53.0799 33.9098 52.8499 34.1998C52.5599 34.4898 52.2999 34.7798 52.0699 35.0598C51.8399 35.3498 51.6099 35.6598 51.3799 36.0098C51.2699 36.1198 51.1899 36.2698 51.1599 36.4398C51.1299 36.6098 51.0599 36.7298 50.9399 36.7798C50.7099 36.8398 50.5799 36.9398 50.5499 37.0798C50.5199 37.2198 50.45 37.3498 50.33 37.4698C50.1 37.5898 49.96 37.6998 49.9 37.8198C49.79 38.0498 49.6099 38.4498 49.3799 39.0298C49.2099 38.9698 49.0399 39.0598 48.8599 39.2898C48.7499 39.5798 48.67 39.8698 48.64 40.1498C48.61 40.4398 48.42 40.6398 48.08 40.7498V40.9198C47.97 41.1498 47.86 41.3698 47.78 41.5698C47.69 41.7698 47.5899 41.9898 47.4799 42.2198C47.3699 42.3898 47.2899 42.5898 47.2599 42.8198C47.2299 43.0498 47.13 43.2498 46.96 43.4198L47.0499 43.5898L46.96 43.7598C46.73 43.8798 46.5999 44.0298 46.5699 44.2298C46.5399 44.4298 46.4999 44.6498 46.4399 44.8798C46.4399 44.9898 46.4599 45.0698 46.4799 45.0998C46.4999 45.1298 46.4899 45.1998 46.4399 45.3198C46.3299 45.5498 46.22 45.7798 46.14 46.0098C46.05 46.2398 45.95 46.4998 45.84 46.7898C45.73 47.0198 45.7099 47.2598 45.7999 47.5198C45.8899 47.7798 45.8399 48.0498 45.6699 48.3398L45.7599 48.4298C45.8199 48.5398 45.8499 48.6598 45.8499 48.7698C45.7399 49.0598 45.7099 49.3298 45.7599 49.5898C45.8199 49.8498 45.8199 50.1198 45.7599 50.4098C45.7599 50.5298 45.8199 50.7598 45.9299 51.0998C46.0499 51.3898 46.1499 51.6298 46.2299 51.8298C46.3199 52.0298 46.42 52.2798 46.53 52.5598C46.59 52.7898 46.7599 52.8998 47.0499 52.8998C47.1099 53.3598 47.31 53.7098 47.65 53.9298C47.88 54.0998 48.2799 54.3098 48.8599 54.5298C49.1499 54.6998 49.49 54.7298 49.89 54.6198C49.95 54.6198 50.0099 54.6098 50.0599 54.5798C50.1199 54.5498 50.1799 54.5398 50.2299 54.5398C51.0399 54.5398 51.7 54.3098 52.21 53.8498C52.33 53.7398 52.4399 53.6498 52.5599 53.5898C53.0199 53.3598 53.4799 53.0198 53.9399 52.5598C53.9999 52.4998 54.0399 52.4298 54.0699 52.3398C54.0999 52.2498 54.14 52.2098 54.2 52.2098C54.43 52.1498 54.5899 52.0698 54.6699 51.9498C54.7599 51.8398 54.8599 51.7198 54.9699 51.5998C55.2599 51.3098 55.5199 51.0098 55.7499 50.6898C55.9799 50.3798 56.24 50.0398 56.53 49.6998C56.7 49.4098 56.85 49.1298 56.96 48.8398C57.07 48.5498 57.31 48.3498 57.65 48.2398C57.71 47.9498 57.8199 47.7198 57.9999 47.5498C58.1699 47.3798 58.2599 47.1498 58.2599 46.8598L58.4299 46.6898C58.7199 46.5198 58.9499 46.2998 59.1199 46.0398C59.2899 45.7798 59.46 45.5098 59.64 45.2198C59.7 45.0498 59.8399 44.8498 60.0699 44.6198H60.1599C60.1599 44.7898 60.1399 44.9598 60.1199 45.1398C60.0899 45.3098 60.08 45.4898 60.08 45.6598C60.08 45.8298 60.0699 46.0098 60.0399 46.1798C60.0099 46.3498 60.02 46.4998 60.08 46.6098C60.14 46.8398 60.1099 47.0698 59.9899 47.2998C59.8699 47.5298 59.8199 47.6798 59.8199 47.7298C59.7599 48.2498 59.7899 48.7598 59.9099 49.2798C60.0199 49.7998 60.17 50.2898 60.34 50.7498C60.45 50.9798 60.5699 51.1998 60.6799 51.3998C60.7899 51.5998 60.91 51.8198 61.02 52.0498C61.08 52.1698 61.16 52.2498 61.28 52.3098C61.39 52.3698 61.5099 52.4498 61.6199 52.5698V52.6598C61.6199 52.7198 61.65 52.7498 61.71 52.7498C61.82 52.8698 61.9399 52.9398 62.0599 52.9698C62.1699 52.9998 62.29 53.0398 62.4 53.0998C62.51 53.1598 62.62 53.1898 62.7 53.1898C62.78 53.1898 62.8899 53.2198 62.9999 53.2798C63.1099 53.2798 63.2299 53.3098 63.3499 53.3698C63.4599 53.4298 63.5799 53.4298 63.6899 53.3698C64.3199 53.2598 64.8399 53.0798 65.2399 52.8498C65.8699 52.3898 66.4799 51.8198 67.0499 51.1298C67.3399 50.8398 67.6 50.5098 67.83 50.1398C68.06 49.7698 68.3199 49.4098 68.6099 49.0598C68.8399 48.7698 68.9799 48.4598 69.0399 48.1098C69.0999 48.0498 69.1399 47.9998 69.1699 47.9398C69.1999 47.8798 69.2399 47.8298 69.2999 47.7698C69.6499 47.4198 69.7899 47.0198 69.7299 46.5598L69.8199 46.4698H70.08C70.08 46.1298 70.1099 45.8998 70.1699 45.7798C70.3399 45.6098 70.4699 45.4198 70.5599 45.2198C70.6499 45.0198 70.7499 44.8298 70.8599 44.6598C71.1499 44.2598 71.4299 43.7998 71.7199 43.2798C71.8899 42.9898 72.0699 42.7298 72.2399 42.4998C72.4099 42.2698 72.5499 42.0098 72.6699 41.7198C72.7299 41.3798 72.8999 40.9698 73.1899 40.5098C73.2999 40.3998 73.3799 40.2798 73.4099 40.1698C73.4399 40.0598 73.5099 39.9398 73.6299 39.8198C73.6899 39.7098 73.7599 39.5998 73.8499 39.5198C73.9399 39.4298 73.9799 39.3298 73.9799 39.2198C74.0899 38.7598 74.2699 38.3898 74.4999 38.0998C74.7299 37.8098 74.9299 37.4998 75.0999 37.1498C75.2099 36.7498 75.3699 36.3898 75.5699 36.0698C75.6999 35.8598 75.8399 35.6498 75.9899 35.4198H76.0499L76.83 34.8998L76.9999 34.4698C77.0599 34.4698 77.09 34.4398 77.09 34.3798C77.72 33.7498 78.24 33.1198 78.64 32.4798C79.04 31.8498 79.4499 31.1898 79.8499 30.4998C79.9599 30.3298 80.07 30.1398 80.15 29.9398C80.24 29.7398 80.34 29.5498 80.45 29.3798C80.68 29.2098 80.8399 28.9798 80.9199 28.6898C81.0099 28.3998 81.1899 28.1398 81.4799 27.9098C81.5899 27.7998 81.6799 27.6198 81.7399 27.3898C81.7999 27.1598 81.8799 26.9298 81.9999 26.6998C82.3999 26.1298 82.72 25.5498 82.95 24.9798C83.64 25.0998 84.33 25.1398 85.02 25.1098C85.71 25.0798 86.4 25.1198 87.09 25.2398L86.5699 26.5298L85.9699 27.3898C85.7999 27.6198 85.5899 27.9698 85.3699 28.4298C85.2499 28.7198 85.1099 28.9498 84.9399 29.1198C84.7699 29.2898 84.6199 29.5198 84.5099 29.8098L84.1699 30.7598L83.8199 31.2798C83.4799 31.7398 83.2399 32.0898 83.1299 32.3098C83.0099 32.4798 82.91 32.6798 82.83 32.9098C82.74 33.1398 82.64 33.3398 82.53 33.5098C82.3 33.7998 82.1799 34.1698 82.1799 34.6298C81.8899 34.7998 81.7199 34.9498 81.6599 35.0598C81.5999 35.1798 81.52 35.3798 81.4 35.6598L81.14 36.2598C81.02 36.5498 80.8699 36.8498 80.6699 37.1698C80.4699 37.4898 80.31 37.8198 80.2 38.1598L79.77 39.5398C79.54 39.8798 79.4 40.1398 79.34 40.3198L78.4799 42.5598L78.2199 43.7698C78.1599 44.0598 78.0899 44.2998 77.9999 44.4998C77.9099 44.6998 77.81 44.9198 77.7 45.1498C77.58 45.3798 77.53 45.5198 77.53 45.5798C77.47 46.0398 77.4099 46.4698 77.3599 46.8698C77.2999 47.2698 77.19 47.6798 77.02 48.0798C76.96 48.1398 76.9299 48.2498 76.9299 48.4298C76.9299 48.5398 76.9399 48.6798 76.9699 48.8198C76.9999 48.9598 76.9799 49.0898 76.9299 49.2098C76.8699 49.6098 76.99 49.9598 77.28 50.2498C76.99 50.3598 76.8499 50.5098 76.8499 50.6798V51.1998C76.8499 51.2598 76.8799 51.3198 76.9399 51.3698C76.7099 51.6598 76.6399 51.9598 76.7199 52.2798C76.8099 52.5998 76.8199 52.8998 76.7599 53.1898C76.6999 53.2998 76.7199 53.4198 76.7999 53.5298C76.8899 53.6498 76.9 53.7898 76.84 53.9598C76.84 54.0798 76.8799 54.1798 76.9699 54.2598C77.0599 54.3498 77.1299 54.4498 77.1899 54.5598C77.0199 54.8498 76.96 55.0198 77.02 55.0798C77.13 55.4298 77.2099 55.7698 77.2399 56.1198C77.2699 56.4598 77.3999 56.7798 77.6299 57.0698C77.9699 57.6498 78.3499 58.1498 78.7499 58.5798C79.1499 59.0098 79.7499 59.1998 80.5599 59.1398C80.8499 59.1398 81.11 59.1098 81.34 59.0498C81.57 58.9898 81.8299 58.9398 82.1199 58.8798C82.2299 58.8198 82.31 58.7498 82.34 58.6598C82.37 58.5698 82.4099 58.5298 82.4699 58.5298C82.7599 58.5898 82.9599 58.5298 83.0699 58.3598C83.1799 58.1898 83.3299 58.0398 83.4999 57.9298C83.7899 57.6398 84.0899 57.3398 84.4099 57.0198C84.7299 56.6998 84.9999 56.3398 85.2299 55.9398L85.7499 55.2498C85.9199 55.0798 86.1199 54.8198 86.3499 54.4698C86.4599 54.3598 86.58 54.2298 86.7 54.0798C86.81 53.9398 86.8699 53.8098 86.8699 53.6898C86.8699 53.4598 86.9299 53.2998 87.0399 53.2198C87.1499 53.1298 87.2699 53.0298 87.3799 52.9198V52.8298C87.3199 52.6598 87.3499 52.5398 87.4699 52.4898C87.5799 52.4298 87.6999 52.3498 87.8199 52.2298L88.1599 51.7998C88.2699 51.4498 88.4299 51.1398 88.6299 50.8498C88.8299 50.5598 89.0199 50.2798 89.1899 49.9898C89.7099 49.1298 90.25 48.1498 90.83 47.0598L91.3499 46.2798L91.4399 46.0998C91.4399 46.1598 91.4399 46.2198 91.4399 46.2798C91.3799 46.5698 91.3499 46.8298 91.3499 47.0598C91.3499 47.2898 91.3199 47.5498 91.2599 47.8398C91.2599 48.1298 91.2499 48.3998 91.2199 48.6598C91.1899 48.9198 91.2099 49.1898 91.2599 49.4798C91.2599 49.7698 91.2899 50.0098 91.3499 50.2098C91.4099 50.4098 91.47 50.6298 91.52 50.8598C91.64 51.0898 91.72 51.3198 91.78 51.5498C91.84 51.7798 91.9499 52.0098 92.1199 52.2398C92.2399 52.4098 92.3499 52.5698 92.4699 52.7098C92.5799 52.8498 92.7899 52.8698 93.0699 52.7498C93.1899 52.9798 93.2399 53.1498 93.2399 53.2698C93.5899 53.3898 93.8199 53.4998 93.9299 53.6198C94.0999 53.7398 94.3299 53.7398 94.6199 53.6198C94.7399 53.6198 94.85 53.5898 94.96 53.5298C95.08 53.4698 95.1899 53.4998 95.3099 53.6198C95.3099 53.6798 95.3499 53.7098 95.4399 53.7098C95.5299 53.7098 95.5999 53.6798 95.6599 53.6198C95.8299 53.4498 96.0099 53.4198 96.1799 53.5298C96.2399 53.5898 96.31 53.5998 96.4 53.5698C96.49 53.5398 96.5599 53.5298 96.6199 53.5298C96.9099 53.4198 97.1499 53.2998 97.3499 53.1898C97.5499 53.0798 97.7699 52.9298 97.9999 52.7598C98.2299 52.5898 98.4699 52.4298 98.7299 52.2898C98.9899 52.1498 99.23 51.9898 99.46 51.8198C99.8 51.4698 100.13 51.1298 100.45 50.7898C100.77 50.4398 101.1 50.0698 101.44 49.6698C101.61 49.4398 101.8 49.2098 102 48.9798C102.2 48.7498 102.39 48.5198 102.56 48.2898C102.79 47.9998 102.98 47.7398 103.12 47.5098C103.26 47.2798 103.45 47.0498 103.68 46.8198C104.02 46.5898 104.23 46.3598 104.28 46.1298C104.45 45.6098 104.77 45.2398 105.23 45.0098C105.4 44.8998 105.53 44.7498 105.62 44.5798C105.71 44.4098 105.81 44.2398 105.92 44.0598C106.03 43.8898 106.18 43.7498 106.35 43.6298C106.52 43.5198 106.67 43.3398 106.78 43.1098C107.01 43.0498 107.15 42.9398 107.21 42.7598C107.27 42.5898 107.35 42.4198 107.47 42.2398C107.53 42.0698 107.7 41.8398 107.99 41.5498C108.28 41.2598 108.56 40.8898 108.85 40.4298C109.02 40.2598 109.19 40.1198 109.37 39.9998C109.48 39.9398 109.66 39.7398 109.89 39.3998C109.95 39.3398 110.03 39.1998 110.15 38.9698C110.26 38.8598 110.38 38.7398 110.49 38.6198C110.6 38.5098 110.72 38.3898 110.83 38.2798C111.12 38.0498 111.38 37.8098 111.61 37.5498C111.84 37.2898 112.01 36.9898 112.13 36.6398L112.3 36.4698C112.36 36.5498 112.41 36.6298 112.48 36.7198C112.54 36.8398 112.59 36.9498 112.65 37.0698C112.71 37.1898 112.76 37.2998 112.82 37.4098C112.88 37.5798 112.95 37.7598 113.04 37.9298C113.13 38.0998 113.23 38.2798 113.34 38.4498C113.45 38.6198 113.56 38.8098 113.64 39.0098C113.73 39.2098 113.83 39.3998 113.94 39.5698C114.05 39.6798 114.17 39.7998 114.28 39.9098C114.39 40.0298 114.48 40.1398 114.54 40.2498C114.71 40.8798 114.94 41.3698 115.23 41.7198C115.4 42.0098 115.54 42.3198 115.66 42.6698C115.77 43.0198 115.97 43.2998 116.26 43.5298C116.32 43.5898 116.35 43.6598 116.35 43.7498C116.35 43.8398 116.38 43.9098 116.44 43.9698C116.55 44.2598 116.63 44.4998 116.66 44.6998C116.69 44.8998 116.76 45.1198 116.88 45.3498C116.94 45.5198 117.02 45.6798 117.14 45.8198C117.25 45.9598 117.31 46.1198 117.31 46.2898C117.31 46.4598 117.35 46.6098 117.44 46.7198C117.53 46.8398 117.63 46.9798 117.74 47.1498V47.4098C117.63 47.5298 117.61 47.6298 117.7 47.7098C117.79 47.7998 117.83 47.8698 117.83 47.9298C117.54 48.3898 117.2 48.7398 116.8 48.9698C116.4 49.1998 116.05 49.4898 115.77 49.8298C115.37 50.2298 114.96 50.5898 114.56 50.9098C114.16 51.2298 113.73 51.5598 113.27 51.8998C112.98 52.1898 112.72 52.4298 112.49 52.6298C112.26 52.8298 112.03 53.0498 111.8 53.2798C111.63 53.4498 111.37 53.7698 111.02 54.2298H111.19C111.07 54.3498 110.94 54.3898 110.8 54.3598C110.66 54.3298 110.56 54.3798 110.5 54.4898C110.39 54.6598 110.24 54.8198 110.07 54.9598C109.9 55.0998 109.76 55.2598 109.64 55.4298C109.3 55.7698 108.97 56.1298 108.65 56.5098C108.34 56.8898 108.03 57.2698 107.74 57.6798L106.71 59.2298C106.42 59.6298 106.16 60.0598 105.93 60.5198C105.7 60.9798 105.47 61.4398 105.24 61.8998C105.13 62.0698 105.05 62.2398 105.02 62.4198C104.99 62.5898 104.92 62.7298 104.8 62.8498C104.51 63.1398 104.36 63.4398 104.33 63.7598C104.3 64.0798 104.23 64.3798 104.11 64.6698C104 65.0198 103.92 65.3698 103.89 65.7498C103.86 66.1198 103.96 66.5098 104.19 66.9098V66.9998C104.13 67.5698 104.33 68.0598 104.79 68.4698C104.79 68.5298 104.81 68.5698 104.83 68.5998C104.86 68.6298 104.87 68.6698 104.87 68.7298C104.76 68.8398 104.74 68.9298 104.83 68.9898C104.92 69.0498 104.99 69.1298 105.05 69.2498C105.17 69.3598 105.3 69.4798 105.44 69.5998C105.58 69.7098 105.74 69.8298 105.91 69.9398C106.77 70.6298 107.87 71.1198 109.19 71.4098C109.71 71.5198 110.24 71.6298 110.79 71.7098C111.34 71.7998 111.87 71.6898 112.38 71.4098H112.64C112.87 71.4098 113.09 71.4198 113.29 71.4498C113.49 71.4798 113.68 71.4398 113.85 71.3198C114.83 70.9198 115.66 70.4598 116.35 69.9398C116.52 69.8198 116.68 69.6898 116.82 69.5498C116.96 69.4098 117.12 69.2798 117.29 69.1598C118.27 68.4698 118.99 67.7198 119.45 66.9198C119.56 66.8098 119.67 66.6698 119.75 66.5298C119.84 66.3898 119.94 66.2598 120.05 66.1398C120.16 65.9698 120.31 65.7898 120.48 65.6198C120.65 65.4498 120.79 65.2398 120.91 65.0198C121.08 64.7298 121.23 64.4398 121.34 64.1598C121.45 63.8698 121.57 63.5798 121.69 63.2998C122.26 62.2698 122.69 61.1398 122.98 59.9398C123.04 59.6498 123.07 59.3598 123.07 59.0798C123.07 58.7998 123.18 58.5298 123.42 58.2998V58.1298C123.3 57.8398 123.29 57.5598 123.38 57.2698C123.47 56.9798 123.48 56.6998 123.42 56.4098V55.9798C123.48 55.8698 123.51 55.6898 123.51 55.4598C123.45 55.1698 123.42 54.9298 123.42 54.7298V53.9998C123.42 53.8898 123.43 53.7798 123.46 53.6998C123.49 53.6098 123.47 53.5098 123.42 53.3998C123.25 52.8298 123.16 52.2498 123.16 51.6798C123.22 51.3898 123.19 51.1098 123.07 50.8198C122.96 50.5298 122.87 50.2498 122.81 49.9598C122.58 49.8498 122.49 49.7298 122.55 49.6198C122.61 49.5098 122.64 49.3898 122.64 49.2698C122.64 49.1498 122.6 49.0398 122.51 48.9298C122.42 48.8198 122.41 48.6998 122.47 48.5798C122.7 48.2398 122.87 48.0298 122.99 47.9798C123.39 47.7498 123.8 47.4298 124.2 47.0298C124.37 46.9198 124.52 46.7698 124.63 46.5998C124.74 46.4298 124.89 46.2798 125.06 46.1698C125.4 45.8798 125.76 45.5798 126.14 45.2598C126.51 44.9398 126.87 44.6398 127.22 44.3498C127.51 44.1198 127.77 43.8998 128 43.6998C128.23 43.4998 128.46 43.2498 128.69 42.9698C128.98 42.6798 129.26 42.3998 129.55 42.1098C129.84 41.8198 130.18 41.5398 130.59 41.2498L130.76 41.0798C130.93 40.9098 131.11 40.7398 131.28 40.5598C131.45 40.3898 131.63 40.1898 131.8 39.9598C131.91 39.8498 132.04 39.7198 132.19 39.5698C132.33 39.4298 132.44 39.2998 132.49 39.1798C132.6 38.9498 132.78 38.8098 133.01 38.7498C133.12 38.6398 133.24 38.5198 133.35 38.4098C133.46 38.2998 133.58 38.1798 133.69 38.0598C133.98 37.7698 134.26 37.4698 134.55 37.1498C134.84 36.8398 135.12 36.4998 135.41 36.1598C135.58 35.9298 135.8 35.7298 136.06 35.5598C136.32 35.3898 136.45 35.1298 136.45 34.7798C136.74 34.8398 136.94 34.7798 137.05 34.6098C137.16 34.4398 137.28 34.2698 137.39 34.0898C137.79 33.6898 137.88 33.1698 137.65 32.5398L137.61 32.3898ZM57.65 30.0598C57.71 30.1198 57.7599 30.1498 57.8199 30.1498C57.7599 30.2098 57.7299 30.2498 57.7299 30.2798C57.7299 30.3098 57.7 30.3498 57.64 30.4098C57.64 30.3498 57.6299 30.3198 57.5999 30.3198C57.5699 30.3198 57.5599 30.2898 57.5599 30.2298L57.65 30.0598ZM60.7599 43.5098L60.6699 43.4198C60.6699 43.3598 60.68 43.3298 60.71 43.3298C60.74 43.3298 60.7499 43.2998 60.7499 43.2398C60.8099 43.2998 60.84 43.3598 60.84 43.4098L60.7499 43.4998L60.7599 43.5098ZM62.0499 34.5398C61.9299 34.8798 61.7899 35.2298 61.6199 35.5698C61.5099 35.7998 61.3699 35.9998 61.2299 36.1698C61.0899 36.3398 60.96 36.5498 60.84 36.7698C60.72 36.9998 60.6099 37.2198 60.4899 37.4198C60.3799 37.6198 60.1999 37.8098 59.9699 37.9798C59.8499 38.2098 59.77 38.4098 59.71 38.5798C59.59 38.8698 59.4399 39.1398 59.2399 39.3998C59.0399 39.6598 58.88 39.9298 58.77 40.2198C58.71 40.3398 58.6399 40.4698 58.5499 40.6098C58.4599 40.7498 58.3599 40.8798 58.2499 40.9998C57.7899 41.5798 57.3699 42.1498 56.9999 42.7198C56.6199 43.2998 56.24 43.8698 55.83 44.4398C55.71 44.5598 55.61 44.6898 55.53 44.8298C55.44 44.9698 55.3399 45.0998 55.2299 45.2198C54.9399 45.6198 54.6499 46.0298 54.3699 46.4298C54.0799 46.8298 53.7999 47.2398 53.5099 47.6398L53.34 47.8098C53.11 48.0398 52.9699 48.2098 52.9099 48.3298C52.7999 48.4398 52.7199 48.5298 52.6899 48.5898C52.6599 48.6498 52.5899 48.7098 52.4699 48.7598C51.9499 49.2798 51.41 49.7398 50.83 50.1398C50.72 50.2498 50.4299 50.4298 49.9699 50.6598C50.0899 50.3698 50.0599 50.1098 49.8799 49.8798C49.7099 49.6498 49.7399 49.3898 49.9699 49.0998C49.7999 48.6998 49.7999 48.3198 49.9699 47.9798C50.0899 47.5198 50.1999 47.0598 50.3199 46.5998C50.4299 46.1398 50.5499 45.6798 50.6599 45.2198C50.7799 44.9298 50.9099 44.6498 51.0499 44.3598C51.1899 44.0698 51.35 43.7898 51.52 43.4998C51.81 43.0998 52.0499 42.6898 52.2499 42.2898C52.4499 41.8898 52.6399 41.4798 52.8099 41.0798C52.9799 40.6798 53.1899 40.3498 53.4099 40.0898C53.6399 39.8298 53.8699 39.5598 54.0999 39.2698C54.2099 39.1598 54.2999 38.9998 54.3599 38.7998C54.4199 38.5998 54.4999 38.4098 54.6199 38.2398C54.6799 38.1798 54.71 38.0698 54.71 37.8898C54.82 37.7798 54.97 37.7298 55.14 37.7598C55.31 37.7898 55.3399 37.6898 55.2299 37.4598C55.3399 37.3998 55.46 37.3498 55.58 37.2898C55.69 37.2298 55.8099 37.1798 55.9199 37.1198C55.9199 36.8898 55.98 36.6998 56.09 36.5598C56.2 36.4198 56.3199 36.2598 56.4299 36.0898C56.5999 35.9798 56.86 35.7498 57.21 35.3998C57.32 35.2898 57.4099 35.1798 57.4699 35.0998C57.5299 35.0098 57.6399 34.9098 57.8199 34.7998C57.9299 34.7398 58.0399 34.6598 58.1199 34.5398C58.2099 34.4298 58.3099 34.3098 58.4199 34.1998C58.6499 34.0298 58.8799 33.8698 59.1099 33.7298C59.3399 33.5898 59.6 33.3998 59.89 33.1698L60.6699 32.6498C60.8999 32.5398 61.0699 32.4798 61.1899 32.4798C61.5899 32.4798 61.8399 32.5198 61.9199 32.6098C62.0099 32.6998 62.08 32.9398 62.14 33.3398C62.2 33.7998 62.1699 34.1998 62.0499 34.5498V34.5398ZM82.7899 16.2598C82.7599 16.4298 82.7499 16.6298 82.7499 16.8598C82.7499 16.9798 82.7199 17.0598 82.6599 17.1198C82.4899 17.2898 82.3699 17.4998 82.3199 17.7198C82.2599 17.9498 82.1799 18.1798 82.0599 18.4098C82.0599 18.6998 82.0299 18.8998 81.9699 19.0098C81.8499 19.2398 81.7399 19.4698 81.6199 19.6998C81.4999 19.9298 81.4199 20.1898 81.3599 20.4798C81.1299 20.1898 80.8999 19.9798 80.6699 19.8298C80.4399 19.6898 80.27 19.4998 80.15 19.2698C79.92 18.8098 79.83 18.4398 79.89 18.1498C79.89 17.8598 79.9599 17.6298 80.1099 17.4598C80.2499 17.2898 80.3799 17.0598 80.4999 16.7698L80.6699 16.5998L82.7399 15.2198C82.7999 15.3898 82.83 15.5598 82.83 15.7398C82.83 15.9198 82.8199 16.0798 82.7899 16.2598ZM119.41 57.3998C119.35 57.5698 119.34 57.7498 119.37 57.9198C119.4 58.0898 119.38 58.2398 119.33 58.3498C119.33 58.5798 119.27 58.9298 119.16 59.3798C119.04 59.6098 118.96 59.8098 118.9 59.9798C118.84 60.1498 118.79 60.3498 118.73 60.5798V60.7498C118.73 60.8098 118.76 60.8398 118.82 60.8398C118.7 61.0098 118.62 61.1598 118.56 61.2698C118.5 61.3798 118.44 61.4998 118.39 61.6098L118.22 61.9598C118.1 62.1898 117.99 62.3898 117.87 62.5598C117.75 62.7298 117.64 62.8998 117.53 63.0798C117.41 63.3698 117.24 63.7398 117.01 64.1998C117.01 64.3098 116.98 64.3698 116.92 64.3698C116.63 64.4298 116.46 64.5898 116.4 64.8398C116.34 65.0998 116.2 65.2898 115.97 65.3998C115.8 65.5698 115.64 65.7398 115.5 65.9198C115.36 66.0898 115.2 66.2598 115.03 66.4398C114.91 66.5498 114.81 66.6598 114.73 66.7398C114.64 66.8298 114.66 67.0098 114.77 67.2998C114.6 67.2398 114.45 67.1598 114.34 67.0398C114.11 67.1498 113.94 67.2698 113.82 67.3798C113.59 67.6698 113.33 67.8498 113.04 67.9398C112.75 68.0298 112.44 68.1298 112.09 68.2398C111.8 68.2998 111.53 68.3498 111.27 68.4098C111.01 68.4698 110.74 68.4698 110.45 68.4098C110.22 68.4098 110.02 68.3798 109.85 68.3198C109.68 68.2598 109.48 68.1798 109.25 68.0598C109.14 67.9998 108.9 67.9198 108.56 67.7998C108.39 67.7998 108.23 67.7098 108.09 67.5398C107.95 67.3698 107.76 67.2798 107.53 67.2798C107.53 67.0498 107.46 66.8798 107.31 66.7598C107.16 66.6398 107.09 66.4698 107.09 66.2398C107.03 66.0098 107.01 65.8098 107.01 65.6398C107.01 65.4698 107.09 65.2698 107.27 65.0398V64.7798C107.33 64.4298 107.43 64.0998 107.57 63.7898C107.71 63.4698 107.84 63.1698 107.96 62.8798C108.08 62.5898 108.19 62.2998 108.3 62.0198C108.42 61.7298 108.59 61.4698 108.82 61.2398C108.99 60.9498 109.17 60.6898 109.34 60.4598C109.51 60.2298 109.68 59.9998 109.86 59.7698C110.03 59.5398 110.2 59.3398 110.38 59.1698C110.55 58.9998 110.7 58.7998 110.81 58.5698C110.92 58.4598 111.01 58.3498 111.07 58.2698C111.13 58.1798 111.21 58.0798 111.33 57.9698C111.39 57.8598 111.43 57.7798 111.46 57.7498C111.49 57.7198 111.53 57.6498 111.59 57.5298C111.65 57.4698 111.68 57.3898 111.68 57.2698C112.02 57.1598 112.3 56.9698 112.5 56.7098C112.7 56.4498 112.92 56.2098 113.15 55.9798C113.44 55.6898 113.72 55.4298 114.01 55.1998C114.3 54.9698 114.58 54.7398 114.87 54.5098C115.22 54.2198 115.53 53.9398 115.82 53.6498C116.11 53.3598 116.42 53.0698 116.77 52.7898C117 52.6198 117.23 52.4498 117.46 52.2698C117.69 52.0998 117.92 51.9198 118.15 51.7498C118.26 51.6398 118.37 51.5298 118.45 51.4498L118.75 51.1498C118.92 51.2698 119.01 51.4898 119.01 51.8398C119.07 52.0698 119.1 52.4198 119.1 52.8698C119.16 52.9898 119.21 53.0998 119.27 53.2098C119.33 53.3298 119.36 53.4398 119.36 53.5598C119.36 53.9598 119.37 54.3498 119.4 54.7198C119.43 55.0998 119.47 55.4798 119.53 55.8898C119.53 56.1798 119.54 56.4398 119.57 56.6698C119.6 56.8998 119.55 57.1298 119.44 57.3598L119.41 57.3998Z" fill="white"/>
</svg>
