<svg width="976" height="2005" viewBox="0 0 976 2005" fill="none" xmlns="http://www.w3.org/2000/svg">
<g clip-path="url(#clip0_1691_35)">
<path d="M893.82 27.12L901.83 43.74L966.7 15.69L958.67 0L893.82 27.12Z" fill="#CE002C"/>
<path d="M893.82 27.12L901.83 43.74L966.7 15.69L953.21 8.84L958.67 0L893.82 27.12Z" fill="#FDFDFD"/>
<path d="M819.76 164.578L818.13 166.848L817.99 164.668L819.76 164.578Z" fill="#CE002C"/>
<path d="M724.34 325.908V365.468L750.18 460.948L701.15 726.948L649.32 1080.26L587.59 1354.19H579.07L579.93 1355.73L637.17 1458.77V1769.61L675.94 1859.67V1959.72L675.7 1959.97L637.17 2000.7L610.18 1994.98L589.87 1919.26L589.22 1916.84H594.94L589.22 1798.68L505.36 1458.77L505.61 1463.45L516.93 1679.67L544.82 1769.61L577.28 1918.8H580.26L601.91 1994.98V2004.4H592.19L485.04 1954.15L475 1886.87L474.96 1892.61L474.66 1938.8H471.06V1864.56C468.7 1852.51 466.57 1844 465.06 1842.56L470.33 1798.68L468.39 1754.01L396.96 1458.77L406.51 1318.98L331.48 1299.88V1032.51L316.47 859.268L376.5 726.948L461.07 634.188V594.638L434.09 506.438L416.97 485.398L422.31 479.218L403.78 460.948L403.37 461.358L225.08 642.378H180.06L114.59 405.018L113.57 405.408L75.03 420.028L36.83 440.488L36.42 440.168L0 411.848L17.73 383.198L84.17 354.718L84.58 354.548L145.96 369.558L224.8 539.458L225.08 540.068L365.58 346.368L415.41 326.098L415.14 325.898L445.48 313.558L460.1 236.428L461.07 234.518L556.56 201.778L589.3 212.688L662.96 194.958H724.34L870.3 325.908L870.24 325.738L869.99 324.958L818.13 166.848L819.76 164.578L817.99 164.668L817.6 164.688L806.51 119.328L806.17 113.958L805.04 96.4083L820.41 73.8783L866.37 6.48828L884.07 7.29828L908.71 58.7583L911.66 64.8883L900.5 85.7083L867.26 147.738L866.12 152.308L866.14 152.378L870.3 164.938L975.34 430.948L930.32 460.948L724.34 325.908Z" fill="#CE002C"/>
<path d="M819.76 164.578L818.13 166.848L817.6 164.688L817.99 164.668L819.76 164.578Z" fill="#AD312F"/>
<path d="M883.268 149.249L795.066 189.277L803.22 207.244L891.422 167.215L883.268 149.249Z" fill="#FDFDFD"/>
</g>
<defs>
<clipPath id="clip0_1691_35">
<rect width="975.34" height="2004.4" fill="white"/>
</clipPath>
</defs>
</svg>
