<svg width="318" height="475" viewBox="0 0 318 475" fill="none" xmlns="http://www.w3.org/2000/svg">
<path d="M166.134 55.1968L155.007 42.2821L119.279 38.1729L106.394 42.2821H82.3809L67.153 49.3257V55.1968L53.4564 86.8938L45.53 103.33L35.1045 127.983L80.8119 160.199L78.8315 177.457L91.2799 179.154L94.2703 163.202L91.2799 157.087L59.5937 118.356L65.8654 110.03L82.3809 84.27L87.6521 86.8938V112.134L97.6089 163.202V207.814L82.3809 234.228L40.7969 297.623L63.0532 301.145L51.925 324.625L33.183 439.674L12.6838 456.11L0.339203 460.219V474.489H16.1528L26.7404 470.785L55.0485 463.154V456.11L63.0532 416.782L82.3809 342.821L97.6089 308.776H134.507V342.821L118.108 431.457L138.022 470.785L151.492 467.263L154.421 460.219L143.293 431.457L146.807 402.694L170.82 328.734V301.145L212.404 294.101L205.961 234.228L191.905 163.202L176.677 141.484L166.134 133.266L170.82 112.134L187.805 108.025V103.33L248.131 136.788L288.544 55.1968L304.943 24.673L296.158 4.71484H288.544L274.487 29.9559V55.1968L237.589 112.134L202.447 82.785L205.961 76.9151L166.134 55.1968Z" fill="white"/>
<rect x="256.496" y="50.6367" width="47.3492" height="5.41697" transform="rotate(26.3684 256.496 50.6367)" fill="#BC0123"/>
<rect x="289.436" y="11.707" width="28.2821" height="5.41697" transform="rotate(-23.1487 289.436 11.707)" fill="white"/>
</svg>
