<svg width="331" height="385" viewBox="0 0 331 385" fill="none" xmlns="http://www.w3.org/2000/svg">
<path d="M330.134 2.01006C324.634 8.56006 319.213 15.1001 313.713 21.5701C277.653 64.0601 241.193 106.22 205.653 149.11C184.053 175.17 173.243 205.29 174.973 239.78C176.623 272.79 176.863 305.84 177.903 338.85C178.423 357.04 182.283 361.7 199.953 365.23C217.223 368.68 234.243 373.5 251.913 375.23C255.603 375.59 260.993 376.43 260.953 381.37C260.953 382.66 260.674 383.54 260.194 384.22H70.4135C69.9335 383.54 69.6535 382.65 69.6535 381.37C69.6135 376.43 74.9935 375.59 78.6935 375.23C96.3635 373.5 113.393 368.68 130.653 365.23C148.323 361.7 152.173 357.04 152.703 338.85C153.743 305.84 153.994 272.79 155.634 239.78C157.364 205.29 146.553 175.17 124.953 149.11C89.4135 106.22 52.9535 64.0601 16.8935 21.5701C11.3935 15.1001 5.97349 8.56006 0.47349 2.01006C0.11349 1.53006 0.433489 0.720058 0.753489 0.400058C1.03349 0.120058 2.0835 -0.0399416 2.3635 0.240058C8.2235 6.34006 14.0935 12.4101 19.9135 18.5101C57.9435 58.3101 95.7335 98.34 134.114 137.77C144.314 148.21 154.834 153.59 165.314 153.99C175.794 153.59 186.314 148.21 196.514 137.77C234.904 98.34 272.693 58.3001 310.713 18.5101C316.533 12.4101 322.404 6.34006 328.264 0.240058C328.544 -0.0399416 329.594 0.120058 329.874 0.400058C330.194 0.720058 330.513 1.52006 330.153 2.01006H330.134Z" fill="white"/>
<path d="M229.484 97.3594C226.614 101.539 222.684 104.269 219.294 107.299C206.964 118.459 194.494 129.529 181.884 140.469C176.474 145.169 171.014 147.679 165.554 148.019H165.034C159.574 147.679 154.113 145.169 148.703 140.469C136.093 129.529 123.624 118.459 111.294 107.299C107.904 104.269 103.974 101.539 101.104 97.3594H229.484Z" fill="white"/>
</svg>
