<svg width="94" height="94" viewBox="0 0 94 94" fill="none" xmlns="http://www.w3.org/2000/svg">
<path d="M47 0.980469C21.5337 0.980469 0.980469 21.5337 0.980469 47C0.980469 72.4663 21.5337 93.0195 47 93.0195C72.4663 93.0195 93.0195 72.4663 93.0195 47C93.0195 21.5337 72.4663 0.980469 47 0.980469ZM47 5.01953C70.3017 5.01953 88.9805 23.6983 88.9805 47C88.9805 70.3017 70.3017 88.9805 47 88.9805C23.6983 88.9805 5.01953 70.3017 5.01953 47C5.01953 23.6983 23.6983 5.01953 47 5.01953ZM40.8672 25C29.0017 25 20.0727 27.0549 19.6367 27.1562H19.6328V27.1602C16.4311 27.9077 14.4119 31.1587 15.1562 34.3594C15.9006 37.563 19.1511 39.5771 22.3516 38.8438H22.3672L22.3789 38.8398C22.1517 38.8953 22.4786 38.8161 22.7188 38.7656C22.9589 38.7152 23.3136 38.6452 23.7734 38.5586C24.6932 38.3853 26.0284 38.1527 27.6914 37.9219C31.0174 37.4602 35.6514 37 40.8672 37H40.9922C49.618 37.0118 62.0128 38.3356 71.9609 44.1758H71.9648V44.1797C72.9097 44.7306 73.9631 45 74.9961 45C77.0542 45 79.0656 43.9252 80.1758 42.0352C81.8408 39.1996 80.8759 35.4912 78.0391 33.8242C65.5527 26.4935 51.0178 25.0143 41.0078 25H40.8672ZM40.8672 29H41.0078C50.6177 29.014 64.5034 30.5169 76.0117 37.2734C76.9869 37.8465 77.2975 39.0393 76.7266 40.0117C76.3448 40.6617 75.682 41 74.9961 41C74.6558 41 74.3168 40.9163 73.9883 40.7266L73.9805 40.7227C63.0262 34.2949 50.0082 33.0123 40.9961 33H40.8672C35.4169 33 30.6125 33.4796 27.1445 33.9609C25.4105 34.2016 24.008 34.4409 23.0312 34.625C22.5429 34.717 22.1609 34.7956 21.8945 34.8516C21.6442 34.9042 21.6621 34.8966 21.4609 34.9453C20.3494 35.2 19.3065 34.5535 19.0508 33.4531C18.7954 32.355 19.4429 31.3125 20.5391 31.0547C20.843 30.984 29.4647 29 40.8672 29ZM40.9844 41.0039C35.9717 41.0459 31.644 41.5143 28.4844 41.9961C25.3248 42.4779 23.5301 42.9136 22.9531 43.0781C20.0906 43.8898 18.3942 46.9236 19.207 49.7891C20.0225 52.6574 23.0557 54.3454 25.918 53.5312L25.9297 53.5273H25.9375C25.9894 53.5151 26.0704 53.4962 26.1758 53.4727C26.3865 53.4255 26.6974 53.3617 27.0977 53.2812C27.8981 53.1204 29.0521 52.9031 30.4805 52.6875C33.3372 52.2562 37.2849 51.8202 41.6445 51.7812C49.371 51.7131 58.1355 52.8486 66.6875 58.1758C67.5793 58.7355 68.5855 59.0039 69.5625 59.0039C71.374 59.0039 73.1555 58.0853 74.1797 56.4453C75.756 53.9175 74.9707 50.5311 72.4414 48.957C61.6721 42.2476 50.1213 40.9282 40.9844 41.0039ZM41.0195 45C49.7426 44.9277 60.4494 46.197 70.3281 52.3516C71.0189 52.7815 71.2168 53.636 70.7852 54.3281C70.5054 54.7761 70.043 55.0039 69.5625 55.0039C69.2995 55.0039 69.0487 54.9373 68.8125 54.7891L68.8086 54.7852C59.4261 48.9389 49.7615 47.7094 41.6094 47.7812C37.005 47.8223 32.8816 48.2816 29.8828 48.7344C28.3834 48.9607 27.1666 49.187 26.3086 49.3594C25.8796 49.4456 25.5404 49.5167 25.3008 49.5703C25.181 49.5971 25.0865 49.62 25.0156 49.6367C24.9447 49.6535 25.0565 49.6171 24.8047 49.6914L24.8242 49.6836C24.0585 49.9014 23.2752 49.471 23.0547 48.6953C22.8319 47.9098 23.2594 47.1474 24.043 46.9258H24.0469C24.0239 46.9324 26.0815 46.4074 29.0859 45.9492C32.0903 45.4911 36.2382 45.04 41.0195 45ZM42 55.0039C33.2822 55.0059 26.8286 57.1248 26.418 57.2617C23.82 58.1262 22.3922 60.989 23.2578 63.5859C24.1238 66.1839 26.9867 67.6254 29.5898 66.7422L29.5586 66.7539C29.759 66.6895 29.8776 66.6476 30.4844 66.4844C31.0911 66.3212 31.9836 66.1025 33.0977 65.8828C35.3258 65.4434 38.4497 65.0049 42 65.0039C50.6739 65.002 56.598 67.079 61.2266 70.1641V70.1602C62.0741 70.7263 63.0465 71.0039 63.9961 71.0039C65.6094 71.0039 67.2056 70.2069 68.1602 68.7734C69.6773 66.4961 69.0496 63.3634 66.7734 61.8438C59.483 56.9842 51.2802 54.9998 42 55.0039ZM42 59.0039C50.7198 59.0001 57.9891 60.7954 64.5547 65.1719C65.0313 65.4928 65.1501 66.0812 64.832 66.5586C64.6306 66.8611 64.3228 67.0039 63.9961 67.0039C63.8017 67.0039 63.6218 66.9538 63.4453 66.8359V66.832C58.1778 63.3212 51.3261 61.0018 42 61.0039C38.1223 61.005 34.7511 61.4784 32.3242 61.957C31.1108 62.1963 30.1304 62.4368 29.4453 62.6211C28.7602 62.8054 28.1636 63.0007 28.3359 62.9453L28.3203 62.9492L28.3047 62.9531C27.7718 63.1339 27.2328 62.8664 27.0508 62.3203C26.8688 61.7742 27.1395 61.2354 27.6836 61.0547C27.801 61.0156 33.9378 59.0058 42 59.0039Z" fill="white"/>
</svg>
